G04 EAGLE Gerber RS-274X export*
G75*
%MOMM*%
%FSLAX34Y34*%
%LPD*%
%INSilkscreen Top*%
%IPPOS*%
%AMOC8*
5,1,8,0,0,1.08239X$1,22.5*%
G01*
%ADD10C,0.101600*%
%ADD11C,0.127000*%
%ADD12C,0.152400*%
%ADD13R,0.508000X0.381000*%
%ADD14R,0.381000X0.508000*%
%ADD15C,0.050800*%
%ADD16C,0.203200*%


D10*
X95758Y818652D02*
X95758Y816703D01*
X99656Y812805D01*
X103554Y816703D01*
X103554Y818652D01*
X99656Y812805D02*
X99656Y806958D01*
X107452Y808907D02*
X107452Y818652D01*
X107452Y808907D02*
X109401Y806958D01*
X113299Y806958D01*
X115248Y808907D01*
X115248Y818652D01*
X124993Y818652D02*
X126942Y816703D01*
X124993Y818652D02*
X121095Y818652D01*
X119146Y816703D01*
X119146Y814754D01*
X121095Y812805D01*
X124993Y812805D01*
X126942Y810856D01*
X126942Y808907D01*
X124993Y806958D01*
X121095Y806958D01*
X119146Y808907D01*
X130840Y808907D02*
X130840Y814754D01*
X130840Y808907D02*
X132789Y806958D01*
X138636Y806958D01*
X138636Y805009D02*
X138636Y814754D01*
X138636Y805009D02*
X136687Y803060D01*
X134738Y803060D01*
X142534Y806958D02*
X142534Y814754D01*
X148381Y814754D01*
X150330Y812805D01*
X150330Y806958D01*
X156177Y808907D02*
X156177Y816703D01*
X156177Y808907D02*
X158126Y806958D01*
X158126Y814754D02*
X154228Y814754D01*
X162024Y818652D02*
X162024Y806958D01*
X162024Y812805D02*
X163973Y814754D01*
X167871Y814754D01*
X169820Y812805D01*
X169820Y806958D01*
X95758Y799602D02*
X95758Y787908D01*
X99656Y795704D02*
X95758Y799602D01*
X99656Y795704D02*
X103554Y799602D01*
X103554Y787908D01*
X107452Y795704D02*
X109401Y795704D01*
X109401Y787908D01*
X107452Y787908D02*
X111350Y787908D01*
X109401Y799602D02*
X109401Y801551D01*
X115248Y795704D02*
X115248Y787908D01*
X115248Y795704D02*
X121095Y795704D01*
X123044Y793755D01*
X123044Y787908D01*
X126942Y795704D02*
X128891Y795704D01*
X128891Y787908D01*
X126942Y787908D02*
X130840Y787908D01*
X128891Y799602D02*
X128891Y801551D01*
X134738Y799602D02*
X134738Y787908D01*
X138636Y795704D02*
X134738Y799602D01*
X138636Y795704D02*
X142534Y799602D01*
X142534Y787908D01*
X148381Y787908D02*
X152279Y787908D01*
X154228Y789857D01*
X154228Y793755D01*
X152279Y795704D01*
X148381Y795704D01*
X146432Y793755D01*
X146432Y789857D01*
X148381Y787908D01*
X160075Y787908D02*
X163973Y787908D01*
X165922Y789857D01*
X165922Y793755D01*
X163973Y795704D01*
X160075Y795704D01*
X158126Y793755D01*
X158126Y789857D01*
X160075Y787908D01*
X173718Y784010D02*
X175667Y784010D01*
X177616Y785959D01*
X177616Y795704D01*
X171769Y795704D01*
X169820Y793755D01*
X169820Y789857D01*
X171769Y787908D01*
X177616Y787908D01*
X193208Y791806D02*
X193208Y799602D01*
X193208Y791806D02*
X197106Y787908D01*
X201004Y791806D01*
X201004Y799602D01*
X210749Y799602D02*
X212698Y797653D01*
X210749Y799602D02*
X206851Y799602D01*
X204902Y797653D01*
X204902Y789857D01*
X206851Y787908D01*
X210749Y787908D01*
X212698Y789857D01*
X216596Y787908D02*
X216596Y799602D01*
X224392Y799602D01*
X220494Y793755D02*
X216596Y793755D01*
X95758Y780552D02*
X95758Y768858D01*
X101605Y768858D01*
X103554Y770807D01*
X103554Y774705D01*
X101605Y776654D01*
X95758Y776654D01*
X107452Y776654D02*
X107452Y770807D01*
X109401Y768858D01*
X115248Y768858D01*
X115248Y766909D02*
X115248Y776654D01*
X115248Y766909D02*
X113299Y764960D01*
X111350Y764960D01*
X136687Y780552D02*
X138636Y778603D01*
X136687Y780552D02*
X132789Y780552D01*
X130840Y778603D01*
X130840Y770807D01*
X132789Y768858D01*
X136687Y768858D01*
X138636Y770807D01*
X138636Y774705D01*
X134738Y774705D01*
X144483Y768858D02*
X148381Y768858D01*
X144483Y768858D02*
X142534Y770807D01*
X142534Y774705D01*
X144483Y776654D01*
X148381Y776654D01*
X150330Y774705D01*
X150330Y772756D01*
X142534Y772756D01*
X154228Y768858D02*
X154228Y776654D01*
X154228Y772756D02*
X158126Y776654D01*
X160075Y776654D01*
X163973Y780552D02*
X163973Y768858D01*
X169820Y768858D01*
X171769Y770807D01*
X171769Y774705D01*
X169820Y776654D01*
X163973Y776654D01*
X175667Y768858D02*
X181514Y768858D01*
X183463Y770807D01*
X181514Y772756D01*
X177616Y772756D01*
X175667Y774705D01*
X177616Y776654D01*
X183463Y776654D01*
X189310Y778603D02*
X189310Y770807D01*
X191259Y768858D01*
X191259Y776654D02*
X187361Y776654D01*
X197106Y768858D02*
X201004Y768858D01*
X197106Y768858D02*
X195157Y770807D01*
X195157Y774705D01*
X197106Y776654D01*
X201004Y776654D01*
X202953Y774705D01*
X202953Y772756D01*
X195157Y772756D01*
X206851Y768858D02*
X206851Y776654D01*
X206851Y772756D02*
X210749Y776654D01*
X212698Y776654D01*
D11*
X353060Y184150D02*
X353068Y184836D01*
X353094Y185521D01*
X353136Y186205D01*
X353195Y186889D01*
X353270Y187570D01*
X353362Y188250D01*
X353471Y188927D01*
X353597Y189601D01*
X353739Y190272D01*
X353897Y190939D01*
X354072Y191602D01*
X354263Y192261D01*
X354470Y192914D01*
X354693Y193563D01*
X354932Y194205D01*
X355187Y194842D01*
X355457Y195472D01*
X355743Y196096D01*
X356043Y196712D01*
X356359Y197321D01*
X356690Y197922D01*
X357035Y198514D01*
X357395Y199098D01*
X357769Y199673D01*
X358157Y200238D01*
X358558Y200794D01*
X358974Y201340D01*
X359402Y201875D01*
X359844Y202400D01*
X360298Y202913D01*
X360765Y203416D01*
X361243Y203907D01*
X361734Y204385D01*
X362237Y204852D01*
X362750Y205306D01*
X363275Y205748D01*
X363810Y206176D01*
X364356Y206592D01*
X364912Y206993D01*
X365477Y207381D01*
X366052Y207755D01*
X366636Y208115D01*
X367228Y208460D01*
X367829Y208791D01*
X368438Y209107D01*
X369054Y209407D01*
X369678Y209693D01*
X370308Y209963D01*
X370945Y210218D01*
X371587Y210457D01*
X372236Y210680D01*
X372889Y210887D01*
X373548Y211078D01*
X374211Y211253D01*
X374878Y211411D01*
X375549Y211553D01*
X376223Y211679D01*
X376900Y211788D01*
X377580Y211880D01*
X378261Y211955D01*
X378945Y212014D01*
X379629Y212056D01*
X380314Y212082D01*
X381000Y212090D01*
X381686Y212082D01*
X382371Y212056D01*
X383055Y212014D01*
X383739Y211955D01*
X384420Y211880D01*
X385100Y211788D01*
X385777Y211679D01*
X386451Y211553D01*
X387122Y211411D01*
X387789Y211253D01*
X388452Y211078D01*
X389111Y210887D01*
X389764Y210680D01*
X390413Y210457D01*
X391055Y210218D01*
X391692Y209963D01*
X392322Y209693D01*
X392946Y209407D01*
X393562Y209107D01*
X394171Y208791D01*
X394772Y208460D01*
X395364Y208115D01*
X395948Y207755D01*
X396523Y207381D01*
X397088Y206993D01*
X397644Y206592D01*
X398190Y206176D01*
X398725Y205748D01*
X399250Y205306D01*
X399763Y204852D01*
X400266Y204385D01*
X400757Y203907D01*
X401235Y203416D01*
X401702Y202913D01*
X402156Y202400D01*
X402598Y201875D01*
X403026Y201340D01*
X403442Y200794D01*
X403843Y200238D01*
X404231Y199673D01*
X404605Y199098D01*
X404965Y198514D01*
X405310Y197922D01*
X405641Y197321D01*
X405957Y196712D01*
X406257Y196096D01*
X406543Y195472D01*
X406813Y194842D01*
X407068Y194205D01*
X407307Y193563D01*
X407530Y192914D01*
X407737Y192261D01*
X407928Y191602D01*
X408103Y190939D01*
X408261Y190272D01*
X408403Y189601D01*
X408529Y188927D01*
X408638Y188250D01*
X408730Y187570D01*
X408805Y186889D01*
X408864Y186205D01*
X408906Y185521D01*
X408932Y184836D01*
X408940Y184150D01*
X408932Y183464D01*
X408906Y182779D01*
X408864Y182095D01*
X408805Y181411D01*
X408730Y180730D01*
X408638Y180050D01*
X408529Y179373D01*
X408403Y178699D01*
X408261Y178028D01*
X408103Y177361D01*
X407928Y176698D01*
X407737Y176039D01*
X407530Y175386D01*
X407307Y174737D01*
X407068Y174095D01*
X406813Y173458D01*
X406543Y172828D01*
X406257Y172204D01*
X405957Y171588D01*
X405641Y170979D01*
X405310Y170378D01*
X404965Y169786D01*
X404605Y169202D01*
X404231Y168627D01*
X403843Y168062D01*
X403442Y167506D01*
X403026Y166960D01*
X402598Y166425D01*
X402156Y165900D01*
X401702Y165387D01*
X401235Y164884D01*
X400757Y164393D01*
X400266Y163915D01*
X399763Y163448D01*
X399250Y162994D01*
X398725Y162552D01*
X398190Y162124D01*
X397644Y161708D01*
X397088Y161307D01*
X396523Y160919D01*
X395948Y160545D01*
X395364Y160185D01*
X394772Y159840D01*
X394171Y159509D01*
X393562Y159193D01*
X392946Y158893D01*
X392322Y158607D01*
X391692Y158337D01*
X391055Y158082D01*
X390413Y157843D01*
X389764Y157620D01*
X389111Y157413D01*
X388452Y157222D01*
X387789Y157047D01*
X387122Y156889D01*
X386451Y156747D01*
X385777Y156621D01*
X385100Y156512D01*
X384420Y156420D01*
X383739Y156345D01*
X383055Y156286D01*
X382371Y156244D01*
X381686Y156218D01*
X381000Y156210D01*
X380314Y156218D01*
X379629Y156244D01*
X378945Y156286D01*
X378261Y156345D01*
X377580Y156420D01*
X376900Y156512D01*
X376223Y156621D01*
X375549Y156747D01*
X374878Y156889D01*
X374211Y157047D01*
X373548Y157222D01*
X372889Y157413D01*
X372236Y157620D01*
X371587Y157843D01*
X370945Y158082D01*
X370308Y158337D01*
X369678Y158607D01*
X369054Y158893D01*
X368438Y159193D01*
X367829Y159509D01*
X367228Y159840D01*
X366636Y160185D01*
X366052Y160545D01*
X365477Y160919D01*
X364912Y161307D01*
X364356Y161708D01*
X363810Y162124D01*
X363275Y162552D01*
X362750Y162994D01*
X362237Y163448D01*
X361734Y163915D01*
X361243Y164393D01*
X360765Y164884D01*
X360298Y165387D01*
X359844Y165900D01*
X359402Y166425D01*
X358974Y166960D01*
X358558Y167506D01*
X358157Y168062D01*
X357769Y168627D01*
X357395Y169202D01*
X357035Y169786D01*
X356690Y170378D01*
X356359Y170979D01*
X356043Y171588D01*
X355743Y172204D01*
X355457Y172828D01*
X355187Y173458D01*
X354932Y174095D01*
X354693Y174737D01*
X354470Y175386D01*
X354263Y176039D01*
X354072Y176698D01*
X353897Y177361D01*
X353739Y178028D01*
X353597Y178699D01*
X353471Y179373D01*
X353362Y180050D01*
X353270Y180730D01*
X353195Y181411D01*
X353136Y182095D01*
X353094Y182779D01*
X353068Y183464D01*
X353060Y184150D01*
X10160Y857250D02*
X10168Y857936D01*
X10194Y858621D01*
X10236Y859305D01*
X10295Y859989D01*
X10370Y860670D01*
X10462Y861350D01*
X10571Y862027D01*
X10697Y862701D01*
X10839Y863372D01*
X10997Y864039D01*
X11172Y864702D01*
X11363Y865361D01*
X11570Y866014D01*
X11793Y866663D01*
X12032Y867305D01*
X12287Y867942D01*
X12557Y868572D01*
X12843Y869196D01*
X13143Y869812D01*
X13459Y870421D01*
X13790Y871022D01*
X14135Y871614D01*
X14495Y872198D01*
X14869Y872773D01*
X15257Y873338D01*
X15658Y873894D01*
X16074Y874440D01*
X16502Y874975D01*
X16944Y875500D01*
X17398Y876013D01*
X17865Y876516D01*
X18343Y877007D01*
X18834Y877485D01*
X19337Y877952D01*
X19850Y878406D01*
X20375Y878848D01*
X20910Y879276D01*
X21456Y879692D01*
X22012Y880093D01*
X22577Y880481D01*
X23152Y880855D01*
X23736Y881215D01*
X24328Y881560D01*
X24929Y881891D01*
X25538Y882207D01*
X26154Y882507D01*
X26778Y882793D01*
X27408Y883063D01*
X28045Y883318D01*
X28687Y883557D01*
X29336Y883780D01*
X29989Y883987D01*
X30648Y884178D01*
X31311Y884353D01*
X31978Y884511D01*
X32649Y884653D01*
X33323Y884779D01*
X34000Y884888D01*
X34680Y884980D01*
X35361Y885055D01*
X36045Y885114D01*
X36729Y885156D01*
X37414Y885182D01*
X38100Y885190D01*
X38786Y885182D01*
X39471Y885156D01*
X40155Y885114D01*
X40839Y885055D01*
X41520Y884980D01*
X42200Y884888D01*
X42877Y884779D01*
X43551Y884653D01*
X44222Y884511D01*
X44889Y884353D01*
X45552Y884178D01*
X46211Y883987D01*
X46864Y883780D01*
X47513Y883557D01*
X48155Y883318D01*
X48792Y883063D01*
X49422Y882793D01*
X50046Y882507D01*
X50662Y882207D01*
X51271Y881891D01*
X51872Y881560D01*
X52464Y881215D01*
X53048Y880855D01*
X53623Y880481D01*
X54188Y880093D01*
X54744Y879692D01*
X55290Y879276D01*
X55825Y878848D01*
X56350Y878406D01*
X56863Y877952D01*
X57366Y877485D01*
X57857Y877007D01*
X58335Y876516D01*
X58802Y876013D01*
X59256Y875500D01*
X59698Y874975D01*
X60126Y874440D01*
X60542Y873894D01*
X60943Y873338D01*
X61331Y872773D01*
X61705Y872198D01*
X62065Y871614D01*
X62410Y871022D01*
X62741Y870421D01*
X63057Y869812D01*
X63357Y869196D01*
X63643Y868572D01*
X63913Y867942D01*
X64168Y867305D01*
X64407Y866663D01*
X64630Y866014D01*
X64837Y865361D01*
X65028Y864702D01*
X65203Y864039D01*
X65361Y863372D01*
X65503Y862701D01*
X65629Y862027D01*
X65738Y861350D01*
X65830Y860670D01*
X65905Y859989D01*
X65964Y859305D01*
X66006Y858621D01*
X66032Y857936D01*
X66040Y857250D01*
X66032Y856564D01*
X66006Y855879D01*
X65964Y855195D01*
X65905Y854511D01*
X65830Y853830D01*
X65738Y853150D01*
X65629Y852473D01*
X65503Y851799D01*
X65361Y851128D01*
X65203Y850461D01*
X65028Y849798D01*
X64837Y849139D01*
X64630Y848486D01*
X64407Y847837D01*
X64168Y847195D01*
X63913Y846558D01*
X63643Y845928D01*
X63357Y845304D01*
X63057Y844688D01*
X62741Y844079D01*
X62410Y843478D01*
X62065Y842886D01*
X61705Y842302D01*
X61331Y841727D01*
X60943Y841162D01*
X60542Y840606D01*
X60126Y840060D01*
X59698Y839525D01*
X59256Y839000D01*
X58802Y838487D01*
X58335Y837984D01*
X57857Y837493D01*
X57366Y837015D01*
X56863Y836548D01*
X56350Y836094D01*
X55825Y835652D01*
X55290Y835224D01*
X54744Y834808D01*
X54188Y834407D01*
X53623Y834019D01*
X53048Y833645D01*
X52464Y833285D01*
X51872Y832940D01*
X51271Y832609D01*
X50662Y832293D01*
X50046Y831993D01*
X49422Y831707D01*
X48792Y831437D01*
X48155Y831182D01*
X47513Y830943D01*
X46864Y830720D01*
X46211Y830513D01*
X45552Y830322D01*
X44889Y830147D01*
X44222Y829989D01*
X43551Y829847D01*
X42877Y829721D01*
X42200Y829612D01*
X41520Y829520D01*
X40839Y829445D01*
X40155Y829386D01*
X39471Y829344D01*
X38786Y829318D01*
X38100Y829310D01*
X37414Y829318D01*
X36729Y829344D01*
X36045Y829386D01*
X35361Y829445D01*
X34680Y829520D01*
X34000Y829612D01*
X33323Y829721D01*
X32649Y829847D01*
X31978Y829989D01*
X31311Y830147D01*
X30648Y830322D01*
X29989Y830513D01*
X29336Y830720D01*
X28687Y830943D01*
X28045Y831182D01*
X27408Y831437D01*
X26778Y831707D01*
X26154Y831993D01*
X25538Y832293D01*
X24929Y832609D01*
X24328Y832940D01*
X23736Y833285D01*
X23152Y833645D01*
X22577Y834019D01*
X22012Y834407D01*
X21456Y834808D01*
X20910Y835224D01*
X20375Y835652D01*
X19850Y836094D01*
X19337Y836548D01*
X18834Y837015D01*
X18343Y837493D01*
X17865Y837984D01*
X17398Y838487D01*
X16944Y839000D01*
X16502Y839525D01*
X16074Y840060D01*
X15658Y840606D01*
X15257Y841162D01*
X14869Y841727D01*
X14495Y842302D01*
X14135Y842886D01*
X13790Y843478D01*
X13459Y844079D01*
X13143Y844688D01*
X12843Y845304D01*
X12557Y845928D01*
X12287Y846558D01*
X12032Y847195D01*
X11793Y847837D01*
X11570Y848486D01*
X11363Y849139D01*
X11172Y849798D01*
X10997Y850461D01*
X10839Y851128D01*
X10697Y851799D01*
X10571Y852473D01*
X10462Y853150D01*
X10370Y853830D01*
X10295Y854511D01*
X10236Y855195D01*
X10194Y855879D01*
X10168Y856564D01*
X10160Y857250D01*
D12*
X205740Y313690D02*
X205742Y313590D01*
X205748Y313491D01*
X205758Y313391D01*
X205771Y313293D01*
X205789Y313194D01*
X205810Y313097D01*
X205835Y313001D01*
X205864Y312905D01*
X205897Y312811D01*
X205933Y312718D01*
X205973Y312627D01*
X206017Y312537D01*
X206064Y312449D01*
X206114Y312363D01*
X206168Y312279D01*
X206225Y312197D01*
X206285Y312118D01*
X206349Y312040D01*
X206415Y311966D01*
X206484Y311894D01*
X206556Y311825D01*
X206630Y311759D01*
X206708Y311695D01*
X206787Y311635D01*
X206869Y311578D01*
X206953Y311524D01*
X207039Y311474D01*
X207127Y311427D01*
X207217Y311383D01*
X207308Y311343D01*
X207401Y311307D01*
X207495Y311274D01*
X207591Y311245D01*
X207687Y311220D01*
X207784Y311199D01*
X207883Y311181D01*
X207981Y311168D01*
X208081Y311158D01*
X208180Y311152D01*
X208280Y311150D01*
X223520Y311150D02*
X223620Y311152D01*
X223719Y311158D01*
X223819Y311168D01*
X223917Y311181D01*
X224016Y311199D01*
X224113Y311220D01*
X224209Y311245D01*
X224305Y311274D01*
X224399Y311307D01*
X224492Y311343D01*
X224583Y311383D01*
X224673Y311427D01*
X224761Y311474D01*
X224847Y311524D01*
X224931Y311578D01*
X225013Y311635D01*
X225092Y311695D01*
X225170Y311759D01*
X225244Y311825D01*
X225316Y311894D01*
X225385Y311966D01*
X225451Y312040D01*
X225515Y312118D01*
X225575Y312197D01*
X225632Y312279D01*
X225686Y312363D01*
X225736Y312449D01*
X225783Y312537D01*
X225827Y312627D01*
X225867Y312718D01*
X225903Y312811D01*
X225936Y312905D01*
X225965Y313001D01*
X225990Y313097D01*
X226011Y313194D01*
X226029Y313293D01*
X226042Y313391D01*
X226052Y313491D01*
X226058Y313590D01*
X226060Y313690D01*
X226060Y359410D02*
X226058Y359510D01*
X226052Y359609D01*
X226042Y359709D01*
X226029Y359807D01*
X226011Y359906D01*
X225990Y360003D01*
X225965Y360099D01*
X225936Y360195D01*
X225903Y360289D01*
X225867Y360382D01*
X225827Y360473D01*
X225783Y360563D01*
X225736Y360651D01*
X225686Y360737D01*
X225632Y360821D01*
X225575Y360903D01*
X225515Y360982D01*
X225451Y361060D01*
X225385Y361134D01*
X225316Y361206D01*
X225244Y361275D01*
X225170Y361341D01*
X225092Y361405D01*
X225013Y361465D01*
X224931Y361522D01*
X224847Y361576D01*
X224761Y361626D01*
X224673Y361673D01*
X224583Y361717D01*
X224492Y361757D01*
X224399Y361793D01*
X224305Y361826D01*
X224209Y361855D01*
X224113Y361880D01*
X224016Y361901D01*
X223917Y361919D01*
X223819Y361932D01*
X223719Y361942D01*
X223620Y361948D01*
X223520Y361950D01*
X208280Y361950D02*
X208180Y361948D01*
X208081Y361942D01*
X207981Y361932D01*
X207883Y361919D01*
X207784Y361901D01*
X207687Y361880D01*
X207591Y361855D01*
X207495Y361826D01*
X207401Y361793D01*
X207308Y361757D01*
X207217Y361717D01*
X207127Y361673D01*
X207039Y361626D01*
X206953Y361576D01*
X206869Y361522D01*
X206787Y361465D01*
X206708Y361405D01*
X206630Y361341D01*
X206556Y361275D01*
X206484Y361206D01*
X206415Y361134D01*
X206349Y361060D01*
X206285Y360982D01*
X206225Y360903D01*
X206168Y360821D01*
X206114Y360737D01*
X206064Y360651D01*
X206017Y360563D01*
X205973Y360473D01*
X205933Y360382D01*
X205897Y360289D01*
X205864Y360195D01*
X205835Y360099D01*
X205810Y360003D01*
X205789Y359906D01*
X205771Y359807D01*
X205758Y359709D01*
X205748Y359609D01*
X205742Y359510D01*
X205740Y359410D01*
X208280Y311150D02*
X223520Y311150D01*
X205740Y313690D02*
X205740Y317500D01*
X207010Y318770D01*
X226060Y317500D02*
X226060Y313690D01*
X226060Y317500D02*
X224790Y318770D01*
X207010Y354330D02*
X205740Y355600D01*
X207010Y354330D02*
X207010Y318770D01*
X224790Y354330D02*
X226060Y355600D01*
X224790Y354330D02*
X224790Y318770D01*
X205740Y355600D02*
X205740Y359410D01*
X226060Y359410D02*
X226060Y355600D01*
X223520Y361950D02*
X208280Y361950D01*
D13*
X215900Y363855D03*
X215900Y309245D03*
D10*
X219202Y328744D02*
X210304Y328744D01*
X210304Y333193D01*
X211787Y334676D01*
X214753Y334676D01*
X216236Y333193D01*
X216236Y328744D01*
X216236Y331710D02*
X219202Y334676D01*
X213270Y337865D02*
X210304Y340831D01*
X219202Y340831D01*
X219202Y337865D02*
X219202Y343797D01*
X210304Y346987D02*
X210304Y352918D01*
X211787Y352918D01*
X217719Y346987D01*
X219202Y346987D01*
D12*
X412750Y762000D02*
X412750Y774700D01*
X412750Y762000D02*
X406400Y755650D01*
X393700Y755650D01*
X387350Y762000D01*
X412750Y800100D02*
X406400Y806450D01*
X412750Y800100D02*
X412750Y787400D01*
X406400Y781050D01*
X393700Y781050D01*
X387350Y787400D01*
X387350Y800100D01*
X393700Y806450D01*
X406400Y781050D02*
X412750Y774700D01*
X393700Y781050D02*
X387350Y774700D01*
X387350Y762000D01*
X412750Y838200D02*
X412750Y850900D01*
X412750Y838200D02*
X406400Y831850D01*
X393700Y831850D01*
X387350Y838200D01*
X406400Y831850D02*
X412750Y825500D01*
X412750Y812800D01*
X406400Y806450D01*
X393700Y806450D01*
X387350Y812800D01*
X387350Y825500D01*
X393700Y831850D01*
X393700Y857250D02*
X406400Y857250D01*
X412750Y850900D01*
X393700Y857250D02*
X387350Y850900D01*
X387350Y838200D01*
X412750Y749300D02*
X412750Y736600D01*
X406400Y730250D01*
X393700Y730250D01*
X387350Y736600D01*
X406400Y755650D02*
X412750Y749300D01*
X393700Y755650D02*
X387350Y749300D01*
X387350Y736600D01*
D11*
X410208Y860903D02*
X412115Y862810D01*
X412115Y864716D01*
X410208Y866623D01*
X400675Y866623D01*
X400675Y864716D02*
X400675Y868530D01*
X400675Y872597D02*
X412115Y872597D01*
X400675Y872597D02*
X400675Y878317D01*
X402582Y880224D01*
X406395Y880224D01*
X408302Y878317D01*
X408302Y872597D01*
X404489Y884291D02*
X400675Y888104D01*
X412115Y888104D01*
X412115Y884291D02*
X412115Y891917D01*
D12*
X294640Y854710D02*
X294540Y854708D01*
X294441Y854702D01*
X294341Y854692D01*
X294243Y854679D01*
X294144Y854661D01*
X294047Y854640D01*
X293951Y854615D01*
X293855Y854586D01*
X293761Y854553D01*
X293668Y854517D01*
X293577Y854477D01*
X293487Y854433D01*
X293399Y854386D01*
X293313Y854336D01*
X293229Y854282D01*
X293147Y854225D01*
X293068Y854165D01*
X292990Y854101D01*
X292916Y854035D01*
X292844Y853966D01*
X292775Y853894D01*
X292709Y853820D01*
X292645Y853742D01*
X292585Y853663D01*
X292528Y853581D01*
X292474Y853497D01*
X292424Y853411D01*
X292377Y853323D01*
X292333Y853233D01*
X292293Y853142D01*
X292257Y853049D01*
X292224Y852955D01*
X292195Y852859D01*
X292170Y852763D01*
X292149Y852666D01*
X292131Y852567D01*
X292118Y852469D01*
X292108Y852369D01*
X292102Y852270D01*
X292100Y852170D01*
X292100Y836930D02*
X292102Y836830D01*
X292108Y836731D01*
X292118Y836631D01*
X292131Y836533D01*
X292149Y836434D01*
X292170Y836337D01*
X292195Y836241D01*
X292224Y836145D01*
X292257Y836051D01*
X292293Y835958D01*
X292333Y835867D01*
X292377Y835777D01*
X292424Y835689D01*
X292474Y835603D01*
X292528Y835519D01*
X292585Y835437D01*
X292645Y835358D01*
X292709Y835280D01*
X292775Y835206D01*
X292844Y835134D01*
X292916Y835065D01*
X292990Y834999D01*
X293068Y834935D01*
X293147Y834875D01*
X293229Y834818D01*
X293313Y834764D01*
X293399Y834714D01*
X293487Y834667D01*
X293577Y834623D01*
X293668Y834583D01*
X293761Y834547D01*
X293855Y834514D01*
X293951Y834485D01*
X294047Y834460D01*
X294144Y834439D01*
X294243Y834421D01*
X294341Y834408D01*
X294441Y834398D01*
X294540Y834392D01*
X294640Y834390D01*
X340360Y834390D02*
X340460Y834392D01*
X340559Y834398D01*
X340659Y834408D01*
X340757Y834421D01*
X340856Y834439D01*
X340953Y834460D01*
X341049Y834485D01*
X341145Y834514D01*
X341239Y834547D01*
X341332Y834583D01*
X341423Y834623D01*
X341513Y834667D01*
X341601Y834714D01*
X341687Y834764D01*
X341771Y834818D01*
X341853Y834875D01*
X341932Y834935D01*
X342010Y834999D01*
X342084Y835065D01*
X342156Y835134D01*
X342225Y835206D01*
X342291Y835280D01*
X342355Y835358D01*
X342415Y835437D01*
X342472Y835519D01*
X342526Y835603D01*
X342576Y835689D01*
X342623Y835777D01*
X342667Y835867D01*
X342707Y835958D01*
X342743Y836051D01*
X342776Y836145D01*
X342805Y836241D01*
X342830Y836337D01*
X342851Y836434D01*
X342869Y836533D01*
X342882Y836631D01*
X342892Y836731D01*
X342898Y836830D01*
X342900Y836930D01*
X342900Y852170D02*
X342898Y852270D01*
X342892Y852369D01*
X342882Y852469D01*
X342869Y852567D01*
X342851Y852666D01*
X342830Y852763D01*
X342805Y852859D01*
X342776Y852955D01*
X342743Y853049D01*
X342707Y853142D01*
X342667Y853233D01*
X342623Y853323D01*
X342576Y853411D01*
X342526Y853497D01*
X342472Y853581D01*
X342415Y853663D01*
X342355Y853742D01*
X342291Y853820D01*
X342225Y853894D01*
X342156Y853966D01*
X342084Y854035D01*
X342010Y854101D01*
X341932Y854165D01*
X341853Y854225D01*
X341771Y854282D01*
X341687Y854336D01*
X341601Y854386D01*
X341513Y854433D01*
X341423Y854477D01*
X341332Y854517D01*
X341239Y854553D01*
X341145Y854586D01*
X341049Y854615D01*
X340953Y854640D01*
X340856Y854661D01*
X340757Y854679D01*
X340659Y854692D01*
X340559Y854702D01*
X340460Y854708D01*
X340360Y854710D01*
X292100Y852170D02*
X292100Y836930D01*
X294640Y854710D02*
X298450Y854710D01*
X299720Y853440D01*
X298450Y834390D02*
X294640Y834390D01*
X298450Y834390D02*
X299720Y835660D01*
X335280Y853440D02*
X336550Y854710D01*
X335280Y853440D02*
X299720Y853440D01*
X335280Y835660D02*
X336550Y834390D01*
X335280Y835660D02*
X299720Y835660D01*
X336550Y854710D02*
X340360Y854710D01*
X340360Y834390D02*
X336550Y834390D01*
X342900Y836930D02*
X342900Y852170D01*
D14*
X344805Y844550D03*
X290195Y844550D03*
D10*
X298958Y847860D02*
X298958Y838962D01*
X298958Y847860D02*
X303407Y847860D01*
X304890Y846377D01*
X304890Y843411D01*
X303407Y841928D01*
X298958Y841928D01*
X301924Y841928D02*
X304890Y838962D01*
X308079Y846377D02*
X309562Y847860D01*
X312528Y847860D01*
X314011Y846377D01*
X314011Y844894D01*
X312528Y843411D01*
X311045Y843411D01*
X312528Y843411D02*
X314011Y841928D01*
X314011Y840445D01*
X312528Y838962D01*
X309562Y838962D01*
X308079Y840445D01*
X317201Y838962D02*
X323132Y838962D01*
X317201Y838962D02*
X323132Y844894D01*
X323132Y846377D01*
X321649Y847860D01*
X318684Y847860D01*
X317201Y846377D01*
D11*
X42150Y148900D02*
X12150Y148900D01*
X42150Y148900D02*
X72150Y148900D01*
X102150Y148900D01*
X12150Y148900D02*
X12150Y43900D01*
X59150Y43900D01*
X102150Y43900D01*
X102150Y148900D01*
X25527Y88900D02*
X25537Y89676D01*
X25565Y90452D01*
X25613Y91226D01*
X25679Y92000D01*
X25765Y92771D01*
X25869Y93540D01*
X25993Y94306D01*
X26135Y95069D01*
X26295Y95829D01*
X26475Y96584D01*
X26673Y97334D01*
X26889Y98080D01*
X27123Y98820D01*
X27376Y99553D01*
X27646Y100281D01*
X27934Y101002D01*
X28240Y101715D01*
X28563Y102421D01*
X28904Y103118D01*
X29261Y103807D01*
X29635Y104487D01*
X30026Y105157D01*
X30433Y105818D01*
X30856Y106469D01*
X31296Y107109D01*
X31750Y107738D01*
X32220Y108355D01*
X32705Y108961D01*
X33205Y109555D01*
X33719Y110137D01*
X34247Y110705D01*
X34789Y111261D01*
X35345Y111803D01*
X35913Y112331D01*
X36495Y112845D01*
X37089Y113345D01*
X37695Y113830D01*
X38312Y114300D01*
X38941Y114754D01*
X39581Y115194D01*
X40232Y115617D01*
X40893Y116024D01*
X41563Y116415D01*
X42243Y116789D01*
X42932Y117146D01*
X43629Y117487D01*
X44335Y117810D01*
X45048Y118116D01*
X45769Y118404D01*
X46497Y118674D01*
X47230Y118927D01*
X47970Y119161D01*
X48716Y119377D01*
X49466Y119575D01*
X50221Y119755D01*
X50981Y119915D01*
X51744Y120057D01*
X52510Y120181D01*
X53279Y120285D01*
X54050Y120371D01*
X54824Y120437D01*
X55598Y120485D01*
X56374Y120513D01*
X57150Y120523D01*
X57926Y120513D01*
X58702Y120485D01*
X59476Y120437D01*
X60250Y120371D01*
X61021Y120285D01*
X61790Y120181D01*
X62556Y120057D01*
X63319Y119915D01*
X64079Y119755D01*
X64834Y119575D01*
X65584Y119377D01*
X66330Y119161D01*
X67070Y118927D01*
X67803Y118674D01*
X68531Y118404D01*
X69252Y118116D01*
X69965Y117810D01*
X70671Y117487D01*
X71368Y117146D01*
X72057Y116789D01*
X72737Y116415D01*
X73407Y116024D01*
X74068Y115617D01*
X74719Y115194D01*
X75359Y114754D01*
X75988Y114300D01*
X76605Y113830D01*
X77211Y113345D01*
X77805Y112845D01*
X78387Y112331D01*
X78955Y111803D01*
X79511Y111261D01*
X80053Y110705D01*
X80581Y110137D01*
X81095Y109555D01*
X81595Y108961D01*
X82080Y108355D01*
X82550Y107738D01*
X83004Y107109D01*
X83444Y106469D01*
X83867Y105818D01*
X84274Y105157D01*
X84665Y104487D01*
X85039Y103807D01*
X85396Y103118D01*
X85737Y102421D01*
X86060Y101715D01*
X86366Y101002D01*
X86654Y100281D01*
X86924Y99553D01*
X87177Y98820D01*
X87411Y98080D01*
X87627Y97334D01*
X87825Y96584D01*
X88005Y95829D01*
X88165Y95069D01*
X88307Y94306D01*
X88431Y93540D01*
X88535Y92771D01*
X88621Y92000D01*
X88687Y91226D01*
X88735Y90452D01*
X88763Y89676D01*
X88773Y88900D01*
X88763Y88124D01*
X88735Y87348D01*
X88687Y86574D01*
X88621Y85800D01*
X88535Y85029D01*
X88431Y84260D01*
X88307Y83494D01*
X88165Y82731D01*
X88005Y81971D01*
X87825Y81216D01*
X87627Y80466D01*
X87411Y79720D01*
X87177Y78980D01*
X86924Y78247D01*
X86654Y77519D01*
X86366Y76798D01*
X86060Y76085D01*
X85737Y75379D01*
X85396Y74682D01*
X85039Y73993D01*
X84665Y73313D01*
X84274Y72643D01*
X83867Y71982D01*
X83444Y71331D01*
X83004Y70691D01*
X82550Y70062D01*
X82080Y69445D01*
X81595Y68839D01*
X81095Y68245D01*
X80581Y67663D01*
X80053Y67095D01*
X79511Y66539D01*
X78955Y65997D01*
X78387Y65469D01*
X77805Y64955D01*
X77211Y64455D01*
X76605Y63970D01*
X75988Y63500D01*
X75359Y63046D01*
X74719Y62606D01*
X74068Y62183D01*
X73407Y61776D01*
X72737Y61385D01*
X72057Y61011D01*
X71368Y60654D01*
X70671Y60313D01*
X69965Y59990D01*
X69252Y59684D01*
X68531Y59396D01*
X67803Y59126D01*
X67070Y58873D01*
X66330Y58639D01*
X65584Y58423D01*
X64834Y58225D01*
X64079Y58045D01*
X63319Y57885D01*
X62556Y57743D01*
X61790Y57619D01*
X61021Y57515D01*
X60250Y57429D01*
X59476Y57363D01*
X58702Y57315D01*
X57926Y57287D01*
X57150Y57277D01*
X56374Y57287D01*
X55598Y57315D01*
X54824Y57363D01*
X54050Y57429D01*
X53279Y57515D01*
X52510Y57619D01*
X51744Y57743D01*
X50981Y57885D01*
X50221Y58045D01*
X49466Y58225D01*
X48716Y58423D01*
X47970Y58639D01*
X47230Y58873D01*
X46497Y59126D01*
X45769Y59396D01*
X45048Y59684D01*
X44335Y59990D01*
X43629Y60313D01*
X42932Y60654D01*
X42243Y61011D01*
X41563Y61385D01*
X40893Y61776D01*
X40232Y62183D01*
X39581Y62606D01*
X38941Y63046D01*
X38312Y63500D01*
X37695Y63970D01*
X37089Y64455D01*
X36495Y64955D01*
X35913Y65469D01*
X35345Y65997D01*
X34789Y66539D01*
X34247Y67095D01*
X33719Y67663D01*
X33205Y68245D01*
X32705Y68839D01*
X32220Y69445D01*
X31750Y70062D01*
X31296Y70691D01*
X30856Y71331D01*
X30433Y71982D01*
X30026Y72643D01*
X29635Y73313D01*
X29261Y73993D01*
X28904Y74682D01*
X28563Y75379D01*
X28240Y76085D01*
X27934Y76798D01*
X27646Y77519D01*
X27376Y78247D01*
X27123Y78980D01*
X26889Y79720D01*
X26673Y80466D01*
X26475Y81216D01*
X26295Y81971D01*
X26135Y82731D01*
X25993Y83494D01*
X25869Y84260D01*
X25765Y85029D01*
X25679Y85800D01*
X25613Y86574D01*
X25565Y87348D01*
X25537Y88124D01*
X25527Y88900D01*
X42150Y128900D02*
X42150Y148900D01*
X42150Y128900D02*
X72150Y128900D01*
X72150Y148900D01*
X30243Y88900D02*
X30251Y89560D01*
X30275Y90220D01*
X30316Y90879D01*
X30373Y91537D01*
X30445Y92194D01*
X30534Y92848D01*
X30639Y93500D01*
X30760Y94149D01*
X30897Y94795D01*
X31049Y95438D01*
X31218Y96076D01*
X31402Y96711D01*
X31601Y97340D01*
X31816Y97965D01*
X32046Y98584D01*
X32291Y99197D01*
X32551Y99804D01*
X32826Y100404D01*
X33116Y100998D01*
X33420Y101584D01*
X33739Y102162D01*
X34071Y102733D01*
X34418Y103295D01*
X34778Y103849D01*
X35151Y104393D01*
X35538Y104928D01*
X35938Y105454D01*
X36351Y105970D01*
X36776Y106475D01*
X37213Y106970D01*
X37663Y107453D01*
X38124Y107926D01*
X38597Y108387D01*
X39080Y108837D01*
X39575Y109274D01*
X40080Y109699D01*
X40596Y110112D01*
X41122Y110512D01*
X41657Y110899D01*
X42201Y111272D01*
X42755Y111632D01*
X43317Y111979D01*
X43888Y112311D01*
X44466Y112630D01*
X45052Y112934D01*
X45646Y113224D01*
X46246Y113499D01*
X46853Y113759D01*
X47466Y114004D01*
X48085Y114234D01*
X48710Y114449D01*
X49339Y114648D01*
X49974Y114832D01*
X50612Y115001D01*
X51255Y115153D01*
X51901Y115290D01*
X52550Y115411D01*
X53202Y115516D01*
X53856Y115605D01*
X54513Y115677D01*
X55171Y115734D01*
X55830Y115775D01*
X56490Y115799D01*
X57150Y115807D01*
X57810Y115799D01*
X58470Y115775D01*
X59129Y115734D01*
X59787Y115677D01*
X60444Y115605D01*
X61098Y115516D01*
X61750Y115411D01*
X62399Y115290D01*
X63045Y115153D01*
X63688Y115001D01*
X64326Y114832D01*
X64961Y114648D01*
X65590Y114449D01*
X66215Y114234D01*
X66834Y114004D01*
X67447Y113759D01*
X68054Y113499D01*
X68654Y113224D01*
X69248Y112934D01*
X69834Y112630D01*
X70412Y112311D01*
X70983Y111979D01*
X71545Y111632D01*
X72099Y111272D01*
X72643Y110899D01*
X73178Y110512D01*
X73704Y110112D01*
X74220Y109699D01*
X74725Y109274D01*
X75220Y108837D01*
X75703Y108387D01*
X76176Y107926D01*
X76637Y107453D01*
X77087Y106970D01*
X77524Y106475D01*
X77949Y105970D01*
X78362Y105454D01*
X78762Y104928D01*
X79149Y104393D01*
X79522Y103849D01*
X79882Y103295D01*
X80229Y102733D01*
X80561Y102162D01*
X80880Y101584D01*
X81184Y100998D01*
X81474Y100404D01*
X81749Y99804D01*
X82009Y99197D01*
X82254Y98584D01*
X82484Y97965D01*
X82699Y97340D01*
X82898Y96711D01*
X83082Y96076D01*
X83251Y95438D01*
X83403Y94795D01*
X83540Y94149D01*
X83661Y93500D01*
X83766Y92848D01*
X83855Y92194D01*
X83927Y91537D01*
X83984Y90879D01*
X84025Y90220D01*
X84049Y89560D01*
X84057Y88900D01*
X84049Y88240D01*
X84025Y87580D01*
X83984Y86921D01*
X83927Y86263D01*
X83855Y85606D01*
X83766Y84952D01*
X83661Y84300D01*
X83540Y83651D01*
X83403Y83005D01*
X83251Y82362D01*
X83082Y81724D01*
X82898Y81089D01*
X82699Y80460D01*
X82484Y79835D01*
X82254Y79216D01*
X82009Y78603D01*
X81749Y77996D01*
X81474Y77396D01*
X81184Y76802D01*
X80880Y76216D01*
X80561Y75638D01*
X80229Y75067D01*
X79882Y74505D01*
X79522Y73951D01*
X79149Y73407D01*
X78762Y72872D01*
X78362Y72346D01*
X77949Y71830D01*
X77524Y71325D01*
X77087Y70830D01*
X76637Y70347D01*
X76176Y69874D01*
X75703Y69413D01*
X75220Y68963D01*
X74725Y68526D01*
X74220Y68101D01*
X73704Y67688D01*
X73178Y67288D01*
X72643Y66901D01*
X72099Y66528D01*
X71545Y66168D01*
X70983Y65821D01*
X70412Y65489D01*
X69834Y65170D01*
X69248Y64866D01*
X68654Y64576D01*
X68054Y64301D01*
X67447Y64041D01*
X66834Y63796D01*
X66215Y63566D01*
X65590Y63351D01*
X64961Y63152D01*
X64326Y62968D01*
X63688Y62799D01*
X63045Y62647D01*
X62399Y62510D01*
X61750Y62389D01*
X61098Y62284D01*
X60444Y62195D01*
X59787Y62123D01*
X59129Y62066D01*
X58470Y62025D01*
X57810Y62001D01*
X57150Y61993D01*
X56490Y62001D01*
X55830Y62025D01*
X55171Y62066D01*
X54513Y62123D01*
X53856Y62195D01*
X53202Y62284D01*
X52550Y62389D01*
X51901Y62510D01*
X51255Y62647D01*
X50612Y62799D01*
X49974Y62968D01*
X49339Y63152D01*
X48710Y63351D01*
X48085Y63566D01*
X47466Y63796D01*
X46853Y64041D01*
X46246Y64301D01*
X45646Y64576D01*
X45052Y64866D01*
X44466Y65170D01*
X43888Y65489D01*
X43317Y65821D01*
X42755Y66168D01*
X42201Y66528D01*
X41657Y66901D01*
X41122Y67288D01*
X40596Y67688D01*
X40080Y68101D01*
X39575Y68526D01*
X39080Y68963D01*
X38597Y69413D01*
X38124Y69874D01*
X37663Y70347D01*
X37213Y70830D01*
X36776Y71325D01*
X36351Y71830D01*
X35938Y72346D01*
X35538Y72872D01*
X35151Y73407D01*
X34778Y73951D01*
X34418Y74505D01*
X34071Y75067D01*
X33739Y75638D01*
X33420Y76216D01*
X33116Y76802D01*
X32826Y77396D01*
X32551Y77996D01*
X32291Y78603D01*
X32046Y79216D01*
X31816Y79835D01*
X31601Y80460D01*
X31402Y81089D01*
X31218Y81724D01*
X31049Y82362D01*
X30897Y83005D01*
X30760Y83651D01*
X30639Y84300D01*
X30534Y84952D01*
X30445Y85606D01*
X30373Y86263D01*
X30316Y86921D01*
X30275Y87580D01*
X30251Y88240D01*
X30243Y88900D01*
X55150Y42900D02*
X55150Y21900D01*
X59150Y21900D01*
X59150Y43900D01*
X13335Y159385D02*
X13335Y167012D01*
X17148Y170825D01*
X20962Y167012D01*
X20962Y159385D01*
X20962Y165105D02*
X13335Y165105D01*
X25029Y161292D02*
X25029Y170825D01*
X25029Y161292D02*
X26936Y159385D01*
X30749Y159385D01*
X32655Y161292D01*
X32655Y170825D01*
X36723Y170825D02*
X36723Y159385D01*
X42443Y159385D01*
X44349Y161292D01*
X44349Y168918D01*
X42443Y170825D01*
X36723Y170825D01*
X48417Y159385D02*
X52230Y159385D01*
X50324Y159385D02*
X50324Y170825D01*
X52230Y170825D02*
X48417Y170825D01*
X58120Y170825D02*
X61933Y170825D01*
X58120Y170825D02*
X56213Y168918D01*
X56213Y161292D01*
X58120Y159385D01*
X61933Y159385D01*
X63839Y161292D01*
X63839Y168918D01*
X61933Y170825D01*
X67907Y157478D02*
X75533Y157478D01*
X79601Y159385D02*
X83414Y159385D01*
X81507Y159385D02*
X81507Y170825D01*
X79601Y170825D02*
X83414Y170825D01*
X87397Y170825D02*
X87397Y159385D01*
X95023Y159385D02*
X87397Y170825D01*
X95023Y170825D02*
X95023Y159385D01*
X35800Y536250D02*
X5800Y536250D01*
X35800Y536250D02*
X65800Y536250D01*
X95800Y536250D01*
X5800Y536250D02*
X5800Y431250D01*
X52800Y431250D01*
X95800Y431250D01*
X95800Y536250D01*
X19177Y476250D02*
X19187Y477026D01*
X19215Y477802D01*
X19263Y478576D01*
X19329Y479350D01*
X19415Y480121D01*
X19519Y480890D01*
X19643Y481656D01*
X19785Y482419D01*
X19945Y483179D01*
X20125Y483934D01*
X20323Y484684D01*
X20539Y485430D01*
X20773Y486170D01*
X21026Y486903D01*
X21296Y487631D01*
X21584Y488352D01*
X21890Y489065D01*
X22213Y489771D01*
X22554Y490468D01*
X22911Y491157D01*
X23285Y491837D01*
X23676Y492507D01*
X24083Y493168D01*
X24506Y493819D01*
X24946Y494459D01*
X25400Y495088D01*
X25870Y495705D01*
X26355Y496311D01*
X26855Y496905D01*
X27369Y497487D01*
X27897Y498055D01*
X28439Y498611D01*
X28995Y499153D01*
X29563Y499681D01*
X30145Y500195D01*
X30739Y500695D01*
X31345Y501180D01*
X31962Y501650D01*
X32591Y502104D01*
X33231Y502544D01*
X33882Y502967D01*
X34543Y503374D01*
X35213Y503765D01*
X35893Y504139D01*
X36582Y504496D01*
X37279Y504837D01*
X37985Y505160D01*
X38698Y505466D01*
X39419Y505754D01*
X40147Y506024D01*
X40880Y506277D01*
X41620Y506511D01*
X42366Y506727D01*
X43116Y506925D01*
X43871Y507105D01*
X44631Y507265D01*
X45394Y507407D01*
X46160Y507531D01*
X46929Y507635D01*
X47700Y507721D01*
X48474Y507787D01*
X49248Y507835D01*
X50024Y507863D01*
X50800Y507873D01*
X51576Y507863D01*
X52352Y507835D01*
X53126Y507787D01*
X53900Y507721D01*
X54671Y507635D01*
X55440Y507531D01*
X56206Y507407D01*
X56969Y507265D01*
X57729Y507105D01*
X58484Y506925D01*
X59234Y506727D01*
X59980Y506511D01*
X60720Y506277D01*
X61453Y506024D01*
X62181Y505754D01*
X62902Y505466D01*
X63615Y505160D01*
X64321Y504837D01*
X65018Y504496D01*
X65707Y504139D01*
X66387Y503765D01*
X67057Y503374D01*
X67718Y502967D01*
X68369Y502544D01*
X69009Y502104D01*
X69638Y501650D01*
X70255Y501180D01*
X70861Y500695D01*
X71455Y500195D01*
X72037Y499681D01*
X72605Y499153D01*
X73161Y498611D01*
X73703Y498055D01*
X74231Y497487D01*
X74745Y496905D01*
X75245Y496311D01*
X75730Y495705D01*
X76200Y495088D01*
X76654Y494459D01*
X77094Y493819D01*
X77517Y493168D01*
X77924Y492507D01*
X78315Y491837D01*
X78689Y491157D01*
X79046Y490468D01*
X79387Y489771D01*
X79710Y489065D01*
X80016Y488352D01*
X80304Y487631D01*
X80574Y486903D01*
X80827Y486170D01*
X81061Y485430D01*
X81277Y484684D01*
X81475Y483934D01*
X81655Y483179D01*
X81815Y482419D01*
X81957Y481656D01*
X82081Y480890D01*
X82185Y480121D01*
X82271Y479350D01*
X82337Y478576D01*
X82385Y477802D01*
X82413Y477026D01*
X82423Y476250D01*
X82413Y475474D01*
X82385Y474698D01*
X82337Y473924D01*
X82271Y473150D01*
X82185Y472379D01*
X82081Y471610D01*
X81957Y470844D01*
X81815Y470081D01*
X81655Y469321D01*
X81475Y468566D01*
X81277Y467816D01*
X81061Y467070D01*
X80827Y466330D01*
X80574Y465597D01*
X80304Y464869D01*
X80016Y464148D01*
X79710Y463435D01*
X79387Y462729D01*
X79046Y462032D01*
X78689Y461343D01*
X78315Y460663D01*
X77924Y459993D01*
X77517Y459332D01*
X77094Y458681D01*
X76654Y458041D01*
X76200Y457412D01*
X75730Y456795D01*
X75245Y456189D01*
X74745Y455595D01*
X74231Y455013D01*
X73703Y454445D01*
X73161Y453889D01*
X72605Y453347D01*
X72037Y452819D01*
X71455Y452305D01*
X70861Y451805D01*
X70255Y451320D01*
X69638Y450850D01*
X69009Y450396D01*
X68369Y449956D01*
X67718Y449533D01*
X67057Y449126D01*
X66387Y448735D01*
X65707Y448361D01*
X65018Y448004D01*
X64321Y447663D01*
X63615Y447340D01*
X62902Y447034D01*
X62181Y446746D01*
X61453Y446476D01*
X60720Y446223D01*
X59980Y445989D01*
X59234Y445773D01*
X58484Y445575D01*
X57729Y445395D01*
X56969Y445235D01*
X56206Y445093D01*
X55440Y444969D01*
X54671Y444865D01*
X53900Y444779D01*
X53126Y444713D01*
X52352Y444665D01*
X51576Y444637D01*
X50800Y444627D01*
X50024Y444637D01*
X49248Y444665D01*
X48474Y444713D01*
X47700Y444779D01*
X46929Y444865D01*
X46160Y444969D01*
X45394Y445093D01*
X44631Y445235D01*
X43871Y445395D01*
X43116Y445575D01*
X42366Y445773D01*
X41620Y445989D01*
X40880Y446223D01*
X40147Y446476D01*
X39419Y446746D01*
X38698Y447034D01*
X37985Y447340D01*
X37279Y447663D01*
X36582Y448004D01*
X35893Y448361D01*
X35213Y448735D01*
X34543Y449126D01*
X33882Y449533D01*
X33231Y449956D01*
X32591Y450396D01*
X31962Y450850D01*
X31345Y451320D01*
X30739Y451805D01*
X30145Y452305D01*
X29563Y452819D01*
X28995Y453347D01*
X28439Y453889D01*
X27897Y454445D01*
X27369Y455013D01*
X26855Y455595D01*
X26355Y456189D01*
X25870Y456795D01*
X25400Y457412D01*
X24946Y458041D01*
X24506Y458681D01*
X24083Y459332D01*
X23676Y459993D01*
X23285Y460663D01*
X22911Y461343D01*
X22554Y462032D01*
X22213Y462729D01*
X21890Y463435D01*
X21584Y464148D01*
X21296Y464869D01*
X21026Y465597D01*
X20773Y466330D01*
X20539Y467070D01*
X20323Y467816D01*
X20125Y468566D01*
X19945Y469321D01*
X19785Y470081D01*
X19643Y470844D01*
X19519Y471610D01*
X19415Y472379D01*
X19329Y473150D01*
X19263Y473924D01*
X19215Y474698D01*
X19187Y475474D01*
X19177Y476250D01*
X35800Y516250D02*
X35800Y536250D01*
X35800Y516250D02*
X65800Y516250D01*
X65800Y536250D01*
X23893Y476250D02*
X23901Y476910D01*
X23925Y477570D01*
X23966Y478229D01*
X24023Y478887D01*
X24095Y479544D01*
X24184Y480198D01*
X24289Y480850D01*
X24410Y481499D01*
X24547Y482145D01*
X24699Y482788D01*
X24868Y483426D01*
X25052Y484061D01*
X25251Y484690D01*
X25466Y485315D01*
X25696Y485934D01*
X25941Y486547D01*
X26201Y487154D01*
X26476Y487754D01*
X26766Y488348D01*
X27070Y488934D01*
X27389Y489512D01*
X27721Y490083D01*
X28068Y490645D01*
X28428Y491199D01*
X28801Y491743D01*
X29188Y492278D01*
X29588Y492804D01*
X30001Y493320D01*
X30426Y493825D01*
X30863Y494320D01*
X31313Y494803D01*
X31774Y495276D01*
X32247Y495737D01*
X32730Y496187D01*
X33225Y496624D01*
X33730Y497049D01*
X34246Y497462D01*
X34772Y497862D01*
X35307Y498249D01*
X35851Y498622D01*
X36405Y498982D01*
X36967Y499329D01*
X37538Y499661D01*
X38116Y499980D01*
X38702Y500284D01*
X39296Y500574D01*
X39896Y500849D01*
X40503Y501109D01*
X41116Y501354D01*
X41735Y501584D01*
X42360Y501799D01*
X42989Y501998D01*
X43624Y502182D01*
X44262Y502351D01*
X44905Y502503D01*
X45551Y502640D01*
X46200Y502761D01*
X46852Y502866D01*
X47506Y502955D01*
X48163Y503027D01*
X48821Y503084D01*
X49480Y503125D01*
X50140Y503149D01*
X50800Y503157D01*
X51460Y503149D01*
X52120Y503125D01*
X52779Y503084D01*
X53437Y503027D01*
X54094Y502955D01*
X54748Y502866D01*
X55400Y502761D01*
X56049Y502640D01*
X56695Y502503D01*
X57338Y502351D01*
X57976Y502182D01*
X58611Y501998D01*
X59240Y501799D01*
X59865Y501584D01*
X60484Y501354D01*
X61097Y501109D01*
X61704Y500849D01*
X62304Y500574D01*
X62898Y500284D01*
X63484Y499980D01*
X64062Y499661D01*
X64633Y499329D01*
X65195Y498982D01*
X65749Y498622D01*
X66293Y498249D01*
X66828Y497862D01*
X67354Y497462D01*
X67870Y497049D01*
X68375Y496624D01*
X68870Y496187D01*
X69353Y495737D01*
X69826Y495276D01*
X70287Y494803D01*
X70737Y494320D01*
X71174Y493825D01*
X71599Y493320D01*
X72012Y492804D01*
X72412Y492278D01*
X72799Y491743D01*
X73172Y491199D01*
X73532Y490645D01*
X73879Y490083D01*
X74211Y489512D01*
X74530Y488934D01*
X74834Y488348D01*
X75124Y487754D01*
X75399Y487154D01*
X75659Y486547D01*
X75904Y485934D01*
X76134Y485315D01*
X76349Y484690D01*
X76548Y484061D01*
X76732Y483426D01*
X76901Y482788D01*
X77053Y482145D01*
X77190Y481499D01*
X77311Y480850D01*
X77416Y480198D01*
X77505Y479544D01*
X77577Y478887D01*
X77634Y478229D01*
X77675Y477570D01*
X77699Y476910D01*
X77707Y476250D01*
X77699Y475590D01*
X77675Y474930D01*
X77634Y474271D01*
X77577Y473613D01*
X77505Y472956D01*
X77416Y472302D01*
X77311Y471650D01*
X77190Y471001D01*
X77053Y470355D01*
X76901Y469712D01*
X76732Y469074D01*
X76548Y468439D01*
X76349Y467810D01*
X76134Y467185D01*
X75904Y466566D01*
X75659Y465953D01*
X75399Y465346D01*
X75124Y464746D01*
X74834Y464152D01*
X74530Y463566D01*
X74211Y462988D01*
X73879Y462417D01*
X73532Y461855D01*
X73172Y461301D01*
X72799Y460757D01*
X72412Y460222D01*
X72012Y459696D01*
X71599Y459180D01*
X71174Y458675D01*
X70737Y458180D01*
X70287Y457697D01*
X69826Y457224D01*
X69353Y456763D01*
X68870Y456313D01*
X68375Y455876D01*
X67870Y455451D01*
X67354Y455038D01*
X66828Y454638D01*
X66293Y454251D01*
X65749Y453878D01*
X65195Y453518D01*
X64633Y453171D01*
X64062Y452839D01*
X63484Y452520D01*
X62898Y452216D01*
X62304Y451926D01*
X61704Y451651D01*
X61097Y451391D01*
X60484Y451146D01*
X59865Y450916D01*
X59240Y450701D01*
X58611Y450502D01*
X57976Y450318D01*
X57338Y450149D01*
X56695Y449997D01*
X56049Y449860D01*
X55400Y449739D01*
X54748Y449634D01*
X54094Y449545D01*
X53437Y449473D01*
X52779Y449416D01*
X52120Y449375D01*
X51460Y449351D01*
X50800Y449343D01*
X50140Y449351D01*
X49480Y449375D01*
X48821Y449416D01*
X48163Y449473D01*
X47506Y449545D01*
X46852Y449634D01*
X46200Y449739D01*
X45551Y449860D01*
X44905Y449997D01*
X44262Y450149D01*
X43624Y450318D01*
X42989Y450502D01*
X42360Y450701D01*
X41735Y450916D01*
X41116Y451146D01*
X40503Y451391D01*
X39896Y451651D01*
X39296Y451926D01*
X38702Y452216D01*
X38116Y452520D01*
X37538Y452839D01*
X36967Y453171D01*
X36405Y453518D01*
X35851Y453878D01*
X35307Y454251D01*
X34772Y454638D01*
X34246Y455038D01*
X33730Y455451D01*
X33225Y455876D01*
X32730Y456313D01*
X32247Y456763D01*
X31774Y457224D01*
X31313Y457697D01*
X30863Y458180D01*
X30426Y458675D01*
X30001Y459180D01*
X29588Y459696D01*
X29188Y460222D01*
X28801Y460757D01*
X28428Y461301D01*
X28068Y461855D01*
X27721Y462417D01*
X27389Y462988D01*
X27070Y463566D01*
X26766Y464152D01*
X26476Y464746D01*
X26201Y465346D01*
X25941Y465953D01*
X25696Y466566D01*
X25466Y467185D01*
X25251Y467810D01*
X25052Y468439D01*
X24868Y469074D01*
X24699Y469712D01*
X24547Y470355D01*
X24410Y471001D01*
X24289Y471650D01*
X24184Y472302D01*
X24095Y472956D01*
X24023Y473613D01*
X23966Y474271D01*
X23925Y474930D01*
X23901Y475590D01*
X23893Y476250D01*
X48800Y430250D02*
X48800Y409250D01*
X52800Y409250D01*
X52800Y431250D01*
X14612Y549918D02*
X12705Y551825D01*
X8892Y551825D01*
X6985Y549918D01*
X6985Y542292D01*
X8892Y540385D01*
X12705Y540385D01*
X14612Y542292D01*
X18679Y544198D02*
X18679Y551825D01*
X18679Y544198D02*
X22492Y540385D01*
X26305Y544198D01*
X26305Y551825D01*
X30373Y538478D02*
X37999Y538478D01*
X42067Y548012D02*
X45880Y551825D01*
X45880Y540385D01*
X42067Y540385D02*
X49693Y540385D01*
X35800Y688650D02*
X5800Y688650D01*
X35800Y688650D02*
X65800Y688650D01*
X95800Y688650D01*
X5800Y688650D02*
X5800Y583650D01*
X52800Y583650D01*
X95800Y583650D01*
X95800Y688650D01*
X19177Y628650D02*
X19187Y629426D01*
X19215Y630202D01*
X19263Y630976D01*
X19329Y631750D01*
X19415Y632521D01*
X19519Y633290D01*
X19643Y634056D01*
X19785Y634819D01*
X19945Y635579D01*
X20125Y636334D01*
X20323Y637084D01*
X20539Y637830D01*
X20773Y638570D01*
X21026Y639303D01*
X21296Y640031D01*
X21584Y640752D01*
X21890Y641465D01*
X22213Y642171D01*
X22554Y642868D01*
X22911Y643557D01*
X23285Y644237D01*
X23676Y644907D01*
X24083Y645568D01*
X24506Y646219D01*
X24946Y646859D01*
X25400Y647488D01*
X25870Y648105D01*
X26355Y648711D01*
X26855Y649305D01*
X27369Y649887D01*
X27897Y650455D01*
X28439Y651011D01*
X28995Y651553D01*
X29563Y652081D01*
X30145Y652595D01*
X30739Y653095D01*
X31345Y653580D01*
X31962Y654050D01*
X32591Y654504D01*
X33231Y654944D01*
X33882Y655367D01*
X34543Y655774D01*
X35213Y656165D01*
X35893Y656539D01*
X36582Y656896D01*
X37279Y657237D01*
X37985Y657560D01*
X38698Y657866D01*
X39419Y658154D01*
X40147Y658424D01*
X40880Y658677D01*
X41620Y658911D01*
X42366Y659127D01*
X43116Y659325D01*
X43871Y659505D01*
X44631Y659665D01*
X45394Y659807D01*
X46160Y659931D01*
X46929Y660035D01*
X47700Y660121D01*
X48474Y660187D01*
X49248Y660235D01*
X50024Y660263D01*
X50800Y660273D01*
X51576Y660263D01*
X52352Y660235D01*
X53126Y660187D01*
X53900Y660121D01*
X54671Y660035D01*
X55440Y659931D01*
X56206Y659807D01*
X56969Y659665D01*
X57729Y659505D01*
X58484Y659325D01*
X59234Y659127D01*
X59980Y658911D01*
X60720Y658677D01*
X61453Y658424D01*
X62181Y658154D01*
X62902Y657866D01*
X63615Y657560D01*
X64321Y657237D01*
X65018Y656896D01*
X65707Y656539D01*
X66387Y656165D01*
X67057Y655774D01*
X67718Y655367D01*
X68369Y654944D01*
X69009Y654504D01*
X69638Y654050D01*
X70255Y653580D01*
X70861Y653095D01*
X71455Y652595D01*
X72037Y652081D01*
X72605Y651553D01*
X73161Y651011D01*
X73703Y650455D01*
X74231Y649887D01*
X74745Y649305D01*
X75245Y648711D01*
X75730Y648105D01*
X76200Y647488D01*
X76654Y646859D01*
X77094Y646219D01*
X77517Y645568D01*
X77924Y644907D01*
X78315Y644237D01*
X78689Y643557D01*
X79046Y642868D01*
X79387Y642171D01*
X79710Y641465D01*
X80016Y640752D01*
X80304Y640031D01*
X80574Y639303D01*
X80827Y638570D01*
X81061Y637830D01*
X81277Y637084D01*
X81475Y636334D01*
X81655Y635579D01*
X81815Y634819D01*
X81957Y634056D01*
X82081Y633290D01*
X82185Y632521D01*
X82271Y631750D01*
X82337Y630976D01*
X82385Y630202D01*
X82413Y629426D01*
X82423Y628650D01*
X82413Y627874D01*
X82385Y627098D01*
X82337Y626324D01*
X82271Y625550D01*
X82185Y624779D01*
X82081Y624010D01*
X81957Y623244D01*
X81815Y622481D01*
X81655Y621721D01*
X81475Y620966D01*
X81277Y620216D01*
X81061Y619470D01*
X80827Y618730D01*
X80574Y617997D01*
X80304Y617269D01*
X80016Y616548D01*
X79710Y615835D01*
X79387Y615129D01*
X79046Y614432D01*
X78689Y613743D01*
X78315Y613063D01*
X77924Y612393D01*
X77517Y611732D01*
X77094Y611081D01*
X76654Y610441D01*
X76200Y609812D01*
X75730Y609195D01*
X75245Y608589D01*
X74745Y607995D01*
X74231Y607413D01*
X73703Y606845D01*
X73161Y606289D01*
X72605Y605747D01*
X72037Y605219D01*
X71455Y604705D01*
X70861Y604205D01*
X70255Y603720D01*
X69638Y603250D01*
X69009Y602796D01*
X68369Y602356D01*
X67718Y601933D01*
X67057Y601526D01*
X66387Y601135D01*
X65707Y600761D01*
X65018Y600404D01*
X64321Y600063D01*
X63615Y599740D01*
X62902Y599434D01*
X62181Y599146D01*
X61453Y598876D01*
X60720Y598623D01*
X59980Y598389D01*
X59234Y598173D01*
X58484Y597975D01*
X57729Y597795D01*
X56969Y597635D01*
X56206Y597493D01*
X55440Y597369D01*
X54671Y597265D01*
X53900Y597179D01*
X53126Y597113D01*
X52352Y597065D01*
X51576Y597037D01*
X50800Y597027D01*
X50024Y597037D01*
X49248Y597065D01*
X48474Y597113D01*
X47700Y597179D01*
X46929Y597265D01*
X46160Y597369D01*
X45394Y597493D01*
X44631Y597635D01*
X43871Y597795D01*
X43116Y597975D01*
X42366Y598173D01*
X41620Y598389D01*
X40880Y598623D01*
X40147Y598876D01*
X39419Y599146D01*
X38698Y599434D01*
X37985Y599740D01*
X37279Y600063D01*
X36582Y600404D01*
X35893Y600761D01*
X35213Y601135D01*
X34543Y601526D01*
X33882Y601933D01*
X33231Y602356D01*
X32591Y602796D01*
X31962Y603250D01*
X31345Y603720D01*
X30739Y604205D01*
X30145Y604705D01*
X29563Y605219D01*
X28995Y605747D01*
X28439Y606289D01*
X27897Y606845D01*
X27369Y607413D01*
X26855Y607995D01*
X26355Y608589D01*
X25870Y609195D01*
X25400Y609812D01*
X24946Y610441D01*
X24506Y611081D01*
X24083Y611732D01*
X23676Y612393D01*
X23285Y613063D01*
X22911Y613743D01*
X22554Y614432D01*
X22213Y615129D01*
X21890Y615835D01*
X21584Y616548D01*
X21296Y617269D01*
X21026Y617997D01*
X20773Y618730D01*
X20539Y619470D01*
X20323Y620216D01*
X20125Y620966D01*
X19945Y621721D01*
X19785Y622481D01*
X19643Y623244D01*
X19519Y624010D01*
X19415Y624779D01*
X19329Y625550D01*
X19263Y626324D01*
X19215Y627098D01*
X19187Y627874D01*
X19177Y628650D01*
X35800Y668650D02*
X35800Y688650D01*
X35800Y668650D02*
X65800Y668650D01*
X65800Y688650D01*
X23893Y628650D02*
X23901Y629310D01*
X23925Y629970D01*
X23966Y630629D01*
X24023Y631287D01*
X24095Y631944D01*
X24184Y632598D01*
X24289Y633250D01*
X24410Y633899D01*
X24547Y634545D01*
X24699Y635188D01*
X24868Y635826D01*
X25052Y636461D01*
X25251Y637090D01*
X25466Y637715D01*
X25696Y638334D01*
X25941Y638947D01*
X26201Y639554D01*
X26476Y640154D01*
X26766Y640748D01*
X27070Y641334D01*
X27389Y641912D01*
X27721Y642483D01*
X28068Y643045D01*
X28428Y643599D01*
X28801Y644143D01*
X29188Y644678D01*
X29588Y645204D01*
X30001Y645720D01*
X30426Y646225D01*
X30863Y646720D01*
X31313Y647203D01*
X31774Y647676D01*
X32247Y648137D01*
X32730Y648587D01*
X33225Y649024D01*
X33730Y649449D01*
X34246Y649862D01*
X34772Y650262D01*
X35307Y650649D01*
X35851Y651022D01*
X36405Y651382D01*
X36967Y651729D01*
X37538Y652061D01*
X38116Y652380D01*
X38702Y652684D01*
X39296Y652974D01*
X39896Y653249D01*
X40503Y653509D01*
X41116Y653754D01*
X41735Y653984D01*
X42360Y654199D01*
X42989Y654398D01*
X43624Y654582D01*
X44262Y654751D01*
X44905Y654903D01*
X45551Y655040D01*
X46200Y655161D01*
X46852Y655266D01*
X47506Y655355D01*
X48163Y655427D01*
X48821Y655484D01*
X49480Y655525D01*
X50140Y655549D01*
X50800Y655557D01*
X51460Y655549D01*
X52120Y655525D01*
X52779Y655484D01*
X53437Y655427D01*
X54094Y655355D01*
X54748Y655266D01*
X55400Y655161D01*
X56049Y655040D01*
X56695Y654903D01*
X57338Y654751D01*
X57976Y654582D01*
X58611Y654398D01*
X59240Y654199D01*
X59865Y653984D01*
X60484Y653754D01*
X61097Y653509D01*
X61704Y653249D01*
X62304Y652974D01*
X62898Y652684D01*
X63484Y652380D01*
X64062Y652061D01*
X64633Y651729D01*
X65195Y651382D01*
X65749Y651022D01*
X66293Y650649D01*
X66828Y650262D01*
X67354Y649862D01*
X67870Y649449D01*
X68375Y649024D01*
X68870Y648587D01*
X69353Y648137D01*
X69826Y647676D01*
X70287Y647203D01*
X70737Y646720D01*
X71174Y646225D01*
X71599Y645720D01*
X72012Y645204D01*
X72412Y644678D01*
X72799Y644143D01*
X73172Y643599D01*
X73532Y643045D01*
X73879Y642483D01*
X74211Y641912D01*
X74530Y641334D01*
X74834Y640748D01*
X75124Y640154D01*
X75399Y639554D01*
X75659Y638947D01*
X75904Y638334D01*
X76134Y637715D01*
X76349Y637090D01*
X76548Y636461D01*
X76732Y635826D01*
X76901Y635188D01*
X77053Y634545D01*
X77190Y633899D01*
X77311Y633250D01*
X77416Y632598D01*
X77505Y631944D01*
X77577Y631287D01*
X77634Y630629D01*
X77675Y629970D01*
X77699Y629310D01*
X77707Y628650D01*
X77699Y627990D01*
X77675Y627330D01*
X77634Y626671D01*
X77577Y626013D01*
X77505Y625356D01*
X77416Y624702D01*
X77311Y624050D01*
X77190Y623401D01*
X77053Y622755D01*
X76901Y622112D01*
X76732Y621474D01*
X76548Y620839D01*
X76349Y620210D01*
X76134Y619585D01*
X75904Y618966D01*
X75659Y618353D01*
X75399Y617746D01*
X75124Y617146D01*
X74834Y616552D01*
X74530Y615966D01*
X74211Y615388D01*
X73879Y614817D01*
X73532Y614255D01*
X73172Y613701D01*
X72799Y613157D01*
X72412Y612622D01*
X72012Y612096D01*
X71599Y611580D01*
X71174Y611075D01*
X70737Y610580D01*
X70287Y610097D01*
X69826Y609624D01*
X69353Y609163D01*
X68870Y608713D01*
X68375Y608276D01*
X67870Y607851D01*
X67354Y607438D01*
X66828Y607038D01*
X66293Y606651D01*
X65749Y606278D01*
X65195Y605918D01*
X64633Y605571D01*
X64062Y605239D01*
X63484Y604920D01*
X62898Y604616D01*
X62304Y604326D01*
X61704Y604051D01*
X61097Y603791D01*
X60484Y603546D01*
X59865Y603316D01*
X59240Y603101D01*
X58611Y602902D01*
X57976Y602718D01*
X57338Y602549D01*
X56695Y602397D01*
X56049Y602260D01*
X55400Y602139D01*
X54748Y602034D01*
X54094Y601945D01*
X53437Y601873D01*
X52779Y601816D01*
X52120Y601775D01*
X51460Y601751D01*
X50800Y601743D01*
X50140Y601751D01*
X49480Y601775D01*
X48821Y601816D01*
X48163Y601873D01*
X47506Y601945D01*
X46852Y602034D01*
X46200Y602139D01*
X45551Y602260D01*
X44905Y602397D01*
X44262Y602549D01*
X43624Y602718D01*
X42989Y602902D01*
X42360Y603101D01*
X41735Y603316D01*
X41116Y603546D01*
X40503Y603791D01*
X39896Y604051D01*
X39296Y604326D01*
X38702Y604616D01*
X38116Y604920D01*
X37538Y605239D01*
X36967Y605571D01*
X36405Y605918D01*
X35851Y606278D01*
X35307Y606651D01*
X34772Y607038D01*
X34246Y607438D01*
X33730Y607851D01*
X33225Y608276D01*
X32730Y608713D01*
X32247Y609163D01*
X31774Y609624D01*
X31313Y610097D01*
X30863Y610580D01*
X30426Y611075D01*
X30001Y611580D01*
X29588Y612096D01*
X29188Y612622D01*
X28801Y613157D01*
X28428Y613701D01*
X28068Y614255D01*
X27721Y614817D01*
X27389Y615388D01*
X27070Y615966D01*
X26766Y616552D01*
X26476Y617146D01*
X26201Y617746D01*
X25941Y618353D01*
X25696Y618966D01*
X25466Y619585D01*
X25251Y620210D01*
X25052Y620839D01*
X24868Y621474D01*
X24699Y622112D01*
X24547Y622755D01*
X24410Y623401D01*
X24289Y624050D01*
X24184Y624702D01*
X24095Y625356D01*
X24023Y626013D01*
X23966Y626671D01*
X23925Y627330D01*
X23901Y627990D01*
X23893Y628650D01*
X48800Y582650D02*
X48800Y561650D01*
X52800Y561650D01*
X52800Y583650D01*
X14612Y702318D02*
X12705Y704225D01*
X8892Y704225D01*
X6985Y702318D01*
X6985Y694692D01*
X8892Y692785D01*
X12705Y692785D01*
X14612Y694692D01*
X18679Y696598D02*
X18679Y704225D01*
X18679Y696598D02*
X22492Y692785D01*
X26305Y696598D01*
X26305Y704225D01*
X30373Y690878D02*
X37999Y690878D01*
X42067Y692785D02*
X49693Y692785D01*
X42067Y692785D02*
X49693Y700412D01*
X49693Y702318D01*
X47787Y704225D01*
X43974Y704225D01*
X42067Y702318D01*
X316950Y148900D02*
X346950Y148900D01*
X376950Y148900D01*
X406950Y148900D01*
X316950Y148900D02*
X316950Y43900D01*
X363950Y43900D01*
X406950Y43900D01*
X406950Y148900D01*
X330327Y88900D02*
X330337Y89676D01*
X330365Y90452D01*
X330413Y91226D01*
X330479Y92000D01*
X330565Y92771D01*
X330669Y93540D01*
X330793Y94306D01*
X330935Y95069D01*
X331095Y95829D01*
X331275Y96584D01*
X331473Y97334D01*
X331689Y98080D01*
X331923Y98820D01*
X332176Y99553D01*
X332446Y100281D01*
X332734Y101002D01*
X333040Y101715D01*
X333363Y102421D01*
X333704Y103118D01*
X334061Y103807D01*
X334435Y104487D01*
X334826Y105157D01*
X335233Y105818D01*
X335656Y106469D01*
X336096Y107109D01*
X336550Y107738D01*
X337020Y108355D01*
X337505Y108961D01*
X338005Y109555D01*
X338519Y110137D01*
X339047Y110705D01*
X339589Y111261D01*
X340145Y111803D01*
X340713Y112331D01*
X341295Y112845D01*
X341889Y113345D01*
X342495Y113830D01*
X343112Y114300D01*
X343741Y114754D01*
X344381Y115194D01*
X345032Y115617D01*
X345693Y116024D01*
X346363Y116415D01*
X347043Y116789D01*
X347732Y117146D01*
X348429Y117487D01*
X349135Y117810D01*
X349848Y118116D01*
X350569Y118404D01*
X351297Y118674D01*
X352030Y118927D01*
X352770Y119161D01*
X353516Y119377D01*
X354266Y119575D01*
X355021Y119755D01*
X355781Y119915D01*
X356544Y120057D01*
X357310Y120181D01*
X358079Y120285D01*
X358850Y120371D01*
X359624Y120437D01*
X360398Y120485D01*
X361174Y120513D01*
X361950Y120523D01*
X362726Y120513D01*
X363502Y120485D01*
X364276Y120437D01*
X365050Y120371D01*
X365821Y120285D01*
X366590Y120181D01*
X367356Y120057D01*
X368119Y119915D01*
X368879Y119755D01*
X369634Y119575D01*
X370384Y119377D01*
X371130Y119161D01*
X371870Y118927D01*
X372603Y118674D01*
X373331Y118404D01*
X374052Y118116D01*
X374765Y117810D01*
X375471Y117487D01*
X376168Y117146D01*
X376857Y116789D01*
X377537Y116415D01*
X378207Y116024D01*
X378868Y115617D01*
X379519Y115194D01*
X380159Y114754D01*
X380788Y114300D01*
X381405Y113830D01*
X382011Y113345D01*
X382605Y112845D01*
X383187Y112331D01*
X383755Y111803D01*
X384311Y111261D01*
X384853Y110705D01*
X385381Y110137D01*
X385895Y109555D01*
X386395Y108961D01*
X386880Y108355D01*
X387350Y107738D01*
X387804Y107109D01*
X388244Y106469D01*
X388667Y105818D01*
X389074Y105157D01*
X389465Y104487D01*
X389839Y103807D01*
X390196Y103118D01*
X390537Y102421D01*
X390860Y101715D01*
X391166Y101002D01*
X391454Y100281D01*
X391724Y99553D01*
X391977Y98820D01*
X392211Y98080D01*
X392427Y97334D01*
X392625Y96584D01*
X392805Y95829D01*
X392965Y95069D01*
X393107Y94306D01*
X393231Y93540D01*
X393335Y92771D01*
X393421Y92000D01*
X393487Y91226D01*
X393535Y90452D01*
X393563Y89676D01*
X393573Y88900D01*
X393563Y88124D01*
X393535Y87348D01*
X393487Y86574D01*
X393421Y85800D01*
X393335Y85029D01*
X393231Y84260D01*
X393107Y83494D01*
X392965Y82731D01*
X392805Y81971D01*
X392625Y81216D01*
X392427Y80466D01*
X392211Y79720D01*
X391977Y78980D01*
X391724Y78247D01*
X391454Y77519D01*
X391166Y76798D01*
X390860Y76085D01*
X390537Y75379D01*
X390196Y74682D01*
X389839Y73993D01*
X389465Y73313D01*
X389074Y72643D01*
X388667Y71982D01*
X388244Y71331D01*
X387804Y70691D01*
X387350Y70062D01*
X386880Y69445D01*
X386395Y68839D01*
X385895Y68245D01*
X385381Y67663D01*
X384853Y67095D01*
X384311Y66539D01*
X383755Y65997D01*
X383187Y65469D01*
X382605Y64955D01*
X382011Y64455D01*
X381405Y63970D01*
X380788Y63500D01*
X380159Y63046D01*
X379519Y62606D01*
X378868Y62183D01*
X378207Y61776D01*
X377537Y61385D01*
X376857Y61011D01*
X376168Y60654D01*
X375471Y60313D01*
X374765Y59990D01*
X374052Y59684D01*
X373331Y59396D01*
X372603Y59126D01*
X371870Y58873D01*
X371130Y58639D01*
X370384Y58423D01*
X369634Y58225D01*
X368879Y58045D01*
X368119Y57885D01*
X367356Y57743D01*
X366590Y57619D01*
X365821Y57515D01*
X365050Y57429D01*
X364276Y57363D01*
X363502Y57315D01*
X362726Y57287D01*
X361950Y57277D01*
X361174Y57287D01*
X360398Y57315D01*
X359624Y57363D01*
X358850Y57429D01*
X358079Y57515D01*
X357310Y57619D01*
X356544Y57743D01*
X355781Y57885D01*
X355021Y58045D01*
X354266Y58225D01*
X353516Y58423D01*
X352770Y58639D01*
X352030Y58873D01*
X351297Y59126D01*
X350569Y59396D01*
X349848Y59684D01*
X349135Y59990D01*
X348429Y60313D01*
X347732Y60654D01*
X347043Y61011D01*
X346363Y61385D01*
X345693Y61776D01*
X345032Y62183D01*
X344381Y62606D01*
X343741Y63046D01*
X343112Y63500D01*
X342495Y63970D01*
X341889Y64455D01*
X341295Y64955D01*
X340713Y65469D01*
X340145Y65997D01*
X339589Y66539D01*
X339047Y67095D01*
X338519Y67663D01*
X338005Y68245D01*
X337505Y68839D01*
X337020Y69445D01*
X336550Y70062D01*
X336096Y70691D01*
X335656Y71331D01*
X335233Y71982D01*
X334826Y72643D01*
X334435Y73313D01*
X334061Y73993D01*
X333704Y74682D01*
X333363Y75379D01*
X333040Y76085D01*
X332734Y76798D01*
X332446Y77519D01*
X332176Y78247D01*
X331923Y78980D01*
X331689Y79720D01*
X331473Y80466D01*
X331275Y81216D01*
X331095Y81971D01*
X330935Y82731D01*
X330793Y83494D01*
X330669Y84260D01*
X330565Y85029D01*
X330479Y85800D01*
X330413Y86574D01*
X330365Y87348D01*
X330337Y88124D01*
X330327Y88900D01*
X346950Y128900D02*
X346950Y148900D01*
X346950Y128900D02*
X376950Y128900D01*
X376950Y148900D01*
X335043Y88900D02*
X335051Y89560D01*
X335075Y90220D01*
X335116Y90879D01*
X335173Y91537D01*
X335245Y92194D01*
X335334Y92848D01*
X335439Y93500D01*
X335560Y94149D01*
X335697Y94795D01*
X335849Y95438D01*
X336018Y96076D01*
X336202Y96711D01*
X336401Y97340D01*
X336616Y97965D01*
X336846Y98584D01*
X337091Y99197D01*
X337351Y99804D01*
X337626Y100404D01*
X337916Y100998D01*
X338220Y101584D01*
X338539Y102162D01*
X338871Y102733D01*
X339218Y103295D01*
X339578Y103849D01*
X339951Y104393D01*
X340338Y104928D01*
X340738Y105454D01*
X341151Y105970D01*
X341576Y106475D01*
X342013Y106970D01*
X342463Y107453D01*
X342924Y107926D01*
X343397Y108387D01*
X343880Y108837D01*
X344375Y109274D01*
X344880Y109699D01*
X345396Y110112D01*
X345922Y110512D01*
X346457Y110899D01*
X347001Y111272D01*
X347555Y111632D01*
X348117Y111979D01*
X348688Y112311D01*
X349266Y112630D01*
X349852Y112934D01*
X350446Y113224D01*
X351046Y113499D01*
X351653Y113759D01*
X352266Y114004D01*
X352885Y114234D01*
X353510Y114449D01*
X354139Y114648D01*
X354774Y114832D01*
X355412Y115001D01*
X356055Y115153D01*
X356701Y115290D01*
X357350Y115411D01*
X358002Y115516D01*
X358656Y115605D01*
X359313Y115677D01*
X359971Y115734D01*
X360630Y115775D01*
X361290Y115799D01*
X361950Y115807D01*
X362610Y115799D01*
X363270Y115775D01*
X363929Y115734D01*
X364587Y115677D01*
X365244Y115605D01*
X365898Y115516D01*
X366550Y115411D01*
X367199Y115290D01*
X367845Y115153D01*
X368488Y115001D01*
X369126Y114832D01*
X369761Y114648D01*
X370390Y114449D01*
X371015Y114234D01*
X371634Y114004D01*
X372247Y113759D01*
X372854Y113499D01*
X373454Y113224D01*
X374048Y112934D01*
X374634Y112630D01*
X375212Y112311D01*
X375783Y111979D01*
X376345Y111632D01*
X376899Y111272D01*
X377443Y110899D01*
X377978Y110512D01*
X378504Y110112D01*
X379020Y109699D01*
X379525Y109274D01*
X380020Y108837D01*
X380503Y108387D01*
X380976Y107926D01*
X381437Y107453D01*
X381887Y106970D01*
X382324Y106475D01*
X382749Y105970D01*
X383162Y105454D01*
X383562Y104928D01*
X383949Y104393D01*
X384322Y103849D01*
X384682Y103295D01*
X385029Y102733D01*
X385361Y102162D01*
X385680Y101584D01*
X385984Y100998D01*
X386274Y100404D01*
X386549Y99804D01*
X386809Y99197D01*
X387054Y98584D01*
X387284Y97965D01*
X387499Y97340D01*
X387698Y96711D01*
X387882Y96076D01*
X388051Y95438D01*
X388203Y94795D01*
X388340Y94149D01*
X388461Y93500D01*
X388566Y92848D01*
X388655Y92194D01*
X388727Y91537D01*
X388784Y90879D01*
X388825Y90220D01*
X388849Y89560D01*
X388857Y88900D01*
X388849Y88240D01*
X388825Y87580D01*
X388784Y86921D01*
X388727Y86263D01*
X388655Y85606D01*
X388566Y84952D01*
X388461Y84300D01*
X388340Y83651D01*
X388203Y83005D01*
X388051Y82362D01*
X387882Y81724D01*
X387698Y81089D01*
X387499Y80460D01*
X387284Y79835D01*
X387054Y79216D01*
X386809Y78603D01*
X386549Y77996D01*
X386274Y77396D01*
X385984Y76802D01*
X385680Y76216D01*
X385361Y75638D01*
X385029Y75067D01*
X384682Y74505D01*
X384322Y73951D01*
X383949Y73407D01*
X383562Y72872D01*
X383162Y72346D01*
X382749Y71830D01*
X382324Y71325D01*
X381887Y70830D01*
X381437Y70347D01*
X380976Y69874D01*
X380503Y69413D01*
X380020Y68963D01*
X379525Y68526D01*
X379020Y68101D01*
X378504Y67688D01*
X377978Y67288D01*
X377443Y66901D01*
X376899Y66528D01*
X376345Y66168D01*
X375783Y65821D01*
X375212Y65489D01*
X374634Y65170D01*
X374048Y64866D01*
X373454Y64576D01*
X372854Y64301D01*
X372247Y64041D01*
X371634Y63796D01*
X371015Y63566D01*
X370390Y63351D01*
X369761Y63152D01*
X369126Y62968D01*
X368488Y62799D01*
X367845Y62647D01*
X367199Y62510D01*
X366550Y62389D01*
X365898Y62284D01*
X365244Y62195D01*
X364587Y62123D01*
X363929Y62066D01*
X363270Y62025D01*
X362610Y62001D01*
X361950Y61993D01*
X361290Y62001D01*
X360630Y62025D01*
X359971Y62066D01*
X359313Y62123D01*
X358656Y62195D01*
X358002Y62284D01*
X357350Y62389D01*
X356701Y62510D01*
X356055Y62647D01*
X355412Y62799D01*
X354774Y62968D01*
X354139Y63152D01*
X353510Y63351D01*
X352885Y63566D01*
X352266Y63796D01*
X351653Y64041D01*
X351046Y64301D01*
X350446Y64576D01*
X349852Y64866D01*
X349266Y65170D01*
X348688Y65489D01*
X348117Y65821D01*
X347555Y66168D01*
X347001Y66528D01*
X346457Y66901D01*
X345922Y67288D01*
X345396Y67688D01*
X344880Y68101D01*
X344375Y68526D01*
X343880Y68963D01*
X343397Y69413D01*
X342924Y69874D01*
X342463Y70347D01*
X342013Y70830D01*
X341576Y71325D01*
X341151Y71830D01*
X340738Y72346D01*
X340338Y72872D01*
X339951Y73407D01*
X339578Y73951D01*
X339218Y74505D01*
X338871Y75067D01*
X338539Y75638D01*
X338220Y76216D01*
X337916Y76802D01*
X337626Y77396D01*
X337351Y77996D01*
X337091Y78603D01*
X336846Y79216D01*
X336616Y79835D01*
X336401Y80460D01*
X336202Y81089D01*
X336018Y81724D01*
X335849Y82362D01*
X335697Y83005D01*
X335560Y83651D01*
X335439Y84300D01*
X335334Y84952D01*
X335245Y85606D01*
X335173Y86263D01*
X335116Y86921D01*
X335075Y87580D01*
X335051Y88240D01*
X335043Y88900D01*
X359950Y42900D02*
X359950Y21900D01*
X363950Y21900D01*
X363950Y43900D01*
X299075Y53342D02*
X299075Y57155D01*
X299075Y53342D02*
X300982Y51435D01*
X308608Y51435D01*
X310515Y53342D01*
X310515Y57155D01*
X308608Y59062D01*
X300982Y59062D01*
X299075Y57155D01*
X299075Y63129D02*
X308608Y63129D01*
X310515Y65036D01*
X310515Y68849D01*
X308608Y70755D01*
X299075Y70755D01*
X299075Y78636D02*
X310515Y78636D01*
X299075Y74823D02*
X299075Y82449D01*
X299075Y86517D02*
X310515Y86517D01*
X299075Y86517D02*
X299075Y92237D01*
X300982Y94143D01*
X304795Y94143D01*
X306702Y92237D01*
X306702Y86517D01*
X308608Y98211D02*
X299075Y98211D01*
X308608Y98211D02*
X310515Y100118D01*
X310515Y103931D01*
X308608Y105837D01*
X299075Y105837D01*
X299075Y113718D02*
X310515Y113718D01*
X299075Y109905D02*
X299075Y117531D01*
D15*
X195580Y977900D02*
X195584Y978243D01*
X195597Y978585D01*
X195618Y978928D01*
X195647Y979269D01*
X195685Y979610D01*
X195731Y979950D01*
X195786Y980288D01*
X195848Y980625D01*
X195919Y980961D01*
X195999Y981294D01*
X196086Y981626D01*
X196182Y981955D01*
X196285Y982282D01*
X196397Y982606D01*
X196516Y982928D01*
X196643Y983246D01*
X196778Y983561D01*
X196921Y983873D01*
X197072Y984181D01*
X197230Y984485D01*
X197395Y984786D01*
X197568Y985082D01*
X197747Y985374D01*
X197934Y985661D01*
X198128Y985944D01*
X198329Y986222D01*
X198537Y986495D01*
X198751Y986762D01*
X198972Y987025D01*
X199199Y987282D01*
X199432Y987533D01*
X199672Y987778D01*
X199917Y988018D01*
X200168Y988251D01*
X200425Y988478D01*
X200688Y988699D01*
X200955Y988913D01*
X201228Y989121D01*
X201506Y989322D01*
X201789Y989516D01*
X202076Y989703D01*
X202368Y989882D01*
X202664Y990055D01*
X202965Y990220D01*
X203269Y990378D01*
X203577Y990529D01*
X203889Y990672D01*
X204204Y990807D01*
X204522Y990934D01*
X204844Y991053D01*
X205168Y991165D01*
X205495Y991268D01*
X205824Y991364D01*
X206156Y991451D01*
X206489Y991531D01*
X206825Y991602D01*
X207162Y991664D01*
X207500Y991719D01*
X207840Y991765D01*
X208181Y991803D01*
X208522Y991832D01*
X208865Y991853D01*
X209207Y991866D01*
X209550Y991870D01*
X209893Y991866D01*
X210235Y991853D01*
X210578Y991832D01*
X210919Y991803D01*
X211260Y991765D01*
X211600Y991719D01*
X211938Y991664D01*
X212275Y991602D01*
X212611Y991531D01*
X212944Y991451D01*
X213276Y991364D01*
X213605Y991268D01*
X213932Y991165D01*
X214256Y991053D01*
X214578Y990934D01*
X214896Y990807D01*
X215211Y990672D01*
X215523Y990529D01*
X215831Y990378D01*
X216135Y990220D01*
X216436Y990055D01*
X216732Y989882D01*
X217024Y989703D01*
X217311Y989516D01*
X217594Y989322D01*
X217872Y989121D01*
X218145Y988913D01*
X218412Y988699D01*
X218675Y988478D01*
X218932Y988251D01*
X219183Y988018D01*
X219428Y987778D01*
X219668Y987533D01*
X219901Y987282D01*
X220128Y987025D01*
X220349Y986762D01*
X220563Y986495D01*
X220771Y986222D01*
X220972Y985944D01*
X221166Y985661D01*
X221353Y985374D01*
X221532Y985082D01*
X221705Y984786D01*
X221870Y984485D01*
X222028Y984181D01*
X222179Y983873D01*
X222322Y983561D01*
X222457Y983246D01*
X222584Y982928D01*
X222703Y982606D01*
X222815Y982282D01*
X222918Y981955D01*
X223014Y981626D01*
X223101Y981294D01*
X223181Y980961D01*
X223252Y980625D01*
X223314Y980288D01*
X223369Y979950D01*
X223415Y979610D01*
X223453Y979269D01*
X223482Y978928D01*
X223503Y978585D01*
X223516Y978243D01*
X223520Y977900D01*
X223516Y977557D01*
X223503Y977215D01*
X223482Y976872D01*
X223453Y976531D01*
X223415Y976190D01*
X223369Y975850D01*
X223314Y975512D01*
X223252Y975175D01*
X223181Y974839D01*
X223101Y974506D01*
X223014Y974174D01*
X222918Y973845D01*
X222815Y973518D01*
X222703Y973194D01*
X222584Y972872D01*
X222457Y972554D01*
X222322Y972239D01*
X222179Y971927D01*
X222028Y971619D01*
X221870Y971315D01*
X221705Y971014D01*
X221532Y970718D01*
X221353Y970426D01*
X221166Y970139D01*
X220972Y969856D01*
X220771Y969578D01*
X220563Y969305D01*
X220349Y969038D01*
X220128Y968775D01*
X219901Y968518D01*
X219668Y968267D01*
X219428Y968022D01*
X219183Y967782D01*
X218932Y967549D01*
X218675Y967322D01*
X218412Y967101D01*
X218145Y966887D01*
X217872Y966679D01*
X217594Y966478D01*
X217311Y966284D01*
X217024Y966097D01*
X216732Y965918D01*
X216436Y965745D01*
X216135Y965580D01*
X215831Y965422D01*
X215523Y965271D01*
X215211Y965128D01*
X214896Y964993D01*
X214578Y964866D01*
X214256Y964747D01*
X213932Y964635D01*
X213605Y964532D01*
X213276Y964436D01*
X212944Y964349D01*
X212611Y964269D01*
X212275Y964198D01*
X211938Y964136D01*
X211600Y964081D01*
X211260Y964035D01*
X210919Y963997D01*
X210578Y963968D01*
X210235Y963947D01*
X209893Y963934D01*
X209550Y963930D01*
X209207Y963934D01*
X208865Y963947D01*
X208522Y963968D01*
X208181Y963997D01*
X207840Y964035D01*
X207500Y964081D01*
X207162Y964136D01*
X206825Y964198D01*
X206489Y964269D01*
X206156Y964349D01*
X205824Y964436D01*
X205495Y964532D01*
X205168Y964635D01*
X204844Y964747D01*
X204522Y964866D01*
X204204Y964993D01*
X203889Y965128D01*
X203577Y965271D01*
X203269Y965422D01*
X202965Y965580D01*
X202664Y965745D01*
X202368Y965918D01*
X202076Y966097D01*
X201789Y966284D01*
X201506Y966478D01*
X201228Y966679D01*
X200955Y966887D01*
X200688Y967101D01*
X200425Y967322D01*
X200168Y967549D01*
X199917Y967782D01*
X199672Y968022D01*
X199432Y968267D01*
X199199Y968518D01*
X198972Y968775D01*
X198751Y969038D01*
X198537Y969305D01*
X198329Y969578D01*
X198128Y969856D01*
X197934Y970139D01*
X197747Y970426D01*
X197568Y970718D01*
X197395Y971014D01*
X197230Y971315D01*
X197072Y971619D01*
X196921Y971927D01*
X196778Y972239D01*
X196643Y972554D01*
X196516Y972872D01*
X196397Y973194D01*
X196285Y973518D01*
X196182Y973845D01*
X196086Y974174D01*
X195999Y974506D01*
X195919Y974839D01*
X195848Y975175D01*
X195786Y975512D01*
X195731Y975850D01*
X195685Y976190D01*
X195647Y976531D01*
X195618Y976872D01*
X195597Y977215D01*
X195584Y977557D01*
X195580Y977900D01*
X199390Y977900D02*
X199393Y978149D01*
X199402Y978399D01*
X199418Y978647D01*
X199439Y978896D01*
X199466Y979144D01*
X199500Y979391D01*
X199540Y979637D01*
X199585Y979882D01*
X199637Y980126D01*
X199694Y980369D01*
X199758Y980610D01*
X199827Y980849D01*
X199903Y981087D01*
X199984Y981323D01*
X200071Y981557D01*
X200163Y981788D01*
X200262Y982017D01*
X200365Y982244D01*
X200475Y982468D01*
X200590Y982689D01*
X200710Y982908D01*
X200835Y983123D01*
X200966Y983336D01*
X201102Y983545D01*
X201243Y983750D01*
X201389Y983952D01*
X201540Y984151D01*
X201696Y984345D01*
X201857Y984536D01*
X202022Y984723D01*
X202192Y984906D01*
X202366Y985084D01*
X202544Y985258D01*
X202727Y985428D01*
X202914Y985593D01*
X203105Y985754D01*
X203299Y985910D01*
X203498Y986061D01*
X203700Y986207D01*
X203905Y986348D01*
X204114Y986484D01*
X204327Y986615D01*
X204542Y986740D01*
X204761Y986860D01*
X204982Y986975D01*
X205206Y987085D01*
X205433Y987188D01*
X205662Y987287D01*
X205893Y987379D01*
X206127Y987466D01*
X206363Y987547D01*
X206601Y987623D01*
X206840Y987692D01*
X207081Y987756D01*
X207324Y987813D01*
X207568Y987865D01*
X207813Y987910D01*
X208059Y987950D01*
X208306Y987984D01*
X208554Y988011D01*
X208803Y988032D01*
X209051Y988048D01*
X209301Y988057D01*
X209550Y988060D01*
X209799Y988057D01*
X210049Y988048D01*
X210297Y988032D01*
X210546Y988011D01*
X210794Y987984D01*
X211041Y987950D01*
X211287Y987910D01*
X211532Y987865D01*
X211776Y987813D01*
X212019Y987756D01*
X212260Y987692D01*
X212499Y987623D01*
X212737Y987547D01*
X212973Y987466D01*
X213207Y987379D01*
X213438Y987287D01*
X213667Y987188D01*
X213894Y987085D01*
X214118Y986975D01*
X214339Y986860D01*
X214558Y986740D01*
X214773Y986615D01*
X214986Y986484D01*
X215195Y986348D01*
X215400Y986207D01*
X215602Y986061D01*
X215801Y985910D01*
X215995Y985754D01*
X216186Y985593D01*
X216373Y985428D01*
X216556Y985258D01*
X216734Y985084D01*
X216908Y984906D01*
X217078Y984723D01*
X217243Y984536D01*
X217404Y984345D01*
X217560Y984151D01*
X217711Y983952D01*
X217857Y983750D01*
X217998Y983545D01*
X218134Y983336D01*
X218265Y983123D01*
X218390Y982908D01*
X218510Y982689D01*
X218625Y982468D01*
X218735Y982244D01*
X218838Y982017D01*
X218937Y981788D01*
X219029Y981557D01*
X219116Y981323D01*
X219197Y981087D01*
X219273Y980849D01*
X219342Y980610D01*
X219406Y980369D01*
X219463Y980126D01*
X219515Y979882D01*
X219560Y979637D01*
X219600Y979391D01*
X219634Y979144D01*
X219661Y978896D01*
X219682Y978647D01*
X219698Y978399D01*
X219707Y978149D01*
X219710Y977900D01*
X219707Y977651D01*
X219698Y977401D01*
X219682Y977153D01*
X219661Y976904D01*
X219634Y976656D01*
X219600Y976409D01*
X219560Y976163D01*
X219515Y975918D01*
X219463Y975674D01*
X219406Y975431D01*
X219342Y975190D01*
X219273Y974951D01*
X219197Y974713D01*
X219116Y974477D01*
X219029Y974243D01*
X218937Y974012D01*
X218838Y973783D01*
X218735Y973556D01*
X218625Y973332D01*
X218510Y973111D01*
X218390Y972892D01*
X218265Y972677D01*
X218134Y972464D01*
X217998Y972255D01*
X217857Y972050D01*
X217711Y971848D01*
X217560Y971649D01*
X217404Y971455D01*
X217243Y971264D01*
X217078Y971077D01*
X216908Y970894D01*
X216734Y970716D01*
X216556Y970542D01*
X216373Y970372D01*
X216186Y970207D01*
X215995Y970046D01*
X215801Y969890D01*
X215602Y969739D01*
X215400Y969593D01*
X215195Y969452D01*
X214986Y969316D01*
X214773Y969185D01*
X214558Y969060D01*
X214339Y968940D01*
X214118Y968825D01*
X213894Y968715D01*
X213667Y968612D01*
X213438Y968513D01*
X213207Y968421D01*
X212973Y968334D01*
X212737Y968253D01*
X212499Y968177D01*
X212260Y968108D01*
X212019Y968044D01*
X211776Y967987D01*
X211532Y967935D01*
X211287Y967890D01*
X211041Y967850D01*
X210794Y967816D01*
X210546Y967789D01*
X210297Y967768D01*
X210049Y967752D01*
X209799Y967743D01*
X209550Y967740D01*
X209301Y967743D01*
X209051Y967752D01*
X208803Y967768D01*
X208554Y967789D01*
X208306Y967816D01*
X208059Y967850D01*
X207813Y967890D01*
X207568Y967935D01*
X207324Y967987D01*
X207081Y968044D01*
X206840Y968108D01*
X206601Y968177D01*
X206363Y968253D01*
X206127Y968334D01*
X205893Y968421D01*
X205662Y968513D01*
X205433Y968612D01*
X205206Y968715D01*
X204982Y968825D01*
X204761Y968940D01*
X204542Y969060D01*
X204327Y969185D01*
X204114Y969316D01*
X203905Y969452D01*
X203700Y969593D01*
X203498Y969739D01*
X203299Y969890D01*
X203105Y970046D01*
X202914Y970207D01*
X202727Y970372D01*
X202544Y970542D01*
X202366Y970716D01*
X202192Y970894D01*
X202022Y971077D01*
X201857Y971264D01*
X201696Y971455D01*
X201540Y971649D01*
X201389Y971848D01*
X201243Y972050D01*
X201102Y972255D01*
X200966Y972464D01*
X200835Y972677D01*
X200710Y972892D01*
X200590Y973111D01*
X200475Y973332D01*
X200365Y973556D01*
X200262Y973783D01*
X200163Y974012D01*
X200071Y974243D01*
X199984Y974477D01*
X199903Y974713D01*
X199827Y974951D01*
X199758Y975190D01*
X199694Y975431D01*
X199637Y975674D01*
X199585Y975918D01*
X199540Y976163D01*
X199500Y976409D01*
X199466Y976656D01*
X199439Y976904D01*
X199418Y977153D01*
X199402Y977401D01*
X199393Y977651D01*
X199390Y977900D01*
D16*
X168550Y1031900D02*
X250550Y1031900D01*
X250550Y918900D02*
X168550Y918900D01*
X168550Y1026400D02*
X163050Y1026400D01*
X168550Y1026400D02*
X168550Y1031900D01*
X168550Y924400D02*
X168550Y918900D01*
X168550Y924400D02*
X163050Y924400D01*
X250550Y924400D02*
X256050Y924400D01*
X250550Y924400D02*
X250550Y918900D01*
X250550Y1026400D02*
X250550Y1031900D01*
X250550Y1026400D02*
X256050Y1026400D01*
X163050Y1026400D02*
X163050Y1004400D01*
X163050Y956400D02*
X163050Y924400D01*
X256050Y1004400D02*
X256050Y1026400D01*
X256050Y956400D02*
X256050Y924400D01*
D10*
X162433Y892818D02*
X162433Y883158D01*
X162433Y892818D02*
X168873Y892818D01*
X165653Y887988D02*
X162433Y887988D01*
X172256Y883158D02*
X172256Y892818D01*
X177086Y892818D01*
X178696Y891208D01*
X178696Y887988D01*
X177086Y886378D01*
X172256Y886378D01*
X175476Y886378D02*
X178696Y883158D01*
X182079Y884768D02*
X182079Y891208D01*
X183689Y892818D01*
X186909Y892818D01*
X188519Y891208D01*
X188519Y884768D01*
X186909Y883158D01*
X183689Y883158D01*
X182079Y884768D01*
X185299Y886378D02*
X188519Y883158D01*
X191902Y881548D02*
X198342Y881548D01*
X208165Y891208D02*
X206555Y892818D01*
X203335Y892818D01*
X201725Y891208D01*
X201725Y884768D01*
X203335Y883158D01*
X206555Y883158D01*
X208165Y884768D01*
X211548Y884768D02*
X211548Y892818D01*
X211548Y884768D02*
X213158Y883158D01*
X216378Y883158D01*
X217988Y884768D01*
X217988Y892818D01*
X224591Y892818D02*
X224591Y883158D01*
X221371Y892818D02*
X227811Y892818D01*
X232804Y892818D02*
X236024Y892818D01*
X232804Y892818D02*
X231194Y891208D01*
X231194Y884768D01*
X232804Y883158D01*
X236024Y883158D01*
X237634Y884768D01*
X237634Y891208D01*
X236024Y892818D01*
X241017Y892818D02*
X241017Y883158D01*
X241017Y892818D02*
X247457Y892818D01*
X244237Y887988D02*
X241017Y887988D01*
X250839Y883158D02*
X250839Y892818D01*
X257280Y892818D01*
X254060Y887988D02*
X250839Y887988D01*
D15*
X309880Y679450D02*
X309884Y679793D01*
X309897Y680135D01*
X309918Y680478D01*
X309947Y680819D01*
X309985Y681160D01*
X310031Y681500D01*
X310086Y681838D01*
X310148Y682175D01*
X310219Y682511D01*
X310299Y682844D01*
X310386Y683176D01*
X310482Y683505D01*
X310585Y683832D01*
X310697Y684156D01*
X310816Y684478D01*
X310943Y684796D01*
X311078Y685111D01*
X311221Y685423D01*
X311372Y685731D01*
X311530Y686035D01*
X311695Y686336D01*
X311868Y686632D01*
X312047Y686924D01*
X312234Y687211D01*
X312428Y687494D01*
X312629Y687772D01*
X312837Y688045D01*
X313051Y688312D01*
X313272Y688575D01*
X313499Y688832D01*
X313732Y689083D01*
X313972Y689328D01*
X314217Y689568D01*
X314468Y689801D01*
X314725Y690028D01*
X314988Y690249D01*
X315255Y690463D01*
X315528Y690671D01*
X315806Y690872D01*
X316089Y691066D01*
X316376Y691253D01*
X316668Y691432D01*
X316964Y691605D01*
X317265Y691770D01*
X317569Y691928D01*
X317877Y692079D01*
X318189Y692222D01*
X318504Y692357D01*
X318822Y692484D01*
X319144Y692603D01*
X319468Y692715D01*
X319795Y692818D01*
X320124Y692914D01*
X320456Y693001D01*
X320789Y693081D01*
X321125Y693152D01*
X321462Y693214D01*
X321800Y693269D01*
X322140Y693315D01*
X322481Y693353D01*
X322822Y693382D01*
X323165Y693403D01*
X323507Y693416D01*
X323850Y693420D01*
X324193Y693416D01*
X324535Y693403D01*
X324878Y693382D01*
X325219Y693353D01*
X325560Y693315D01*
X325900Y693269D01*
X326238Y693214D01*
X326575Y693152D01*
X326911Y693081D01*
X327244Y693001D01*
X327576Y692914D01*
X327905Y692818D01*
X328232Y692715D01*
X328556Y692603D01*
X328878Y692484D01*
X329196Y692357D01*
X329511Y692222D01*
X329823Y692079D01*
X330131Y691928D01*
X330435Y691770D01*
X330736Y691605D01*
X331032Y691432D01*
X331324Y691253D01*
X331611Y691066D01*
X331894Y690872D01*
X332172Y690671D01*
X332445Y690463D01*
X332712Y690249D01*
X332975Y690028D01*
X333232Y689801D01*
X333483Y689568D01*
X333728Y689328D01*
X333968Y689083D01*
X334201Y688832D01*
X334428Y688575D01*
X334649Y688312D01*
X334863Y688045D01*
X335071Y687772D01*
X335272Y687494D01*
X335466Y687211D01*
X335653Y686924D01*
X335832Y686632D01*
X336005Y686336D01*
X336170Y686035D01*
X336328Y685731D01*
X336479Y685423D01*
X336622Y685111D01*
X336757Y684796D01*
X336884Y684478D01*
X337003Y684156D01*
X337115Y683832D01*
X337218Y683505D01*
X337314Y683176D01*
X337401Y682844D01*
X337481Y682511D01*
X337552Y682175D01*
X337614Y681838D01*
X337669Y681500D01*
X337715Y681160D01*
X337753Y680819D01*
X337782Y680478D01*
X337803Y680135D01*
X337816Y679793D01*
X337820Y679450D01*
X337816Y679107D01*
X337803Y678765D01*
X337782Y678422D01*
X337753Y678081D01*
X337715Y677740D01*
X337669Y677400D01*
X337614Y677062D01*
X337552Y676725D01*
X337481Y676389D01*
X337401Y676056D01*
X337314Y675724D01*
X337218Y675395D01*
X337115Y675068D01*
X337003Y674744D01*
X336884Y674422D01*
X336757Y674104D01*
X336622Y673789D01*
X336479Y673477D01*
X336328Y673169D01*
X336170Y672865D01*
X336005Y672564D01*
X335832Y672268D01*
X335653Y671976D01*
X335466Y671689D01*
X335272Y671406D01*
X335071Y671128D01*
X334863Y670855D01*
X334649Y670588D01*
X334428Y670325D01*
X334201Y670068D01*
X333968Y669817D01*
X333728Y669572D01*
X333483Y669332D01*
X333232Y669099D01*
X332975Y668872D01*
X332712Y668651D01*
X332445Y668437D01*
X332172Y668229D01*
X331894Y668028D01*
X331611Y667834D01*
X331324Y667647D01*
X331032Y667468D01*
X330736Y667295D01*
X330435Y667130D01*
X330131Y666972D01*
X329823Y666821D01*
X329511Y666678D01*
X329196Y666543D01*
X328878Y666416D01*
X328556Y666297D01*
X328232Y666185D01*
X327905Y666082D01*
X327576Y665986D01*
X327244Y665899D01*
X326911Y665819D01*
X326575Y665748D01*
X326238Y665686D01*
X325900Y665631D01*
X325560Y665585D01*
X325219Y665547D01*
X324878Y665518D01*
X324535Y665497D01*
X324193Y665484D01*
X323850Y665480D01*
X323507Y665484D01*
X323165Y665497D01*
X322822Y665518D01*
X322481Y665547D01*
X322140Y665585D01*
X321800Y665631D01*
X321462Y665686D01*
X321125Y665748D01*
X320789Y665819D01*
X320456Y665899D01*
X320124Y665986D01*
X319795Y666082D01*
X319468Y666185D01*
X319144Y666297D01*
X318822Y666416D01*
X318504Y666543D01*
X318189Y666678D01*
X317877Y666821D01*
X317569Y666972D01*
X317265Y667130D01*
X316964Y667295D01*
X316668Y667468D01*
X316376Y667647D01*
X316089Y667834D01*
X315806Y668028D01*
X315528Y668229D01*
X315255Y668437D01*
X314988Y668651D01*
X314725Y668872D01*
X314468Y669099D01*
X314217Y669332D01*
X313972Y669572D01*
X313732Y669817D01*
X313499Y670068D01*
X313272Y670325D01*
X313051Y670588D01*
X312837Y670855D01*
X312629Y671128D01*
X312428Y671406D01*
X312234Y671689D01*
X312047Y671976D01*
X311868Y672268D01*
X311695Y672564D01*
X311530Y672865D01*
X311372Y673169D01*
X311221Y673477D01*
X311078Y673789D01*
X310943Y674104D01*
X310816Y674422D01*
X310697Y674744D01*
X310585Y675068D01*
X310482Y675395D01*
X310386Y675724D01*
X310299Y676056D01*
X310219Y676389D01*
X310148Y676725D01*
X310086Y677062D01*
X310031Y677400D01*
X309985Y677740D01*
X309947Y678081D01*
X309918Y678422D01*
X309897Y678765D01*
X309884Y679107D01*
X309880Y679450D01*
X313690Y679450D02*
X313693Y679699D01*
X313702Y679949D01*
X313718Y680197D01*
X313739Y680446D01*
X313766Y680694D01*
X313800Y680941D01*
X313840Y681187D01*
X313885Y681432D01*
X313937Y681676D01*
X313994Y681919D01*
X314058Y682160D01*
X314127Y682399D01*
X314203Y682637D01*
X314284Y682873D01*
X314371Y683107D01*
X314463Y683338D01*
X314562Y683567D01*
X314665Y683794D01*
X314775Y684018D01*
X314890Y684239D01*
X315010Y684458D01*
X315135Y684673D01*
X315266Y684886D01*
X315402Y685095D01*
X315543Y685300D01*
X315689Y685502D01*
X315840Y685701D01*
X315996Y685895D01*
X316157Y686086D01*
X316322Y686273D01*
X316492Y686456D01*
X316666Y686634D01*
X316844Y686808D01*
X317027Y686978D01*
X317214Y687143D01*
X317405Y687304D01*
X317599Y687460D01*
X317798Y687611D01*
X318000Y687757D01*
X318205Y687898D01*
X318414Y688034D01*
X318627Y688165D01*
X318842Y688290D01*
X319061Y688410D01*
X319282Y688525D01*
X319506Y688635D01*
X319733Y688738D01*
X319962Y688837D01*
X320193Y688929D01*
X320427Y689016D01*
X320663Y689097D01*
X320901Y689173D01*
X321140Y689242D01*
X321381Y689306D01*
X321624Y689363D01*
X321868Y689415D01*
X322113Y689460D01*
X322359Y689500D01*
X322606Y689534D01*
X322854Y689561D01*
X323103Y689582D01*
X323351Y689598D01*
X323601Y689607D01*
X323850Y689610D01*
X324099Y689607D01*
X324349Y689598D01*
X324597Y689582D01*
X324846Y689561D01*
X325094Y689534D01*
X325341Y689500D01*
X325587Y689460D01*
X325832Y689415D01*
X326076Y689363D01*
X326319Y689306D01*
X326560Y689242D01*
X326799Y689173D01*
X327037Y689097D01*
X327273Y689016D01*
X327507Y688929D01*
X327738Y688837D01*
X327967Y688738D01*
X328194Y688635D01*
X328418Y688525D01*
X328639Y688410D01*
X328858Y688290D01*
X329073Y688165D01*
X329286Y688034D01*
X329495Y687898D01*
X329700Y687757D01*
X329902Y687611D01*
X330101Y687460D01*
X330295Y687304D01*
X330486Y687143D01*
X330673Y686978D01*
X330856Y686808D01*
X331034Y686634D01*
X331208Y686456D01*
X331378Y686273D01*
X331543Y686086D01*
X331704Y685895D01*
X331860Y685701D01*
X332011Y685502D01*
X332157Y685300D01*
X332298Y685095D01*
X332434Y684886D01*
X332565Y684673D01*
X332690Y684458D01*
X332810Y684239D01*
X332925Y684018D01*
X333035Y683794D01*
X333138Y683567D01*
X333237Y683338D01*
X333329Y683107D01*
X333416Y682873D01*
X333497Y682637D01*
X333573Y682399D01*
X333642Y682160D01*
X333706Y681919D01*
X333763Y681676D01*
X333815Y681432D01*
X333860Y681187D01*
X333900Y680941D01*
X333934Y680694D01*
X333961Y680446D01*
X333982Y680197D01*
X333998Y679949D01*
X334007Y679699D01*
X334010Y679450D01*
X334007Y679201D01*
X333998Y678951D01*
X333982Y678703D01*
X333961Y678454D01*
X333934Y678206D01*
X333900Y677959D01*
X333860Y677713D01*
X333815Y677468D01*
X333763Y677224D01*
X333706Y676981D01*
X333642Y676740D01*
X333573Y676501D01*
X333497Y676263D01*
X333416Y676027D01*
X333329Y675793D01*
X333237Y675562D01*
X333138Y675333D01*
X333035Y675106D01*
X332925Y674882D01*
X332810Y674661D01*
X332690Y674442D01*
X332565Y674227D01*
X332434Y674014D01*
X332298Y673805D01*
X332157Y673600D01*
X332011Y673398D01*
X331860Y673199D01*
X331704Y673005D01*
X331543Y672814D01*
X331378Y672627D01*
X331208Y672444D01*
X331034Y672266D01*
X330856Y672092D01*
X330673Y671922D01*
X330486Y671757D01*
X330295Y671596D01*
X330101Y671440D01*
X329902Y671289D01*
X329700Y671143D01*
X329495Y671002D01*
X329286Y670866D01*
X329073Y670735D01*
X328858Y670610D01*
X328639Y670490D01*
X328418Y670375D01*
X328194Y670265D01*
X327967Y670162D01*
X327738Y670063D01*
X327507Y669971D01*
X327273Y669884D01*
X327037Y669803D01*
X326799Y669727D01*
X326560Y669658D01*
X326319Y669594D01*
X326076Y669537D01*
X325832Y669485D01*
X325587Y669440D01*
X325341Y669400D01*
X325094Y669366D01*
X324846Y669339D01*
X324597Y669318D01*
X324349Y669302D01*
X324099Y669293D01*
X323850Y669290D01*
X323601Y669293D01*
X323351Y669302D01*
X323103Y669318D01*
X322854Y669339D01*
X322606Y669366D01*
X322359Y669400D01*
X322113Y669440D01*
X321868Y669485D01*
X321624Y669537D01*
X321381Y669594D01*
X321140Y669658D01*
X320901Y669727D01*
X320663Y669803D01*
X320427Y669884D01*
X320193Y669971D01*
X319962Y670063D01*
X319733Y670162D01*
X319506Y670265D01*
X319282Y670375D01*
X319061Y670490D01*
X318842Y670610D01*
X318627Y670735D01*
X318414Y670866D01*
X318205Y671002D01*
X318000Y671143D01*
X317798Y671289D01*
X317599Y671440D01*
X317405Y671596D01*
X317214Y671757D01*
X317027Y671922D01*
X316844Y672092D01*
X316666Y672266D01*
X316492Y672444D01*
X316322Y672627D01*
X316157Y672814D01*
X315996Y673005D01*
X315840Y673199D01*
X315689Y673398D01*
X315543Y673600D01*
X315402Y673805D01*
X315266Y674014D01*
X315135Y674227D01*
X315010Y674442D01*
X314890Y674661D01*
X314775Y674882D01*
X314665Y675106D01*
X314562Y675333D01*
X314463Y675562D01*
X314371Y675793D01*
X314284Y676027D01*
X314203Y676263D01*
X314127Y676501D01*
X314058Y676740D01*
X313994Y676981D01*
X313937Y677224D01*
X313885Y677468D01*
X313840Y677713D01*
X313800Y677959D01*
X313766Y678206D01*
X313739Y678454D01*
X313718Y678703D01*
X313702Y678951D01*
X313693Y679201D01*
X313690Y679450D01*
D16*
X282850Y733450D02*
X364850Y733450D01*
X364850Y620450D02*
X282850Y620450D01*
X282850Y727950D02*
X277350Y727950D01*
X282850Y727950D02*
X282850Y733450D01*
X282850Y625950D02*
X282850Y620450D01*
X282850Y625950D02*
X277350Y625950D01*
X364850Y625950D02*
X370350Y625950D01*
X364850Y625950D02*
X364850Y620450D01*
X364850Y727950D02*
X364850Y733450D01*
X364850Y727950D02*
X370350Y727950D01*
X277350Y727950D02*
X277350Y705950D01*
X277350Y657950D02*
X277350Y625950D01*
X370350Y705950D02*
X370350Y727950D01*
X370350Y657950D02*
X370350Y625950D01*
D11*
X273685Y577225D02*
X273685Y565785D01*
X273685Y577225D02*
X279405Y577225D01*
X281312Y575318D01*
X281312Y571505D01*
X279405Y569598D01*
X273685Y569598D01*
X277498Y569598D02*
X281312Y565785D01*
X285379Y577225D02*
X293005Y577225D01*
X285379Y577225D02*
X285379Y565785D01*
X293005Y565785D01*
X289192Y571505D02*
X285379Y571505D01*
X302793Y577225D02*
X304699Y575318D01*
X302793Y577225D02*
X298980Y577225D01*
X297073Y575318D01*
X297073Y573412D01*
X298980Y571505D01*
X302793Y571505D01*
X304699Y569598D01*
X304699Y567692D01*
X302793Y565785D01*
X298980Y565785D01*
X297073Y567692D01*
X310674Y577225D02*
X314487Y577225D01*
X310674Y577225D02*
X308767Y575318D01*
X308767Y567692D01*
X310674Y565785D01*
X314487Y565785D01*
X316393Y567692D01*
X316393Y575318D01*
X314487Y577225D01*
X320461Y577225D02*
X320461Y565785D01*
X328087Y565785D02*
X320461Y577225D01*
X328087Y577225D02*
X328087Y565785D01*
X332155Y565785D02*
X332155Y573412D01*
X335968Y577225D01*
X339781Y573412D01*
X339781Y565785D01*
X339781Y571505D02*
X332155Y571505D01*
X343849Y565785D02*
X343849Y577225D01*
X351475Y565785D01*
X351475Y577225D01*
X361263Y577225D02*
X363169Y575318D01*
X361263Y577225D02*
X357449Y577225D01*
X355543Y575318D01*
X355543Y567692D01*
X357449Y565785D01*
X361263Y565785D01*
X363169Y567692D01*
X367237Y577225D02*
X374863Y577225D01*
X367237Y577225D02*
X367237Y565785D01*
X374863Y565785D01*
X371050Y571505D02*
X367237Y571505D01*
D15*
X151130Y476250D02*
X151134Y476593D01*
X151147Y476935D01*
X151168Y477278D01*
X151197Y477619D01*
X151235Y477960D01*
X151281Y478300D01*
X151336Y478638D01*
X151398Y478975D01*
X151469Y479311D01*
X151549Y479644D01*
X151636Y479976D01*
X151732Y480305D01*
X151835Y480632D01*
X151947Y480956D01*
X152066Y481278D01*
X152193Y481596D01*
X152328Y481911D01*
X152471Y482223D01*
X152622Y482531D01*
X152780Y482835D01*
X152945Y483136D01*
X153118Y483432D01*
X153297Y483724D01*
X153484Y484011D01*
X153678Y484294D01*
X153879Y484572D01*
X154087Y484845D01*
X154301Y485112D01*
X154522Y485375D01*
X154749Y485632D01*
X154982Y485883D01*
X155222Y486128D01*
X155467Y486368D01*
X155718Y486601D01*
X155975Y486828D01*
X156238Y487049D01*
X156505Y487263D01*
X156778Y487471D01*
X157056Y487672D01*
X157339Y487866D01*
X157626Y488053D01*
X157918Y488232D01*
X158214Y488405D01*
X158515Y488570D01*
X158819Y488728D01*
X159127Y488879D01*
X159439Y489022D01*
X159754Y489157D01*
X160072Y489284D01*
X160394Y489403D01*
X160718Y489515D01*
X161045Y489618D01*
X161374Y489714D01*
X161706Y489801D01*
X162039Y489881D01*
X162375Y489952D01*
X162712Y490014D01*
X163050Y490069D01*
X163390Y490115D01*
X163731Y490153D01*
X164072Y490182D01*
X164415Y490203D01*
X164757Y490216D01*
X165100Y490220D01*
X165443Y490216D01*
X165785Y490203D01*
X166128Y490182D01*
X166469Y490153D01*
X166810Y490115D01*
X167150Y490069D01*
X167488Y490014D01*
X167825Y489952D01*
X168161Y489881D01*
X168494Y489801D01*
X168826Y489714D01*
X169155Y489618D01*
X169482Y489515D01*
X169806Y489403D01*
X170128Y489284D01*
X170446Y489157D01*
X170761Y489022D01*
X171073Y488879D01*
X171381Y488728D01*
X171685Y488570D01*
X171986Y488405D01*
X172282Y488232D01*
X172574Y488053D01*
X172861Y487866D01*
X173144Y487672D01*
X173422Y487471D01*
X173695Y487263D01*
X173962Y487049D01*
X174225Y486828D01*
X174482Y486601D01*
X174733Y486368D01*
X174978Y486128D01*
X175218Y485883D01*
X175451Y485632D01*
X175678Y485375D01*
X175899Y485112D01*
X176113Y484845D01*
X176321Y484572D01*
X176522Y484294D01*
X176716Y484011D01*
X176903Y483724D01*
X177082Y483432D01*
X177255Y483136D01*
X177420Y482835D01*
X177578Y482531D01*
X177729Y482223D01*
X177872Y481911D01*
X178007Y481596D01*
X178134Y481278D01*
X178253Y480956D01*
X178365Y480632D01*
X178468Y480305D01*
X178564Y479976D01*
X178651Y479644D01*
X178731Y479311D01*
X178802Y478975D01*
X178864Y478638D01*
X178919Y478300D01*
X178965Y477960D01*
X179003Y477619D01*
X179032Y477278D01*
X179053Y476935D01*
X179066Y476593D01*
X179070Y476250D01*
X179066Y475907D01*
X179053Y475565D01*
X179032Y475222D01*
X179003Y474881D01*
X178965Y474540D01*
X178919Y474200D01*
X178864Y473862D01*
X178802Y473525D01*
X178731Y473189D01*
X178651Y472856D01*
X178564Y472524D01*
X178468Y472195D01*
X178365Y471868D01*
X178253Y471544D01*
X178134Y471222D01*
X178007Y470904D01*
X177872Y470589D01*
X177729Y470277D01*
X177578Y469969D01*
X177420Y469665D01*
X177255Y469364D01*
X177082Y469068D01*
X176903Y468776D01*
X176716Y468489D01*
X176522Y468206D01*
X176321Y467928D01*
X176113Y467655D01*
X175899Y467388D01*
X175678Y467125D01*
X175451Y466868D01*
X175218Y466617D01*
X174978Y466372D01*
X174733Y466132D01*
X174482Y465899D01*
X174225Y465672D01*
X173962Y465451D01*
X173695Y465237D01*
X173422Y465029D01*
X173144Y464828D01*
X172861Y464634D01*
X172574Y464447D01*
X172282Y464268D01*
X171986Y464095D01*
X171685Y463930D01*
X171381Y463772D01*
X171073Y463621D01*
X170761Y463478D01*
X170446Y463343D01*
X170128Y463216D01*
X169806Y463097D01*
X169482Y462985D01*
X169155Y462882D01*
X168826Y462786D01*
X168494Y462699D01*
X168161Y462619D01*
X167825Y462548D01*
X167488Y462486D01*
X167150Y462431D01*
X166810Y462385D01*
X166469Y462347D01*
X166128Y462318D01*
X165785Y462297D01*
X165443Y462284D01*
X165100Y462280D01*
X164757Y462284D01*
X164415Y462297D01*
X164072Y462318D01*
X163731Y462347D01*
X163390Y462385D01*
X163050Y462431D01*
X162712Y462486D01*
X162375Y462548D01*
X162039Y462619D01*
X161706Y462699D01*
X161374Y462786D01*
X161045Y462882D01*
X160718Y462985D01*
X160394Y463097D01*
X160072Y463216D01*
X159754Y463343D01*
X159439Y463478D01*
X159127Y463621D01*
X158819Y463772D01*
X158515Y463930D01*
X158214Y464095D01*
X157918Y464268D01*
X157626Y464447D01*
X157339Y464634D01*
X157056Y464828D01*
X156778Y465029D01*
X156505Y465237D01*
X156238Y465451D01*
X155975Y465672D01*
X155718Y465899D01*
X155467Y466132D01*
X155222Y466372D01*
X154982Y466617D01*
X154749Y466868D01*
X154522Y467125D01*
X154301Y467388D01*
X154087Y467655D01*
X153879Y467928D01*
X153678Y468206D01*
X153484Y468489D01*
X153297Y468776D01*
X153118Y469068D01*
X152945Y469364D01*
X152780Y469665D01*
X152622Y469969D01*
X152471Y470277D01*
X152328Y470589D01*
X152193Y470904D01*
X152066Y471222D01*
X151947Y471544D01*
X151835Y471868D01*
X151732Y472195D01*
X151636Y472524D01*
X151549Y472856D01*
X151469Y473189D01*
X151398Y473525D01*
X151336Y473862D01*
X151281Y474200D01*
X151235Y474540D01*
X151197Y474881D01*
X151168Y475222D01*
X151147Y475565D01*
X151134Y475907D01*
X151130Y476250D01*
X154940Y476250D02*
X154943Y476499D01*
X154952Y476749D01*
X154968Y476997D01*
X154989Y477246D01*
X155016Y477494D01*
X155050Y477741D01*
X155090Y477987D01*
X155135Y478232D01*
X155187Y478476D01*
X155244Y478719D01*
X155308Y478960D01*
X155377Y479199D01*
X155453Y479437D01*
X155534Y479673D01*
X155621Y479907D01*
X155713Y480138D01*
X155812Y480367D01*
X155915Y480594D01*
X156025Y480818D01*
X156140Y481039D01*
X156260Y481258D01*
X156385Y481473D01*
X156516Y481686D01*
X156652Y481895D01*
X156793Y482100D01*
X156939Y482302D01*
X157090Y482501D01*
X157246Y482695D01*
X157407Y482886D01*
X157572Y483073D01*
X157742Y483256D01*
X157916Y483434D01*
X158094Y483608D01*
X158277Y483778D01*
X158464Y483943D01*
X158655Y484104D01*
X158849Y484260D01*
X159048Y484411D01*
X159250Y484557D01*
X159455Y484698D01*
X159664Y484834D01*
X159877Y484965D01*
X160092Y485090D01*
X160311Y485210D01*
X160532Y485325D01*
X160756Y485435D01*
X160983Y485538D01*
X161212Y485637D01*
X161443Y485729D01*
X161677Y485816D01*
X161913Y485897D01*
X162151Y485973D01*
X162390Y486042D01*
X162631Y486106D01*
X162874Y486163D01*
X163118Y486215D01*
X163363Y486260D01*
X163609Y486300D01*
X163856Y486334D01*
X164104Y486361D01*
X164353Y486382D01*
X164601Y486398D01*
X164851Y486407D01*
X165100Y486410D01*
X165349Y486407D01*
X165599Y486398D01*
X165847Y486382D01*
X166096Y486361D01*
X166344Y486334D01*
X166591Y486300D01*
X166837Y486260D01*
X167082Y486215D01*
X167326Y486163D01*
X167569Y486106D01*
X167810Y486042D01*
X168049Y485973D01*
X168287Y485897D01*
X168523Y485816D01*
X168757Y485729D01*
X168988Y485637D01*
X169217Y485538D01*
X169444Y485435D01*
X169668Y485325D01*
X169889Y485210D01*
X170108Y485090D01*
X170323Y484965D01*
X170536Y484834D01*
X170745Y484698D01*
X170950Y484557D01*
X171152Y484411D01*
X171351Y484260D01*
X171545Y484104D01*
X171736Y483943D01*
X171923Y483778D01*
X172106Y483608D01*
X172284Y483434D01*
X172458Y483256D01*
X172628Y483073D01*
X172793Y482886D01*
X172954Y482695D01*
X173110Y482501D01*
X173261Y482302D01*
X173407Y482100D01*
X173548Y481895D01*
X173684Y481686D01*
X173815Y481473D01*
X173940Y481258D01*
X174060Y481039D01*
X174175Y480818D01*
X174285Y480594D01*
X174388Y480367D01*
X174487Y480138D01*
X174579Y479907D01*
X174666Y479673D01*
X174747Y479437D01*
X174823Y479199D01*
X174892Y478960D01*
X174956Y478719D01*
X175013Y478476D01*
X175065Y478232D01*
X175110Y477987D01*
X175150Y477741D01*
X175184Y477494D01*
X175211Y477246D01*
X175232Y476997D01*
X175248Y476749D01*
X175257Y476499D01*
X175260Y476250D01*
X175257Y476001D01*
X175248Y475751D01*
X175232Y475503D01*
X175211Y475254D01*
X175184Y475006D01*
X175150Y474759D01*
X175110Y474513D01*
X175065Y474268D01*
X175013Y474024D01*
X174956Y473781D01*
X174892Y473540D01*
X174823Y473301D01*
X174747Y473063D01*
X174666Y472827D01*
X174579Y472593D01*
X174487Y472362D01*
X174388Y472133D01*
X174285Y471906D01*
X174175Y471682D01*
X174060Y471461D01*
X173940Y471242D01*
X173815Y471027D01*
X173684Y470814D01*
X173548Y470605D01*
X173407Y470400D01*
X173261Y470198D01*
X173110Y469999D01*
X172954Y469805D01*
X172793Y469614D01*
X172628Y469427D01*
X172458Y469244D01*
X172284Y469066D01*
X172106Y468892D01*
X171923Y468722D01*
X171736Y468557D01*
X171545Y468396D01*
X171351Y468240D01*
X171152Y468089D01*
X170950Y467943D01*
X170745Y467802D01*
X170536Y467666D01*
X170323Y467535D01*
X170108Y467410D01*
X169889Y467290D01*
X169668Y467175D01*
X169444Y467065D01*
X169217Y466962D01*
X168988Y466863D01*
X168757Y466771D01*
X168523Y466684D01*
X168287Y466603D01*
X168049Y466527D01*
X167810Y466458D01*
X167569Y466394D01*
X167326Y466337D01*
X167082Y466285D01*
X166837Y466240D01*
X166591Y466200D01*
X166344Y466166D01*
X166096Y466139D01*
X165847Y466118D01*
X165599Y466102D01*
X165349Y466093D01*
X165100Y466090D01*
X164851Y466093D01*
X164601Y466102D01*
X164353Y466118D01*
X164104Y466139D01*
X163856Y466166D01*
X163609Y466200D01*
X163363Y466240D01*
X163118Y466285D01*
X162874Y466337D01*
X162631Y466394D01*
X162390Y466458D01*
X162151Y466527D01*
X161913Y466603D01*
X161677Y466684D01*
X161443Y466771D01*
X161212Y466863D01*
X160983Y466962D01*
X160756Y467065D01*
X160532Y467175D01*
X160311Y467290D01*
X160092Y467410D01*
X159877Y467535D01*
X159664Y467666D01*
X159455Y467802D01*
X159250Y467943D01*
X159048Y468089D01*
X158849Y468240D01*
X158655Y468396D01*
X158464Y468557D01*
X158277Y468722D01*
X158094Y468892D01*
X157916Y469066D01*
X157742Y469244D01*
X157572Y469427D01*
X157407Y469614D01*
X157246Y469805D01*
X157090Y469999D01*
X156939Y470198D01*
X156793Y470400D01*
X156652Y470605D01*
X156516Y470814D01*
X156385Y471027D01*
X156260Y471242D01*
X156140Y471461D01*
X156025Y471682D01*
X155915Y471906D01*
X155812Y472133D01*
X155713Y472362D01*
X155621Y472593D01*
X155534Y472827D01*
X155453Y473063D01*
X155377Y473301D01*
X155308Y473540D01*
X155244Y473781D01*
X155187Y474024D01*
X155135Y474268D01*
X155090Y474513D01*
X155050Y474759D01*
X155016Y475006D01*
X154989Y475254D01*
X154968Y475503D01*
X154952Y475751D01*
X154943Y476001D01*
X154940Y476250D01*
D16*
X124100Y530250D02*
X206100Y530250D01*
X206100Y417250D02*
X124100Y417250D01*
X124100Y524750D02*
X118600Y524750D01*
X124100Y524750D02*
X124100Y530250D01*
X124100Y422750D02*
X124100Y417250D01*
X124100Y422750D02*
X118600Y422750D01*
X206100Y422750D02*
X211600Y422750D01*
X206100Y422750D02*
X206100Y417250D01*
X206100Y524750D02*
X206100Y530250D01*
X206100Y524750D02*
X211600Y524750D01*
X118600Y524750D02*
X118600Y502750D01*
X118600Y454750D02*
X118600Y422750D01*
X211600Y502750D02*
X211600Y524750D01*
X211600Y454750D02*
X211600Y422750D01*
D11*
X128912Y543568D02*
X127005Y545475D01*
X123192Y545475D01*
X121285Y543568D01*
X121285Y535942D01*
X123192Y534035D01*
X127005Y534035D01*
X128912Y535942D01*
X132979Y537848D02*
X132979Y545475D01*
X132979Y537848D02*
X136792Y534035D01*
X140605Y537848D01*
X140605Y545475D01*
X144673Y541662D02*
X148486Y545475D01*
X148486Y534035D01*
X144673Y534035D02*
X152299Y534035D01*
X156367Y532128D02*
X163993Y532128D01*
X168061Y534035D02*
X168061Y541662D01*
X171874Y545475D01*
X175687Y541662D01*
X175687Y534035D01*
X175687Y539755D02*
X168061Y539755D01*
X183568Y534035D02*
X183568Y545475D01*
X179755Y545475D02*
X187381Y545475D01*
X195262Y545475D02*
X195262Y534035D01*
X191449Y545475D02*
X199075Y545475D01*
X203143Y545475D02*
X203143Y534035D01*
X210769Y534035D02*
X203143Y545475D01*
X210769Y545475D02*
X210769Y534035D01*
D15*
X157480Y88900D02*
X157484Y89243D01*
X157497Y89585D01*
X157518Y89928D01*
X157547Y90269D01*
X157585Y90610D01*
X157631Y90950D01*
X157686Y91288D01*
X157748Y91625D01*
X157819Y91961D01*
X157899Y92294D01*
X157986Y92626D01*
X158082Y92955D01*
X158185Y93282D01*
X158297Y93606D01*
X158416Y93928D01*
X158543Y94246D01*
X158678Y94561D01*
X158821Y94873D01*
X158972Y95181D01*
X159130Y95485D01*
X159295Y95786D01*
X159468Y96082D01*
X159647Y96374D01*
X159834Y96661D01*
X160028Y96944D01*
X160229Y97222D01*
X160437Y97495D01*
X160651Y97762D01*
X160872Y98025D01*
X161099Y98282D01*
X161332Y98533D01*
X161572Y98778D01*
X161817Y99018D01*
X162068Y99251D01*
X162325Y99478D01*
X162588Y99699D01*
X162855Y99913D01*
X163128Y100121D01*
X163406Y100322D01*
X163689Y100516D01*
X163976Y100703D01*
X164268Y100882D01*
X164564Y101055D01*
X164865Y101220D01*
X165169Y101378D01*
X165477Y101529D01*
X165789Y101672D01*
X166104Y101807D01*
X166422Y101934D01*
X166744Y102053D01*
X167068Y102165D01*
X167395Y102268D01*
X167724Y102364D01*
X168056Y102451D01*
X168389Y102531D01*
X168725Y102602D01*
X169062Y102664D01*
X169400Y102719D01*
X169740Y102765D01*
X170081Y102803D01*
X170422Y102832D01*
X170765Y102853D01*
X171107Y102866D01*
X171450Y102870D01*
X171793Y102866D01*
X172135Y102853D01*
X172478Y102832D01*
X172819Y102803D01*
X173160Y102765D01*
X173500Y102719D01*
X173838Y102664D01*
X174175Y102602D01*
X174511Y102531D01*
X174844Y102451D01*
X175176Y102364D01*
X175505Y102268D01*
X175832Y102165D01*
X176156Y102053D01*
X176478Y101934D01*
X176796Y101807D01*
X177111Y101672D01*
X177423Y101529D01*
X177731Y101378D01*
X178035Y101220D01*
X178336Y101055D01*
X178632Y100882D01*
X178924Y100703D01*
X179211Y100516D01*
X179494Y100322D01*
X179772Y100121D01*
X180045Y99913D01*
X180312Y99699D01*
X180575Y99478D01*
X180832Y99251D01*
X181083Y99018D01*
X181328Y98778D01*
X181568Y98533D01*
X181801Y98282D01*
X182028Y98025D01*
X182249Y97762D01*
X182463Y97495D01*
X182671Y97222D01*
X182872Y96944D01*
X183066Y96661D01*
X183253Y96374D01*
X183432Y96082D01*
X183605Y95786D01*
X183770Y95485D01*
X183928Y95181D01*
X184079Y94873D01*
X184222Y94561D01*
X184357Y94246D01*
X184484Y93928D01*
X184603Y93606D01*
X184715Y93282D01*
X184818Y92955D01*
X184914Y92626D01*
X185001Y92294D01*
X185081Y91961D01*
X185152Y91625D01*
X185214Y91288D01*
X185269Y90950D01*
X185315Y90610D01*
X185353Y90269D01*
X185382Y89928D01*
X185403Y89585D01*
X185416Y89243D01*
X185420Y88900D01*
X185416Y88557D01*
X185403Y88215D01*
X185382Y87872D01*
X185353Y87531D01*
X185315Y87190D01*
X185269Y86850D01*
X185214Y86512D01*
X185152Y86175D01*
X185081Y85839D01*
X185001Y85506D01*
X184914Y85174D01*
X184818Y84845D01*
X184715Y84518D01*
X184603Y84194D01*
X184484Y83872D01*
X184357Y83554D01*
X184222Y83239D01*
X184079Y82927D01*
X183928Y82619D01*
X183770Y82315D01*
X183605Y82014D01*
X183432Y81718D01*
X183253Y81426D01*
X183066Y81139D01*
X182872Y80856D01*
X182671Y80578D01*
X182463Y80305D01*
X182249Y80038D01*
X182028Y79775D01*
X181801Y79518D01*
X181568Y79267D01*
X181328Y79022D01*
X181083Y78782D01*
X180832Y78549D01*
X180575Y78322D01*
X180312Y78101D01*
X180045Y77887D01*
X179772Y77679D01*
X179494Y77478D01*
X179211Y77284D01*
X178924Y77097D01*
X178632Y76918D01*
X178336Y76745D01*
X178035Y76580D01*
X177731Y76422D01*
X177423Y76271D01*
X177111Y76128D01*
X176796Y75993D01*
X176478Y75866D01*
X176156Y75747D01*
X175832Y75635D01*
X175505Y75532D01*
X175176Y75436D01*
X174844Y75349D01*
X174511Y75269D01*
X174175Y75198D01*
X173838Y75136D01*
X173500Y75081D01*
X173160Y75035D01*
X172819Y74997D01*
X172478Y74968D01*
X172135Y74947D01*
X171793Y74934D01*
X171450Y74930D01*
X171107Y74934D01*
X170765Y74947D01*
X170422Y74968D01*
X170081Y74997D01*
X169740Y75035D01*
X169400Y75081D01*
X169062Y75136D01*
X168725Y75198D01*
X168389Y75269D01*
X168056Y75349D01*
X167724Y75436D01*
X167395Y75532D01*
X167068Y75635D01*
X166744Y75747D01*
X166422Y75866D01*
X166104Y75993D01*
X165789Y76128D01*
X165477Y76271D01*
X165169Y76422D01*
X164865Y76580D01*
X164564Y76745D01*
X164268Y76918D01*
X163976Y77097D01*
X163689Y77284D01*
X163406Y77478D01*
X163128Y77679D01*
X162855Y77887D01*
X162588Y78101D01*
X162325Y78322D01*
X162068Y78549D01*
X161817Y78782D01*
X161572Y79022D01*
X161332Y79267D01*
X161099Y79518D01*
X160872Y79775D01*
X160651Y80038D01*
X160437Y80305D01*
X160229Y80578D01*
X160028Y80856D01*
X159834Y81139D01*
X159647Y81426D01*
X159468Y81718D01*
X159295Y82014D01*
X159130Y82315D01*
X158972Y82619D01*
X158821Y82927D01*
X158678Y83239D01*
X158543Y83554D01*
X158416Y83872D01*
X158297Y84194D01*
X158185Y84518D01*
X158082Y84845D01*
X157986Y85174D01*
X157899Y85506D01*
X157819Y85839D01*
X157748Y86175D01*
X157686Y86512D01*
X157631Y86850D01*
X157585Y87190D01*
X157547Y87531D01*
X157518Y87872D01*
X157497Y88215D01*
X157484Y88557D01*
X157480Y88900D01*
X161290Y88900D02*
X161293Y89149D01*
X161302Y89399D01*
X161318Y89647D01*
X161339Y89896D01*
X161366Y90144D01*
X161400Y90391D01*
X161440Y90637D01*
X161485Y90882D01*
X161537Y91126D01*
X161594Y91369D01*
X161658Y91610D01*
X161727Y91849D01*
X161803Y92087D01*
X161884Y92323D01*
X161971Y92557D01*
X162063Y92788D01*
X162162Y93017D01*
X162265Y93244D01*
X162375Y93468D01*
X162490Y93689D01*
X162610Y93908D01*
X162735Y94123D01*
X162866Y94336D01*
X163002Y94545D01*
X163143Y94750D01*
X163289Y94952D01*
X163440Y95151D01*
X163596Y95345D01*
X163757Y95536D01*
X163922Y95723D01*
X164092Y95906D01*
X164266Y96084D01*
X164444Y96258D01*
X164627Y96428D01*
X164814Y96593D01*
X165005Y96754D01*
X165199Y96910D01*
X165398Y97061D01*
X165600Y97207D01*
X165805Y97348D01*
X166014Y97484D01*
X166227Y97615D01*
X166442Y97740D01*
X166661Y97860D01*
X166882Y97975D01*
X167106Y98085D01*
X167333Y98188D01*
X167562Y98287D01*
X167793Y98379D01*
X168027Y98466D01*
X168263Y98547D01*
X168501Y98623D01*
X168740Y98692D01*
X168981Y98756D01*
X169224Y98813D01*
X169468Y98865D01*
X169713Y98910D01*
X169959Y98950D01*
X170206Y98984D01*
X170454Y99011D01*
X170703Y99032D01*
X170951Y99048D01*
X171201Y99057D01*
X171450Y99060D01*
X171699Y99057D01*
X171949Y99048D01*
X172197Y99032D01*
X172446Y99011D01*
X172694Y98984D01*
X172941Y98950D01*
X173187Y98910D01*
X173432Y98865D01*
X173676Y98813D01*
X173919Y98756D01*
X174160Y98692D01*
X174399Y98623D01*
X174637Y98547D01*
X174873Y98466D01*
X175107Y98379D01*
X175338Y98287D01*
X175567Y98188D01*
X175794Y98085D01*
X176018Y97975D01*
X176239Y97860D01*
X176458Y97740D01*
X176673Y97615D01*
X176886Y97484D01*
X177095Y97348D01*
X177300Y97207D01*
X177502Y97061D01*
X177701Y96910D01*
X177895Y96754D01*
X178086Y96593D01*
X178273Y96428D01*
X178456Y96258D01*
X178634Y96084D01*
X178808Y95906D01*
X178978Y95723D01*
X179143Y95536D01*
X179304Y95345D01*
X179460Y95151D01*
X179611Y94952D01*
X179757Y94750D01*
X179898Y94545D01*
X180034Y94336D01*
X180165Y94123D01*
X180290Y93908D01*
X180410Y93689D01*
X180525Y93468D01*
X180635Y93244D01*
X180738Y93017D01*
X180837Y92788D01*
X180929Y92557D01*
X181016Y92323D01*
X181097Y92087D01*
X181173Y91849D01*
X181242Y91610D01*
X181306Y91369D01*
X181363Y91126D01*
X181415Y90882D01*
X181460Y90637D01*
X181500Y90391D01*
X181534Y90144D01*
X181561Y89896D01*
X181582Y89647D01*
X181598Y89399D01*
X181607Y89149D01*
X181610Y88900D01*
X181607Y88651D01*
X181598Y88401D01*
X181582Y88153D01*
X181561Y87904D01*
X181534Y87656D01*
X181500Y87409D01*
X181460Y87163D01*
X181415Y86918D01*
X181363Y86674D01*
X181306Y86431D01*
X181242Y86190D01*
X181173Y85951D01*
X181097Y85713D01*
X181016Y85477D01*
X180929Y85243D01*
X180837Y85012D01*
X180738Y84783D01*
X180635Y84556D01*
X180525Y84332D01*
X180410Y84111D01*
X180290Y83892D01*
X180165Y83677D01*
X180034Y83464D01*
X179898Y83255D01*
X179757Y83050D01*
X179611Y82848D01*
X179460Y82649D01*
X179304Y82455D01*
X179143Y82264D01*
X178978Y82077D01*
X178808Y81894D01*
X178634Y81716D01*
X178456Y81542D01*
X178273Y81372D01*
X178086Y81207D01*
X177895Y81046D01*
X177701Y80890D01*
X177502Y80739D01*
X177300Y80593D01*
X177095Y80452D01*
X176886Y80316D01*
X176673Y80185D01*
X176458Y80060D01*
X176239Y79940D01*
X176018Y79825D01*
X175794Y79715D01*
X175567Y79612D01*
X175338Y79513D01*
X175107Y79421D01*
X174873Y79334D01*
X174637Y79253D01*
X174399Y79177D01*
X174160Y79108D01*
X173919Y79044D01*
X173676Y78987D01*
X173432Y78935D01*
X173187Y78890D01*
X172941Y78850D01*
X172694Y78816D01*
X172446Y78789D01*
X172197Y78768D01*
X171949Y78752D01*
X171699Y78743D01*
X171450Y78740D01*
X171201Y78743D01*
X170951Y78752D01*
X170703Y78768D01*
X170454Y78789D01*
X170206Y78816D01*
X169959Y78850D01*
X169713Y78890D01*
X169468Y78935D01*
X169224Y78987D01*
X168981Y79044D01*
X168740Y79108D01*
X168501Y79177D01*
X168263Y79253D01*
X168027Y79334D01*
X167793Y79421D01*
X167562Y79513D01*
X167333Y79612D01*
X167106Y79715D01*
X166882Y79825D01*
X166661Y79940D01*
X166442Y80060D01*
X166227Y80185D01*
X166014Y80316D01*
X165805Y80452D01*
X165600Y80593D01*
X165398Y80739D01*
X165199Y80890D01*
X165005Y81046D01*
X164814Y81207D01*
X164627Y81372D01*
X164444Y81542D01*
X164266Y81716D01*
X164092Y81894D01*
X163922Y82077D01*
X163757Y82264D01*
X163596Y82455D01*
X163440Y82649D01*
X163289Y82848D01*
X163143Y83050D01*
X163002Y83255D01*
X162866Y83464D01*
X162735Y83677D01*
X162610Y83892D01*
X162490Y84111D01*
X162375Y84332D01*
X162265Y84556D01*
X162162Y84783D01*
X162063Y85012D01*
X161971Y85243D01*
X161884Y85477D01*
X161803Y85713D01*
X161727Y85951D01*
X161658Y86190D01*
X161594Y86431D01*
X161537Y86674D01*
X161485Y86918D01*
X161440Y87163D01*
X161400Y87409D01*
X161366Y87656D01*
X161339Y87904D01*
X161318Y88153D01*
X161302Y88401D01*
X161293Y88651D01*
X161290Y88900D01*
D16*
X130450Y142900D02*
X212450Y142900D01*
X212450Y29900D02*
X130450Y29900D01*
X130450Y137400D02*
X124950Y137400D01*
X130450Y137400D02*
X130450Y142900D01*
X130450Y35400D02*
X130450Y29900D01*
X130450Y35400D02*
X124950Y35400D01*
X212450Y35400D02*
X217950Y35400D01*
X212450Y35400D02*
X212450Y29900D01*
X212450Y137400D02*
X212450Y142900D01*
X212450Y137400D02*
X217950Y137400D01*
X124950Y137400D02*
X124950Y115400D01*
X124950Y67400D02*
X124950Y35400D01*
X217950Y115400D02*
X217950Y137400D01*
X217950Y67400D02*
X217950Y35400D01*
D11*
X114935Y153035D02*
X114935Y160662D01*
X118748Y164475D01*
X122562Y160662D01*
X122562Y153035D01*
X122562Y158755D02*
X114935Y158755D01*
X126629Y154942D02*
X126629Y164475D01*
X126629Y154942D02*
X128536Y153035D01*
X132349Y153035D01*
X134255Y154942D01*
X134255Y164475D01*
X138323Y164475D02*
X138323Y153035D01*
X144043Y153035D01*
X145949Y154942D01*
X145949Y162568D01*
X144043Y164475D01*
X138323Y164475D01*
X150017Y153035D02*
X153830Y153035D01*
X151924Y153035D02*
X151924Y164475D01*
X153830Y164475D02*
X150017Y164475D01*
X159720Y164475D02*
X163533Y164475D01*
X159720Y164475D02*
X157813Y162568D01*
X157813Y154942D01*
X159720Y153035D01*
X163533Y153035D01*
X165439Y154942D01*
X165439Y162568D01*
X163533Y164475D01*
X169507Y151128D02*
X177133Y151128D01*
X181201Y153035D02*
X185014Y153035D01*
X183107Y153035D02*
X183107Y164475D01*
X181201Y164475D02*
X185014Y164475D01*
X188997Y164475D02*
X188997Y153035D01*
X196623Y153035D02*
X188997Y164475D01*
X196623Y164475D02*
X196623Y153035D01*
X200691Y151128D02*
X208317Y151128D01*
X212385Y153035D02*
X212385Y160662D01*
X216198Y164475D01*
X220011Y160662D01*
X220011Y153035D01*
X220011Y158755D02*
X212385Y158755D01*
X227892Y153035D02*
X227892Y164475D01*
X224079Y164475D02*
X231705Y164475D01*
X239586Y164475D02*
X239586Y153035D01*
X235773Y164475D02*
X243399Y164475D01*
X247467Y164475D02*
X247467Y153035D01*
X255093Y153035D02*
X247467Y164475D01*
X255093Y164475D02*
X255093Y153035D01*
D12*
X219710Y694690D02*
X219810Y694692D01*
X219909Y694698D01*
X220009Y694708D01*
X220107Y694721D01*
X220206Y694739D01*
X220303Y694760D01*
X220399Y694785D01*
X220495Y694814D01*
X220589Y694847D01*
X220682Y694883D01*
X220773Y694923D01*
X220863Y694967D01*
X220951Y695014D01*
X221037Y695064D01*
X221121Y695118D01*
X221203Y695175D01*
X221282Y695235D01*
X221360Y695299D01*
X221434Y695365D01*
X221506Y695434D01*
X221575Y695506D01*
X221641Y695580D01*
X221705Y695658D01*
X221765Y695737D01*
X221822Y695819D01*
X221876Y695903D01*
X221926Y695989D01*
X221973Y696077D01*
X222017Y696167D01*
X222057Y696258D01*
X222093Y696351D01*
X222126Y696445D01*
X222155Y696541D01*
X222180Y696637D01*
X222201Y696734D01*
X222219Y696833D01*
X222232Y696931D01*
X222242Y697031D01*
X222248Y697130D01*
X222250Y697230D01*
X222250Y712470D02*
X222248Y712570D01*
X222242Y712669D01*
X222232Y712769D01*
X222219Y712867D01*
X222201Y712966D01*
X222180Y713063D01*
X222155Y713159D01*
X222126Y713255D01*
X222093Y713349D01*
X222057Y713442D01*
X222017Y713533D01*
X221973Y713623D01*
X221926Y713711D01*
X221876Y713797D01*
X221822Y713881D01*
X221765Y713963D01*
X221705Y714042D01*
X221641Y714120D01*
X221575Y714194D01*
X221506Y714266D01*
X221434Y714335D01*
X221360Y714401D01*
X221282Y714465D01*
X221203Y714525D01*
X221121Y714582D01*
X221037Y714636D01*
X220951Y714686D01*
X220863Y714733D01*
X220773Y714777D01*
X220682Y714817D01*
X220589Y714853D01*
X220495Y714886D01*
X220399Y714915D01*
X220303Y714940D01*
X220206Y714961D01*
X220107Y714979D01*
X220009Y714992D01*
X219909Y715002D01*
X219810Y715008D01*
X219710Y715010D01*
X173990Y715010D02*
X173890Y715008D01*
X173791Y715002D01*
X173691Y714992D01*
X173593Y714979D01*
X173494Y714961D01*
X173397Y714940D01*
X173301Y714915D01*
X173205Y714886D01*
X173111Y714853D01*
X173018Y714817D01*
X172927Y714777D01*
X172837Y714733D01*
X172749Y714686D01*
X172663Y714636D01*
X172579Y714582D01*
X172497Y714525D01*
X172418Y714465D01*
X172340Y714401D01*
X172266Y714335D01*
X172194Y714266D01*
X172125Y714194D01*
X172059Y714120D01*
X171995Y714042D01*
X171935Y713963D01*
X171878Y713881D01*
X171824Y713797D01*
X171774Y713711D01*
X171727Y713623D01*
X171683Y713533D01*
X171643Y713442D01*
X171607Y713349D01*
X171574Y713255D01*
X171545Y713159D01*
X171520Y713063D01*
X171499Y712966D01*
X171481Y712867D01*
X171468Y712769D01*
X171458Y712669D01*
X171452Y712570D01*
X171450Y712470D01*
X171450Y697230D02*
X171452Y697130D01*
X171458Y697031D01*
X171468Y696931D01*
X171481Y696833D01*
X171499Y696734D01*
X171520Y696637D01*
X171545Y696541D01*
X171574Y696445D01*
X171607Y696351D01*
X171643Y696258D01*
X171683Y696167D01*
X171727Y696077D01*
X171774Y695989D01*
X171824Y695903D01*
X171878Y695819D01*
X171935Y695737D01*
X171995Y695658D01*
X172059Y695580D01*
X172125Y695506D01*
X172194Y695434D01*
X172266Y695365D01*
X172340Y695299D01*
X172418Y695235D01*
X172497Y695175D01*
X172579Y695118D01*
X172663Y695064D01*
X172749Y695014D01*
X172837Y694967D01*
X172927Y694923D01*
X173018Y694883D01*
X173111Y694847D01*
X173205Y694814D01*
X173301Y694785D01*
X173397Y694760D01*
X173494Y694739D01*
X173593Y694721D01*
X173691Y694708D01*
X173791Y694698D01*
X173890Y694692D01*
X173990Y694690D01*
X222250Y697230D02*
X222250Y712470D01*
X219710Y694690D02*
X215900Y694690D01*
X214630Y695960D01*
X215900Y715010D02*
X219710Y715010D01*
X215900Y715010D02*
X214630Y713740D01*
X179070Y695960D02*
X177800Y694690D01*
X179070Y695960D02*
X214630Y695960D01*
X179070Y713740D02*
X177800Y715010D01*
X179070Y713740D02*
X214630Y713740D01*
X177800Y694690D02*
X173990Y694690D01*
X173990Y715010D02*
X177800Y715010D01*
X171450Y712470D02*
X171450Y697230D01*
D14*
X169545Y704850D03*
X224155Y704850D03*
D10*
X178308Y708160D02*
X178308Y699262D01*
X178308Y708160D02*
X182757Y708160D01*
X184240Y706677D01*
X184240Y703711D01*
X182757Y702228D01*
X178308Y702228D01*
X181274Y702228D02*
X184240Y699262D01*
X187429Y706677D02*
X188912Y708160D01*
X191878Y708160D01*
X193361Y706677D01*
X193361Y705194D01*
X191878Y703711D01*
X190395Y703711D01*
X191878Y703711D02*
X193361Y702228D01*
X193361Y700745D01*
X191878Y699262D01*
X188912Y699262D01*
X187429Y700745D01*
X196551Y706677D02*
X198034Y708160D01*
X200999Y708160D01*
X202482Y706677D01*
X202482Y705194D01*
X200999Y703711D01*
X199516Y703711D01*
X200999Y703711D02*
X202482Y702228D01*
X202482Y700745D01*
X200999Y699262D01*
X198034Y699262D01*
X196551Y700745D01*
D12*
X219710Y720090D02*
X219810Y720092D01*
X219909Y720098D01*
X220009Y720108D01*
X220107Y720121D01*
X220206Y720139D01*
X220303Y720160D01*
X220399Y720185D01*
X220495Y720214D01*
X220589Y720247D01*
X220682Y720283D01*
X220773Y720323D01*
X220863Y720367D01*
X220951Y720414D01*
X221037Y720464D01*
X221121Y720518D01*
X221203Y720575D01*
X221282Y720635D01*
X221360Y720699D01*
X221434Y720765D01*
X221506Y720834D01*
X221575Y720906D01*
X221641Y720980D01*
X221705Y721058D01*
X221765Y721137D01*
X221822Y721219D01*
X221876Y721303D01*
X221926Y721389D01*
X221973Y721477D01*
X222017Y721567D01*
X222057Y721658D01*
X222093Y721751D01*
X222126Y721845D01*
X222155Y721941D01*
X222180Y722037D01*
X222201Y722134D01*
X222219Y722233D01*
X222232Y722331D01*
X222242Y722431D01*
X222248Y722530D01*
X222250Y722630D01*
X222250Y737870D02*
X222248Y737970D01*
X222242Y738069D01*
X222232Y738169D01*
X222219Y738267D01*
X222201Y738366D01*
X222180Y738463D01*
X222155Y738559D01*
X222126Y738655D01*
X222093Y738749D01*
X222057Y738842D01*
X222017Y738933D01*
X221973Y739023D01*
X221926Y739111D01*
X221876Y739197D01*
X221822Y739281D01*
X221765Y739363D01*
X221705Y739442D01*
X221641Y739520D01*
X221575Y739594D01*
X221506Y739666D01*
X221434Y739735D01*
X221360Y739801D01*
X221282Y739865D01*
X221203Y739925D01*
X221121Y739982D01*
X221037Y740036D01*
X220951Y740086D01*
X220863Y740133D01*
X220773Y740177D01*
X220682Y740217D01*
X220589Y740253D01*
X220495Y740286D01*
X220399Y740315D01*
X220303Y740340D01*
X220206Y740361D01*
X220107Y740379D01*
X220009Y740392D01*
X219909Y740402D01*
X219810Y740408D01*
X219710Y740410D01*
X173990Y740410D02*
X173890Y740408D01*
X173791Y740402D01*
X173691Y740392D01*
X173593Y740379D01*
X173494Y740361D01*
X173397Y740340D01*
X173301Y740315D01*
X173205Y740286D01*
X173111Y740253D01*
X173018Y740217D01*
X172927Y740177D01*
X172837Y740133D01*
X172749Y740086D01*
X172663Y740036D01*
X172579Y739982D01*
X172497Y739925D01*
X172418Y739865D01*
X172340Y739801D01*
X172266Y739735D01*
X172194Y739666D01*
X172125Y739594D01*
X172059Y739520D01*
X171995Y739442D01*
X171935Y739363D01*
X171878Y739281D01*
X171824Y739197D01*
X171774Y739111D01*
X171727Y739023D01*
X171683Y738933D01*
X171643Y738842D01*
X171607Y738749D01*
X171574Y738655D01*
X171545Y738559D01*
X171520Y738463D01*
X171499Y738366D01*
X171481Y738267D01*
X171468Y738169D01*
X171458Y738069D01*
X171452Y737970D01*
X171450Y737870D01*
X171450Y722630D02*
X171452Y722530D01*
X171458Y722431D01*
X171468Y722331D01*
X171481Y722233D01*
X171499Y722134D01*
X171520Y722037D01*
X171545Y721941D01*
X171574Y721845D01*
X171607Y721751D01*
X171643Y721658D01*
X171683Y721567D01*
X171727Y721477D01*
X171774Y721389D01*
X171824Y721303D01*
X171878Y721219D01*
X171935Y721137D01*
X171995Y721058D01*
X172059Y720980D01*
X172125Y720906D01*
X172194Y720834D01*
X172266Y720765D01*
X172340Y720699D01*
X172418Y720635D01*
X172497Y720575D01*
X172579Y720518D01*
X172663Y720464D01*
X172749Y720414D01*
X172837Y720367D01*
X172927Y720323D01*
X173018Y720283D01*
X173111Y720247D01*
X173205Y720214D01*
X173301Y720185D01*
X173397Y720160D01*
X173494Y720139D01*
X173593Y720121D01*
X173691Y720108D01*
X173791Y720098D01*
X173890Y720092D01*
X173990Y720090D01*
X222250Y722630D02*
X222250Y737870D01*
X219710Y720090D02*
X215900Y720090D01*
X214630Y721360D01*
X215900Y740410D02*
X219710Y740410D01*
X215900Y740410D02*
X214630Y739140D01*
X179070Y721360D02*
X177800Y720090D01*
X179070Y721360D02*
X214630Y721360D01*
X179070Y739140D02*
X177800Y740410D01*
X179070Y739140D02*
X214630Y739140D01*
X177800Y720090D02*
X173990Y720090D01*
X173990Y740410D02*
X177800Y740410D01*
X171450Y737870D02*
X171450Y722630D01*
D14*
X169545Y730250D03*
X224155Y730250D03*
D10*
X178308Y733560D02*
X178308Y724662D01*
X178308Y733560D02*
X182757Y733560D01*
X184240Y732077D01*
X184240Y729111D01*
X182757Y727628D01*
X178308Y727628D01*
X181274Y727628D02*
X184240Y724662D01*
X187429Y732077D02*
X188912Y733560D01*
X191878Y733560D01*
X193361Y732077D01*
X193361Y730594D01*
X191878Y729111D01*
X190395Y729111D01*
X191878Y729111D02*
X193361Y727628D01*
X193361Y726145D01*
X191878Y724662D01*
X188912Y724662D01*
X187429Y726145D01*
X200999Y724662D02*
X200999Y733560D01*
X196551Y729111D01*
X202482Y729111D01*
D12*
X25400Y323850D02*
X31750Y317500D01*
X31750Y304800D01*
X25400Y298450D01*
X12700Y298450D01*
X6350Y304800D01*
X6350Y317500D01*
X12700Y323850D01*
X31750Y355600D02*
X31750Y368300D01*
X31750Y355600D02*
X25400Y349250D01*
X12700Y349250D01*
X6350Y355600D01*
X25400Y349250D02*
X31750Y342900D01*
X31750Y330200D01*
X25400Y323850D01*
X12700Y323850D01*
X6350Y330200D01*
X6350Y342900D01*
X12700Y349250D01*
X12700Y374650D02*
X25400Y374650D01*
X31750Y368300D01*
X12700Y374650D02*
X6350Y368300D01*
X6350Y355600D01*
X31750Y292100D02*
X31750Y279400D01*
X25400Y273050D01*
X12700Y273050D01*
X6350Y279400D01*
X25400Y298450D02*
X31750Y292100D01*
X12700Y298450D02*
X6350Y292100D01*
X6350Y279400D01*
D11*
X16508Y378303D02*
X18415Y380210D01*
X18415Y382116D01*
X16508Y384023D01*
X6975Y384023D01*
X6975Y382116D02*
X6975Y385930D01*
X6975Y389997D02*
X18415Y389997D01*
X6975Y389997D02*
X6975Y395717D01*
X8882Y397624D01*
X12695Y397624D01*
X14602Y395717D01*
X14602Y389997D01*
X18415Y401691D02*
X18415Y409317D01*
X18415Y401691D02*
X10789Y409317D01*
X8882Y409317D01*
X6975Y407411D01*
X6975Y403598D01*
X8882Y401691D01*
D12*
X363220Y509270D02*
X368300Y509270D01*
X363220Y509270D02*
X363220Y514350D01*
X381000Y509270D02*
X386080Y509270D01*
X386080Y514350D01*
X386080Y527050D02*
X386080Y532130D01*
X381000Y532130D01*
X368300Y532130D02*
X363220Y532130D01*
X363220Y527050D01*
D11*
X362585Y540385D02*
X362585Y551825D01*
X368305Y551825D01*
X370212Y549918D01*
X370212Y548012D01*
X368305Y546105D01*
X370212Y544198D01*
X370212Y542292D01*
X368305Y540385D01*
X362585Y540385D01*
X362585Y546105D02*
X368305Y546105D01*
D12*
X317500Y509270D02*
X312420Y509270D01*
X312420Y514350D01*
X330200Y509270D02*
X335280Y509270D01*
X335280Y514350D01*
X335280Y527050D02*
X335280Y532130D01*
X330200Y532130D01*
X317500Y532130D02*
X312420Y532130D01*
X312420Y527050D01*
D11*
X311785Y540385D02*
X311785Y551825D01*
X315598Y544198D02*
X311785Y540385D01*
X315598Y544198D02*
X319412Y540385D01*
X319412Y551825D01*
D12*
X266700Y509270D02*
X261620Y509270D01*
X261620Y514350D01*
X279400Y509270D02*
X284480Y509270D01*
X284480Y514350D01*
X284480Y527050D02*
X284480Y532130D01*
X279400Y532130D01*
X266700Y532130D02*
X261620Y532130D01*
X261620Y527050D01*
D11*
X260985Y540385D02*
X260985Y548012D01*
X264798Y551825D01*
X268612Y548012D01*
X268612Y540385D01*
X268612Y546105D02*
X260985Y546105D01*
M02*
