G04 EAGLE Gerber RS-274X export*
G75*
%MOMM*%
%FSLAX34Y34*%
%LPD*%
%INBottom Copper*%
%IPPOS*%
%AMOC8*
5,1,8,0,0,1.08239X$1,22.5*%
G01*
%ADD10P,1.429621X8X112.500000*%
%ADD11C,1.524000*%
%ADD12P,1.429621X8X22.500000*%
%ADD13C,1.650000*%
%ADD14R,1.676400X1.676400*%
%ADD15P,1.814519X8X292.500000*%
%ADD16R,3.116000X3.116000*%
%ADD17P,1.429621X8X202.500000*%
%ADD18P,2.336880X8X292.500000*%
%ADD19R,1.006400X1.006400*%
%ADD20C,0.406400*%

G36*
X52011Y10173D02*
X52011Y10173D01*
X52137Y10176D01*
X52211Y10193D01*
X52286Y10201D01*
X52407Y10238D01*
X52530Y10266D01*
X52599Y10297D01*
X52671Y10319D01*
X52782Y10379D01*
X52897Y10431D01*
X52959Y10475D01*
X53025Y10511D01*
X53122Y10591D01*
X53225Y10665D01*
X53276Y10720D01*
X53334Y10768D01*
X53413Y10867D01*
X53500Y10959D01*
X53539Y11023D01*
X53587Y11082D01*
X53645Y11194D01*
X53711Y11302D01*
X53737Y11373D01*
X53772Y11439D01*
X53807Y11561D01*
X53851Y11679D01*
X53863Y11754D01*
X53884Y11826D01*
X53894Y11952D01*
X53913Y12077D01*
X53910Y12152D01*
X53916Y12228D01*
X53902Y12353D01*
X53896Y12479D01*
X53878Y12553D01*
X53869Y12627D01*
X53830Y12747D01*
X53800Y12870D01*
X53768Y12938D01*
X53745Y13010D01*
X53683Y13120D01*
X53629Y13235D01*
X53584Y13295D01*
X53547Y13361D01*
X53464Y13456D01*
X53389Y13558D01*
X53333Y13608D01*
X53284Y13665D01*
X53184Y13743D01*
X53090Y13828D01*
X53015Y13874D01*
X52965Y13912D01*
X52900Y13945D01*
X52808Y14002D01*
X51494Y14671D01*
X50120Y15669D01*
X48919Y16870D01*
X47921Y18244D01*
X47150Y19758D01*
X46697Y21151D01*
X56432Y21151D01*
X56450Y21152D01*
X56467Y21151D01*
X56650Y21172D01*
X56832Y21191D01*
X56849Y21196D01*
X56867Y21198D01*
X57042Y21255D01*
X57142Y21286D01*
X57149Y21282D01*
X57327Y21234D01*
X57502Y21184D01*
X57520Y21182D01*
X57537Y21178D01*
X57868Y21151D01*
X67603Y21151D01*
X67150Y19758D01*
X66379Y18244D01*
X65381Y16870D01*
X64180Y15669D01*
X62806Y14671D01*
X61492Y14002D01*
X61386Y13934D01*
X61275Y13873D01*
X61217Y13825D01*
X61154Y13784D01*
X61063Y13697D01*
X60966Y13616D01*
X60918Y13557D01*
X60864Y13504D01*
X60793Y13400D01*
X60713Y13302D01*
X60679Y13235D01*
X60636Y13173D01*
X60586Y13056D01*
X60528Y12945D01*
X60507Y12872D01*
X60477Y12803D01*
X60451Y12679D01*
X60416Y12558D01*
X60410Y12483D01*
X60395Y12409D01*
X60394Y12282D01*
X60384Y12156D01*
X60392Y12081D01*
X60392Y12006D01*
X60416Y11882D01*
X60431Y11757D01*
X60454Y11685D01*
X60468Y11611D01*
X60516Y11494D01*
X60555Y11374D01*
X60592Y11308D01*
X60621Y11238D01*
X60691Y11133D01*
X60753Y11023D01*
X60803Y10966D01*
X60844Y10903D01*
X60934Y10814D01*
X61016Y10718D01*
X61076Y10672D01*
X61129Y10619D01*
X61235Y10549D01*
X61335Y10472D01*
X61402Y10438D01*
X61465Y10396D01*
X61582Y10349D01*
X61695Y10292D01*
X61768Y10273D01*
X61838Y10244D01*
X61962Y10221D01*
X62084Y10188D01*
X62171Y10181D01*
X62233Y10169D01*
X62307Y10170D01*
X62415Y10161D01*
X133496Y10161D01*
X133514Y10163D01*
X133532Y10161D01*
X133714Y10182D01*
X133897Y10201D01*
X133914Y10206D01*
X133931Y10208D01*
X134106Y10265D01*
X134282Y10319D01*
X134297Y10327D01*
X134314Y10333D01*
X134474Y10423D01*
X134636Y10511D01*
X134649Y10522D01*
X134665Y10531D01*
X134804Y10651D01*
X134945Y10768D01*
X134956Y10782D01*
X134970Y10794D01*
X135082Y10939D01*
X135197Y11082D01*
X135205Y11098D01*
X135216Y11112D01*
X135298Y11277D01*
X135383Y11439D01*
X135388Y11456D01*
X135396Y11472D01*
X135443Y11651D01*
X135494Y11826D01*
X135496Y11844D01*
X135500Y11861D01*
X135527Y12192D01*
X135527Y16151D01*
X145732Y16151D01*
X145750Y16152D01*
X145767Y16151D01*
X145950Y16172D01*
X146132Y16191D01*
X146149Y16196D01*
X146167Y16198D01*
X146342Y16255D01*
X146517Y16309D01*
X146533Y16317D01*
X146550Y16323D01*
X146710Y16413D01*
X146871Y16500D01*
X146885Y16512D01*
X146901Y16521D01*
X147040Y16641D01*
X147181Y16758D01*
X147192Y16772D01*
X147205Y16784D01*
X147318Y16929D01*
X147433Y17072D01*
X147441Y17088D01*
X147452Y17102D01*
X147534Y17267D01*
X147618Y17429D01*
X147623Y17446D01*
X147631Y17462D01*
X147679Y17641D01*
X147685Y17661D01*
X147778Y17691D01*
X147954Y17745D01*
X147969Y17753D01*
X147986Y17759D01*
X148146Y17849D01*
X148308Y17937D01*
X148321Y17948D01*
X148337Y17957D01*
X148476Y18077D01*
X148617Y18195D01*
X148628Y18208D01*
X148642Y18220D01*
X148754Y18365D01*
X148869Y18508D01*
X148877Y18524D01*
X148888Y18538D01*
X148970Y18703D01*
X149055Y18866D01*
X149060Y18883D01*
X149068Y18899D01*
X149115Y19077D01*
X149166Y19252D01*
X149168Y19270D01*
X149172Y19287D01*
X149199Y19618D01*
X149199Y29823D01*
X155167Y29823D01*
X155813Y29650D01*
X156392Y29315D01*
X156865Y28842D01*
X157200Y28263D01*
X157373Y27617D01*
X157373Y24455D01*
X157374Y24446D01*
X157373Y24437D01*
X157394Y24244D01*
X157413Y24055D01*
X157415Y24046D01*
X157416Y24037D01*
X157474Y23853D01*
X157531Y23670D01*
X157535Y23662D01*
X157538Y23653D01*
X157631Y23485D01*
X157723Y23316D01*
X157728Y23309D01*
X157733Y23301D01*
X157857Y23154D01*
X157980Y23006D01*
X157987Y23001D01*
X157993Y22994D01*
X158144Y22875D01*
X158294Y22754D01*
X158302Y22750D01*
X158309Y22744D01*
X158482Y22657D01*
X158651Y22569D01*
X158660Y22566D01*
X158668Y22562D01*
X158854Y22510D01*
X159038Y22457D01*
X159047Y22456D01*
X159056Y22454D01*
X159249Y22440D01*
X159440Y22424D01*
X159448Y22425D01*
X159457Y22425D01*
X159650Y22449D01*
X159839Y22471D01*
X159848Y22474D01*
X159857Y22475D01*
X160040Y22536D01*
X160222Y22596D01*
X160230Y22600D01*
X160238Y22603D01*
X160405Y22699D01*
X160573Y22794D01*
X160580Y22800D01*
X160587Y22804D01*
X160840Y23019D01*
X167136Y29315D01*
X175383Y29315D01*
X175392Y29316D01*
X175401Y29315D01*
X175594Y29336D01*
X175784Y29355D01*
X175792Y29357D01*
X175801Y29358D01*
X175985Y29416D01*
X176169Y29473D01*
X176176Y29477D01*
X176185Y29480D01*
X176353Y29572D01*
X176523Y29665D01*
X176529Y29670D01*
X176537Y29675D01*
X176684Y29799D01*
X176832Y29922D01*
X176837Y29929D01*
X176844Y29935D01*
X176964Y30087D01*
X177084Y30236D01*
X177088Y30244D01*
X177094Y30251D01*
X177182Y30424D01*
X177270Y30593D01*
X177272Y30602D01*
X177276Y30610D01*
X177328Y30796D01*
X177381Y30980D01*
X177382Y30989D01*
X177384Y30998D01*
X177398Y31191D01*
X177414Y31382D01*
X177413Y31390D01*
X177414Y31399D01*
X177389Y31592D01*
X177367Y31781D01*
X177364Y31790D01*
X177363Y31799D01*
X177302Y31982D01*
X177242Y32164D01*
X177238Y32172D01*
X177235Y32180D01*
X177139Y32346D01*
X177044Y32515D01*
X177039Y32522D01*
X177034Y32529D01*
X176819Y32782D01*
X163461Y46140D01*
X163446Y46153D01*
X163435Y46165D01*
X163430Y46169D01*
X163423Y46178D01*
X163285Y46285D01*
X163150Y46395D01*
X163126Y46408D01*
X163105Y46424D01*
X162948Y46502D01*
X162794Y46584D01*
X162769Y46592D01*
X162744Y46604D01*
X162575Y46649D01*
X162408Y46699D01*
X162382Y46701D01*
X162356Y46708D01*
X162025Y46735D01*
X119841Y46735D01*
X118348Y47354D01*
X98154Y67548D01*
X97535Y69041D01*
X97535Y124475D01*
X97533Y124502D01*
X97535Y124528D01*
X97513Y124702D01*
X97495Y124876D01*
X97488Y124901D01*
X97484Y124928D01*
X97429Y125093D01*
X97377Y125260D01*
X97364Y125284D01*
X97356Y125309D01*
X97269Y125461D01*
X97185Y125615D01*
X97168Y125635D01*
X97155Y125658D01*
X96940Y125911D01*
X87811Y135040D01*
X87791Y135057D01*
X87773Y135078D01*
X87635Y135185D01*
X87500Y135295D01*
X87476Y135308D01*
X87455Y135324D01*
X87298Y135402D01*
X87144Y135484D01*
X87119Y135492D01*
X87094Y135504D01*
X86925Y135549D01*
X86758Y135599D01*
X86732Y135601D01*
X86706Y135608D01*
X86375Y135635D01*
X68285Y135635D01*
X68263Y135633D01*
X68240Y135635D01*
X68063Y135613D01*
X67884Y135595D01*
X67863Y135589D01*
X67841Y135586D01*
X67671Y135530D01*
X67499Y135477D01*
X67480Y135467D01*
X67459Y135460D01*
X67303Y135371D01*
X67145Y135285D01*
X67128Y135271D01*
X67109Y135260D01*
X66973Y135142D01*
X66836Y135028D01*
X66822Y135010D01*
X66805Y134996D01*
X66696Y134854D01*
X66584Y134714D01*
X66573Y134694D01*
X66560Y134676D01*
X66408Y134381D01*
X65867Y133075D01*
X62975Y130183D01*
X59195Y128617D01*
X55105Y128617D01*
X51325Y130183D01*
X48433Y133075D01*
X46867Y136855D01*
X46867Y140945D01*
X48433Y144725D01*
X51325Y147617D01*
X53321Y148444D01*
X55105Y149183D01*
X59195Y149183D01*
X62975Y147617D01*
X65956Y144636D01*
X65961Y144627D01*
X66078Y144492D01*
X66192Y144354D01*
X66209Y144340D01*
X66224Y144322D01*
X66365Y144213D01*
X66504Y144100D01*
X66524Y144089D01*
X66542Y144076D01*
X66702Y143996D01*
X66861Y143913D01*
X66882Y143906D01*
X66903Y143896D01*
X67076Y143850D01*
X67247Y143800D01*
X67270Y143798D01*
X67291Y143792D01*
X67622Y143765D01*
X89709Y143765D01*
X91202Y143146D01*
X105046Y129302D01*
X105665Y127809D01*
X105665Y107053D01*
X105666Y107044D01*
X105665Y107036D01*
X105686Y106843D01*
X105705Y106653D01*
X105707Y106644D01*
X105708Y106635D01*
X105766Y106453D01*
X105823Y106268D01*
X105827Y106260D01*
X105830Y106251D01*
X105923Y106083D01*
X106015Y105914D01*
X106020Y105907D01*
X106025Y105899D01*
X106150Y105751D01*
X106272Y105604D01*
X106279Y105599D01*
X106285Y105592D01*
X106437Y105472D01*
X106586Y105352D01*
X106594Y105348D01*
X106601Y105342D01*
X106773Y105255D01*
X106943Y105167D01*
X106952Y105164D01*
X106960Y105160D01*
X107146Y105108D01*
X107330Y105055D01*
X107339Y105055D01*
X107348Y105052D01*
X107540Y105038D01*
X107732Y105022D01*
X107740Y105023D01*
X107749Y105023D01*
X107942Y105047D01*
X108131Y105069D01*
X108140Y105072D01*
X108149Y105073D01*
X108332Y105135D01*
X108514Y105194D01*
X108522Y105199D01*
X108530Y105201D01*
X108696Y105297D01*
X108865Y105392D01*
X108872Y105398D01*
X108879Y105402D01*
X109132Y105617D01*
X110028Y106513D01*
X142872Y106513D01*
X144063Y105322D01*
X144063Y72478D01*
X142872Y71287D01*
X110815Y71287D01*
X110806Y71286D01*
X110797Y71287D01*
X110604Y71266D01*
X110414Y71247D01*
X110406Y71245D01*
X110397Y71244D01*
X110213Y71186D01*
X110029Y71129D01*
X110022Y71125D01*
X110013Y71122D01*
X109845Y71030D01*
X109675Y70937D01*
X109669Y70932D01*
X109661Y70927D01*
X109513Y70802D01*
X109366Y70680D01*
X109361Y70673D01*
X109354Y70667D01*
X109234Y70515D01*
X109114Y70366D01*
X109110Y70358D01*
X109104Y70351D01*
X109016Y70177D01*
X108928Y70009D01*
X108926Y70000D01*
X108922Y69992D01*
X108870Y69806D01*
X108817Y69622D01*
X108816Y69613D01*
X108814Y69604D01*
X108800Y69411D01*
X108784Y69220D01*
X108785Y69212D01*
X108784Y69203D01*
X108809Y69010D01*
X108831Y68821D01*
X108834Y68812D01*
X108835Y68803D01*
X108896Y68620D01*
X108956Y68438D01*
X108960Y68430D01*
X108963Y68422D01*
X109059Y68255D01*
X109154Y68087D01*
X109159Y68080D01*
X109164Y68073D01*
X109379Y67820D01*
X121739Y55460D01*
X121759Y55443D01*
X121777Y55422D01*
X121915Y55315D01*
X122050Y55205D01*
X122074Y55192D01*
X122095Y55176D01*
X122252Y55098D01*
X122406Y55016D01*
X122431Y55008D01*
X122456Y54996D01*
X122625Y54951D01*
X122792Y54901D01*
X122818Y54899D01*
X122844Y54892D01*
X123175Y54865D01*
X165359Y54865D01*
X166852Y54246D01*
X191189Y29910D01*
X191209Y29893D01*
X191227Y29872D01*
X191365Y29765D01*
X191500Y29655D01*
X191524Y29642D01*
X191545Y29626D01*
X191702Y29548D01*
X191856Y29466D01*
X191881Y29458D01*
X191906Y29446D01*
X192075Y29401D01*
X192242Y29351D01*
X192268Y29349D01*
X192294Y29342D01*
X192625Y29315D01*
X200764Y29315D01*
X206865Y23214D01*
X206865Y14586D01*
X205907Y13628D01*
X205901Y13621D01*
X205894Y13616D01*
X205773Y13465D01*
X205652Y13317D01*
X205648Y13309D01*
X205642Y13302D01*
X205554Y13132D01*
X205463Y12961D01*
X205461Y12952D01*
X205457Y12945D01*
X205404Y12760D01*
X205348Y12575D01*
X205348Y12566D01*
X205345Y12558D01*
X205330Y12367D01*
X205312Y12174D01*
X205313Y12165D01*
X205312Y12156D01*
X205335Y11967D01*
X205355Y11774D01*
X205358Y11765D01*
X205359Y11757D01*
X205419Y11575D01*
X205477Y11390D01*
X205481Y11382D01*
X205484Y11374D01*
X205578Y11207D01*
X205672Y11038D01*
X205678Y11031D01*
X205682Y11023D01*
X205807Y10878D01*
X205932Y10731D01*
X205939Y10725D01*
X205945Y10718D01*
X206096Y10602D01*
X206248Y10481D01*
X206256Y10477D01*
X206263Y10472D01*
X206434Y10387D01*
X206607Y10299D01*
X206616Y10296D01*
X206624Y10292D01*
X206809Y10243D01*
X206995Y10191D01*
X207004Y10190D01*
X207013Y10188D01*
X207343Y10161D01*
X356685Y10161D01*
X356811Y10173D01*
X356937Y10176D01*
X357011Y10193D01*
X357086Y10201D01*
X357207Y10238D01*
X357330Y10266D01*
X357399Y10297D01*
X357471Y10319D01*
X357582Y10379D01*
X357697Y10431D01*
X357759Y10475D01*
X357825Y10511D01*
X357922Y10591D01*
X358025Y10665D01*
X358076Y10720D01*
X358134Y10768D01*
X358213Y10867D01*
X358300Y10959D01*
X358339Y11023D01*
X358387Y11082D01*
X358445Y11194D01*
X358511Y11302D01*
X358537Y11373D01*
X358572Y11439D01*
X358607Y11561D01*
X358651Y11679D01*
X358663Y11754D01*
X358684Y11826D01*
X358694Y11952D01*
X358713Y12077D01*
X358710Y12152D01*
X358716Y12228D01*
X358702Y12353D01*
X358696Y12479D01*
X358678Y12553D01*
X358669Y12627D01*
X358630Y12747D01*
X358600Y12870D01*
X358568Y12938D01*
X358545Y13010D01*
X358483Y13120D01*
X358429Y13235D01*
X358384Y13295D01*
X358347Y13361D01*
X358264Y13456D01*
X358189Y13558D01*
X358133Y13608D01*
X358084Y13665D01*
X357984Y13743D01*
X357890Y13828D01*
X357815Y13874D01*
X357765Y13912D01*
X357700Y13945D01*
X357608Y14002D01*
X356294Y14671D01*
X354920Y15669D01*
X353719Y16870D01*
X352721Y18244D01*
X351950Y19758D01*
X351497Y21151D01*
X361232Y21151D01*
X361250Y21152D01*
X361267Y21151D01*
X361450Y21172D01*
X361632Y21191D01*
X361649Y21196D01*
X361667Y21198D01*
X361842Y21255D01*
X361942Y21286D01*
X361949Y21282D01*
X362127Y21234D01*
X362302Y21184D01*
X362320Y21182D01*
X362337Y21178D01*
X362668Y21151D01*
X372403Y21151D01*
X371950Y19758D01*
X371179Y18244D01*
X370181Y16870D01*
X368980Y15669D01*
X367606Y14671D01*
X366292Y14002D01*
X366186Y13934D01*
X366075Y13873D01*
X366017Y13825D01*
X365954Y13784D01*
X365863Y13697D01*
X365766Y13616D01*
X365718Y13557D01*
X365664Y13504D01*
X365593Y13400D01*
X365513Y13302D01*
X365479Y13235D01*
X365436Y13173D01*
X365386Y13056D01*
X365328Y12945D01*
X365307Y12872D01*
X365277Y12803D01*
X365251Y12679D01*
X365216Y12558D01*
X365210Y12483D01*
X365195Y12409D01*
X365194Y12282D01*
X365184Y12156D01*
X365192Y12081D01*
X365192Y12006D01*
X365216Y11882D01*
X365231Y11757D01*
X365254Y11685D01*
X365268Y11611D01*
X365316Y11494D01*
X365355Y11374D01*
X365392Y11308D01*
X365421Y11238D01*
X365491Y11133D01*
X365553Y11023D01*
X365603Y10966D01*
X365644Y10903D01*
X365734Y10814D01*
X365816Y10718D01*
X365876Y10672D01*
X365929Y10619D01*
X366035Y10549D01*
X366135Y10472D01*
X366202Y10438D01*
X366265Y10396D01*
X366382Y10349D01*
X366495Y10292D01*
X366568Y10273D01*
X366638Y10244D01*
X366762Y10221D01*
X366884Y10188D01*
X366971Y10181D01*
X367033Y10169D01*
X367107Y10170D01*
X367215Y10161D01*
X406908Y10161D01*
X406926Y10163D01*
X406944Y10161D01*
X407126Y10182D01*
X407309Y10201D01*
X407326Y10206D01*
X407343Y10208D01*
X407518Y10265D01*
X407694Y10319D01*
X407709Y10327D01*
X407726Y10333D01*
X407886Y10423D01*
X408048Y10511D01*
X408061Y10522D01*
X408077Y10531D01*
X408216Y10651D01*
X408357Y10768D01*
X408368Y10782D01*
X408382Y10794D01*
X408494Y10939D01*
X408609Y11082D01*
X408617Y11098D01*
X408628Y11112D01*
X408710Y11277D01*
X408795Y11439D01*
X408800Y11456D01*
X408808Y11472D01*
X408855Y11651D01*
X408906Y11826D01*
X408908Y11844D01*
X408912Y11861D01*
X408939Y12192D01*
X408939Y172636D01*
X408932Y172709D01*
X408934Y172782D01*
X408912Y172909D01*
X408899Y173037D01*
X408878Y173107D01*
X408865Y173179D01*
X408819Y173299D01*
X408781Y173422D01*
X408746Y173486D01*
X408720Y173554D01*
X408651Y173663D01*
X408589Y173776D01*
X408543Y173832D01*
X408503Y173894D01*
X408414Y173986D01*
X408332Y174085D01*
X408275Y174131D01*
X408224Y174184D01*
X408118Y174257D01*
X408018Y174337D01*
X407953Y174371D01*
X407893Y174413D01*
X407774Y174464D01*
X407661Y174523D01*
X407590Y174543D01*
X407523Y174572D01*
X407397Y174599D01*
X407274Y174634D01*
X407201Y174640D01*
X407129Y174655D01*
X407001Y174657D01*
X406872Y174667D01*
X406800Y174658D01*
X406726Y174659D01*
X406600Y174635D01*
X406473Y174620D01*
X406403Y174597D01*
X406331Y174584D01*
X406212Y174535D01*
X406090Y174495D01*
X406026Y174459D01*
X405958Y174432D01*
X405851Y174360D01*
X405739Y174297D01*
X405684Y174249D01*
X405623Y174209D01*
X405532Y174118D01*
X405435Y174034D01*
X405390Y173976D01*
X405338Y173925D01*
X405241Y173785D01*
X405188Y173716D01*
X405173Y173687D01*
X405149Y173652D01*
X401935Y168086D01*
X397064Y163215D01*
X391098Y159770D01*
X384444Y157987D01*
X377556Y157987D01*
X370902Y159770D01*
X364936Y163215D01*
X360065Y168086D01*
X356620Y174052D01*
X354837Y180706D01*
X354837Y187594D01*
X356620Y194248D01*
X360065Y200214D01*
X364936Y205085D01*
X370902Y208530D01*
X377556Y210313D01*
X384444Y210313D01*
X391098Y208530D01*
X397064Y205085D01*
X401935Y200214D01*
X405149Y194648D01*
X405192Y194589D01*
X405227Y194524D01*
X405309Y194426D01*
X405384Y194321D01*
X405437Y194271D01*
X405484Y194215D01*
X405584Y194135D01*
X405679Y194047D01*
X405741Y194009D01*
X405798Y193963D01*
X405912Y193904D01*
X406022Y193836D01*
X406090Y193811D01*
X406155Y193777D01*
X406279Y193742D01*
X406399Y193697D01*
X406472Y193686D01*
X406542Y193666D01*
X406671Y193655D01*
X406797Y193636D01*
X406870Y193639D01*
X406944Y193633D01*
X407071Y193648D01*
X407200Y193654D01*
X407271Y193671D01*
X407343Y193680D01*
X407466Y193720D01*
X407590Y193751D01*
X407656Y193782D01*
X407726Y193805D01*
X407838Y193868D01*
X407954Y193923D01*
X408013Y193967D01*
X408077Y194003D01*
X408174Y194087D01*
X408277Y194163D01*
X408326Y194218D01*
X408382Y194266D01*
X408460Y194367D01*
X408546Y194463D01*
X408583Y194526D01*
X408628Y194584D01*
X408686Y194699D01*
X408751Y194810D01*
X408775Y194879D01*
X408808Y194944D01*
X408841Y195069D01*
X408883Y195190D01*
X408893Y195262D01*
X408912Y195333D01*
X408926Y195503D01*
X408938Y195589D01*
X408936Y195622D01*
X408939Y195664D01*
X408939Y730758D01*
X408937Y730776D01*
X408939Y730794D01*
X408918Y730976D01*
X408899Y731159D01*
X408894Y731176D01*
X408892Y731193D01*
X408835Y731368D01*
X408781Y731544D01*
X408773Y731559D01*
X408767Y731576D01*
X408677Y731736D01*
X408589Y731898D01*
X408578Y731911D01*
X408569Y731927D01*
X408449Y732066D01*
X408332Y732207D01*
X408318Y732218D01*
X408306Y732232D01*
X408161Y732344D01*
X408018Y732459D01*
X408002Y732467D01*
X407988Y732478D01*
X407823Y732560D01*
X407661Y732645D01*
X407644Y732650D01*
X407628Y732658D01*
X407449Y732705D01*
X407274Y732756D01*
X407256Y732758D01*
X407239Y732762D01*
X406908Y732789D01*
X402589Y732789D01*
X402589Y742442D01*
X402587Y742460D01*
X402589Y742477D01*
X402568Y742660D01*
X402549Y742842D01*
X402544Y742859D01*
X402542Y742877D01*
X402517Y742955D01*
X402556Y743092D01*
X402558Y743110D01*
X402562Y743127D01*
X402589Y743458D01*
X402589Y753111D01*
X406908Y753111D01*
X406926Y753113D01*
X406944Y753111D01*
X407126Y753132D01*
X407309Y753151D01*
X407326Y753156D01*
X407343Y753158D01*
X407518Y753215D01*
X407694Y753269D01*
X407709Y753277D01*
X407726Y753283D01*
X407886Y753373D01*
X408048Y753461D01*
X408061Y753472D01*
X408077Y753481D01*
X408216Y753601D01*
X408357Y753718D01*
X408368Y753732D01*
X408382Y753744D01*
X408494Y753889D01*
X408609Y754032D01*
X408617Y754048D01*
X408628Y754062D01*
X408710Y754227D01*
X408795Y754389D01*
X408800Y754406D01*
X408808Y754422D01*
X408855Y754600D01*
X408906Y754776D01*
X408908Y754794D01*
X408912Y754811D01*
X408939Y755142D01*
X408939Y756666D01*
X408937Y756684D01*
X408939Y756702D01*
X408918Y756884D01*
X408899Y757067D01*
X408894Y757084D01*
X408892Y757101D01*
X408835Y757276D01*
X408781Y757452D01*
X408773Y757467D01*
X408767Y757484D01*
X408677Y757644D01*
X408589Y757806D01*
X408578Y757819D01*
X408569Y757835D01*
X408449Y757974D01*
X408332Y758115D01*
X408318Y758126D01*
X408306Y758140D01*
X408161Y758252D01*
X408018Y758367D01*
X408002Y758375D01*
X407988Y758386D01*
X407823Y758468D01*
X407661Y758553D01*
X407644Y758558D01*
X407628Y758566D01*
X407449Y758613D01*
X407274Y758664D01*
X407256Y758666D01*
X407239Y758670D01*
X406908Y758697D01*
X390510Y758697D01*
X386962Y760167D01*
X384247Y762882D01*
X384185Y763031D01*
X384175Y763051D01*
X384168Y763072D01*
X384079Y763228D01*
X383995Y763386D01*
X383981Y763403D01*
X383970Y763423D01*
X383853Y763558D01*
X383738Y763697D01*
X383721Y763711D01*
X383707Y763728D01*
X383565Y763837D01*
X383426Y763950D01*
X383406Y763961D01*
X383388Y763974D01*
X383228Y764054D01*
X383069Y764137D01*
X383048Y764144D01*
X383028Y764154D01*
X382855Y764200D01*
X382683Y764250D01*
X382661Y764252D01*
X382639Y764258D01*
X382308Y764285D01*
X227791Y764285D01*
X226298Y764904D01*
X206104Y785098D01*
X205485Y786591D01*
X205485Y896395D01*
X205483Y896421D01*
X205485Y896448D01*
X205463Y896622D01*
X205445Y896795D01*
X205438Y896821D01*
X205434Y896847D01*
X205379Y897013D01*
X205327Y897180D01*
X205314Y897204D01*
X205306Y897229D01*
X205219Y897380D01*
X205135Y897534D01*
X205118Y897555D01*
X205105Y897578D01*
X204890Y897831D01*
X198940Y903781D01*
X198933Y903787D01*
X198928Y903794D01*
X198778Y903914D01*
X198629Y904036D01*
X198621Y904040D01*
X198614Y904046D01*
X198444Y904134D01*
X198273Y904225D01*
X198264Y904227D01*
X198257Y904231D01*
X198072Y904285D01*
X197887Y904340D01*
X197878Y904340D01*
X197870Y904343D01*
X197678Y904358D01*
X197486Y904376D01*
X197477Y904375D01*
X197468Y904376D01*
X197279Y904354D01*
X197086Y904333D01*
X197077Y904330D01*
X197069Y904329D01*
X196887Y904269D01*
X196702Y904211D01*
X196694Y904207D01*
X196686Y904204D01*
X196517Y904109D01*
X196350Y904016D01*
X196343Y904010D01*
X196335Y904006D01*
X196189Y903880D01*
X196043Y903756D01*
X196037Y903749D01*
X196030Y903743D01*
X195913Y903591D01*
X195793Y903440D01*
X195789Y903432D01*
X195784Y903425D01*
X195698Y903253D01*
X195611Y903081D01*
X195608Y903072D01*
X195604Y903064D01*
X195554Y902878D01*
X195503Y902693D01*
X195502Y902684D01*
X195500Y902675D01*
X195473Y902345D01*
X195473Y899183D01*
X195300Y898537D01*
X194965Y897958D01*
X194492Y897485D01*
X193913Y897150D01*
X193267Y896977D01*
X187299Y896977D01*
X187299Y907182D01*
X187297Y907200D01*
X187299Y907217D01*
X187278Y907400D01*
X187259Y907582D01*
X187254Y907599D01*
X187252Y907617D01*
X187195Y907792D01*
X187164Y907892D01*
X187168Y907899D01*
X187215Y908077D01*
X187266Y908252D01*
X187268Y908270D01*
X187272Y908287D01*
X187299Y908618D01*
X187299Y918823D01*
X193267Y918823D01*
X193913Y918650D01*
X194492Y918315D01*
X194965Y917842D01*
X195300Y917263D01*
X195473Y916617D01*
X195473Y913455D01*
X195474Y913446D01*
X195473Y913437D01*
X195494Y913244D01*
X195513Y913055D01*
X195515Y913046D01*
X195516Y913037D01*
X195574Y912853D01*
X195631Y912670D01*
X195635Y912662D01*
X195638Y912653D01*
X195731Y912485D01*
X195823Y912316D01*
X195828Y912309D01*
X195833Y912301D01*
X195957Y912154D01*
X196080Y912006D01*
X196087Y912001D01*
X196093Y911994D01*
X196244Y911875D01*
X196394Y911754D01*
X196402Y911750D01*
X196409Y911744D01*
X196582Y911657D01*
X196751Y911569D01*
X196760Y911566D01*
X196768Y911562D01*
X196954Y911510D01*
X197138Y911457D01*
X197147Y911456D01*
X197156Y911454D01*
X197349Y911440D01*
X197540Y911424D01*
X197548Y911425D01*
X197557Y911425D01*
X197750Y911449D01*
X197939Y911471D01*
X197948Y911474D01*
X197957Y911475D01*
X198140Y911536D01*
X198322Y911596D01*
X198330Y911600D01*
X198338Y911603D01*
X198505Y911699D01*
X198673Y911794D01*
X198680Y911800D01*
X198687Y911804D01*
X198940Y912019D01*
X205236Y918315D01*
X213864Y918315D01*
X219965Y912214D01*
X219965Y903586D01*
X214210Y897831D01*
X214193Y897810D01*
X214172Y897793D01*
X214065Y897655D01*
X213955Y897520D01*
X213942Y897496D01*
X213926Y897475D01*
X213848Y897318D01*
X213766Y897164D01*
X213758Y897138D01*
X213746Y897114D01*
X213701Y896945D01*
X213651Y896778D01*
X213649Y896751D01*
X213642Y896725D01*
X213615Y896395D01*
X213615Y789925D01*
X213617Y789898D01*
X213615Y789872D01*
X213637Y789698D01*
X213655Y789524D01*
X213662Y789499D01*
X213666Y789472D01*
X213721Y789307D01*
X213773Y789140D01*
X213786Y789116D01*
X213794Y789091D01*
X213881Y788939D01*
X213965Y788785D01*
X213982Y788765D01*
X213995Y788742D01*
X214210Y788489D01*
X229689Y773010D01*
X229709Y772993D01*
X229727Y772972D01*
X229865Y772865D01*
X230000Y772755D01*
X230024Y772742D01*
X230045Y772726D01*
X230202Y772648D01*
X230356Y772566D01*
X230381Y772558D01*
X230406Y772546D01*
X230575Y772501D01*
X230742Y772451D01*
X230768Y772449D01*
X230794Y772442D01*
X231125Y772415D01*
X382308Y772415D01*
X382331Y772417D01*
X382353Y772415D01*
X382530Y772437D01*
X382709Y772455D01*
X382730Y772461D01*
X382753Y772464D01*
X382922Y772520D01*
X383094Y772573D01*
X383114Y772583D01*
X383135Y772590D01*
X383290Y772679D01*
X383448Y772765D01*
X383465Y772779D01*
X383484Y772790D01*
X383619Y772907D01*
X383757Y773022D01*
X383771Y773040D01*
X383788Y773054D01*
X383897Y773196D01*
X384010Y773336D01*
X384020Y773356D01*
X384033Y773374D01*
X384185Y773669D01*
X384247Y773818D01*
X386962Y776533D01*
X390510Y778003D01*
X406908Y778003D01*
X406926Y778005D01*
X406944Y778003D01*
X407126Y778024D01*
X407309Y778043D01*
X407326Y778048D01*
X407343Y778050D01*
X407518Y778107D01*
X407694Y778161D01*
X407709Y778169D01*
X407726Y778175D01*
X407886Y778265D01*
X408048Y778353D01*
X408061Y778364D01*
X408077Y778373D01*
X408216Y778493D01*
X408357Y778610D01*
X408368Y778624D01*
X408382Y778636D01*
X408494Y778781D01*
X408609Y778924D01*
X408617Y778940D01*
X408628Y778954D01*
X408710Y779119D01*
X408795Y779281D01*
X408800Y779298D01*
X408808Y779314D01*
X408855Y779493D01*
X408906Y779668D01*
X408908Y779686D01*
X408912Y779703D01*
X408939Y780034D01*
X408939Y782066D01*
X408939Y782070D01*
X408939Y782071D01*
X408938Y782083D01*
X408937Y782084D01*
X408939Y782102D01*
X408918Y782284D01*
X408899Y782467D01*
X408894Y782484D01*
X408892Y782501D01*
X408835Y782676D01*
X408781Y782852D01*
X408773Y782867D01*
X408767Y782884D01*
X408677Y783044D01*
X408589Y783206D01*
X408578Y783219D01*
X408569Y783235D01*
X408449Y783374D01*
X408332Y783515D01*
X408318Y783526D01*
X408306Y783540D01*
X408161Y783652D01*
X408018Y783767D01*
X408002Y783775D01*
X407988Y783786D01*
X407823Y783868D01*
X407661Y783953D01*
X407644Y783958D01*
X407628Y783966D01*
X407449Y784013D01*
X407274Y784064D01*
X407256Y784066D01*
X407239Y784070D01*
X406908Y784097D01*
X390510Y784097D01*
X386962Y785567D01*
X384247Y788282D01*
X382777Y791830D01*
X382777Y795670D01*
X384247Y799218D01*
X386962Y801933D01*
X388346Y802506D01*
X390510Y803403D01*
X406908Y803403D01*
X406926Y803405D01*
X406944Y803403D01*
X407126Y803424D01*
X407309Y803443D01*
X407326Y803448D01*
X407343Y803450D01*
X407518Y803507D01*
X407694Y803561D01*
X407709Y803569D01*
X407726Y803575D01*
X407886Y803665D01*
X408048Y803753D01*
X408061Y803764D01*
X408077Y803773D01*
X408216Y803893D01*
X408357Y804010D01*
X408368Y804024D01*
X408382Y804036D01*
X408494Y804181D01*
X408609Y804324D01*
X408617Y804340D01*
X408628Y804354D01*
X408710Y804519D01*
X408795Y804681D01*
X408800Y804698D01*
X408808Y804714D01*
X408855Y804893D01*
X408906Y805068D01*
X408908Y805086D01*
X408912Y805103D01*
X408939Y805434D01*
X408939Y807466D01*
X408937Y807484D01*
X408939Y807502D01*
X408918Y807684D01*
X408899Y807867D01*
X408894Y807884D01*
X408892Y807901D01*
X408835Y808076D01*
X408781Y808252D01*
X408773Y808267D01*
X408767Y808284D01*
X408677Y808444D01*
X408589Y808606D01*
X408578Y808619D01*
X408569Y808635D01*
X408449Y808774D01*
X408332Y808915D01*
X408318Y808926D01*
X408306Y808940D01*
X408161Y809052D01*
X408018Y809167D01*
X408002Y809175D01*
X407988Y809186D01*
X407823Y809268D01*
X407661Y809353D01*
X407644Y809358D01*
X407628Y809366D01*
X407449Y809413D01*
X407274Y809464D01*
X407256Y809466D01*
X407239Y809470D01*
X406908Y809497D01*
X390510Y809497D01*
X386962Y810967D01*
X384247Y813682D01*
X382777Y817230D01*
X382777Y821070D01*
X384247Y824618D01*
X386962Y827333D01*
X390510Y828803D01*
X406908Y828803D01*
X406926Y828805D01*
X406944Y828803D01*
X407126Y828824D01*
X407309Y828843D01*
X407326Y828848D01*
X407343Y828850D01*
X407518Y828907D01*
X407694Y828961D01*
X407709Y828969D01*
X407726Y828975D01*
X407886Y829065D01*
X408048Y829153D01*
X408061Y829164D01*
X408077Y829173D01*
X408216Y829293D01*
X408357Y829410D01*
X408368Y829424D01*
X408382Y829436D01*
X408494Y829581D01*
X408609Y829724D01*
X408617Y829740D01*
X408628Y829754D01*
X408710Y829919D01*
X408795Y830081D01*
X408800Y830098D01*
X408808Y830114D01*
X408855Y830293D01*
X408906Y830468D01*
X408908Y830486D01*
X408912Y830503D01*
X408939Y830834D01*
X408939Y832866D01*
X408937Y832884D01*
X408939Y832902D01*
X408918Y833084D01*
X408899Y833267D01*
X408894Y833284D01*
X408892Y833301D01*
X408835Y833476D01*
X408781Y833652D01*
X408773Y833667D01*
X408767Y833684D01*
X408677Y833844D01*
X408589Y834006D01*
X408578Y834019D01*
X408569Y834035D01*
X408449Y834174D01*
X408332Y834315D01*
X408318Y834326D01*
X408306Y834340D01*
X408161Y834452D01*
X408018Y834567D01*
X408002Y834575D01*
X407988Y834586D01*
X407823Y834668D01*
X407661Y834753D01*
X407644Y834758D01*
X407628Y834766D01*
X407449Y834813D01*
X407274Y834864D01*
X407256Y834866D01*
X407239Y834870D01*
X406908Y834897D01*
X390510Y834897D01*
X386962Y836367D01*
X384247Y839082D01*
X382777Y842630D01*
X382777Y846470D01*
X384247Y850018D01*
X386962Y852733D01*
X390510Y854203D01*
X406908Y854203D01*
X406926Y854205D01*
X406944Y854203D01*
X407126Y854224D01*
X407309Y854243D01*
X407326Y854248D01*
X407343Y854250D01*
X407518Y854307D01*
X407694Y854361D01*
X407709Y854369D01*
X407726Y854375D01*
X407886Y854465D01*
X408048Y854553D01*
X408061Y854564D01*
X408077Y854573D01*
X408216Y854693D01*
X408357Y854810D01*
X408368Y854824D01*
X408382Y854836D01*
X408494Y854981D01*
X408609Y855124D01*
X408617Y855140D01*
X408628Y855154D01*
X408710Y855319D01*
X408795Y855481D01*
X408800Y855498D01*
X408808Y855514D01*
X408855Y855693D01*
X408906Y855868D01*
X408908Y855886D01*
X408912Y855903D01*
X408939Y856234D01*
X408939Y984758D01*
X408937Y984776D01*
X408939Y984794D01*
X408918Y984976D01*
X408899Y985159D01*
X408894Y985176D01*
X408892Y985193D01*
X408835Y985368D01*
X408781Y985544D01*
X408773Y985559D01*
X408767Y985576D01*
X408677Y985736D01*
X408589Y985898D01*
X408578Y985911D01*
X408569Y985927D01*
X408449Y986066D01*
X408332Y986207D01*
X408318Y986218D01*
X408306Y986232D01*
X408161Y986344D01*
X408018Y986459D01*
X408002Y986467D01*
X407988Y986478D01*
X407823Y986560D01*
X407661Y986645D01*
X407644Y986650D01*
X407628Y986658D01*
X407449Y986705D01*
X407274Y986756D01*
X407256Y986758D01*
X407239Y986762D01*
X406908Y986789D01*
X274194Y986789D01*
X274176Y986787D01*
X274158Y986789D01*
X273976Y986768D01*
X273793Y986749D01*
X273776Y986744D01*
X273759Y986742D01*
X273584Y986685D01*
X273408Y986631D01*
X273393Y986623D01*
X273376Y986617D01*
X273216Y986527D01*
X273054Y986439D01*
X273041Y986428D01*
X273025Y986419D01*
X272886Y986299D01*
X272745Y986182D01*
X272734Y986168D01*
X272720Y986156D01*
X272608Y986011D01*
X272493Y985868D01*
X272485Y985852D01*
X272474Y985838D01*
X272392Y985673D01*
X272307Y985511D01*
X272302Y985494D01*
X272294Y985478D01*
X272247Y985299D01*
X272196Y985124D01*
X272194Y985106D01*
X272190Y985089D01*
X272163Y984758D01*
X272163Y961478D01*
X270972Y960287D01*
X238128Y960287D01*
X236937Y961478D01*
X236937Y984758D01*
X236935Y984776D01*
X236937Y984794D01*
X236916Y984976D01*
X236897Y985159D01*
X236892Y985176D01*
X236890Y985193D01*
X236833Y985368D01*
X236779Y985544D01*
X236771Y985559D01*
X236765Y985576D01*
X236675Y985736D01*
X236587Y985898D01*
X236576Y985911D01*
X236567Y985927D01*
X236447Y986066D01*
X236330Y986207D01*
X236316Y986218D01*
X236304Y986232D01*
X236159Y986344D01*
X236016Y986459D01*
X236000Y986467D01*
X235986Y986478D01*
X235821Y986560D01*
X235659Y986645D01*
X235642Y986650D01*
X235626Y986658D01*
X235447Y986705D01*
X235272Y986756D01*
X235254Y986758D01*
X235237Y986762D01*
X234906Y986789D01*
X184194Y986789D01*
X184176Y986787D01*
X184158Y986789D01*
X183976Y986768D01*
X183793Y986749D01*
X183776Y986744D01*
X183759Y986742D01*
X183584Y986685D01*
X183408Y986631D01*
X183393Y986623D01*
X183376Y986617D01*
X183216Y986527D01*
X183054Y986439D01*
X183041Y986428D01*
X183025Y986419D01*
X182886Y986299D01*
X182745Y986182D01*
X182734Y986168D01*
X182720Y986156D01*
X182608Y986011D01*
X182493Y985868D01*
X182485Y985852D01*
X182474Y985838D01*
X182392Y985673D01*
X182307Y985511D01*
X182302Y985494D01*
X182294Y985478D01*
X182247Y985299D01*
X182196Y985124D01*
X182194Y985106D01*
X182190Y985089D01*
X182163Y984758D01*
X182163Y961478D01*
X180972Y960287D01*
X148128Y960287D01*
X146937Y961478D01*
X146937Y984758D01*
X146935Y984776D01*
X146937Y984794D01*
X146916Y984976D01*
X146897Y985159D01*
X146892Y985176D01*
X146890Y985193D01*
X146833Y985368D01*
X146779Y985544D01*
X146771Y985559D01*
X146765Y985576D01*
X146675Y985736D01*
X146587Y985898D01*
X146576Y985911D01*
X146567Y985927D01*
X146447Y986066D01*
X146330Y986207D01*
X146316Y986218D01*
X146304Y986232D01*
X146159Y986344D01*
X146016Y986459D01*
X146000Y986467D01*
X145986Y986478D01*
X145821Y986560D01*
X145659Y986645D01*
X145642Y986650D01*
X145626Y986658D01*
X145447Y986705D01*
X145272Y986756D01*
X145254Y986758D01*
X145237Y986762D01*
X144906Y986789D01*
X12192Y986789D01*
X12174Y986787D01*
X12156Y986789D01*
X11974Y986768D01*
X11791Y986749D01*
X11774Y986744D01*
X11757Y986742D01*
X11582Y986685D01*
X11406Y986631D01*
X11391Y986623D01*
X11374Y986617D01*
X11214Y986527D01*
X11052Y986439D01*
X11039Y986428D01*
X11023Y986419D01*
X10884Y986299D01*
X10743Y986182D01*
X10732Y986168D01*
X10718Y986156D01*
X10606Y986011D01*
X10491Y985868D01*
X10483Y985852D01*
X10472Y985838D01*
X10390Y985673D01*
X10305Y985511D01*
X10300Y985494D01*
X10292Y985478D01*
X10245Y985299D01*
X10194Y985124D01*
X10192Y985106D01*
X10188Y985089D01*
X10161Y984758D01*
X10161Y868764D01*
X10168Y868691D01*
X10166Y868618D01*
X10188Y868491D01*
X10201Y868363D01*
X10222Y868293D01*
X10235Y868221D01*
X10281Y868101D01*
X10319Y867978D01*
X10354Y867914D01*
X10380Y867846D01*
X10449Y867737D01*
X10511Y867624D01*
X10557Y867568D01*
X10597Y867506D01*
X10686Y867414D01*
X10768Y867315D01*
X10825Y867269D01*
X10876Y867216D01*
X10982Y867143D01*
X11082Y867063D01*
X11147Y867029D01*
X11207Y866987D01*
X11326Y866936D01*
X11439Y866877D01*
X11510Y866857D01*
X11577Y866828D01*
X11703Y866801D01*
X11826Y866766D01*
X11899Y866760D01*
X11971Y866745D01*
X12099Y866743D01*
X12228Y866733D01*
X12300Y866742D01*
X12374Y866741D01*
X12500Y866765D01*
X12627Y866780D01*
X12697Y866803D01*
X12769Y866816D01*
X12888Y866865D01*
X13010Y866905D01*
X13074Y866941D01*
X13142Y866968D01*
X13249Y867040D01*
X13361Y867103D01*
X13416Y867151D01*
X13477Y867191D01*
X13568Y867282D01*
X13665Y867366D01*
X13710Y867424D01*
X13762Y867475D01*
X13859Y867615D01*
X13912Y867684D01*
X13927Y867713D01*
X13951Y867748D01*
X17165Y873314D01*
X22036Y878185D01*
X28002Y881630D01*
X34656Y883413D01*
X41544Y883413D01*
X48198Y881630D01*
X54164Y878185D01*
X59035Y873314D01*
X62480Y867348D01*
X64263Y860694D01*
X64263Y853806D01*
X62480Y847152D01*
X59035Y841186D01*
X54164Y836315D01*
X48198Y832870D01*
X41544Y831087D01*
X34656Y831087D01*
X28002Y832870D01*
X22036Y836315D01*
X17165Y841186D01*
X13951Y846752D01*
X13908Y846811D01*
X13873Y846876D01*
X13791Y846974D01*
X13716Y847079D01*
X13663Y847129D01*
X13616Y847185D01*
X13516Y847265D01*
X13421Y847353D01*
X13359Y847391D01*
X13302Y847437D01*
X13188Y847496D01*
X13078Y847564D01*
X13010Y847589D01*
X12945Y847623D01*
X12821Y847658D01*
X12701Y847703D01*
X12628Y847714D01*
X12558Y847734D01*
X12429Y847745D01*
X12303Y847764D01*
X12230Y847761D01*
X12156Y847767D01*
X12029Y847752D01*
X11900Y847746D01*
X11829Y847729D01*
X11757Y847720D01*
X11634Y847680D01*
X11510Y847649D01*
X11444Y847618D01*
X11374Y847595D01*
X11262Y847532D01*
X11146Y847477D01*
X11087Y847433D01*
X11023Y847397D01*
X10926Y847313D01*
X10823Y847237D01*
X10774Y847182D01*
X10718Y847134D01*
X10640Y847033D01*
X10554Y846937D01*
X10517Y846874D01*
X10472Y846816D01*
X10414Y846701D01*
X10349Y846590D01*
X10325Y846521D01*
X10292Y846456D01*
X10259Y846331D01*
X10217Y846210D01*
X10207Y846138D01*
X10188Y846067D01*
X10174Y845897D01*
X10162Y845811D01*
X10164Y845778D01*
X10161Y845736D01*
X10161Y373634D01*
X10163Y373616D01*
X10161Y373598D01*
X10182Y373416D01*
X10201Y373233D01*
X10206Y373216D01*
X10208Y373199D01*
X10265Y373024D01*
X10319Y372848D01*
X10327Y372833D01*
X10333Y372816D01*
X10423Y372656D01*
X10511Y372494D01*
X10522Y372481D01*
X10531Y372465D01*
X10651Y372326D01*
X10768Y372185D01*
X10782Y372174D01*
X10794Y372160D01*
X10939Y372048D01*
X11082Y371933D01*
X11098Y371925D01*
X11112Y371914D01*
X11277Y371832D01*
X11439Y371747D01*
X11456Y371742D01*
X11472Y371734D01*
X11651Y371687D01*
X11826Y371636D01*
X11844Y371634D01*
X11861Y371630D01*
X12192Y371603D01*
X28590Y371603D01*
X32138Y370133D01*
X34853Y367418D01*
X34915Y367269D01*
X34925Y367249D01*
X34932Y367228D01*
X35021Y367072D01*
X35105Y366914D01*
X35119Y366897D01*
X35130Y366877D01*
X35247Y366742D01*
X35362Y366603D01*
X35379Y366589D01*
X35393Y366572D01*
X35535Y366463D01*
X35674Y366350D01*
X35694Y366339D01*
X35712Y366326D01*
X35872Y366246D01*
X36031Y366163D01*
X36052Y366156D01*
X36072Y366146D01*
X36245Y366100D01*
X36417Y366050D01*
X36439Y366048D01*
X36461Y366042D01*
X36792Y366015D01*
X45259Y366015D01*
X46752Y365396D01*
X58239Y353910D01*
X58259Y353893D01*
X58277Y353872D01*
X58415Y353765D01*
X58550Y353655D01*
X58574Y353642D01*
X58595Y353626D01*
X58752Y353548D01*
X58906Y353466D01*
X58931Y353458D01*
X58956Y353446D01*
X59125Y353401D01*
X59292Y353351D01*
X59318Y353349D01*
X59344Y353342D01*
X59675Y353315D01*
X353075Y353315D01*
X353102Y353317D01*
X353128Y353315D01*
X353302Y353337D01*
X353476Y353355D01*
X353501Y353362D01*
X353528Y353366D01*
X353693Y353421D01*
X353860Y353473D01*
X353884Y353486D01*
X353909Y353494D01*
X354061Y353581D01*
X354215Y353665D01*
X354235Y353682D01*
X354258Y353695D01*
X354511Y353910D01*
X369990Y369389D01*
X370007Y369409D01*
X370028Y369427D01*
X370135Y369565D01*
X370245Y369700D01*
X370258Y369724D01*
X370274Y369745D01*
X370352Y369902D01*
X370434Y370056D01*
X370442Y370081D01*
X370454Y370106D01*
X370499Y370275D01*
X370549Y370442D01*
X370551Y370468D01*
X370558Y370494D01*
X370585Y370825D01*
X370585Y505841D01*
X370583Y505859D01*
X370585Y505877D01*
X370564Y506059D01*
X370545Y506242D01*
X370540Y506259D01*
X370538Y506276D01*
X370481Y506451D01*
X370427Y506627D01*
X370419Y506642D01*
X370413Y506659D01*
X370323Y506819D01*
X370235Y506981D01*
X370224Y506994D01*
X370215Y507010D01*
X370095Y507149D01*
X369978Y507290D01*
X369964Y507301D01*
X369952Y507315D01*
X369807Y507427D01*
X369678Y507531D01*
X361822Y515387D01*
X361822Y526013D01*
X369678Y533869D01*
X369694Y533878D01*
X369707Y533889D01*
X369723Y533898D01*
X369862Y534018D01*
X370003Y534135D01*
X370014Y534149D01*
X370028Y534161D01*
X370140Y534306D01*
X370255Y534449D01*
X370263Y534465D01*
X370274Y534479D01*
X370356Y534644D01*
X370441Y534806D01*
X370446Y534823D01*
X370454Y534839D01*
X370501Y535018D01*
X370552Y535193D01*
X370554Y535211D01*
X370558Y535228D01*
X370585Y535559D01*
X370585Y568947D01*
X370582Y568982D01*
X370584Y569016D01*
X370562Y569182D01*
X370545Y569348D01*
X370535Y569381D01*
X370531Y569415D01*
X370476Y569573D01*
X370427Y569733D01*
X370411Y569763D01*
X370399Y569796D01*
X370315Y569940D01*
X370235Y570087D01*
X370213Y570113D01*
X370196Y570143D01*
X369979Y570395D01*
X346845Y593170D01*
X346827Y593185D01*
X346811Y593203D01*
X346759Y593242D01*
X345992Y594009D01*
X345987Y594014D01*
X345981Y594021D01*
X345410Y594582D01*
X345104Y595322D01*
X345101Y595328D01*
X345098Y595337D01*
X344785Y596075D01*
X344785Y596876D01*
X344785Y596883D01*
X344785Y596892D01*
X344777Y597969D01*
X344775Y597988D01*
X344776Y598006D01*
X344753Y598189D01*
X344734Y598369D01*
X344728Y598387D01*
X344726Y598406D01*
X344668Y598579D01*
X344613Y598753D01*
X344604Y598770D01*
X344598Y598788D01*
X344506Y598946D01*
X344418Y599106D01*
X344406Y599120D01*
X344397Y599136D01*
X344182Y599389D01*
X338435Y605136D01*
X338435Y613764D01*
X344536Y619865D01*
X353164Y619865D01*
X359265Y613764D01*
X359265Y605136D01*
X354270Y600141D01*
X354253Y600121D01*
X354234Y600104D01*
X354126Y599966D01*
X354015Y599830D01*
X354003Y599807D01*
X353987Y599786D01*
X353908Y599629D01*
X353826Y599474D01*
X353819Y599449D01*
X353807Y599426D01*
X353761Y599256D01*
X353711Y599088D01*
X353709Y599062D01*
X353702Y599037D01*
X353691Y598862D01*
X353675Y598687D01*
X353678Y598661D01*
X353676Y598636D01*
X353699Y598462D01*
X353718Y598287D01*
X353726Y598262D01*
X353729Y598237D01*
X353787Y598070D01*
X353840Y597903D01*
X353852Y597880D01*
X353861Y597856D01*
X353950Y597704D01*
X354035Y597551D01*
X354051Y597531D01*
X354064Y597509D01*
X354281Y597257D01*
X376655Y575230D01*
X376674Y575215D01*
X376690Y575196D01*
X376741Y575157D01*
X377507Y574392D01*
X377512Y574387D01*
X377518Y574380D01*
X378090Y573818D01*
X378395Y573079D01*
X378399Y573073D01*
X378402Y573065D01*
X378715Y572325D01*
X378715Y571525D01*
X378715Y571518D01*
X378715Y571509D01*
X378723Y570417D01*
X378715Y570312D01*
X378715Y535559D01*
X378717Y535541D01*
X378715Y535523D01*
X378736Y535341D01*
X378755Y535158D01*
X378760Y535141D01*
X378762Y535124D01*
X378819Y534949D01*
X378873Y534773D01*
X378881Y534758D01*
X378887Y534741D01*
X378977Y534581D01*
X379065Y534419D01*
X379076Y534406D01*
X379085Y534390D01*
X379205Y534251D01*
X379322Y534110D01*
X379336Y534099D01*
X379348Y534085D01*
X379493Y533973D01*
X379622Y533869D01*
X387478Y526013D01*
X387478Y515387D01*
X379622Y507531D01*
X379606Y507522D01*
X379593Y507511D01*
X379577Y507502D01*
X379437Y507382D01*
X379297Y507265D01*
X379286Y507251D01*
X379272Y507239D01*
X379160Y507094D01*
X379045Y506951D01*
X379037Y506935D01*
X379026Y506921D01*
X378944Y506756D01*
X378859Y506594D01*
X378854Y506577D01*
X378846Y506561D01*
X378799Y506382D01*
X378748Y506207D01*
X378746Y506189D01*
X378742Y506172D01*
X378715Y505841D01*
X378715Y367491D01*
X378096Y365998D01*
X359332Y347233D01*
X359331Y347233D01*
X357902Y345804D01*
X356409Y345185D01*
X56341Y345185D01*
X54848Y345804D01*
X43361Y357290D01*
X43341Y357307D01*
X43323Y357328D01*
X43185Y357435D01*
X43050Y357545D01*
X43026Y357558D01*
X43005Y357574D01*
X42848Y357652D01*
X42694Y357734D01*
X42669Y357742D01*
X42644Y357754D01*
X42475Y357799D01*
X42308Y357849D01*
X42282Y357851D01*
X42256Y357858D01*
X41925Y357885D01*
X36792Y357885D01*
X36769Y357883D01*
X36747Y357885D01*
X36570Y357863D01*
X36391Y357845D01*
X36370Y357839D01*
X36347Y357836D01*
X36178Y357780D01*
X36006Y357727D01*
X35986Y357717D01*
X35965Y357710D01*
X35810Y357621D01*
X35652Y357535D01*
X35635Y357521D01*
X35616Y357510D01*
X35481Y357393D01*
X35343Y357278D01*
X35329Y357260D01*
X35312Y357246D01*
X35203Y357104D01*
X35090Y356964D01*
X35080Y356944D01*
X35067Y356926D01*
X34915Y356631D01*
X34853Y356482D01*
X32138Y353767D01*
X30972Y353284D01*
X28590Y352297D01*
X12192Y352297D01*
X12174Y352295D01*
X12156Y352297D01*
X11974Y352276D01*
X11791Y352257D01*
X11774Y352252D01*
X11757Y352250D01*
X11582Y352193D01*
X11406Y352139D01*
X11391Y352131D01*
X11374Y352125D01*
X11214Y352035D01*
X11052Y351947D01*
X11039Y351936D01*
X11023Y351927D01*
X10884Y351807D01*
X10743Y351690D01*
X10732Y351676D01*
X10718Y351664D01*
X10606Y351519D01*
X10491Y351376D01*
X10483Y351360D01*
X10472Y351346D01*
X10390Y351181D01*
X10305Y351019D01*
X10300Y351002D01*
X10292Y350986D01*
X10245Y350807D01*
X10194Y350632D01*
X10192Y350614D01*
X10188Y350597D01*
X10161Y350266D01*
X10161Y348234D01*
X10163Y348216D01*
X10161Y348198D01*
X10182Y348016D01*
X10201Y347833D01*
X10206Y347816D01*
X10208Y347799D01*
X10265Y347624D01*
X10319Y347448D01*
X10327Y347433D01*
X10333Y347416D01*
X10423Y347256D01*
X10511Y347094D01*
X10522Y347081D01*
X10531Y347065D01*
X10651Y346926D01*
X10768Y346785D01*
X10782Y346774D01*
X10794Y346760D01*
X10939Y346648D01*
X11082Y346533D01*
X11098Y346525D01*
X11112Y346514D01*
X11277Y346432D01*
X11439Y346347D01*
X11456Y346342D01*
X11472Y346334D01*
X11651Y346287D01*
X11826Y346236D01*
X11844Y346234D01*
X11861Y346230D01*
X12192Y346203D01*
X28590Y346203D01*
X32138Y344733D01*
X34853Y342018D01*
X34915Y341869D01*
X34925Y341849D01*
X34932Y341828D01*
X35021Y341672D01*
X35105Y341514D01*
X35119Y341497D01*
X35130Y341477D01*
X35247Y341342D01*
X35362Y341203D01*
X35379Y341189D01*
X35393Y341172D01*
X35535Y341063D01*
X35674Y340950D01*
X35694Y340939D01*
X35712Y340926D01*
X35872Y340846D01*
X36031Y340763D01*
X36052Y340756D01*
X36072Y340746D01*
X36245Y340700D01*
X36417Y340650D01*
X36439Y340648D01*
X36461Y340642D01*
X36792Y340615D01*
X229409Y340615D01*
X230902Y339996D01*
X282846Y288052D01*
X283465Y286559D01*
X283465Y186675D01*
X283467Y186648D01*
X283465Y186622D01*
X283487Y186448D01*
X283505Y186274D01*
X283512Y186249D01*
X283516Y186222D01*
X283571Y186057D01*
X283623Y185890D01*
X283636Y185866D01*
X283644Y185841D01*
X283731Y185689D01*
X283815Y185535D01*
X283832Y185515D01*
X283845Y185492D01*
X284060Y185239D01*
X324991Y144307D01*
X324996Y144304D01*
X324999Y144299D01*
X325153Y144175D01*
X325303Y144052D01*
X325308Y144049D01*
X325312Y144046D01*
X325489Y143953D01*
X325659Y143863D01*
X325664Y143862D01*
X325669Y143859D01*
X325857Y143804D01*
X326045Y143748D01*
X326050Y143748D01*
X326055Y143746D01*
X326385Y143712D01*
X351198Y143191D01*
X351241Y143195D01*
X351285Y143191D01*
X351441Y143211D01*
X351599Y143223D01*
X351641Y143235D01*
X351684Y143240D01*
X351834Y143290D01*
X351986Y143333D01*
X352025Y143353D01*
X352067Y143367D01*
X352204Y143445D01*
X352344Y143517D01*
X352378Y143544D01*
X352416Y143566D01*
X352536Y143670D01*
X352659Y143768D01*
X352687Y143802D01*
X352720Y143831D01*
X352816Y143956D01*
X352918Y144077D01*
X352939Y144115D01*
X352965Y144150D01*
X353087Y144387D01*
X353111Y144430D01*
X353113Y144437D01*
X353117Y144445D01*
X353233Y144725D01*
X356125Y147617D01*
X358121Y148444D01*
X359905Y149183D01*
X363995Y149183D01*
X367775Y147617D01*
X370667Y144725D01*
X372233Y140945D01*
X372233Y136855D01*
X370667Y133075D01*
X367775Y130183D01*
X363995Y128617D01*
X359905Y128617D01*
X356125Y130183D01*
X353233Y133075D01*
X352929Y133809D01*
X352928Y133810D01*
X352850Y133956D01*
X352739Y134164D01*
X352738Y134164D01*
X352738Y134165D01*
X352606Y134324D01*
X352482Y134474D01*
X352482Y134475D01*
X352481Y134475D01*
X352322Y134604D01*
X352170Y134728D01*
X352169Y134728D01*
X352168Y134729D01*
X351983Y134826D01*
X351813Y134915D01*
X351812Y134915D01*
X351811Y134916D01*
X351626Y134970D01*
X351427Y135028D01*
X351426Y135028D01*
X351425Y135028D01*
X351095Y135062D01*
X323829Y135635D01*
X323810Y135633D01*
X323787Y135635D01*
X322997Y135635D01*
X322275Y135952D01*
X322257Y135958D01*
X322236Y135969D01*
X321506Y136271D01*
X320961Y136840D01*
X320946Y136853D01*
X320931Y136871D01*
X275954Y181848D01*
X275335Y183341D01*
X275335Y283225D01*
X275333Y283252D01*
X275335Y283278D01*
X275313Y283452D01*
X275295Y283626D01*
X275288Y283651D01*
X275284Y283678D01*
X275229Y283843D01*
X275177Y284010D01*
X275164Y284034D01*
X275156Y284059D01*
X275069Y284211D01*
X274985Y284365D01*
X274968Y284385D01*
X274955Y284408D01*
X274740Y284661D01*
X227511Y331890D01*
X227491Y331907D01*
X227473Y331928D01*
X227335Y332035D01*
X227200Y332145D01*
X227176Y332158D01*
X227155Y332174D01*
X226998Y332252D01*
X226844Y332334D01*
X226819Y332342D01*
X226794Y332354D01*
X226625Y332399D01*
X226458Y332449D01*
X226432Y332451D01*
X226406Y332458D01*
X226075Y332485D01*
X36792Y332485D01*
X36769Y332483D01*
X36747Y332485D01*
X36570Y332463D01*
X36391Y332445D01*
X36370Y332439D01*
X36347Y332436D01*
X36178Y332380D01*
X36006Y332327D01*
X35986Y332317D01*
X35965Y332310D01*
X35810Y332221D01*
X35652Y332135D01*
X35635Y332121D01*
X35616Y332110D01*
X35481Y331993D01*
X35343Y331878D01*
X35329Y331860D01*
X35312Y331846D01*
X35203Y331704D01*
X35090Y331564D01*
X35080Y331544D01*
X35067Y331526D01*
X34915Y331231D01*
X34853Y331082D01*
X32138Y328367D01*
X28590Y326897D01*
X12192Y326897D01*
X12174Y326895D01*
X12156Y326897D01*
X11974Y326876D01*
X11791Y326857D01*
X11774Y326852D01*
X11757Y326850D01*
X11582Y326793D01*
X11406Y326739D01*
X11391Y326731D01*
X11374Y326725D01*
X11214Y326635D01*
X11052Y326547D01*
X11039Y326536D01*
X11023Y326527D01*
X10884Y326407D01*
X10743Y326290D01*
X10732Y326276D01*
X10718Y326264D01*
X10606Y326119D01*
X10491Y325976D01*
X10483Y325960D01*
X10472Y325946D01*
X10390Y325781D01*
X10305Y325619D01*
X10300Y325602D01*
X10292Y325586D01*
X10245Y325407D01*
X10194Y325232D01*
X10192Y325214D01*
X10188Y325197D01*
X10161Y324866D01*
X10161Y322834D01*
X10163Y322816D01*
X10161Y322798D01*
X10182Y322616D01*
X10201Y322433D01*
X10206Y322416D01*
X10208Y322399D01*
X10265Y322224D01*
X10319Y322048D01*
X10327Y322033D01*
X10333Y322016D01*
X10423Y321856D01*
X10511Y321694D01*
X10522Y321681D01*
X10531Y321665D01*
X10651Y321526D01*
X10768Y321385D01*
X10782Y321374D01*
X10794Y321360D01*
X10939Y321248D01*
X11082Y321133D01*
X11098Y321125D01*
X11112Y321114D01*
X11277Y321032D01*
X11439Y320947D01*
X11456Y320942D01*
X11472Y320934D01*
X11651Y320887D01*
X11826Y320836D01*
X11844Y320834D01*
X11861Y320830D01*
X12192Y320803D01*
X28590Y320803D01*
X32138Y319333D01*
X34853Y316618D01*
X36323Y313070D01*
X36323Y309230D01*
X34853Y305682D01*
X32138Y302967D01*
X28590Y301497D01*
X12192Y301497D01*
X12174Y301495D01*
X12156Y301497D01*
X11974Y301476D01*
X11791Y301457D01*
X11774Y301452D01*
X11757Y301450D01*
X11582Y301393D01*
X11406Y301339D01*
X11391Y301331D01*
X11374Y301325D01*
X11214Y301235D01*
X11052Y301147D01*
X11039Y301136D01*
X11023Y301127D01*
X10884Y301007D01*
X10743Y300890D01*
X10732Y300876D01*
X10718Y300864D01*
X10606Y300719D01*
X10491Y300576D01*
X10483Y300560D01*
X10472Y300546D01*
X10390Y300381D01*
X10305Y300219D01*
X10300Y300202D01*
X10292Y300186D01*
X10245Y300007D01*
X10194Y299832D01*
X10192Y299814D01*
X10188Y299797D01*
X10161Y299466D01*
X10161Y297942D01*
X10163Y297924D01*
X10161Y297906D01*
X10182Y297724D01*
X10201Y297541D01*
X10206Y297524D01*
X10208Y297507D01*
X10265Y297332D01*
X10319Y297156D01*
X10327Y297141D01*
X10333Y297124D01*
X10423Y296964D01*
X10511Y296802D01*
X10522Y296789D01*
X10531Y296773D01*
X10651Y296634D01*
X10768Y296493D01*
X10782Y296482D01*
X10794Y296468D01*
X10939Y296356D01*
X11082Y296241D01*
X11098Y296233D01*
X11112Y296222D01*
X11277Y296140D01*
X11439Y296055D01*
X11456Y296050D01*
X11472Y296042D01*
X11651Y295995D01*
X11826Y295944D01*
X11844Y295942D01*
X11861Y295938D01*
X12192Y295911D01*
X16511Y295911D01*
X16511Y286258D01*
X16512Y286240D01*
X16511Y286223D01*
X16532Y286040D01*
X16551Y285858D01*
X16556Y285841D01*
X16558Y285823D01*
X16583Y285745D01*
X16544Y285608D01*
X16542Y285590D01*
X16538Y285573D01*
X16511Y285242D01*
X16511Y275589D01*
X12192Y275589D01*
X12174Y275587D01*
X12156Y275589D01*
X11974Y275568D01*
X11791Y275549D01*
X11774Y275544D01*
X11757Y275542D01*
X11582Y275485D01*
X11406Y275431D01*
X11391Y275423D01*
X11374Y275417D01*
X11214Y275327D01*
X11052Y275240D01*
X11039Y275228D01*
X11023Y275219D01*
X10884Y275099D01*
X10743Y274982D01*
X10732Y274968D01*
X10718Y274956D01*
X10606Y274811D01*
X10491Y274668D01*
X10483Y274652D01*
X10472Y274638D01*
X10390Y274473D01*
X10305Y274311D01*
X10300Y274294D01*
X10292Y274278D01*
X10245Y274100D01*
X10194Y273924D01*
X10192Y273906D01*
X10188Y273889D01*
X10161Y273558D01*
X10161Y12192D01*
X10163Y12174D01*
X10161Y12156D01*
X10182Y11974D01*
X10201Y11791D01*
X10206Y11774D01*
X10208Y11757D01*
X10265Y11582D01*
X10319Y11406D01*
X10327Y11391D01*
X10333Y11374D01*
X10423Y11214D01*
X10511Y11052D01*
X10522Y11039D01*
X10531Y11023D01*
X10651Y10884D01*
X10768Y10743D01*
X10782Y10732D01*
X10794Y10718D01*
X10939Y10606D01*
X11082Y10491D01*
X11098Y10483D01*
X11112Y10472D01*
X11277Y10390D01*
X11439Y10305D01*
X11456Y10300D01*
X11472Y10292D01*
X11651Y10245D01*
X11826Y10194D01*
X11844Y10192D01*
X11861Y10188D01*
X12192Y10161D01*
X51885Y10161D01*
X52011Y10173D01*
G37*
%LPC*%
G36*
X200028Y71287D02*
X200028Y71287D01*
X198837Y72478D01*
X198837Y105322D01*
X200028Y106513D01*
X232872Y106513D01*
X234063Y105322D01*
X234063Y72478D01*
X232872Y71287D01*
X200028Y71287D01*
G37*
%LPD*%
%LPC*%
G36*
X193678Y458637D02*
X193678Y458637D01*
X192487Y459828D01*
X192487Y492672D01*
X193678Y493863D01*
X226522Y493863D01*
X227713Y492672D01*
X227713Y459828D01*
X226522Y458637D01*
X193678Y458637D01*
G37*
%LPD*%
%LPC*%
G36*
X103678Y458637D02*
X103678Y458637D01*
X102487Y459828D01*
X102487Y492672D01*
X103678Y493863D01*
X136522Y493863D01*
X137713Y492672D01*
X137713Y459828D01*
X136522Y458637D01*
X103678Y458637D01*
G37*
%LPD*%
%LPC*%
G36*
X262428Y661837D02*
X262428Y661837D01*
X261237Y663028D01*
X261237Y695872D01*
X262428Y697063D01*
X295272Y697063D01*
X296463Y695872D01*
X296463Y663028D01*
X295272Y661837D01*
X262428Y661837D01*
G37*
%LPD*%
%LPC*%
G36*
X352428Y661837D02*
X352428Y661837D01*
X351237Y663028D01*
X351237Y695872D01*
X352428Y697063D01*
X385272Y697063D01*
X386463Y695872D01*
X386463Y663028D01*
X385272Y661837D01*
X352428Y661837D01*
G37*
%LPD*%
%LPC*%
G36*
X142849Y405532D02*
X142849Y405532D01*
X142847Y405550D01*
X142849Y405567D01*
X142828Y405750D01*
X142809Y405932D01*
X142804Y405949D01*
X142802Y405967D01*
X142745Y406142D01*
X142714Y406242D01*
X142718Y406249D01*
X142765Y406427D01*
X142816Y406602D01*
X142818Y406620D01*
X142822Y406637D01*
X142849Y406968D01*
X142849Y417173D01*
X148817Y417173D01*
X149463Y417000D01*
X150042Y416665D01*
X150515Y416192D01*
X150850Y415613D01*
X151023Y414967D01*
X151023Y411805D01*
X151024Y411796D01*
X151023Y411787D01*
X151044Y411594D01*
X151063Y411405D01*
X151065Y411396D01*
X151066Y411387D01*
X151124Y411203D01*
X151181Y411020D01*
X151185Y411012D01*
X151188Y411003D01*
X151281Y410835D01*
X151373Y410666D01*
X151378Y410659D01*
X151383Y410651D01*
X151507Y410504D01*
X151630Y410356D01*
X151637Y410351D01*
X151643Y410344D01*
X151794Y410225D01*
X151944Y410104D01*
X151952Y410100D01*
X151959Y410094D01*
X152132Y410007D01*
X152301Y409919D01*
X152310Y409916D01*
X152318Y409912D01*
X152504Y409860D01*
X152688Y409807D01*
X152697Y409806D01*
X152706Y409804D01*
X152899Y409790D01*
X153090Y409774D01*
X153098Y409775D01*
X153107Y409775D01*
X153300Y409799D01*
X153489Y409821D01*
X153498Y409824D01*
X153507Y409825D01*
X153690Y409886D01*
X153872Y409946D01*
X153880Y409950D01*
X153888Y409953D01*
X154055Y410049D01*
X154223Y410144D01*
X154230Y410150D01*
X154237Y410154D01*
X154490Y410369D01*
X160786Y416665D01*
X169414Y416665D01*
X175515Y410564D01*
X175515Y401936D01*
X169414Y395835D01*
X160786Y395835D01*
X154490Y402131D01*
X154483Y402137D01*
X154478Y402144D01*
X154328Y402264D01*
X154179Y402386D01*
X154171Y402390D01*
X154164Y402396D01*
X153994Y402484D01*
X153823Y402575D01*
X153814Y402577D01*
X153807Y402581D01*
X153622Y402635D01*
X153437Y402690D01*
X153428Y402690D01*
X153420Y402693D01*
X153228Y402708D01*
X153036Y402726D01*
X153027Y402725D01*
X153018Y402726D01*
X152829Y402704D01*
X152636Y402683D01*
X152627Y402680D01*
X152619Y402679D01*
X152437Y402619D01*
X152252Y402561D01*
X152244Y402557D01*
X152236Y402554D01*
X152067Y402459D01*
X151900Y402366D01*
X151893Y402360D01*
X151885Y402356D01*
X151739Y402230D01*
X151593Y402106D01*
X151587Y402099D01*
X151580Y402093D01*
X151463Y401941D01*
X151343Y401790D01*
X151339Y401782D01*
X151334Y401775D01*
X151248Y401603D01*
X151161Y401431D01*
X151158Y401422D01*
X151154Y401414D01*
X151104Y401228D01*
X151053Y401043D01*
X151052Y401034D01*
X151050Y401025D01*
X151023Y400695D01*
X151023Y397533D01*
X150850Y396887D01*
X150515Y396308D01*
X150042Y395835D01*
X149463Y395500D01*
X148817Y395327D01*
X142849Y395327D01*
X142849Y405532D01*
G37*
%LPD*%
%LPC*%
G36*
X267737Y507872D02*
X267737Y507872D01*
X260222Y515387D01*
X260222Y526013D01*
X267737Y533528D01*
X278363Y533528D01*
X285878Y526013D01*
X285878Y515387D01*
X278363Y507872D01*
X267737Y507872D01*
G37*
%LPD*%
%LPC*%
G36*
X318537Y507872D02*
X318537Y507872D01*
X311022Y515387D01*
X311022Y526013D01*
X318537Y533528D01*
X329163Y533528D01*
X336678Y526013D01*
X336678Y515387D01*
X329163Y507872D01*
X318537Y507872D01*
G37*
%LPD*%
%LPC*%
G36*
X289626Y599035D02*
X289626Y599035D01*
X288435Y600226D01*
X288435Y618674D01*
X289626Y619865D01*
X308074Y619865D01*
X309265Y618674D01*
X309265Y600226D01*
X308074Y599035D01*
X289626Y599035D01*
G37*
%LPD*%
%LPC*%
G36*
X185786Y395835D02*
X185786Y395835D01*
X179685Y401936D01*
X179685Y410564D01*
X185786Y416665D01*
X194414Y416665D01*
X200515Y410564D01*
X200515Y401936D01*
X194414Y395835D01*
X185786Y395835D01*
G37*
%LPD*%
%LPC*%
G36*
X230236Y897485D02*
X230236Y897485D01*
X224135Y903586D01*
X224135Y912214D01*
X230236Y918315D01*
X238864Y918315D01*
X244965Y912214D01*
X244965Y903586D01*
X238864Y897485D01*
X230236Y897485D01*
G37*
%LPD*%
%LPC*%
G36*
X319536Y599035D02*
X319536Y599035D01*
X313435Y605136D01*
X313435Y613764D01*
X319536Y619865D01*
X328164Y619865D01*
X334265Y613764D01*
X334265Y605136D01*
X328164Y599035D01*
X319536Y599035D01*
G37*
%LPD*%
%LPC*%
G36*
X48755Y515967D02*
X48755Y515967D01*
X44975Y517533D01*
X42083Y520425D01*
X40517Y524205D01*
X40517Y528295D01*
X42083Y532075D01*
X44975Y534967D01*
X48755Y536533D01*
X52845Y536533D01*
X56625Y534967D01*
X59517Y532075D01*
X61083Y528295D01*
X61083Y524205D01*
X59517Y520425D01*
X56625Y517533D01*
X52845Y515967D01*
X48755Y515967D01*
G37*
%LPD*%
%LPC*%
G36*
X48755Y668367D02*
X48755Y668367D01*
X44975Y669933D01*
X42083Y672825D01*
X40517Y676605D01*
X40517Y680695D01*
X42083Y684475D01*
X44975Y687367D01*
X48328Y688756D01*
X48329Y688756D01*
X48755Y688933D01*
X52845Y688933D01*
X56625Y687367D01*
X59517Y684475D01*
X61083Y680695D01*
X61083Y676605D01*
X59517Y672825D01*
X56625Y669933D01*
X52845Y668367D01*
X48755Y668367D01*
G37*
%LPD*%
%LPC*%
G36*
X48755Y583367D02*
X48755Y583367D01*
X44975Y584933D01*
X42083Y587825D01*
X40517Y591605D01*
X40517Y595695D01*
X42083Y599475D01*
X44975Y602367D01*
X47574Y603444D01*
X48755Y603933D01*
X52845Y603933D01*
X56625Y602367D01*
X59517Y599475D01*
X61083Y595695D01*
X61083Y591605D01*
X59517Y587825D01*
X56625Y584933D01*
X52845Y583367D01*
X48755Y583367D01*
G37*
%LPD*%
%LPC*%
G36*
X359905Y43617D02*
X359905Y43617D01*
X356125Y45183D01*
X353233Y48075D01*
X351667Y51855D01*
X351667Y55945D01*
X353233Y59725D01*
X356125Y62617D01*
X357366Y63131D01*
X359905Y64183D01*
X363995Y64183D01*
X367775Y62617D01*
X370667Y59725D01*
X372233Y55945D01*
X372233Y51855D01*
X370667Y48075D01*
X367775Y45183D01*
X363995Y43617D01*
X359905Y43617D01*
G37*
%LPD*%
%LPC*%
G36*
X55105Y43617D02*
X55105Y43617D01*
X51325Y45183D01*
X48433Y48075D01*
X46867Y51855D01*
X46867Y55945D01*
X48433Y59725D01*
X51325Y62617D01*
X52566Y63131D01*
X55105Y64183D01*
X59195Y64183D01*
X62975Y62617D01*
X65867Y59725D01*
X67433Y55945D01*
X67433Y51855D01*
X65867Y48075D01*
X62975Y45183D01*
X59195Y43617D01*
X55105Y43617D01*
G37*
%LPD*%
%LPC*%
G36*
X48755Y430967D02*
X48755Y430967D01*
X44975Y432533D01*
X42083Y435425D01*
X40517Y439205D01*
X40517Y443295D01*
X42083Y447075D01*
X44975Y449967D01*
X48755Y451533D01*
X52845Y451533D01*
X56625Y449967D01*
X59517Y447075D01*
X61083Y443295D01*
X61083Y439205D01*
X59517Y435425D01*
X56625Y432533D01*
X56552Y432503D01*
X52845Y430967D01*
X48755Y430967D01*
G37*
%LPD*%
%LPC*%
G36*
X275823Y835913D02*
X275823Y835913D01*
X270763Y840973D01*
X270763Y848127D01*
X275823Y853187D01*
X282977Y853187D01*
X288037Y848127D01*
X288037Y840973D01*
X282977Y835913D01*
X275823Y835913D01*
G37*
%LPD*%
%LPC*%
G36*
X155173Y721613D02*
X155173Y721613D01*
X150113Y726673D01*
X150113Y733827D01*
X155173Y738887D01*
X162327Y738887D01*
X167387Y733827D01*
X167387Y726673D01*
X162327Y721613D01*
X155173Y721613D01*
G37*
%LPD*%
%LPC*%
G36*
X155173Y696213D02*
X155173Y696213D01*
X150113Y701273D01*
X150113Y708427D01*
X155173Y713487D01*
X162327Y713487D01*
X167387Y708427D01*
X167387Y701273D01*
X162327Y696213D01*
X155173Y696213D01*
G37*
%LPD*%
%LPC*%
G36*
X231373Y721613D02*
X231373Y721613D01*
X226313Y726673D01*
X226313Y733827D01*
X231373Y738887D01*
X238527Y738887D01*
X243587Y733827D01*
X243587Y726673D01*
X238527Y721613D01*
X231373Y721613D01*
G37*
%LPD*%
%LPC*%
G36*
X231373Y696213D02*
X231373Y696213D01*
X226313Y701273D01*
X226313Y708427D01*
X231373Y713487D01*
X238527Y713487D01*
X243587Y708427D01*
X243587Y701273D01*
X238527Y696213D01*
X231373Y696213D01*
G37*
%LPD*%
%LPC*%
G36*
X212323Y366013D02*
X212323Y366013D01*
X207263Y371073D01*
X207263Y378227D01*
X212323Y383287D01*
X219477Y383287D01*
X224537Y378227D01*
X224537Y371073D01*
X219477Y366013D01*
X212323Y366013D01*
G37*
%LPD*%
%LPC*%
G36*
X352023Y835913D02*
X352023Y835913D01*
X346963Y840973D01*
X346963Y848127D01*
X352023Y853187D01*
X359177Y853187D01*
X364237Y848127D01*
X364237Y840973D01*
X359177Y835913D01*
X352023Y835913D01*
G37*
%LPD*%
%LPC*%
G36*
X212323Y289813D02*
X212323Y289813D01*
X207263Y294873D01*
X207263Y302027D01*
X212323Y307087D01*
X219477Y307087D01*
X224537Y302027D01*
X224537Y294873D01*
X219477Y289813D01*
X212323Y289813D01*
G37*
%LPD*%
%LPC*%
G36*
X21589Y288289D02*
X21589Y288289D01*
X21589Y295911D01*
X27470Y295911D01*
X29049Y295661D01*
X30570Y295166D01*
X31995Y294440D01*
X33289Y293500D01*
X34420Y292369D01*
X35360Y291075D01*
X36086Y289650D01*
X36529Y288289D01*
X21589Y288289D01*
G37*
%LPD*%
%LPC*%
G36*
X382571Y745489D02*
X382571Y745489D01*
X383014Y746850D01*
X383740Y748275D01*
X384680Y749569D01*
X385811Y750700D01*
X387105Y751640D01*
X388530Y752366D01*
X390051Y752861D01*
X391630Y753111D01*
X397511Y753111D01*
X397511Y745489D01*
X382571Y745489D01*
G37*
%LPD*%
%LPC*%
G36*
X21589Y275589D02*
X21589Y275589D01*
X21589Y283211D01*
X36529Y283211D01*
X36086Y281850D01*
X35360Y280425D01*
X34420Y279131D01*
X33289Y278000D01*
X31995Y277060D01*
X30570Y276334D01*
X29049Y275839D01*
X27470Y275589D01*
X21589Y275589D01*
G37*
%LPD*%
%LPC*%
G36*
X391630Y732789D02*
X391630Y732789D01*
X390051Y733039D01*
X388530Y733534D01*
X387105Y734260D01*
X385811Y735200D01*
X384680Y736331D01*
X383740Y737625D01*
X383014Y739050D01*
X382571Y740411D01*
X397511Y740411D01*
X397511Y732789D01*
X391630Y732789D01*
G37*
%LPD*%
%LPC*%
G36*
X129177Y408999D02*
X129177Y408999D01*
X129177Y414967D01*
X129350Y415613D01*
X129685Y416192D01*
X130158Y416665D01*
X130737Y417000D01*
X131383Y417173D01*
X137351Y417173D01*
X137351Y408999D01*
X129177Y408999D01*
G37*
%LPD*%
%LPC*%
G36*
X173627Y910649D02*
X173627Y910649D01*
X173627Y916617D01*
X173800Y917263D01*
X174135Y917842D01*
X174608Y918315D01*
X175187Y918650D01*
X175833Y918823D01*
X181801Y918823D01*
X181801Y910649D01*
X173627Y910649D01*
G37*
%LPD*%
%LPC*%
G36*
X135527Y21649D02*
X135527Y21649D01*
X135527Y27617D01*
X135700Y28263D01*
X136035Y28842D01*
X136508Y29315D01*
X137087Y29650D01*
X137733Y29823D01*
X143701Y29823D01*
X143701Y21649D01*
X135527Y21649D01*
G37*
%LPD*%
%LPC*%
G36*
X175833Y896977D02*
X175833Y896977D01*
X175187Y897150D01*
X174608Y897485D01*
X174135Y897958D01*
X173800Y898537D01*
X173627Y899183D01*
X173627Y905151D01*
X181801Y905151D01*
X181801Y896977D01*
X175833Y896977D01*
G37*
%LPD*%
%LPC*%
G36*
X131383Y395327D02*
X131383Y395327D01*
X130737Y395500D01*
X130158Y395835D01*
X129685Y396308D01*
X129350Y396887D01*
X129177Y397533D01*
X129177Y403501D01*
X137351Y403501D01*
X137351Y395327D01*
X131383Y395327D01*
G37*
%LPD*%
%LPC*%
G36*
X53549Y413999D02*
X53549Y413999D01*
X53549Y421703D01*
X54942Y421250D01*
X56456Y420479D01*
X57830Y419481D01*
X59031Y418280D01*
X60029Y416906D01*
X60800Y415392D01*
X61253Y413999D01*
X53549Y413999D01*
G37*
%LPD*%
%LPC*%
G36*
X59899Y26649D02*
X59899Y26649D01*
X59899Y34353D01*
X61292Y33900D01*
X62806Y33129D01*
X64180Y32131D01*
X65381Y30930D01*
X66379Y29556D01*
X67150Y28042D01*
X67603Y26649D01*
X59899Y26649D01*
G37*
%LPD*%
%LPC*%
G36*
X364699Y26649D02*
X364699Y26649D01*
X364699Y34353D01*
X366092Y33900D01*
X367606Y33129D01*
X368980Y32131D01*
X370181Y30930D01*
X371179Y29556D01*
X371950Y28042D01*
X372403Y26649D01*
X364699Y26649D01*
G37*
%LPD*%
%LPC*%
G36*
X53549Y566399D02*
X53549Y566399D01*
X53549Y574103D01*
X54942Y573650D01*
X56456Y572879D01*
X57830Y571881D01*
X59031Y570680D01*
X60029Y569306D01*
X60800Y567792D01*
X61253Y566399D01*
X53549Y566399D01*
G37*
%LPD*%
%LPC*%
G36*
X53549Y408501D02*
X53549Y408501D01*
X61253Y408501D01*
X60800Y407108D01*
X60029Y405594D01*
X59031Y404220D01*
X57830Y403019D01*
X56456Y402021D01*
X54942Y401250D01*
X53549Y400797D01*
X53549Y408501D01*
G37*
%LPD*%
%LPC*%
G36*
X53549Y560901D02*
X53549Y560901D01*
X61253Y560901D01*
X60800Y559508D01*
X60029Y557994D01*
X59031Y556620D01*
X57830Y555419D01*
X56456Y554421D01*
X54942Y553650D01*
X53549Y553197D01*
X53549Y560901D01*
G37*
%LPD*%
%LPC*%
G36*
X40347Y413999D02*
X40347Y413999D01*
X40800Y415392D01*
X41571Y416906D01*
X42569Y418280D01*
X43770Y419481D01*
X45144Y420479D01*
X46658Y421250D01*
X48051Y421703D01*
X48051Y413999D01*
X40347Y413999D01*
G37*
%LPD*%
%LPC*%
G36*
X40347Y566399D02*
X40347Y566399D01*
X40800Y567792D01*
X41571Y569306D01*
X42569Y570680D01*
X43770Y571881D01*
X45144Y572879D01*
X46658Y573650D01*
X48051Y574103D01*
X48051Y566399D01*
X40347Y566399D01*
G37*
%LPD*%
%LPC*%
G36*
X351497Y26649D02*
X351497Y26649D01*
X351950Y28042D01*
X352721Y29556D01*
X353719Y30930D01*
X354920Y32131D01*
X356294Y33129D01*
X357808Y33900D01*
X359201Y34353D01*
X359201Y26649D01*
X351497Y26649D01*
G37*
%LPD*%
%LPC*%
G36*
X46697Y26649D02*
X46697Y26649D01*
X47150Y28042D01*
X47921Y29556D01*
X48919Y30930D01*
X50120Y32131D01*
X51494Y33129D01*
X53008Y33900D01*
X54401Y34353D01*
X54401Y26649D01*
X46697Y26649D01*
G37*
%LPD*%
%LPC*%
G36*
X46658Y553650D02*
X46658Y553650D01*
X45144Y554421D01*
X43770Y555419D01*
X42569Y556620D01*
X41571Y557994D01*
X40800Y559508D01*
X40347Y560901D01*
X48051Y560901D01*
X48051Y553197D01*
X46658Y553650D01*
G37*
%LPD*%
%LPC*%
G36*
X46658Y401250D02*
X46658Y401250D01*
X45144Y402021D01*
X43770Y403019D01*
X42569Y404220D01*
X41571Y405594D01*
X40800Y407108D01*
X40347Y408501D01*
X48051Y408501D01*
X48051Y400797D01*
X46658Y401250D01*
G37*
%LPD*%
D10*
X215900Y298450D03*
X215900Y374650D03*
D11*
X392430Y844550D02*
X407670Y844550D01*
X407670Y819150D02*
X392430Y819150D01*
X392430Y793750D02*
X407670Y793750D01*
X407670Y768350D02*
X392430Y768350D01*
X392430Y742950D02*
X407670Y742950D01*
D12*
X279400Y844550D03*
X355600Y844550D03*
D13*
X57150Y138900D03*
X57150Y53900D03*
X57150Y23900D03*
X50800Y526250D03*
X50800Y441250D03*
X50800Y411250D03*
X50800Y678650D03*
X50800Y593650D03*
X50800Y563650D03*
X361950Y138900D03*
X361950Y53900D03*
X361950Y23900D03*
D14*
X184550Y907900D03*
D15*
X209550Y907900D03*
X234550Y907900D03*
D16*
X254550Y977900D03*
X164550Y977900D03*
D14*
X298850Y609450D03*
D15*
X323850Y609450D03*
X348850Y609450D03*
D16*
X368850Y679450D03*
X278850Y679450D03*
D14*
X140100Y406250D03*
D15*
X165100Y406250D03*
X190100Y406250D03*
D16*
X210100Y476250D03*
X120100Y476250D03*
D14*
X146450Y18900D03*
D15*
X171450Y18900D03*
X196450Y18900D03*
D16*
X216450Y88900D03*
X126450Y88900D03*
D17*
X234950Y704850D03*
X158750Y704850D03*
X234950Y730250D03*
X158750Y730250D03*
D11*
X26670Y361950D02*
X11430Y361950D01*
X11430Y336550D02*
X26670Y336550D01*
X26670Y311150D02*
X11430Y311150D01*
X11430Y285750D02*
X26670Y285750D01*
D18*
X374650Y520700D03*
X323850Y520700D03*
X273050Y520700D03*
D19*
X368300Y254000D03*
X342900Y292100D03*
X38100Y787400D03*
X69850Y939800D03*
X190500Y501650D03*
X133350Y203200D03*
X50800Y203200D03*
X336550Y704850D03*
X336550Y933450D03*
D20*
X164550Y50800D02*
X196450Y18900D01*
X164550Y50800D02*
X120650Y50800D01*
X101600Y69850D01*
X101600Y127000D01*
X88900Y139700D01*
X57150Y139700D01*
X57150Y138900D01*
X19050Y336550D02*
X228600Y336550D01*
X279400Y285750D02*
X279400Y184150D01*
X279400Y285750D02*
X228600Y336550D01*
X279400Y184150D02*
X323850Y139700D01*
X361950Y138900D01*
X348850Y596900D02*
X348850Y609450D01*
X348850Y596900D02*
X374650Y571500D01*
X374650Y520700D01*
X374650Y368300D01*
X355600Y349250D01*
X57150Y349250D01*
X44450Y361950D01*
X19050Y361950D01*
X228600Y768350D02*
X400050Y768350D01*
X228600Y768350D02*
X209550Y787400D01*
X209550Y907900D01*
M02*
