M48
;GenerationSoftware,Autodesk,EAGLE,9.6.2*%
;CreationDate,2021-08-06T13:40:16Z*%
FMAT,2
ICI,OFF
METRIC,TZ,000.000
T6C0.600
T5C0.813
T4C1.016
T3C1.100
T2C2.100
T1C3.200
%
G90
M71
T1
X38100Y18415
X3810Y85725
T2
X25455Y97790
X12645Y8890
X21645Y8890
X16455Y97790
X36885Y67945
X27885Y67945
X12010Y47625
X21010Y47625
T3
X19010Y40625
X16510Y40625
X14010Y40625
X14645Y1890
X17145Y1890
X34885Y60945
X32385Y60945
X29885Y60945
X19645Y1890
X36195Y2390
X5715Y13890
X5715Y5390
X5715Y2390
X5080Y52625
X5080Y44125
X5080Y41125
X5080Y67865
X5080Y59365
X5080Y56365
X36195Y13890
X36195Y5390
X23455Y90790
X18455Y90790
X20955Y90790
T4
X27305Y52070
X40005Y74295
X40005Y76835
X40005Y79375
X40005Y81915
X40005Y84455
X1905Y36195
X1905Y33655
X1905Y31115
X1905Y28575
X37465Y52070
X32385Y52070
T5
X35560Y84455
X27940Y84455
X21590Y37465
X21590Y29845
X23495Y70485
X15875Y70485
X23495Y73025
X15875Y73025
T6
X33655Y93345
X33655Y70485
X5080Y20320
X13335Y20320
X19050Y50165
X6985Y93980
X3810Y78740
X34290Y29210
X36830Y25400
M30