G04 EAGLE Gerber RS-274X export*
G75*
%MOMM*%
%FSLAX34Y34*%
%LPD*%
%INTop Copper*%
%IPPOS*%
%AMOC8*
5,1,8,0,0,1.08239X$1,22.5*%
G01*
%ADD10P,1.429621X8X112.500000*%
%ADD11C,1.524000*%
%ADD12P,1.429621X8X22.500000*%
%ADD13C,1.650000*%
%ADD14R,1.676400X1.676400*%
%ADD15P,1.814519X8X292.500000*%
%ADD16R,3.116000X3.116000*%
%ADD17P,1.429621X8X202.500000*%
%ADD18P,2.336880X8X292.500000*%
%ADD19C,0.406400*%
%ADD20R,1.006400X1.006400*%

G36*
X52011Y10173D02*
X52011Y10173D01*
X52137Y10176D01*
X52211Y10193D01*
X52286Y10201D01*
X52407Y10238D01*
X52530Y10266D01*
X52599Y10297D01*
X52671Y10319D01*
X52782Y10379D01*
X52897Y10431D01*
X52959Y10475D01*
X53025Y10511D01*
X53122Y10591D01*
X53225Y10665D01*
X53276Y10720D01*
X53334Y10768D01*
X53413Y10867D01*
X53500Y10959D01*
X53539Y11023D01*
X53587Y11082D01*
X53645Y11194D01*
X53711Y11302D01*
X53737Y11373D01*
X53772Y11439D01*
X53807Y11561D01*
X53851Y11679D01*
X53863Y11754D01*
X53884Y11826D01*
X53894Y11952D01*
X53913Y12077D01*
X53910Y12152D01*
X53916Y12228D01*
X53902Y12353D01*
X53896Y12479D01*
X53878Y12553D01*
X53869Y12627D01*
X53830Y12747D01*
X53800Y12870D01*
X53768Y12938D01*
X53745Y13010D01*
X53683Y13120D01*
X53629Y13235D01*
X53584Y13295D01*
X53547Y13361D01*
X53464Y13456D01*
X53389Y13558D01*
X53333Y13608D01*
X53284Y13665D01*
X53184Y13743D01*
X53090Y13828D01*
X53015Y13874D01*
X52965Y13912D01*
X52900Y13945D01*
X52808Y14002D01*
X51494Y14671D01*
X50120Y15669D01*
X48919Y16870D01*
X47921Y18244D01*
X47150Y19758D01*
X46697Y21151D01*
X56432Y21151D01*
X56450Y21152D01*
X56467Y21151D01*
X56650Y21172D01*
X56832Y21191D01*
X56849Y21196D01*
X56867Y21198D01*
X57042Y21255D01*
X57142Y21286D01*
X57149Y21282D01*
X57327Y21234D01*
X57502Y21184D01*
X57520Y21182D01*
X57537Y21178D01*
X57868Y21151D01*
X67603Y21151D01*
X67150Y19758D01*
X66379Y18244D01*
X65381Y16870D01*
X64180Y15669D01*
X62806Y14671D01*
X61492Y14002D01*
X61386Y13934D01*
X61275Y13873D01*
X61217Y13825D01*
X61154Y13784D01*
X61063Y13697D01*
X60966Y13616D01*
X60918Y13557D01*
X60864Y13504D01*
X60793Y13400D01*
X60713Y13302D01*
X60679Y13235D01*
X60636Y13173D01*
X60586Y13056D01*
X60528Y12945D01*
X60507Y12872D01*
X60477Y12803D01*
X60451Y12679D01*
X60416Y12558D01*
X60410Y12483D01*
X60395Y12409D01*
X60394Y12282D01*
X60384Y12156D01*
X60392Y12081D01*
X60392Y12006D01*
X60416Y11882D01*
X60431Y11757D01*
X60454Y11685D01*
X60468Y11611D01*
X60516Y11494D01*
X60555Y11374D01*
X60592Y11308D01*
X60621Y11238D01*
X60691Y11133D01*
X60753Y11023D01*
X60803Y10966D01*
X60844Y10903D01*
X60934Y10814D01*
X61016Y10718D01*
X61076Y10672D01*
X61129Y10619D01*
X61235Y10549D01*
X61335Y10472D01*
X61402Y10438D01*
X61465Y10396D01*
X61582Y10349D01*
X61695Y10292D01*
X61768Y10273D01*
X61838Y10244D01*
X61962Y10221D01*
X62084Y10188D01*
X62171Y10181D01*
X62233Y10169D01*
X62307Y10170D01*
X62415Y10161D01*
X133496Y10161D01*
X133514Y10163D01*
X133532Y10161D01*
X133714Y10182D01*
X133897Y10201D01*
X133914Y10206D01*
X133931Y10208D01*
X134106Y10265D01*
X134282Y10319D01*
X134297Y10327D01*
X134314Y10333D01*
X134474Y10423D01*
X134636Y10511D01*
X134649Y10522D01*
X134665Y10531D01*
X134804Y10651D01*
X134945Y10768D01*
X134956Y10782D01*
X134970Y10794D01*
X135082Y10939D01*
X135197Y11082D01*
X135205Y11098D01*
X135216Y11112D01*
X135298Y11277D01*
X135383Y11439D01*
X135388Y11456D01*
X135396Y11472D01*
X135443Y11651D01*
X135494Y11826D01*
X135496Y11844D01*
X135500Y11861D01*
X135527Y12192D01*
X135527Y16151D01*
X145732Y16151D01*
X145750Y16152D01*
X145767Y16151D01*
X145950Y16172D01*
X146132Y16191D01*
X146149Y16196D01*
X146167Y16198D01*
X146342Y16255D01*
X146517Y16309D01*
X146533Y16317D01*
X146550Y16323D01*
X146710Y16413D01*
X146871Y16500D01*
X146885Y16512D01*
X146901Y16521D01*
X147040Y16641D01*
X147181Y16758D01*
X147192Y16772D01*
X147205Y16784D01*
X147318Y16929D01*
X147433Y17072D01*
X147441Y17088D01*
X147452Y17102D01*
X147534Y17267D01*
X147618Y17429D01*
X147623Y17446D01*
X147631Y17462D01*
X147679Y17641D01*
X147685Y17661D01*
X147778Y17691D01*
X147954Y17745D01*
X147969Y17753D01*
X147986Y17759D01*
X148146Y17849D01*
X148308Y17937D01*
X148321Y17948D01*
X148337Y17957D01*
X148476Y18077D01*
X148617Y18195D01*
X148628Y18208D01*
X148642Y18220D01*
X148754Y18365D01*
X148869Y18508D01*
X148877Y18524D01*
X148888Y18538D01*
X148970Y18703D01*
X149055Y18866D01*
X149060Y18883D01*
X149068Y18899D01*
X149115Y19077D01*
X149166Y19252D01*
X149168Y19270D01*
X149172Y19287D01*
X149199Y19618D01*
X149199Y29823D01*
X155167Y29823D01*
X155813Y29650D01*
X156392Y29315D01*
X156865Y28842D01*
X157200Y28263D01*
X157373Y27617D01*
X157373Y24455D01*
X157374Y24446D01*
X157373Y24437D01*
X157394Y24244D01*
X157413Y24055D01*
X157415Y24046D01*
X157416Y24037D01*
X157475Y23853D01*
X157531Y23670D01*
X157535Y23662D01*
X157538Y23653D01*
X157631Y23485D01*
X157723Y23316D01*
X157728Y23309D01*
X157733Y23301D01*
X157857Y23154D01*
X157980Y23006D01*
X157987Y23001D01*
X157993Y22994D01*
X158145Y22874D01*
X158294Y22754D01*
X158302Y22750D01*
X158309Y22744D01*
X158482Y22657D01*
X158651Y22569D01*
X158660Y22566D01*
X158668Y22562D01*
X158854Y22510D01*
X159038Y22457D01*
X159047Y22456D01*
X159056Y22454D01*
X159249Y22440D01*
X159440Y22424D01*
X159448Y22425D01*
X159457Y22425D01*
X159650Y22449D01*
X159839Y22471D01*
X159848Y22474D01*
X159857Y22475D01*
X160039Y22536D01*
X160222Y22596D01*
X160230Y22600D01*
X160238Y22603D01*
X160405Y22699D01*
X160573Y22794D01*
X160580Y22800D01*
X160587Y22804D01*
X160840Y23019D01*
X166790Y28969D01*
X166807Y28990D01*
X166828Y29007D01*
X166935Y29145D01*
X167045Y29280D01*
X167058Y29304D01*
X167074Y29325D01*
X167152Y29482D01*
X167234Y29636D01*
X167242Y29662D01*
X167254Y29686D01*
X167299Y29855D01*
X167349Y30022D01*
X167351Y30049D01*
X167358Y30075D01*
X167385Y30405D01*
X167385Y229409D01*
X168004Y230902D01*
X211240Y274139D01*
X211257Y274159D01*
X211278Y274177D01*
X211385Y274315D01*
X211495Y274450D01*
X211508Y274474D01*
X211524Y274495D01*
X211602Y274652D01*
X211684Y274806D01*
X211692Y274831D01*
X211704Y274856D01*
X211749Y275025D01*
X211799Y275192D01*
X211801Y275218D01*
X211808Y275244D01*
X211835Y275575D01*
X211835Y289459D01*
X211833Y289486D01*
X211835Y289513D01*
X211813Y289686D01*
X211795Y289860D01*
X211788Y289885D01*
X211784Y289912D01*
X211728Y290078D01*
X211677Y290245D01*
X211664Y290268D01*
X211656Y290294D01*
X211569Y290445D01*
X211485Y290599D01*
X211468Y290619D01*
X211455Y290643D01*
X211240Y290896D01*
X207263Y294873D01*
X207263Y302027D01*
X212323Y307087D01*
X219477Y307087D01*
X224537Y302027D01*
X224537Y294873D01*
X220560Y290896D01*
X220543Y290875D01*
X220522Y290857D01*
X220415Y290719D01*
X220305Y290584D01*
X220292Y290560D01*
X220276Y290539D01*
X220198Y290383D01*
X220116Y290228D01*
X220108Y290203D01*
X220096Y290179D01*
X220051Y290009D01*
X220001Y289842D01*
X219999Y289816D01*
X219992Y289790D01*
X219965Y289459D01*
X219965Y272241D01*
X219346Y270748D01*
X176110Y227511D01*
X176093Y227491D01*
X176072Y227473D01*
X175965Y227335D01*
X175855Y227200D01*
X175842Y227176D01*
X175826Y227155D01*
X175748Y226998D01*
X175666Y226844D01*
X175658Y226819D01*
X175646Y226794D01*
X175601Y226625D01*
X175551Y226458D01*
X175549Y226432D01*
X175542Y226406D01*
X175515Y226075D01*
X175515Y30405D01*
X175517Y30379D01*
X175515Y30352D01*
X175537Y30178D01*
X175555Y30005D01*
X175562Y29979D01*
X175566Y29952D01*
X175622Y29787D01*
X175673Y29620D01*
X175686Y29596D01*
X175694Y29571D01*
X175781Y29419D01*
X175865Y29266D01*
X175882Y29245D01*
X175895Y29222D01*
X176110Y28969D01*
X181865Y23214D01*
X181865Y14586D01*
X180907Y13628D01*
X180901Y13621D01*
X180894Y13616D01*
X180773Y13465D01*
X180652Y13317D01*
X180648Y13309D01*
X180642Y13302D01*
X180554Y13132D01*
X180463Y12961D01*
X180461Y12952D01*
X180457Y12945D01*
X180404Y12760D01*
X180348Y12575D01*
X180348Y12566D01*
X180345Y12558D01*
X180330Y12367D01*
X180312Y12174D01*
X180313Y12165D01*
X180312Y12156D01*
X180335Y11967D01*
X180355Y11774D01*
X180358Y11765D01*
X180359Y11757D01*
X180419Y11575D01*
X180477Y11390D01*
X180481Y11382D01*
X180484Y11374D01*
X180578Y11207D01*
X180672Y11038D01*
X180678Y11031D01*
X180682Y11023D01*
X180807Y10878D01*
X180932Y10731D01*
X180939Y10725D01*
X180945Y10718D01*
X181096Y10602D01*
X181248Y10481D01*
X181256Y10477D01*
X181263Y10472D01*
X181434Y10387D01*
X181607Y10299D01*
X181616Y10296D01*
X181624Y10292D01*
X181809Y10243D01*
X181995Y10191D01*
X182004Y10190D01*
X182013Y10188D01*
X182343Y10161D01*
X185557Y10161D01*
X185566Y10162D01*
X185575Y10161D01*
X185766Y10182D01*
X185957Y10201D01*
X185966Y10203D01*
X185975Y10204D01*
X186157Y10262D01*
X186342Y10319D01*
X186350Y10323D01*
X186359Y10326D01*
X186527Y10419D01*
X186696Y10511D01*
X186703Y10516D01*
X186711Y10521D01*
X186859Y10646D01*
X187006Y10768D01*
X187011Y10775D01*
X187018Y10781D01*
X187138Y10933D01*
X187258Y11082D01*
X187262Y11090D01*
X187268Y11097D01*
X187355Y11269D01*
X187443Y11439D01*
X187446Y11448D01*
X187450Y11456D01*
X187502Y11642D01*
X187555Y11826D01*
X187556Y11835D01*
X187558Y11844D01*
X187572Y12036D01*
X187588Y12228D01*
X187587Y12236D01*
X187587Y12245D01*
X187563Y12438D01*
X187541Y12627D01*
X187538Y12636D01*
X187537Y12645D01*
X187476Y12828D01*
X187416Y13010D01*
X187412Y13018D01*
X187409Y13026D01*
X187313Y13192D01*
X187218Y13361D01*
X187212Y13368D01*
X187208Y13375D01*
X186993Y13628D01*
X186035Y14586D01*
X186035Y23214D01*
X192136Y29315D01*
X200764Y29315D01*
X206865Y23214D01*
X206865Y14586D01*
X205907Y13628D01*
X205901Y13621D01*
X205894Y13616D01*
X205773Y13465D01*
X205652Y13317D01*
X205648Y13309D01*
X205642Y13302D01*
X205554Y13132D01*
X205463Y12961D01*
X205461Y12952D01*
X205457Y12945D01*
X205404Y12760D01*
X205348Y12575D01*
X205348Y12566D01*
X205345Y12558D01*
X205330Y12367D01*
X205312Y12174D01*
X205313Y12165D01*
X205312Y12156D01*
X205335Y11967D01*
X205355Y11774D01*
X205358Y11765D01*
X205359Y11757D01*
X205419Y11575D01*
X205477Y11390D01*
X205481Y11382D01*
X205484Y11374D01*
X205578Y11207D01*
X205672Y11038D01*
X205678Y11031D01*
X205682Y11023D01*
X205807Y10878D01*
X205932Y10731D01*
X205939Y10725D01*
X205945Y10718D01*
X206096Y10602D01*
X206248Y10481D01*
X206256Y10477D01*
X206263Y10472D01*
X206434Y10387D01*
X206607Y10299D01*
X206616Y10296D01*
X206624Y10292D01*
X206809Y10243D01*
X206995Y10191D01*
X207004Y10190D01*
X207013Y10188D01*
X207343Y10161D01*
X356685Y10161D01*
X356811Y10173D01*
X356937Y10176D01*
X357011Y10193D01*
X357086Y10201D01*
X357207Y10238D01*
X357330Y10266D01*
X357399Y10297D01*
X357471Y10319D01*
X357582Y10379D01*
X357697Y10431D01*
X357759Y10475D01*
X357825Y10511D01*
X357922Y10591D01*
X358025Y10665D01*
X358076Y10720D01*
X358134Y10768D01*
X358213Y10867D01*
X358300Y10959D01*
X358339Y11023D01*
X358387Y11082D01*
X358445Y11194D01*
X358511Y11302D01*
X358537Y11373D01*
X358572Y11439D01*
X358607Y11561D01*
X358651Y11679D01*
X358663Y11754D01*
X358684Y11826D01*
X358694Y11952D01*
X358713Y12077D01*
X358710Y12152D01*
X358716Y12228D01*
X358702Y12353D01*
X358696Y12479D01*
X358678Y12553D01*
X358669Y12627D01*
X358630Y12747D01*
X358600Y12870D01*
X358568Y12938D01*
X358545Y13010D01*
X358483Y13120D01*
X358429Y13235D01*
X358384Y13295D01*
X358347Y13361D01*
X358264Y13456D01*
X358189Y13558D01*
X358133Y13608D01*
X358084Y13665D01*
X357984Y13743D01*
X357890Y13828D01*
X357815Y13874D01*
X357765Y13912D01*
X357700Y13945D01*
X357608Y14002D01*
X356294Y14671D01*
X354920Y15669D01*
X353719Y16870D01*
X352721Y18244D01*
X351950Y19758D01*
X351497Y21151D01*
X361232Y21151D01*
X361250Y21152D01*
X361267Y21151D01*
X361450Y21172D01*
X361632Y21191D01*
X361649Y21196D01*
X361667Y21198D01*
X361842Y21255D01*
X361942Y21286D01*
X361949Y21282D01*
X362127Y21234D01*
X362302Y21184D01*
X362320Y21182D01*
X362337Y21178D01*
X362668Y21151D01*
X372403Y21151D01*
X371950Y19758D01*
X371179Y18244D01*
X370181Y16870D01*
X368980Y15669D01*
X367606Y14671D01*
X366292Y14002D01*
X366186Y13934D01*
X366075Y13873D01*
X366017Y13825D01*
X365954Y13784D01*
X365863Y13697D01*
X365766Y13616D01*
X365718Y13557D01*
X365664Y13504D01*
X365593Y13400D01*
X365513Y13302D01*
X365479Y13235D01*
X365436Y13173D01*
X365386Y13056D01*
X365328Y12945D01*
X365307Y12872D01*
X365277Y12803D01*
X365251Y12679D01*
X365216Y12558D01*
X365210Y12483D01*
X365195Y12409D01*
X365194Y12282D01*
X365184Y12156D01*
X365192Y12081D01*
X365192Y12006D01*
X365216Y11882D01*
X365231Y11757D01*
X365254Y11685D01*
X365268Y11611D01*
X365316Y11494D01*
X365355Y11374D01*
X365392Y11308D01*
X365421Y11238D01*
X365491Y11133D01*
X365553Y11023D01*
X365603Y10966D01*
X365644Y10903D01*
X365734Y10814D01*
X365816Y10718D01*
X365876Y10672D01*
X365929Y10619D01*
X366035Y10549D01*
X366135Y10472D01*
X366202Y10438D01*
X366265Y10396D01*
X366382Y10349D01*
X366495Y10292D01*
X366568Y10273D01*
X366638Y10244D01*
X366762Y10221D01*
X366884Y10188D01*
X366971Y10181D01*
X367033Y10169D01*
X367107Y10170D01*
X367215Y10161D01*
X406908Y10161D01*
X406926Y10163D01*
X406944Y10161D01*
X407126Y10182D01*
X407309Y10201D01*
X407326Y10206D01*
X407343Y10208D01*
X407518Y10265D01*
X407694Y10319D01*
X407709Y10327D01*
X407726Y10333D01*
X407886Y10423D01*
X408048Y10511D01*
X408061Y10522D01*
X408077Y10531D01*
X408216Y10651D01*
X408357Y10768D01*
X408368Y10782D01*
X408382Y10794D01*
X408494Y10939D01*
X408609Y11082D01*
X408617Y11098D01*
X408628Y11112D01*
X408710Y11277D01*
X408795Y11439D01*
X408800Y11456D01*
X408808Y11472D01*
X408855Y11651D01*
X408906Y11826D01*
X408908Y11844D01*
X408912Y11861D01*
X408939Y12192D01*
X408939Y172636D01*
X408932Y172709D01*
X408934Y172782D01*
X408912Y172909D01*
X408899Y173037D01*
X408878Y173107D01*
X408865Y173179D01*
X408819Y173299D01*
X408781Y173422D01*
X408746Y173486D01*
X408720Y173554D01*
X408651Y173663D01*
X408589Y173776D01*
X408543Y173832D01*
X408503Y173894D01*
X408414Y173986D01*
X408332Y174085D01*
X408275Y174131D01*
X408224Y174184D01*
X408118Y174257D01*
X408018Y174337D01*
X407953Y174371D01*
X407893Y174413D01*
X407774Y174464D01*
X407661Y174523D01*
X407590Y174543D01*
X407523Y174572D01*
X407397Y174599D01*
X407274Y174634D01*
X407201Y174640D01*
X407129Y174655D01*
X407001Y174657D01*
X406872Y174667D01*
X406800Y174658D01*
X406726Y174659D01*
X406600Y174635D01*
X406473Y174620D01*
X406403Y174597D01*
X406331Y174584D01*
X406212Y174535D01*
X406090Y174495D01*
X406026Y174459D01*
X405958Y174432D01*
X405851Y174360D01*
X405739Y174297D01*
X405684Y174249D01*
X405623Y174209D01*
X405532Y174118D01*
X405435Y174034D01*
X405390Y173976D01*
X405338Y173925D01*
X405241Y173785D01*
X405188Y173716D01*
X405173Y173687D01*
X405149Y173652D01*
X401935Y168086D01*
X397064Y163215D01*
X391098Y159770D01*
X384444Y157987D01*
X377556Y157987D01*
X370902Y159770D01*
X364936Y163215D01*
X360065Y168086D01*
X356620Y174052D01*
X354837Y180706D01*
X354837Y187594D01*
X356620Y194248D01*
X360065Y200214D01*
X364936Y205085D01*
X370902Y208530D01*
X377556Y210313D01*
X384444Y210313D01*
X391098Y208530D01*
X397064Y205085D01*
X401935Y200214D01*
X405149Y194648D01*
X405192Y194589D01*
X405227Y194524D01*
X405309Y194426D01*
X405384Y194321D01*
X405437Y194271D01*
X405484Y194215D01*
X405584Y194135D01*
X405679Y194047D01*
X405741Y194009D01*
X405798Y193963D01*
X405912Y193904D01*
X406022Y193836D01*
X406090Y193811D01*
X406155Y193777D01*
X406279Y193742D01*
X406399Y193697D01*
X406472Y193686D01*
X406542Y193666D01*
X406671Y193655D01*
X406797Y193636D01*
X406870Y193639D01*
X406944Y193633D01*
X407071Y193648D01*
X407200Y193654D01*
X407271Y193671D01*
X407343Y193680D01*
X407466Y193720D01*
X407590Y193751D01*
X407656Y193782D01*
X407726Y193805D01*
X407838Y193868D01*
X407954Y193923D01*
X408013Y193967D01*
X408077Y194003D01*
X408174Y194087D01*
X408277Y194163D01*
X408326Y194218D01*
X408382Y194266D01*
X408460Y194367D01*
X408546Y194463D01*
X408583Y194526D01*
X408628Y194584D01*
X408686Y194699D01*
X408751Y194810D01*
X408775Y194879D01*
X408808Y194944D01*
X408841Y195069D01*
X408883Y195190D01*
X408893Y195262D01*
X408912Y195333D01*
X408926Y195503D01*
X408938Y195589D01*
X408936Y195622D01*
X408939Y195664D01*
X408939Y730758D01*
X408937Y730776D01*
X408939Y730794D01*
X408918Y730976D01*
X408899Y731159D01*
X408894Y731176D01*
X408892Y731193D01*
X408835Y731368D01*
X408781Y731544D01*
X408773Y731559D01*
X408767Y731576D01*
X408677Y731736D01*
X408589Y731898D01*
X408578Y731911D01*
X408569Y731927D01*
X408449Y732066D01*
X408332Y732207D01*
X408318Y732218D01*
X408306Y732232D01*
X408161Y732344D01*
X408018Y732459D01*
X408002Y732467D01*
X407988Y732478D01*
X407823Y732560D01*
X407661Y732645D01*
X407644Y732650D01*
X407628Y732658D01*
X407449Y732705D01*
X407274Y732756D01*
X407256Y732758D01*
X407239Y732762D01*
X406908Y732789D01*
X402589Y732789D01*
X402589Y742442D01*
X402587Y742460D01*
X402589Y742477D01*
X402568Y742660D01*
X402549Y742842D01*
X402544Y742859D01*
X402542Y742877D01*
X402517Y742955D01*
X402556Y743092D01*
X402558Y743110D01*
X402562Y743127D01*
X402589Y743458D01*
X402589Y753111D01*
X406908Y753111D01*
X406926Y753113D01*
X406944Y753111D01*
X407126Y753132D01*
X407309Y753151D01*
X407326Y753156D01*
X407343Y753158D01*
X407518Y753215D01*
X407694Y753269D01*
X407709Y753277D01*
X407726Y753283D01*
X407886Y753373D01*
X408048Y753461D01*
X408061Y753472D01*
X408077Y753481D01*
X408216Y753601D01*
X408357Y753718D01*
X408368Y753732D01*
X408382Y753744D01*
X408494Y753889D01*
X408609Y754032D01*
X408617Y754048D01*
X408628Y754062D01*
X408710Y754227D01*
X408795Y754389D01*
X408800Y754406D01*
X408808Y754422D01*
X408855Y754600D01*
X408906Y754776D01*
X408908Y754794D01*
X408912Y754811D01*
X408939Y755142D01*
X408939Y756666D01*
X408937Y756684D01*
X408939Y756702D01*
X408918Y756884D01*
X408899Y757067D01*
X408894Y757084D01*
X408892Y757101D01*
X408835Y757276D01*
X408781Y757452D01*
X408773Y757467D01*
X408767Y757484D01*
X408677Y757644D01*
X408589Y757806D01*
X408578Y757819D01*
X408569Y757835D01*
X408449Y757974D01*
X408332Y758115D01*
X408318Y758126D01*
X408306Y758140D01*
X408161Y758252D01*
X408018Y758367D01*
X408002Y758375D01*
X407988Y758386D01*
X407823Y758468D01*
X407661Y758553D01*
X407644Y758558D01*
X407628Y758566D01*
X407449Y758613D01*
X407274Y758664D01*
X407256Y758666D01*
X407239Y758670D01*
X406908Y758697D01*
X390510Y758697D01*
X386962Y760167D01*
X384247Y762882D01*
X382777Y766430D01*
X382777Y770270D01*
X384247Y773818D01*
X386962Y776533D01*
X390510Y778003D01*
X406908Y778003D01*
X406926Y778005D01*
X406944Y778003D01*
X407126Y778024D01*
X407309Y778043D01*
X407326Y778048D01*
X407343Y778050D01*
X407518Y778107D01*
X407694Y778161D01*
X407709Y778169D01*
X407726Y778175D01*
X407886Y778265D01*
X408048Y778353D01*
X408061Y778364D01*
X408077Y778373D01*
X408216Y778493D01*
X408357Y778610D01*
X408368Y778624D01*
X408382Y778636D01*
X408494Y778781D01*
X408609Y778924D01*
X408617Y778940D01*
X408628Y778954D01*
X408710Y779119D01*
X408795Y779281D01*
X408800Y779298D01*
X408808Y779314D01*
X408855Y779493D01*
X408906Y779668D01*
X408908Y779686D01*
X408912Y779703D01*
X408939Y780034D01*
X408939Y782066D01*
X408939Y782070D01*
X408939Y782071D01*
X408938Y782083D01*
X408937Y782084D01*
X408939Y782102D01*
X408918Y782284D01*
X408899Y782467D01*
X408894Y782484D01*
X408892Y782501D01*
X408835Y782676D01*
X408781Y782852D01*
X408773Y782867D01*
X408767Y782884D01*
X408677Y783044D01*
X408589Y783206D01*
X408578Y783219D01*
X408569Y783235D01*
X408449Y783374D01*
X408332Y783515D01*
X408318Y783526D01*
X408306Y783540D01*
X408161Y783652D01*
X408018Y783767D01*
X408002Y783775D01*
X407988Y783786D01*
X407823Y783868D01*
X407661Y783953D01*
X407644Y783958D01*
X407628Y783966D01*
X407449Y784013D01*
X407274Y784064D01*
X407256Y784066D01*
X407239Y784070D01*
X406908Y784097D01*
X390510Y784097D01*
X386962Y785567D01*
X384247Y788282D01*
X384185Y788431D01*
X384175Y788451D01*
X384168Y788472D01*
X384079Y788628D01*
X383995Y788786D01*
X383981Y788803D01*
X383970Y788823D01*
X383853Y788958D01*
X383738Y789097D01*
X383721Y789111D01*
X383707Y789128D01*
X383565Y789237D01*
X383426Y789350D01*
X383406Y789361D01*
X383388Y789374D01*
X383228Y789454D01*
X383069Y789537D01*
X383048Y789544D01*
X383028Y789554D01*
X382855Y789600D01*
X382683Y789650D01*
X382661Y789652D01*
X382639Y789658D01*
X382308Y789685D01*
X300975Y789685D01*
X300948Y789683D01*
X300922Y789685D01*
X300748Y789663D01*
X300574Y789645D01*
X300549Y789638D01*
X300522Y789634D01*
X300357Y789579D01*
X300190Y789527D01*
X300166Y789514D01*
X300141Y789506D01*
X299989Y789419D01*
X299835Y789335D01*
X299815Y789318D01*
X299792Y789305D01*
X299539Y789090D01*
X244182Y733733D01*
X244165Y733713D01*
X244144Y733695D01*
X244037Y733557D01*
X243927Y733422D01*
X243914Y733398D01*
X243898Y733377D01*
X243820Y733220D01*
X243738Y733066D01*
X243730Y733041D01*
X243718Y733016D01*
X243673Y732847D01*
X243623Y732680D01*
X243621Y732654D01*
X243614Y732628D01*
X243587Y732297D01*
X243587Y726673D01*
X239610Y722696D01*
X239593Y722675D01*
X239572Y722657D01*
X239465Y722519D01*
X239355Y722384D01*
X239342Y722360D01*
X239326Y722339D01*
X239248Y722183D01*
X239166Y722028D01*
X239158Y722003D01*
X239146Y721979D01*
X239101Y721809D01*
X239051Y721642D01*
X239049Y721616D01*
X239042Y721590D01*
X239015Y721259D01*
X239015Y713841D01*
X239017Y713814D01*
X239015Y713787D01*
X239037Y713614D01*
X239055Y713440D01*
X239062Y713415D01*
X239066Y713388D01*
X239122Y713222D01*
X239173Y713055D01*
X239186Y713032D01*
X239194Y713006D01*
X239281Y712855D01*
X239365Y712701D01*
X239382Y712681D01*
X239395Y712657D01*
X239610Y712404D01*
X243587Y708427D01*
X243587Y701273D01*
X238527Y696213D01*
X231373Y696213D01*
X226313Y701273D01*
X226313Y708427D01*
X230290Y712404D01*
X230307Y712425D01*
X230328Y712443D01*
X230435Y712581D01*
X230545Y712716D01*
X230558Y712740D01*
X230574Y712761D01*
X230652Y712917D01*
X230734Y713072D01*
X230742Y713097D01*
X230754Y713121D01*
X230799Y713291D01*
X230849Y713458D01*
X230851Y713484D01*
X230858Y713510D01*
X230885Y713841D01*
X230885Y721259D01*
X230883Y721286D01*
X230885Y721313D01*
X230863Y721486D01*
X230845Y721660D01*
X230838Y721685D01*
X230834Y721712D01*
X230778Y721878D01*
X230727Y722045D01*
X230714Y722068D01*
X230706Y722094D01*
X230619Y722245D01*
X230535Y722399D01*
X230518Y722419D01*
X230505Y722443D01*
X230290Y722696D01*
X226313Y726673D01*
X226313Y733827D01*
X231373Y738887D01*
X236997Y738887D01*
X237024Y738889D01*
X237050Y738887D01*
X237224Y738909D01*
X237398Y738927D01*
X237423Y738934D01*
X237450Y738938D01*
X237615Y738993D01*
X237782Y739045D01*
X237806Y739058D01*
X237831Y739066D01*
X237983Y739153D01*
X238137Y739237D01*
X238157Y739254D01*
X238180Y739267D01*
X238433Y739482D01*
X296148Y797196D01*
X297641Y797815D01*
X382308Y797815D01*
X382331Y797817D01*
X382353Y797815D01*
X382530Y797837D01*
X382709Y797855D01*
X382730Y797861D01*
X382753Y797864D01*
X382922Y797920D01*
X383094Y797973D01*
X383114Y797983D01*
X383135Y797990D01*
X383290Y798079D01*
X383448Y798165D01*
X383465Y798179D01*
X383484Y798190D01*
X383619Y798307D01*
X383757Y798422D01*
X383771Y798440D01*
X383788Y798454D01*
X383897Y798596D01*
X384010Y798736D01*
X384020Y798756D01*
X384033Y798774D01*
X384185Y799069D01*
X384247Y799218D01*
X386962Y801933D01*
X388346Y802506D01*
X390510Y803403D01*
X406908Y803403D01*
X406926Y803405D01*
X406944Y803403D01*
X407126Y803424D01*
X407309Y803443D01*
X407326Y803448D01*
X407343Y803450D01*
X407518Y803507D01*
X407694Y803561D01*
X407709Y803569D01*
X407726Y803575D01*
X407886Y803665D01*
X408048Y803753D01*
X408061Y803764D01*
X408077Y803773D01*
X408216Y803893D01*
X408357Y804010D01*
X408368Y804024D01*
X408382Y804036D01*
X408494Y804181D01*
X408609Y804324D01*
X408617Y804340D01*
X408628Y804354D01*
X408710Y804519D01*
X408795Y804681D01*
X408800Y804698D01*
X408808Y804714D01*
X408855Y804893D01*
X408906Y805068D01*
X408908Y805086D01*
X408912Y805103D01*
X408939Y805434D01*
X408939Y807466D01*
X408937Y807484D01*
X408939Y807502D01*
X408918Y807684D01*
X408899Y807867D01*
X408894Y807884D01*
X408892Y807901D01*
X408835Y808076D01*
X408781Y808252D01*
X408773Y808267D01*
X408767Y808284D01*
X408677Y808444D01*
X408589Y808606D01*
X408578Y808619D01*
X408569Y808635D01*
X408449Y808774D01*
X408332Y808915D01*
X408318Y808926D01*
X408306Y808940D01*
X408161Y809052D01*
X408018Y809167D01*
X408002Y809175D01*
X407988Y809186D01*
X407823Y809268D01*
X407661Y809353D01*
X407644Y809358D01*
X407628Y809366D01*
X407449Y809413D01*
X407274Y809464D01*
X407256Y809466D01*
X407239Y809470D01*
X406908Y809497D01*
X390510Y809497D01*
X386962Y810967D01*
X384247Y813682D01*
X384185Y813831D01*
X384175Y813851D01*
X384168Y813872D01*
X384079Y814028D01*
X383995Y814186D01*
X383981Y814203D01*
X383970Y814223D01*
X383853Y814358D01*
X383738Y814497D01*
X383721Y814511D01*
X383707Y814528D01*
X383565Y814637D01*
X383426Y814750D01*
X383406Y814761D01*
X383388Y814774D01*
X383228Y814854D01*
X383069Y814937D01*
X383048Y814944D01*
X383028Y814954D01*
X382855Y815000D01*
X382683Y815050D01*
X382661Y815052D01*
X382639Y815058D01*
X382308Y815085D01*
X275575Y815085D01*
X275548Y815083D01*
X275522Y815085D01*
X275348Y815063D01*
X275174Y815045D01*
X275149Y815038D01*
X275122Y815034D01*
X274957Y814979D01*
X274790Y814927D01*
X274766Y814914D01*
X274741Y814906D01*
X274589Y814819D01*
X274435Y814735D01*
X274415Y814718D01*
X274392Y814705D01*
X274139Y814490D01*
X220560Y760911D01*
X220543Y760891D01*
X220522Y760873D01*
X220415Y760735D01*
X220305Y760600D01*
X220292Y760576D01*
X220276Y760555D01*
X220198Y760398D01*
X220116Y760244D01*
X220108Y760219D01*
X220096Y760194D01*
X220051Y760025D01*
X220001Y759858D01*
X219999Y759832D01*
X219992Y759806D01*
X219965Y759475D01*
X219965Y656575D01*
X219967Y656548D01*
X219965Y656522D01*
X219987Y656348D01*
X220005Y656174D01*
X220012Y656149D01*
X220016Y656122D01*
X220071Y655957D01*
X220123Y655790D01*
X220136Y655766D01*
X220144Y655741D01*
X220231Y655589D01*
X220315Y655435D01*
X220332Y655415D01*
X220345Y655392D01*
X220560Y655139D01*
X244746Y630952D01*
X245365Y629459D01*
X245365Y386541D01*
X244746Y385048D01*
X230902Y371204D01*
X229409Y370585D01*
X224891Y370585D01*
X224864Y370583D01*
X224837Y370585D01*
X224664Y370563D01*
X224490Y370545D01*
X224465Y370538D01*
X224438Y370534D01*
X224272Y370478D01*
X224105Y370427D01*
X224082Y370414D01*
X224056Y370406D01*
X223905Y370319D01*
X223751Y370235D01*
X223731Y370218D01*
X223707Y370205D01*
X223454Y369990D01*
X219477Y366013D01*
X212323Y366013D01*
X207263Y371073D01*
X207263Y378227D01*
X212323Y383287D01*
X219477Y383287D01*
X223454Y379310D01*
X223475Y379293D01*
X223493Y379272D01*
X223631Y379165D01*
X223766Y379055D01*
X223790Y379042D01*
X223811Y379026D01*
X223967Y378948D01*
X224122Y378866D01*
X224147Y378858D01*
X224171Y378846D01*
X224341Y378801D01*
X224508Y378751D01*
X224534Y378749D01*
X224560Y378742D01*
X224891Y378715D01*
X226075Y378715D01*
X226102Y378717D01*
X226128Y378715D01*
X226302Y378737D01*
X226476Y378755D01*
X226501Y378762D01*
X226528Y378766D01*
X226693Y378821D01*
X226860Y378873D01*
X226884Y378886D01*
X226909Y378894D01*
X227061Y378981D01*
X227215Y379065D01*
X227235Y379082D01*
X227258Y379095D01*
X227511Y379310D01*
X236640Y388439D01*
X236657Y388459D01*
X236678Y388477D01*
X236785Y388615D01*
X236895Y388750D01*
X236908Y388774D01*
X236924Y388795D01*
X237002Y388952D01*
X237084Y389106D01*
X237092Y389131D01*
X237104Y389156D01*
X237149Y389325D01*
X237199Y389492D01*
X237201Y389518D01*
X237208Y389544D01*
X237235Y389875D01*
X237235Y626125D01*
X237233Y626152D01*
X237235Y626178D01*
X237213Y626352D01*
X237195Y626526D01*
X237188Y626551D01*
X237184Y626578D01*
X237129Y626743D01*
X237077Y626910D01*
X237064Y626934D01*
X237056Y626959D01*
X236969Y627111D01*
X236885Y627265D01*
X236868Y627285D01*
X236855Y627308D01*
X236640Y627561D01*
X212454Y651748D01*
X211835Y653241D01*
X211835Y762809D01*
X212454Y764302D01*
X270748Y822596D01*
X272241Y823215D01*
X382308Y823215D01*
X382331Y823217D01*
X382353Y823215D01*
X382530Y823237D01*
X382709Y823255D01*
X382730Y823261D01*
X382753Y823264D01*
X382922Y823320D01*
X383094Y823373D01*
X383114Y823383D01*
X383135Y823390D01*
X383290Y823479D01*
X383448Y823565D01*
X383465Y823579D01*
X383484Y823590D01*
X383619Y823707D01*
X383757Y823822D01*
X383771Y823840D01*
X383788Y823854D01*
X383897Y823996D01*
X384010Y824136D01*
X384020Y824156D01*
X384033Y824174D01*
X384185Y824469D01*
X384247Y824618D01*
X386962Y827333D01*
X390510Y828803D01*
X406908Y828803D01*
X406926Y828805D01*
X406944Y828803D01*
X407126Y828824D01*
X407309Y828843D01*
X407326Y828848D01*
X407343Y828850D01*
X407518Y828907D01*
X407694Y828961D01*
X407709Y828969D01*
X407726Y828975D01*
X407886Y829065D01*
X408048Y829153D01*
X408061Y829164D01*
X408077Y829173D01*
X408216Y829293D01*
X408357Y829410D01*
X408368Y829424D01*
X408382Y829436D01*
X408494Y829581D01*
X408609Y829724D01*
X408617Y829740D01*
X408628Y829754D01*
X408710Y829919D01*
X408795Y830081D01*
X408800Y830098D01*
X408808Y830114D01*
X408855Y830293D01*
X408906Y830468D01*
X408908Y830486D01*
X408912Y830503D01*
X408939Y830834D01*
X408939Y832866D01*
X408937Y832884D01*
X408939Y832902D01*
X408918Y833084D01*
X408899Y833267D01*
X408894Y833284D01*
X408892Y833301D01*
X408835Y833476D01*
X408781Y833652D01*
X408773Y833667D01*
X408767Y833684D01*
X408677Y833844D01*
X408589Y834006D01*
X408578Y834019D01*
X408569Y834035D01*
X408449Y834174D01*
X408332Y834315D01*
X408318Y834326D01*
X408306Y834340D01*
X408161Y834452D01*
X408018Y834567D01*
X408002Y834575D01*
X407988Y834586D01*
X407823Y834668D01*
X407661Y834753D01*
X407644Y834758D01*
X407628Y834766D01*
X407449Y834813D01*
X407274Y834864D01*
X407256Y834866D01*
X407239Y834870D01*
X406908Y834897D01*
X390510Y834897D01*
X386962Y836367D01*
X384247Y839082D01*
X384185Y839231D01*
X384175Y839251D01*
X384168Y839272D01*
X384079Y839428D01*
X383995Y839586D01*
X383981Y839603D01*
X383970Y839623D01*
X383853Y839758D01*
X383738Y839897D01*
X383721Y839911D01*
X383707Y839928D01*
X383565Y840037D01*
X383426Y840150D01*
X383406Y840161D01*
X383388Y840174D01*
X383228Y840254D01*
X383069Y840337D01*
X383048Y840344D01*
X383028Y840354D01*
X382855Y840400D01*
X382683Y840450D01*
X382661Y840452D01*
X382639Y840458D01*
X382308Y840485D01*
X364591Y840485D01*
X364564Y840483D01*
X364537Y840485D01*
X364364Y840463D01*
X364190Y840445D01*
X364165Y840438D01*
X364138Y840434D01*
X363972Y840378D01*
X363805Y840327D01*
X363782Y840314D01*
X363756Y840306D01*
X363605Y840219D01*
X363451Y840135D01*
X363431Y840118D01*
X363407Y840105D01*
X363154Y839890D01*
X359177Y835913D01*
X352023Y835913D01*
X346963Y840973D01*
X346963Y848127D01*
X352023Y853187D01*
X359177Y853187D01*
X363154Y849210D01*
X363175Y849193D01*
X363193Y849172D01*
X363331Y849065D01*
X363466Y848955D01*
X363490Y848942D01*
X363511Y848926D01*
X363667Y848848D01*
X363822Y848766D01*
X363847Y848758D01*
X363871Y848746D01*
X364041Y848701D01*
X364208Y848651D01*
X364234Y848649D01*
X364260Y848642D01*
X364591Y848615D01*
X382308Y848615D01*
X382331Y848617D01*
X382353Y848615D01*
X382530Y848637D01*
X382709Y848655D01*
X382730Y848661D01*
X382753Y848664D01*
X382922Y848720D01*
X383094Y848773D01*
X383114Y848783D01*
X383135Y848790D01*
X383290Y848879D01*
X383448Y848965D01*
X383465Y848979D01*
X383484Y848990D01*
X383619Y849107D01*
X383757Y849222D01*
X383771Y849240D01*
X383788Y849254D01*
X383897Y849396D01*
X384010Y849536D01*
X384020Y849556D01*
X384033Y849574D01*
X384185Y849869D01*
X384247Y850018D01*
X386962Y852733D01*
X390510Y854203D01*
X406908Y854203D01*
X406926Y854205D01*
X406944Y854203D01*
X407126Y854224D01*
X407309Y854243D01*
X407326Y854248D01*
X407343Y854250D01*
X407518Y854307D01*
X407694Y854361D01*
X407709Y854369D01*
X407726Y854375D01*
X407886Y854465D01*
X408048Y854553D01*
X408061Y854564D01*
X408077Y854573D01*
X408216Y854693D01*
X408357Y854810D01*
X408368Y854824D01*
X408382Y854836D01*
X408494Y854981D01*
X408609Y855124D01*
X408617Y855140D01*
X408628Y855154D01*
X408710Y855319D01*
X408795Y855481D01*
X408800Y855498D01*
X408808Y855514D01*
X408855Y855693D01*
X408906Y855868D01*
X408908Y855886D01*
X408912Y855903D01*
X408939Y856234D01*
X408939Y984758D01*
X408937Y984776D01*
X408939Y984794D01*
X408918Y984976D01*
X408899Y985159D01*
X408894Y985176D01*
X408892Y985193D01*
X408835Y985368D01*
X408781Y985544D01*
X408773Y985559D01*
X408767Y985576D01*
X408677Y985736D01*
X408589Y985898D01*
X408578Y985911D01*
X408569Y985927D01*
X408449Y986066D01*
X408332Y986207D01*
X408318Y986218D01*
X408306Y986232D01*
X408161Y986344D01*
X408018Y986459D01*
X408002Y986467D01*
X407988Y986478D01*
X407823Y986560D01*
X407661Y986645D01*
X407644Y986650D01*
X407628Y986658D01*
X407449Y986705D01*
X407274Y986756D01*
X407256Y986758D01*
X407239Y986762D01*
X406908Y986789D01*
X274194Y986789D01*
X274176Y986787D01*
X274158Y986789D01*
X273976Y986768D01*
X273793Y986749D01*
X273776Y986744D01*
X273759Y986742D01*
X273584Y986685D01*
X273408Y986631D01*
X273393Y986623D01*
X273376Y986617D01*
X273216Y986527D01*
X273054Y986439D01*
X273041Y986428D01*
X273025Y986419D01*
X272886Y986299D01*
X272745Y986182D01*
X272734Y986168D01*
X272720Y986156D01*
X272608Y986011D01*
X272493Y985868D01*
X272485Y985852D01*
X272474Y985838D01*
X272392Y985673D01*
X272307Y985511D01*
X272302Y985494D01*
X272294Y985478D01*
X272247Y985299D01*
X272196Y985124D01*
X272194Y985106D01*
X272190Y985089D01*
X272163Y984758D01*
X272163Y961478D01*
X270972Y960287D01*
X238128Y960287D01*
X236937Y961478D01*
X236937Y984758D01*
X236935Y984776D01*
X236937Y984794D01*
X236916Y984976D01*
X236897Y985159D01*
X236892Y985176D01*
X236890Y985193D01*
X236833Y985368D01*
X236779Y985544D01*
X236771Y985559D01*
X236765Y985576D01*
X236675Y985736D01*
X236587Y985898D01*
X236576Y985911D01*
X236567Y985927D01*
X236447Y986066D01*
X236330Y986207D01*
X236316Y986218D01*
X236304Y986232D01*
X236159Y986344D01*
X236016Y986459D01*
X236000Y986467D01*
X235986Y986478D01*
X235821Y986560D01*
X235659Y986645D01*
X235642Y986650D01*
X235626Y986658D01*
X235447Y986705D01*
X235272Y986756D01*
X235254Y986758D01*
X235237Y986762D01*
X234906Y986789D01*
X184194Y986789D01*
X184176Y986787D01*
X184158Y986789D01*
X183976Y986768D01*
X183793Y986749D01*
X183776Y986744D01*
X183759Y986742D01*
X183584Y986685D01*
X183408Y986631D01*
X183393Y986623D01*
X183376Y986617D01*
X183216Y986527D01*
X183054Y986439D01*
X183041Y986428D01*
X183025Y986419D01*
X182886Y986299D01*
X182745Y986182D01*
X182734Y986168D01*
X182720Y986156D01*
X182608Y986011D01*
X182493Y985868D01*
X182485Y985852D01*
X182474Y985838D01*
X182392Y985673D01*
X182307Y985511D01*
X182302Y985494D01*
X182294Y985478D01*
X182247Y985299D01*
X182196Y985124D01*
X182194Y985106D01*
X182190Y985089D01*
X182163Y984758D01*
X182163Y961478D01*
X180972Y960287D01*
X148128Y960287D01*
X146937Y961478D01*
X146937Y984758D01*
X146935Y984776D01*
X146937Y984794D01*
X146916Y984976D01*
X146897Y985159D01*
X146892Y985176D01*
X146890Y985193D01*
X146833Y985368D01*
X146779Y985544D01*
X146771Y985559D01*
X146765Y985576D01*
X146675Y985736D01*
X146587Y985898D01*
X146576Y985911D01*
X146567Y985927D01*
X146447Y986066D01*
X146330Y986207D01*
X146316Y986218D01*
X146304Y986232D01*
X146159Y986344D01*
X146016Y986459D01*
X146000Y986467D01*
X145986Y986478D01*
X145821Y986560D01*
X145659Y986645D01*
X145642Y986650D01*
X145626Y986658D01*
X145447Y986705D01*
X145272Y986756D01*
X145254Y986758D01*
X145237Y986762D01*
X144906Y986789D01*
X12192Y986789D01*
X12174Y986787D01*
X12156Y986789D01*
X11974Y986768D01*
X11791Y986749D01*
X11774Y986744D01*
X11757Y986742D01*
X11582Y986685D01*
X11406Y986631D01*
X11391Y986623D01*
X11374Y986617D01*
X11214Y986527D01*
X11052Y986439D01*
X11039Y986428D01*
X11023Y986419D01*
X10884Y986299D01*
X10743Y986182D01*
X10732Y986168D01*
X10718Y986156D01*
X10606Y986011D01*
X10491Y985868D01*
X10483Y985852D01*
X10472Y985838D01*
X10390Y985673D01*
X10305Y985511D01*
X10300Y985494D01*
X10292Y985478D01*
X10245Y985299D01*
X10194Y985124D01*
X10192Y985106D01*
X10188Y985089D01*
X10161Y984758D01*
X10161Y868764D01*
X10168Y868691D01*
X10166Y868618D01*
X10188Y868491D01*
X10201Y868363D01*
X10222Y868293D01*
X10235Y868221D01*
X10281Y868101D01*
X10319Y867978D01*
X10354Y867914D01*
X10380Y867846D01*
X10449Y867737D01*
X10511Y867624D01*
X10557Y867568D01*
X10597Y867506D01*
X10686Y867414D01*
X10768Y867315D01*
X10825Y867269D01*
X10876Y867216D01*
X10982Y867143D01*
X11082Y867063D01*
X11147Y867029D01*
X11207Y866987D01*
X11326Y866936D01*
X11439Y866877D01*
X11510Y866857D01*
X11577Y866828D01*
X11703Y866801D01*
X11826Y866766D01*
X11899Y866760D01*
X11971Y866745D01*
X12099Y866743D01*
X12228Y866733D01*
X12300Y866742D01*
X12374Y866741D01*
X12500Y866765D01*
X12627Y866780D01*
X12697Y866803D01*
X12769Y866816D01*
X12888Y866865D01*
X13010Y866905D01*
X13074Y866941D01*
X13142Y866968D01*
X13249Y867040D01*
X13361Y867103D01*
X13416Y867151D01*
X13477Y867191D01*
X13568Y867282D01*
X13665Y867366D01*
X13710Y867424D01*
X13762Y867475D01*
X13859Y867615D01*
X13912Y867684D01*
X13927Y867713D01*
X13951Y867748D01*
X17165Y873314D01*
X22036Y878185D01*
X28002Y881630D01*
X34656Y883413D01*
X41544Y883413D01*
X48198Y881630D01*
X54164Y878185D01*
X59035Y873314D01*
X62480Y867348D01*
X64263Y860694D01*
X64263Y853806D01*
X62480Y847152D01*
X59035Y841186D01*
X54164Y836315D01*
X48198Y832870D01*
X41544Y831087D01*
X34656Y831087D01*
X28002Y832870D01*
X22036Y836315D01*
X17165Y841186D01*
X13951Y846752D01*
X13908Y846811D01*
X13873Y846876D01*
X13791Y846974D01*
X13716Y847079D01*
X13663Y847129D01*
X13616Y847185D01*
X13516Y847265D01*
X13421Y847353D01*
X13359Y847391D01*
X13302Y847437D01*
X13188Y847496D01*
X13078Y847564D01*
X13010Y847589D01*
X12945Y847623D01*
X12821Y847658D01*
X12701Y847703D01*
X12628Y847714D01*
X12558Y847734D01*
X12429Y847745D01*
X12303Y847764D01*
X12230Y847761D01*
X12156Y847767D01*
X12029Y847752D01*
X11900Y847746D01*
X11829Y847729D01*
X11757Y847720D01*
X11634Y847680D01*
X11510Y847649D01*
X11444Y847618D01*
X11374Y847595D01*
X11262Y847532D01*
X11146Y847477D01*
X11087Y847433D01*
X11023Y847397D01*
X10926Y847313D01*
X10823Y847237D01*
X10774Y847182D01*
X10718Y847134D01*
X10640Y847033D01*
X10554Y846937D01*
X10517Y846874D01*
X10472Y846816D01*
X10414Y846701D01*
X10349Y846590D01*
X10325Y846521D01*
X10292Y846456D01*
X10259Y846331D01*
X10217Y846210D01*
X10207Y846138D01*
X10188Y846067D01*
X10174Y845897D01*
X10162Y845811D01*
X10164Y845778D01*
X10161Y845736D01*
X10161Y373634D01*
X10163Y373616D01*
X10161Y373598D01*
X10182Y373416D01*
X10201Y373233D01*
X10206Y373216D01*
X10208Y373199D01*
X10265Y373024D01*
X10319Y372848D01*
X10327Y372833D01*
X10333Y372816D01*
X10423Y372656D01*
X10511Y372494D01*
X10522Y372481D01*
X10531Y372465D01*
X10651Y372326D01*
X10768Y372185D01*
X10782Y372174D01*
X10794Y372160D01*
X10939Y372048D01*
X11082Y371933D01*
X11098Y371925D01*
X11112Y371914D01*
X11277Y371832D01*
X11439Y371747D01*
X11456Y371742D01*
X11472Y371734D01*
X11651Y371687D01*
X11826Y371636D01*
X11844Y371634D01*
X11861Y371630D01*
X12192Y371603D01*
X28590Y371603D01*
X32138Y370133D01*
X34853Y367418D01*
X36323Y363870D01*
X36323Y360030D01*
X34853Y356482D01*
X32138Y353767D01*
X30972Y353284D01*
X28590Y352297D01*
X12192Y352297D01*
X12174Y352295D01*
X12156Y352297D01*
X11974Y352276D01*
X11791Y352257D01*
X11774Y352252D01*
X11757Y352250D01*
X11582Y352193D01*
X11406Y352139D01*
X11391Y352131D01*
X11374Y352125D01*
X11214Y352035D01*
X11052Y351947D01*
X11039Y351936D01*
X11023Y351927D01*
X10884Y351807D01*
X10743Y351690D01*
X10732Y351676D01*
X10718Y351664D01*
X10606Y351519D01*
X10491Y351376D01*
X10483Y351360D01*
X10472Y351346D01*
X10390Y351181D01*
X10305Y351019D01*
X10300Y351002D01*
X10292Y350986D01*
X10245Y350807D01*
X10194Y350632D01*
X10192Y350614D01*
X10188Y350597D01*
X10161Y350266D01*
X10161Y348234D01*
X10163Y348216D01*
X10161Y348198D01*
X10182Y348016D01*
X10201Y347833D01*
X10206Y347816D01*
X10208Y347799D01*
X10265Y347624D01*
X10319Y347448D01*
X10327Y347433D01*
X10333Y347416D01*
X10423Y347256D01*
X10511Y347094D01*
X10522Y347081D01*
X10531Y347065D01*
X10651Y346926D01*
X10768Y346785D01*
X10782Y346774D01*
X10794Y346760D01*
X10939Y346648D01*
X11082Y346533D01*
X11098Y346525D01*
X11112Y346514D01*
X11277Y346432D01*
X11439Y346347D01*
X11456Y346342D01*
X11472Y346334D01*
X11651Y346287D01*
X11826Y346236D01*
X11844Y346234D01*
X11861Y346230D01*
X12192Y346203D01*
X28590Y346203D01*
X32138Y344733D01*
X34853Y342018D01*
X36323Y338470D01*
X36323Y334630D01*
X34853Y331082D01*
X32138Y328367D01*
X28590Y326897D01*
X12192Y326897D01*
X12174Y326895D01*
X12156Y326897D01*
X11974Y326876D01*
X11791Y326857D01*
X11774Y326852D01*
X11757Y326850D01*
X11582Y326793D01*
X11406Y326739D01*
X11391Y326731D01*
X11374Y326725D01*
X11214Y326635D01*
X11052Y326547D01*
X11039Y326536D01*
X11023Y326527D01*
X10884Y326407D01*
X10743Y326290D01*
X10732Y326276D01*
X10718Y326264D01*
X10606Y326119D01*
X10491Y325976D01*
X10483Y325960D01*
X10472Y325946D01*
X10390Y325781D01*
X10305Y325619D01*
X10300Y325602D01*
X10292Y325586D01*
X10245Y325407D01*
X10194Y325232D01*
X10192Y325214D01*
X10188Y325197D01*
X10161Y324866D01*
X10161Y322834D01*
X10163Y322816D01*
X10161Y322798D01*
X10182Y322616D01*
X10201Y322433D01*
X10206Y322416D01*
X10208Y322399D01*
X10265Y322224D01*
X10319Y322048D01*
X10327Y322033D01*
X10333Y322016D01*
X10423Y321856D01*
X10511Y321694D01*
X10522Y321681D01*
X10531Y321665D01*
X10651Y321526D01*
X10768Y321385D01*
X10782Y321374D01*
X10794Y321360D01*
X10939Y321248D01*
X11082Y321133D01*
X11098Y321125D01*
X11112Y321114D01*
X11277Y321032D01*
X11439Y320947D01*
X11456Y320942D01*
X11472Y320934D01*
X11651Y320887D01*
X11826Y320836D01*
X11844Y320834D01*
X11861Y320830D01*
X12192Y320803D01*
X28590Y320803D01*
X32138Y319333D01*
X34853Y316618D01*
X34915Y316469D01*
X34925Y316449D01*
X34932Y316428D01*
X35021Y316272D01*
X35105Y316114D01*
X35119Y316097D01*
X35130Y316077D01*
X35247Y315942D01*
X35362Y315803D01*
X35379Y315789D01*
X35393Y315772D01*
X35535Y315663D01*
X35674Y315550D01*
X35694Y315539D01*
X35712Y315526D01*
X35872Y315446D01*
X36031Y315363D01*
X36052Y315356D01*
X36072Y315346D01*
X36245Y315300D01*
X36417Y315250D01*
X36439Y315248D01*
X36461Y315242D01*
X36792Y315215D01*
X41925Y315215D01*
X41952Y315217D01*
X41978Y315215D01*
X42152Y315237D01*
X42326Y315255D01*
X42351Y315262D01*
X42378Y315266D01*
X42543Y315321D01*
X42710Y315373D01*
X42734Y315386D01*
X42759Y315394D01*
X42911Y315481D01*
X43065Y315565D01*
X43085Y315582D01*
X43108Y315595D01*
X43361Y315810D01*
X54848Y327296D01*
X56341Y327915D01*
X264175Y327915D01*
X264202Y327917D01*
X264228Y327915D01*
X264402Y327937D01*
X264576Y327955D01*
X264601Y327962D01*
X264628Y327966D01*
X264793Y328021D01*
X264960Y328073D01*
X264984Y328086D01*
X265009Y328094D01*
X265161Y328181D01*
X265315Y328265D01*
X265335Y328282D01*
X265358Y328295D01*
X265611Y328510D01*
X319190Y382089D01*
X319207Y382109D01*
X319228Y382127D01*
X319335Y382265D01*
X319445Y382400D01*
X319458Y382424D01*
X319474Y382445D01*
X319552Y382602D01*
X319634Y382756D01*
X319642Y382781D01*
X319654Y382806D01*
X319699Y382975D01*
X319749Y383142D01*
X319751Y383168D01*
X319758Y383194D01*
X319785Y383525D01*
X319785Y505841D01*
X319783Y505859D01*
X319785Y505877D01*
X319764Y506059D01*
X319745Y506242D01*
X319740Y506259D01*
X319738Y506276D01*
X319681Y506451D01*
X319627Y506627D01*
X319619Y506642D01*
X319613Y506659D01*
X319523Y506819D01*
X319435Y506981D01*
X319424Y506994D01*
X319415Y507010D01*
X319295Y507149D01*
X319178Y507290D01*
X319164Y507301D01*
X319152Y507315D01*
X319007Y507427D01*
X318878Y507531D01*
X311022Y515387D01*
X311022Y526013D01*
X318878Y533869D01*
X318894Y533878D01*
X318907Y533889D01*
X318923Y533898D01*
X319062Y534018D01*
X319203Y534135D01*
X319214Y534149D01*
X319228Y534161D01*
X319340Y534306D01*
X319455Y534449D01*
X319463Y534465D01*
X319474Y534479D01*
X319556Y534644D01*
X319641Y534806D01*
X319646Y534823D01*
X319654Y534839D01*
X319701Y535018D01*
X319752Y535193D01*
X319754Y535211D01*
X319758Y535228D01*
X319785Y535559D01*
X319785Y597945D01*
X319783Y597971D01*
X319785Y597998D01*
X319763Y598172D01*
X319745Y598345D01*
X319738Y598371D01*
X319734Y598397D01*
X319679Y598563D01*
X319627Y598730D01*
X319614Y598754D01*
X319606Y598779D01*
X319519Y598931D01*
X319435Y599084D01*
X319418Y599105D01*
X319405Y599128D01*
X319190Y599381D01*
X313435Y605136D01*
X313435Y613764D01*
X319536Y619865D01*
X328164Y619865D01*
X334265Y613764D01*
X334265Y605136D01*
X328510Y599381D01*
X328493Y599360D01*
X328472Y599343D01*
X328365Y599205D01*
X328255Y599070D01*
X328242Y599046D01*
X328226Y599025D01*
X328148Y598868D01*
X328066Y598714D01*
X328058Y598688D01*
X328046Y598664D01*
X328001Y598495D01*
X327951Y598328D01*
X327949Y598301D01*
X327942Y598275D01*
X327915Y597945D01*
X327915Y535559D01*
X327917Y535541D01*
X327915Y535523D01*
X327936Y535341D01*
X327955Y535158D01*
X327960Y535141D01*
X327962Y535124D01*
X328019Y534949D01*
X328073Y534773D01*
X328081Y534758D01*
X328087Y534741D01*
X328177Y534581D01*
X328265Y534419D01*
X328276Y534406D01*
X328285Y534390D01*
X328405Y534251D01*
X328522Y534110D01*
X328536Y534099D01*
X328548Y534085D01*
X328693Y533973D01*
X328822Y533869D01*
X336678Y526013D01*
X336678Y515387D01*
X328822Y507531D01*
X328806Y507522D01*
X328793Y507511D01*
X328777Y507502D01*
X328637Y507382D01*
X328497Y507265D01*
X328486Y507251D01*
X328472Y507239D01*
X328360Y507094D01*
X328245Y506951D01*
X328237Y506935D01*
X328226Y506921D01*
X328144Y506756D01*
X328059Y506594D01*
X328054Y506577D01*
X328046Y506561D01*
X327999Y506382D01*
X327948Y506207D01*
X327946Y506189D01*
X327942Y506172D01*
X327915Y505841D01*
X327915Y380191D01*
X327296Y378698D01*
X269002Y320404D01*
X267509Y319785D01*
X59675Y319785D01*
X59648Y319783D01*
X59622Y319785D01*
X59448Y319763D01*
X59274Y319745D01*
X59249Y319738D01*
X59222Y319734D01*
X59057Y319679D01*
X58890Y319627D01*
X58866Y319614D01*
X58841Y319606D01*
X58689Y319519D01*
X58535Y319435D01*
X58515Y319418D01*
X58492Y319405D01*
X58239Y319190D01*
X46752Y307704D01*
X45259Y307085D01*
X36792Y307085D01*
X36769Y307083D01*
X36747Y307085D01*
X36570Y307063D01*
X36391Y307045D01*
X36370Y307039D01*
X36347Y307036D01*
X36178Y306980D01*
X36006Y306927D01*
X35986Y306917D01*
X35965Y306910D01*
X35810Y306821D01*
X35652Y306735D01*
X35635Y306721D01*
X35616Y306710D01*
X35481Y306593D01*
X35343Y306478D01*
X35329Y306460D01*
X35312Y306446D01*
X35203Y306304D01*
X35090Y306164D01*
X35080Y306144D01*
X35067Y306126D01*
X34915Y305831D01*
X34853Y305682D01*
X32138Y302967D01*
X28590Y301497D01*
X12192Y301497D01*
X12174Y301495D01*
X12156Y301497D01*
X11974Y301476D01*
X11791Y301457D01*
X11774Y301452D01*
X11757Y301450D01*
X11582Y301393D01*
X11406Y301339D01*
X11391Y301331D01*
X11374Y301325D01*
X11214Y301235D01*
X11052Y301147D01*
X11039Y301136D01*
X11023Y301127D01*
X10884Y301007D01*
X10743Y300890D01*
X10732Y300876D01*
X10718Y300864D01*
X10606Y300719D01*
X10491Y300576D01*
X10483Y300560D01*
X10472Y300546D01*
X10390Y300381D01*
X10305Y300219D01*
X10300Y300202D01*
X10292Y300186D01*
X10245Y300007D01*
X10194Y299832D01*
X10192Y299814D01*
X10188Y299797D01*
X10161Y299466D01*
X10161Y297942D01*
X10163Y297924D01*
X10161Y297906D01*
X10182Y297724D01*
X10201Y297541D01*
X10206Y297524D01*
X10208Y297507D01*
X10265Y297332D01*
X10319Y297156D01*
X10327Y297141D01*
X10333Y297124D01*
X10423Y296964D01*
X10511Y296802D01*
X10522Y296789D01*
X10531Y296773D01*
X10651Y296634D01*
X10768Y296493D01*
X10782Y296482D01*
X10794Y296468D01*
X10939Y296356D01*
X11082Y296241D01*
X11098Y296233D01*
X11112Y296222D01*
X11277Y296140D01*
X11439Y296055D01*
X11456Y296050D01*
X11472Y296042D01*
X11651Y295995D01*
X11826Y295944D01*
X11844Y295942D01*
X11861Y295938D01*
X12192Y295911D01*
X16511Y295911D01*
X16511Y286258D01*
X16512Y286240D01*
X16511Y286223D01*
X16532Y286040D01*
X16551Y285858D01*
X16556Y285841D01*
X16558Y285823D01*
X16583Y285745D01*
X16544Y285608D01*
X16542Y285590D01*
X16538Y285573D01*
X16511Y285242D01*
X16511Y275589D01*
X12192Y275589D01*
X12174Y275587D01*
X12156Y275589D01*
X11974Y275568D01*
X11791Y275549D01*
X11774Y275544D01*
X11757Y275542D01*
X11582Y275485D01*
X11406Y275431D01*
X11391Y275423D01*
X11374Y275417D01*
X11214Y275327D01*
X11052Y275240D01*
X11039Y275228D01*
X11023Y275219D01*
X10884Y275099D01*
X10743Y274982D01*
X10732Y274968D01*
X10718Y274956D01*
X10606Y274811D01*
X10491Y274668D01*
X10483Y274652D01*
X10472Y274638D01*
X10390Y274473D01*
X10305Y274311D01*
X10300Y274294D01*
X10292Y274278D01*
X10245Y274100D01*
X10194Y273924D01*
X10192Y273906D01*
X10188Y273889D01*
X10161Y273558D01*
X10161Y12192D01*
X10163Y12174D01*
X10161Y12156D01*
X10182Y11974D01*
X10201Y11791D01*
X10206Y11774D01*
X10208Y11757D01*
X10265Y11582D01*
X10319Y11406D01*
X10327Y11391D01*
X10333Y11374D01*
X10423Y11214D01*
X10511Y11052D01*
X10522Y11039D01*
X10531Y11023D01*
X10651Y10884D01*
X10768Y10743D01*
X10782Y10732D01*
X10794Y10718D01*
X10939Y10606D01*
X11082Y10491D01*
X11098Y10483D01*
X11112Y10472D01*
X11277Y10390D01*
X11439Y10305D01*
X11456Y10300D01*
X11472Y10292D01*
X11651Y10245D01*
X11826Y10194D01*
X11844Y10192D01*
X11861Y10188D01*
X12192Y10161D01*
X51885Y10161D01*
X52011Y10173D01*
G37*
%LPC*%
G36*
X176925Y376935D02*
X176925Y376935D01*
X113491Y376935D01*
X111998Y377554D01*
X91804Y397748D01*
X91185Y399241D01*
X91185Y505398D01*
X91180Y505446D01*
X91183Y505495D01*
X91161Y505646D01*
X91145Y505799D01*
X91131Y505845D01*
X91124Y505893D01*
X91072Y506037D01*
X91027Y506184D01*
X91004Y506226D01*
X90988Y506272D01*
X90908Y506403D01*
X90835Y506538D01*
X90804Y506575D01*
X90779Y506616D01*
X90619Y506798D01*
X90578Y506847D01*
X90569Y506854D01*
X90559Y506865D01*
X75156Y521621D01*
X75152Y521624D01*
X75149Y521628D01*
X74996Y521746D01*
X74839Y521869D01*
X74835Y521871D01*
X74831Y521874D01*
X74655Y521962D01*
X74480Y522050D01*
X74475Y522051D01*
X74471Y522054D01*
X74278Y522105D01*
X74092Y522157D01*
X74087Y522157D01*
X74082Y522158D01*
X73751Y522185D01*
X61604Y522185D01*
X61581Y522183D01*
X61559Y522185D01*
X61382Y522163D01*
X61203Y522145D01*
X61182Y522139D01*
X61159Y522136D01*
X60990Y522080D01*
X60818Y522027D01*
X60798Y522017D01*
X60777Y522010D01*
X60622Y521921D01*
X60464Y521835D01*
X60447Y521821D01*
X60427Y521810D01*
X60292Y521692D01*
X60155Y521578D01*
X60141Y521560D01*
X60124Y521546D01*
X60014Y521403D01*
X59902Y521264D01*
X59892Y521244D01*
X59878Y521226D01*
X59727Y520931D01*
X59517Y520425D01*
X56625Y517533D01*
X52845Y515967D01*
X48755Y515967D01*
X44975Y517533D01*
X42083Y520425D01*
X40517Y524205D01*
X40517Y528295D01*
X42083Y532075D01*
X44975Y534967D01*
X48755Y536533D01*
X52845Y536533D01*
X56625Y534967D01*
X59517Y532075D01*
X59727Y531569D01*
X59737Y531549D01*
X59744Y531528D01*
X59833Y531372D01*
X59917Y531214D01*
X59931Y531197D01*
X59942Y531177D01*
X60060Y531041D01*
X60173Y530903D01*
X60191Y530889D01*
X60205Y530872D01*
X60346Y530763D01*
X60486Y530650D01*
X60506Y530639D01*
X60523Y530626D01*
X60684Y530546D01*
X60843Y530463D01*
X60864Y530456D01*
X60884Y530446D01*
X61057Y530400D01*
X61229Y530350D01*
X61251Y530348D01*
X61273Y530342D01*
X61604Y530315D01*
X76135Y530315D01*
X76154Y530317D01*
X76178Y530315D01*
X76967Y530332D01*
X77695Y530030D01*
X77713Y530025D01*
X77735Y530014D01*
X78470Y529728D01*
X79028Y529171D01*
X79043Y529158D01*
X79059Y529140D01*
X97235Y511727D01*
X97243Y511721D01*
X97250Y511714D01*
X97400Y511598D01*
X97402Y511596D01*
X98077Y510921D01*
X98092Y510909D01*
X98109Y510890D01*
X98679Y510344D01*
X98980Y509616D01*
X98989Y509599D01*
X98997Y509576D01*
X99315Y508854D01*
X99315Y508065D01*
X99317Y508046D01*
X99315Y508022D01*
X99335Y507102D01*
X99315Y506855D01*
X99315Y494403D01*
X99316Y494394D01*
X99315Y494386D01*
X99336Y494194D01*
X99355Y494003D01*
X99357Y493994D01*
X99358Y493985D01*
X99416Y493803D01*
X99473Y493618D01*
X99477Y493610D01*
X99480Y493601D01*
X99573Y493433D01*
X99665Y493264D01*
X99670Y493257D01*
X99675Y493249D01*
X99800Y493101D01*
X99922Y492954D01*
X99929Y492949D01*
X99935Y492942D01*
X100087Y492822D01*
X100236Y492702D01*
X100244Y492698D01*
X100251Y492692D01*
X100423Y492605D01*
X100593Y492517D01*
X100602Y492514D01*
X100610Y492510D01*
X100796Y492458D01*
X100980Y492405D01*
X100989Y492405D01*
X100998Y492402D01*
X101190Y492388D01*
X101382Y492372D01*
X101390Y492373D01*
X101399Y492373D01*
X101592Y492397D01*
X101781Y492419D01*
X101790Y492422D01*
X101799Y492423D01*
X101982Y492485D01*
X102164Y492544D01*
X102172Y492549D01*
X102180Y492551D01*
X102346Y492647D01*
X102515Y492742D01*
X102522Y492748D01*
X102529Y492752D01*
X102782Y492967D01*
X103678Y493863D01*
X136522Y493863D01*
X137713Y492672D01*
X137713Y459828D01*
X136522Y458637D01*
X103678Y458637D01*
X102782Y459533D01*
X102775Y459539D01*
X102770Y459546D01*
X102619Y459667D01*
X102471Y459788D01*
X102463Y459792D01*
X102456Y459798D01*
X102286Y459886D01*
X102115Y459977D01*
X102106Y459979D01*
X102099Y459983D01*
X101914Y460036D01*
X101729Y460091D01*
X101720Y460092D01*
X101712Y460095D01*
X101521Y460110D01*
X101328Y460128D01*
X101319Y460127D01*
X101310Y460128D01*
X101121Y460105D01*
X100928Y460084D01*
X100919Y460082D01*
X100911Y460081D01*
X100729Y460021D01*
X100544Y459963D01*
X100536Y459959D01*
X100528Y459956D01*
X100361Y459862D01*
X100192Y459768D01*
X100185Y459762D01*
X100177Y459758D01*
X100032Y459633D01*
X99885Y459508D01*
X99879Y459501D01*
X99872Y459495D01*
X99756Y459344D01*
X99635Y459192D01*
X99631Y459184D01*
X99626Y459177D01*
X99541Y459006D01*
X99453Y458833D01*
X99450Y458824D01*
X99446Y458816D01*
X99397Y458631D01*
X99345Y458445D01*
X99344Y458436D01*
X99342Y458427D01*
X99315Y458097D01*
X99315Y402575D01*
X99317Y402548D01*
X99315Y402522D01*
X99337Y402348D01*
X99355Y402174D01*
X99362Y402149D01*
X99366Y402122D01*
X99421Y401957D01*
X99473Y401790D01*
X99486Y401766D01*
X99494Y401741D01*
X99581Y401589D01*
X99665Y401435D01*
X99682Y401415D01*
X99695Y401392D01*
X99910Y401139D01*
X115389Y385660D01*
X115409Y385643D01*
X115427Y385622D01*
X115565Y385515D01*
X115700Y385405D01*
X115724Y385392D01*
X115745Y385376D01*
X115902Y385298D01*
X116056Y385216D01*
X116081Y385208D01*
X116106Y385196D01*
X116275Y385151D01*
X116442Y385101D01*
X116468Y385099D01*
X116494Y385092D01*
X116825Y385065D01*
X175532Y385065D01*
X175571Y385069D01*
X175610Y385066D01*
X175771Y385089D01*
X175933Y385105D01*
X175970Y385116D01*
X176009Y385121D01*
X176162Y385175D01*
X176318Y385223D01*
X176352Y385241D01*
X176389Y385254D01*
X176529Y385337D01*
X176672Y385415D01*
X176702Y385439D01*
X176735Y385459D01*
X176962Y385656D01*
X176981Y385672D01*
X176983Y385675D01*
X176986Y385677D01*
X184950Y393834D01*
X184953Y393838D01*
X184957Y393842D01*
X185078Y393994D01*
X185201Y394148D01*
X185203Y394153D01*
X185207Y394158D01*
X185296Y394332D01*
X185385Y394506D01*
X185387Y394511D01*
X185389Y394517D01*
X185442Y394706D01*
X185495Y394893D01*
X185496Y394899D01*
X185497Y394904D01*
X185512Y395101D01*
X185527Y395295D01*
X185526Y395300D01*
X185527Y395306D01*
X185502Y395503D01*
X185479Y395694D01*
X185477Y395700D01*
X185476Y395705D01*
X185414Y395891D01*
X185353Y396077D01*
X185350Y396082D01*
X185348Y396087D01*
X185251Y396256D01*
X185154Y396427D01*
X185150Y396431D01*
X185147Y396436D01*
X184932Y396689D01*
X179685Y401936D01*
X179685Y410564D01*
X185786Y416665D01*
X194414Y416665D01*
X200515Y410564D01*
X200515Y401936D01*
X195160Y396581D01*
X195143Y396560D01*
X195122Y396543D01*
X195015Y396405D01*
X194905Y396270D01*
X194892Y396246D01*
X194876Y396225D01*
X194798Y396068D01*
X194716Y395914D01*
X194708Y395888D01*
X194696Y395864D01*
X194651Y395694D01*
X194601Y395528D01*
X194599Y395501D01*
X194592Y395475D01*
X194565Y395145D01*
X194565Y393736D01*
X194566Y393725D01*
X194565Y393712D01*
X194574Y392915D01*
X194270Y392179D01*
X194266Y392168D01*
X194260Y392156D01*
X193964Y391415D01*
X193401Y390852D01*
X193394Y390844D01*
X193384Y390835D01*
X181829Y379001D01*
X181817Y378986D01*
X181802Y378973D01*
X181739Y378890D01*
X181000Y378151D01*
X180993Y378143D01*
X180983Y378134D01*
X180426Y377564D01*
X179689Y377259D01*
X179680Y377253D01*
X179667Y377249D01*
X178934Y376935D01*
X178136Y376935D01*
X178125Y376934D01*
X178112Y376935D01*
X177078Y376923D01*
X176925Y376935D01*
G37*
%LPD*%
%LPC*%
G36*
X55105Y43617D02*
X55105Y43617D01*
X51325Y45183D01*
X48433Y48075D01*
X46867Y51855D01*
X46867Y55945D01*
X47756Y58091D01*
X47760Y58104D01*
X47766Y58115D01*
X47818Y58295D01*
X47872Y58476D01*
X47874Y58489D01*
X47877Y58502D01*
X47893Y58690D01*
X47910Y58877D01*
X47909Y58890D01*
X47910Y58904D01*
X47888Y59090D01*
X47869Y59277D01*
X47865Y59290D01*
X47863Y59303D01*
X47805Y59482D01*
X47749Y59662D01*
X47743Y59673D01*
X47738Y59686D01*
X47646Y59851D01*
X47556Y60015D01*
X47547Y60025D01*
X47541Y60037D01*
X47418Y60179D01*
X47297Y60323D01*
X47286Y60331D01*
X47277Y60342D01*
X47130Y60456D01*
X46982Y60574D01*
X46970Y60580D01*
X46959Y60588D01*
X46791Y60672D01*
X46624Y60758D01*
X46611Y60762D01*
X46599Y60768D01*
X46416Y60817D01*
X46236Y60868D01*
X46223Y60869D01*
X46210Y60872D01*
X45879Y60899D01*
X29150Y60899D01*
X29149Y60900D01*
X29149Y116900D01*
X29150Y116901D01*
X85150Y116901D01*
X85151Y116900D01*
X85151Y60900D01*
X85150Y60899D01*
X68421Y60899D01*
X68407Y60898D01*
X68394Y60899D01*
X68208Y60878D01*
X68020Y60859D01*
X68007Y60855D01*
X67994Y60854D01*
X67815Y60796D01*
X67635Y60741D01*
X67623Y60735D01*
X67611Y60731D01*
X67446Y60639D01*
X67281Y60549D01*
X67271Y60541D01*
X67259Y60534D01*
X67116Y60412D01*
X66972Y60292D01*
X66964Y60281D01*
X66953Y60273D01*
X66837Y60124D01*
X66720Y59978D01*
X66713Y59966D01*
X66705Y59956D01*
X66621Y59787D01*
X66534Y59621D01*
X66530Y59608D01*
X66524Y59596D01*
X66475Y59415D01*
X66423Y59234D01*
X66422Y59220D01*
X66418Y59207D01*
X66405Y59019D01*
X66390Y58832D01*
X66391Y58819D01*
X66390Y58806D01*
X66415Y58618D01*
X66437Y58433D01*
X66441Y58420D01*
X66443Y58407D01*
X66544Y58091D01*
X67433Y55945D01*
X67433Y51855D01*
X65867Y48075D01*
X62975Y45183D01*
X59195Y43617D01*
X55105Y43617D01*
G37*
%LPD*%
%LPC*%
G36*
X359905Y43617D02*
X359905Y43617D01*
X356125Y45183D01*
X353233Y48075D01*
X351667Y51855D01*
X351667Y55945D01*
X352556Y58091D01*
X352560Y58104D01*
X352566Y58115D01*
X352618Y58295D01*
X352672Y58476D01*
X352674Y58489D01*
X352677Y58502D01*
X352693Y58690D01*
X352710Y58877D01*
X352709Y58890D01*
X352710Y58904D01*
X352688Y59090D01*
X352669Y59277D01*
X352665Y59290D01*
X352663Y59303D01*
X352605Y59482D01*
X352549Y59662D01*
X352543Y59673D01*
X352538Y59686D01*
X352446Y59851D01*
X352356Y60015D01*
X352347Y60025D01*
X352341Y60037D01*
X352218Y60179D01*
X352097Y60323D01*
X352086Y60331D01*
X352077Y60342D01*
X351930Y60456D01*
X351782Y60574D01*
X351770Y60580D01*
X351759Y60588D01*
X351591Y60672D01*
X351424Y60758D01*
X351411Y60762D01*
X351399Y60768D01*
X351216Y60817D01*
X351036Y60868D01*
X351023Y60869D01*
X351010Y60872D01*
X350679Y60899D01*
X333950Y60899D01*
X333949Y60900D01*
X333949Y116900D01*
X333950Y116901D01*
X389950Y116901D01*
X389951Y116900D01*
X389951Y60900D01*
X389950Y60899D01*
X373221Y60899D01*
X373207Y60898D01*
X373194Y60899D01*
X373008Y60878D01*
X372820Y60859D01*
X372807Y60855D01*
X372794Y60854D01*
X372615Y60796D01*
X372435Y60741D01*
X372423Y60735D01*
X372411Y60731D01*
X372246Y60639D01*
X372081Y60549D01*
X372071Y60541D01*
X372059Y60534D01*
X371916Y60412D01*
X371772Y60292D01*
X371764Y60281D01*
X371753Y60273D01*
X371637Y60124D01*
X371520Y59978D01*
X371513Y59966D01*
X371505Y59956D01*
X371421Y59787D01*
X371334Y59621D01*
X371330Y59608D01*
X371324Y59596D01*
X371275Y59415D01*
X371223Y59234D01*
X371222Y59220D01*
X371218Y59207D01*
X371205Y59019D01*
X371190Y58832D01*
X371191Y58819D01*
X371190Y58806D01*
X371215Y58618D01*
X371237Y58433D01*
X371241Y58420D01*
X371243Y58407D01*
X371344Y58091D01*
X372233Y55945D01*
X372233Y51855D01*
X370667Y48075D01*
X367775Y45183D01*
X363995Y43617D01*
X359905Y43617D01*
G37*
%LPD*%
%LPC*%
G36*
X48755Y583367D02*
X48755Y583367D01*
X44975Y584933D01*
X42083Y587825D01*
X40517Y591605D01*
X40517Y595695D01*
X41406Y597841D01*
X41410Y597854D01*
X41416Y597865D01*
X41468Y598045D01*
X41522Y598226D01*
X41524Y598239D01*
X41527Y598252D01*
X41543Y598440D01*
X41560Y598627D01*
X41559Y598640D01*
X41560Y598654D01*
X41538Y598840D01*
X41519Y599027D01*
X41515Y599040D01*
X41513Y599053D01*
X41455Y599232D01*
X41399Y599412D01*
X41393Y599423D01*
X41388Y599436D01*
X41296Y599601D01*
X41206Y599765D01*
X41197Y599775D01*
X41191Y599787D01*
X41068Y599929D01*
X40947Y600073D01*
X40936Y600081D01*
X40927Y600092D01*
X40780Y600206D01*
X40632Y600324D01*
X40620Y600330D01*
X40609Y600338D01*
X40441Y600422D01*
X40274Y600508D01*
X40261Y600512D01*
X40249Y600518D01*
X40066Y600567D01*
X39886Y600618D01*
X39873Y600619D01*
X39860Y600622D01*
X39529Y600649D01*
X22800Y600649D01*
X22799Y600650D01*
X22799Y656650D01*
X22800Y656651D01*
X78800Y656651D01*
X78801Y656650D01*
X78801Y600650D01*
X78800Y600649D01*
X62071Y600649D01*
X62057Y600648D01*
X62044Y600649D01*
X61858Y600628D01*
X61670Y600609D01*
X61657Y600605D01*
X61644Y600604D01*
X61465Y600546D01*
X61285Y600491D01*
X61273Y600485D01*
X61261Y600481D01*
X61096Y600389D01*
X60931Y600299D01*
X60921Y600291D01*
X60909Y600284D01*
X60766Y600162D01*
X60622Y600042D01*
X60614Y600031D01*
X60603Y600023D01*
X60487Y599874D01*
X60370Y599728D01*
X60363Y599716D01*
X60355Y599706D01*
X60271Y599537D01*
X60184Y599371D01*
X60180Y599358D01*
X60174Y599346D01*
X60125Y599165D01*
X60073Y598984D01*
X60072Y598970D01*
X60068Y598957D01*
X60055Y598769D01*
X60040Y598582D01*
X60041Y598569D01*
X60040Y598556D01*
X60065Y598368D01*
X60087Y598183D01*
X60091Y598170D01*
X60093Y598157D01*
X60194Y597841D01*
X61083Y595695D01*
X61083Y591605D01*
X59517Y587825D01*
X56625Y584933D01*
X52845Y583367D01*
X48755Y583367D01*
G37*
%LPD*%
%LPC*%
G36*
X48755Y430967D02*
X48755Y430967D01*
X44975Y432533D01*
X42083Y435425D01*
X40517Y439205D01*
X40517Y443295D01*
X41406Y445441D01*
X41410Y445454D01*
X41416Y445465D01*
X41468Y445645D01*
X41522Y445826D01*
X41524Y445839D01*
X41527Y445852D01*
X41543Y446040D01*
X41560Y446227D01*
X41559Y446240D01*
X41560Y446254D01*
X41538Y446440D01*
X41519Y446627D01*
X41515Y446640D01*
X41513Y446653D01*
X41455Y446832D01*
X41399Y447012D01*
X41393Y447023D01*
X41388Y447036D01*
X41296Y447201D01*
X41206Y447365D01*
X41197Y447375D01*
X41191Y447387D01*
X41068Y447529D01*
X40947Y447673D01*
X40936Y447681D01*
X40927Y447692D01*
X40780Y447806D01*
X40632Y447924D01*
X40620Y447930D01*
X40609Y447938D01*
X40441Y448022D01*
X40274Y448108D01*
X40261Y448112D01*
X40249Y448118D01*
X40066Y448167D01*
X39886Y448218D01*
X39873Y448219D01*
X39860Y448222D01*
X39529Y448249D01*
X22800Y448249D01*
X22799Y448250D01*
X22799Y504250D01*
X22800Y504251D01*
X78800Y504251D01*
X78801Y504250D01*
X78801Y448250D01*
X78800Y448249D01*
X62071Y448249D01*
X62057Y448248D01*
X62044Y448249D01*
X61858Y448228D01*
X61670Y448209D01*
X61657Y448205D01*
X61644Y448204D01*
X61465Y448146D01*
X61285Y448091D01*
X61273Y448085D01*
X61261Y448081D01*
X61096Y447989D01*
X60931Y447899D01*
X60921Y447891D01*
X60909Y447884D01*
X60766Y447762D01*
X60622Y447642D01*
X60614Y447631D01*
X60603Y447623D01*
X60487Y447474D01*
X60370Y447328D01*
X60363Y447316D01*
X60355Y447306D01*
X60271Y447137D01*
X60184Y446971D01*
X60180Y446958D01*
X60174Y446946D01*
X60125Y446765D01*
X60073Y446584D01*
X60072Y446570D01*
X60068Y446557D01*
X60055Y446369D01*
X60040Y446182D01*
X60041Y446169D01*
X60040Y446156D01*
X60065Y445968D01*
X60087Y445783D01*
X60091Y445770D01*
X60093Y445757D01*
X60194Y445441D01*
X61083Y443295D01*
X61083Y439205D01*
X59517Y435425D01*
X56625Y432533D01*
X56552Y432503D01*
X52845Y430967D01*
X48755Y430967D01*
G37*
%LPD*%
%LPC*%
G36*
X142849Y405532D02*
X142849Y405532D01*
X142847Y405550D01*
X142849Y405567D01*
X142828Y405750D01*
X142809Y405932D01*
X142804Y405949D01*
X142802Y405967D01*
X142745Y406142D01*
X142714Y406242D01*
X142718Y406249D01*
X142765Y406427D01*
X142816Y406602D01*
X142818Y406620D01*
X142822Y406637D01*
X142849Y406968D01*
X142849Y417173D01*
X148817Y417173D01*
X149463Y417000D01*
X150042Y416665D01*
X150515Y416192D01*
X150850Y415613D01*
X151023Y414967D01*
X151023Y411805D01*
X151024Y411796D01*
X151023Y411787D01*
X151044Y411596D01*
X151063Y411405D01*
X151065Y411396D01*
X151066Y411387D01*
X151124Y411205D01*
X151181Y411020D01*
X151185Y411012D01*
X151188Y411003D01*
X151281Y410835D01*
X151373Y410666D01*
X151378Y410659D01*
X151383Y410651D01*
X151507Y410504D01*
X151630Y410356D01*
X151637Y410351D01*
X151643Y410344D01*
X151794Y410225D01*
X151944Y410104D01*
X151952Y410100D01*
X151959Y410094D01*
X152132Y410007D01*
X152301Y409919D01*
X152310Y409916D01*
X152318Y409912D01*
X152504Y409860D01*
X152688Y409807D01*
X152697Y409806D01*
X152706Y409804D01*
X152899Y409790D01*
X153090Y409774D01*
X153098Y409775D01*
X153107Y409775D01*
X153300Y409799D01*
X153489Y409821D01*
X153498Y409824D01*
X153507Y409825D01*
X153690Y409886D01*
X153872Y409946D01*
X153880Y409950D01*
X153888Y409953D01*
X154055Y410049D01*
X154223Y410144D01*
X154230Y410150D01*
X154237Y410154D01*
X154490Y410369D01*
X160440Y416319D01*
X160457Y416340D01*
X160478Y416357D01*
X160585Y416495D01*
X160695Y416630D01*
X160708Y416654D01*
X160724Y416675D01*
X160802Y416832D01*
X160884Y416986D01*
X160892Y417012D01*
X160904Y417036D01*
X160949Y417205D01*
X160999Y417372D01*
X161001Y417399D01*
X161008Y417425D01*
X161035Y417755D01*
X161035Y613425D01*
X161033Y613452D01*
X161035Y613478D01*
X161013Y613652D01*
X160995Y613826D01*
X160988Y613851D01*
X160984Y613878D01*
X160929Y614043D01*
X160877Y614210D01*
X160864Y614234D01*
X160856Y614259D01*
X160769Y614411D01*
X160685Y614565D01*
X160668Y614585D01*
X160655Y614608D01*
X160440Y614861D01*
X155304Y619998D01*
X154685Y621491D01*
X154685Y695859D01*
X154683Y695886D01*
X154685Y695912D01*
X154663Y696086D01*
X154645Y696260D01*
X154638Y696285D01*
X154634Y696312D01*
X154579Y696478D01*
X154527Y696645D01*
X154514Y696668D01*
X154506Y696694D01*
X154419Y696845D01*
X154335Y696999D01*
X154318Y697019D01*
X154305Y697042D01*
X154090Y697295D01*
X150113Y701273D01*
X150113Y708427D01*
X155173Y713487D01*
X162327Y713487D01*
X167387Y708427D01*
X167387Y701273D01*
X163410Y697295D01*
X163393Y697275D01*
X163372Y697257D01*
X163265Y697119D01*
X163155Y696984D01*
X163142Y696960D01*
X163126Y696939D01*
X163048Y696782D01*
X162966Y696628D01*
X162958Y696603D01*
X162946Y696579D01*
X162901Y696409D01*
X162851Y696242D01*
X162849Y696216D01*
X162842Y696190D01*
X162815Y695859D01*
X162815Y624825D01*
X162817Y624798D01*
X162815Y624772D01*
X162837Y624598D01*
X162855Y624424D01*
X162862Y624399D01*
X162866Y624372D01*
X162921Y624207D01*
X162973Y624040D01*
X162986Y624016D01*
X162994Y623991D01*
X163081Y623839D01*
X163165Y623685D01*
X163182Y623665D01*
X163195Y623642D01*
X163410Y623389D01*
X168546Y618252D01*
X169165Y616759D01*
X169165Y417755D01*
X169167Y417729D01*
X169165Y417702D01*
X169187Y417528D01*
X169205Y417355D01*
X169212Y417329D01*
X169216Y417303D01*
X169271Y417137D01*
X169323Y416970D01*
X169336Y416946D01*
X169344Y416921D01*
X169431Y416769D01*
X169515Y416616D01*
X169532Y416595D01*
X169545Y416572D01*
X169760Y416319D01*
X175515Y410564D01*
X175515Y401936D01*
X169414Y395835D01*
X160786Y395835D01*
X154490Y402131D01*
X154483Y402137D01*
X154478Y402144D01*
X154328Y402264D01*
X154179Y402386D01*
X154171Y402390D01*
X154164Y402396D01*
X153994Y402484D01*
X153823Y402575D01*
X153814Y402577D01*
X153807Y402581D01*
X153622Y402635D01*
X153437Y402690D01*
X153428Y402690D01*
X153420Y402693D01*
X153228Y402708D01*
X153036Y402726D01*
X153027Y402725D01*
X153018Y402726D01*
X152829Y402704D01*
X152636Y402683D01*
X152627Y402680D01*
X152619Y402679D01*
X152437Y402619D01*
X152252Y402561D01*
X152244Y402557D01*
X152236Y402554D01*
X152067Y402459D01*
X151900Y402366D01*
X151893Y402360D01*
X151885Y402356D01*
X151739Y402230D01*
X151593Y402106D01*
X151587Y402099D01*
X151580Y402093D01*
X151463Y401941D01*
X151343Y401790D01*
X151339Y401782D01*
X151334Y401775D01*
X151248Y401603D01*
X151161Y401431D01*
X151158Y401422D01*
X151154Y401414D01*
X151104Y401228D01*
X151053Y401043D01*
X151052Y401034D01*
X151050Y401025D01*
X151023Y400695D01*
X151023Y397533D01*
X150850Y396887D01*
X150515Y396308D01*
X150042Y395835D01*
X149463Y395500D01*
X148817Y395327D01*
X142849Y395327D01*
X142849Y405532D01*
G37*
%LPD*%
%LPC*%
G36*
X48755Y668367D02*
X48755Y668367D01*
X44975Y669933D01*
X42083Y672825D01*
X40517Y676605D01*
X40517Y680695D01*
X42083Y684475D01*
X44975Y687367D01*
X45481Y687577D01*
X45501Y687587D01*
X45522Y687594D01*
X45678Y687683D01*
X45836Y687767D01*
X45853Y687781D01*
X45873Y687792D01*
X46009Y687909D01*
X46147Y688023D01*
X46161Y688041D01*
X46178Y688055D01*
X46287Y688196D01*
X46400Y688336D01*
X46411Y688356D01*
X46424Y688373D01*
X46504Y688534D01*
X46587Y688693D01*
X46594Y688714D01*
X46604Y688734D01*
X46650Y688907D01*
X46700Y689079D01*
X46702Y689101D01*
X46708Y689123D01*
X46735Y689454D01*
X46735Y699309D01*
X47354Y700802D01*
X61198Y714646D01*
X62691Y715265D01*
X137175Y715265D01*
X137202Y715267D01*
X137228Y715265D01*
X137402Y715287D01*
X137576Y715305D01*
X137601Y715312D01*
X137628Y715316D01*
X137793Y715371D01*
X137960Y715423D01*
X137984Y715436D01*
X138009Y715444D01*
X138161Y715531D01*
X138315Y715615D01*
X138335Y715632D01*
X138358Y715645D01*
X138611Y715860D01*
X149518Y726767D01*
X149535Y726787D01*
X149556Y726805D01*
X149663Y726943D01*
X149773Y727078D01*
X149786Y727102D01*
X149802Y727123D01*
X149880Y727280D01*
X149962Y727434D01*
X149970Y727459D01*
X149982Y727484D01*
X150027Y727653D01*
X150077Y727820D01*
X150079Y727846D01*
X150086Y727872D01*
X150113Y728203D01*
X150113Y733827D01*
X155173Y738887D01*
X162327Y738887D01*
X167387Y733827D01*
X167387Y726673D01*
X162327Y721613D01*
X156703Y721613D01*
X156676Y721611D01*
X156650Y721613D01*
X156476Y721591D01*
X156302Y721573D01*
X156277Y721566D01*
X156250Y721562D01*
X156085Y721507D01*
X155918Y721455D01*
X155894Y721442D01*
X155869Y721434D01*
X155717Y721347D01*
X155563Y721263D01*
X155543Y721246D01*
X155520Y721233D01*
X155267Y721018D01*
X142002Y707754D01*
X140509Y707135D01*
X66025Y707135D01*
X65998Y707133D01*
X65972Y707135D01*
X65798Y707113D01*
X65624Y707095D01*
X65599Y707088D01*
X65572Y707084D01*
X65407Y707029D01*
X65240Y706977D01*
X65216Y706964D01*
X65191Y706956D01*
X65039Y706869D01*
X64885Y706785D01*
X64865Y706768D01*
X64842Y706755D01*
X64589Y706540D01*
X55460Y697411D01*
X55443Y697391D01*
X55422Y697373D01*
X55315Y697235D01*
X55205Y697100D01*
X55192Y697076D01*
X55176Y697055D01*
X55098Y696898D01*
X55016Y696744D01*
X55008Y696719D01*
X54996Y696694D01*
X54951Y696525D01*
X54901Y696358D01*
X54899Y696332D01*
X54892Y696306D01*
X54865Y695975D01*
X54865Y689454D01*
X54867Y689431D01*
X54865Y689409D01*
X54887Y689232D01*
X54905Y689053D01*
X54911Y689032D01*
X54914Y689009D01*
X54970Y688840D01*
X55023Y688668D01*
X55033Y688648D01*
X55040Y688627D01*
X55129Y688472D01*
X55215Y688314D01*
X55229Y688297D01*
X55240Y688277D01*
X55358Y688142D01*
X55472Y688005D01*
X55490Y687991D01*
X55504Y687974D01*
X55647Y687864D01*
X55786Y687752D01*
X55806Y687742D01*
X55824Y687728D01*
X56119Y687577D01*
X56625Y687367D01*
X59517Y684475D01*
X61083Y680695D01*
X61083Y676605D01*
X59517Y672825D01*
X56625Y669933D01*
X52845Y668367D01*
X48755Y668367D01*
G37*
%LPD*%
%LPC*%
G36*
X275823Y835913D02*
X275823Y835913D01*
X271845Y839890D01*
X271825Y839907D01*
X271807Y839928D01*
X271669Y840035D01*
X271534Y840145D01*
X271510Y840158D01*
X271489Y840174D01*
X271332Y840252D01*
X271178Y840334D01*
X271153Y840342D01*
X271129Y840354D01*
X270959Y840399D01*
X270792Y840449D01*
X270766Y840451D01*
X270740Y840458D01*
X270409Y840485D01*
X247698Y840485D01*
X247684Y840484D01*
X247666Y840485D01*
X246872Y840473D01*
X246139Y840776D01*
X246125Y840781D01*
X246109Y840788D01*
X245371Y841081D01*
X244810Y841642D01*
X244799Y841651D01*
X244787Y841664D01*
X232556Y853522D01*
X232544Y853531D01*
X232534Y853543D01*
X232425Y853627D01*
X231709Y854343D01*
X231698Y854352D01*
X231686Y854365D01*
X231117Y854917D01*
X230813Y855651D01*
X230806Y855664D01*
X230800Y855680D01*
X230485Y856409D01*
X230485Y857203D01*
X230484Y857216D01*
X230485Y857228D01*
X230485Y857230D01*
X230485Y857234D01*
X230470Y858223D01*
X230485Y858414D01*
X230485Y896395D01*
X230483Y896421D01*
X230485Y896448D01*
X230463Y896622D01*
X230445Y896795D01*
X230438Y896821D01*
X230434Y896848D01*
X230378Y897013D01*
X230327Y897180D01*
X230314Y897204D01*
X230306Y897229D01*
X230219Y897381D01*
X230135Y897534D01*
X230118Y897555D01*
X230105Y897578D01*
X229890Y897831D01*
X224135Y903586D01*
X224135Y912214D01*
X230236Y918315D01*
X238864Y918315D01*
X244965Y912214D01*
X244965Y903586D01*
X239210Y897831D01*
X239193Y897810D01*
X239172Y897793D01*
X239065Y897655D01*
X238955Y897520D01*
X238942Y897496D01*
X238926Y897475D01*
X238848Y897318D01*
X238766Y897164D01*
X238758Y897138D01*
X238746Y897114D01*
X238701Y896945D01*
X238651Y896778D01*
X238649Y896751D01*
X238642Y896725D01*
X238615Y896395D01*
X238615Y859831D01*
X238619Y859788D01*
X238617Y859746D01*
X238639Y859588D01*
X238655Y859430D01*
X238667Y859389D01*
X238673Y859347D01*
X238726Y859197D01*
X238773Y859045D01*
X238793Y859008D01*
X238807Y858968D01*
X238889Y858831D01*
X238965Y858691D01*
X238992Y858658D01*
X239014Y858622D01*
X239194Y858416D01*
X239222Y858382D01*
X239227Y858378D01*
X239232Y858372D01*
X248706Y849188D01*
X248715Y849181D01*
X248722Y849172D01*
X248872Y849056D01*
X249021Y848937D01*
X249031Y848932D01*
X249040Y848926D01*
X249210Y848841D01*
X249380Y848754D01*
X249391Y848751D01*
X249400Y848746D01*
X249585Y848697D01*
X249768Y848646D01*
X249778Y848645D01*
X249789Y848642D01*
X250120Y848615D01*
X270409Y848615D01*
X270436Y848617D01*
X270462Y848615D01*
X270636Y848637D01*
X270810Y848655D01*
X270835Y848662D01*
X270862Y848666D01*
X271028Y848721D01*
X271195Y848773D01*
X271218Y848786D01*
X271244Y848794D01*
X271395Y848881D01*
X271549Y848965D01*
X271569Y848982D01*
X271592Y848995D01*
X271845Y849210D01*
X275823Y853187D01*
X282977Y853187D01*
X288037Y848127D01*
X288037Y840973D01*
X282977Y835913D01*
X275823Y835913D01*
G37*
%LPD*%
%LPC*%
G36*
X352428Y661837D02*
X352428Y661837D01*
X351237Y663028D01*
X351237Y695872D01*
X352428Y697063D01*
X385272Y697063D01*
X386463Y695872D01*
X386463Y663028D01*
X385272Y661837D01*
X352428Y661837D01*
G37*
%LPD*%
%LPC*%
G36*
X200028Y71287D02*
X200028Y71287D01*
X198837Y72478D01*
X198837Y105322D01*
X200028Y106513D01*
X232872Y106513D01*
X234063Y105322D01*
X234063Y72478D01*
X232872Y71287D01*
X200028Y71287D01*
G37*
%LPD*%
%LPC*%
G36*
X110028Y71287D02*
X110028Y71287D01*
X108837Y72478D01*
X108837Y105322D01*
X110028Y106513D01*
X142872Y106513D01*
X144063Y105322D01*
X144063Y72478D01*
X142872Y71287D01*
X110028Y71287D01*
G37*
%LPD*%
%LPC*%
G36*
X262428Y661837D02*
X262428Y661837D01*
X261237Y663028D01*
X261237Y695872D01*
X262428Y697063D01*
X295272Y697063D01*
X296463Y695872D01*
X296463Y663028D01*
X295272Y661837D01*
X262428Y661837D01*
G37*
%LPD*%
%LPC*%
G36*
X193678Y458637D02*
X193678Y458637D01*
X192487Y459828D01*
X192487Y492672D01*
X193678Y493863D01*
X226522Y493863D01*
X227713Y492672D01*
X227713Y459828D01*
X226522Y458637D01*
X193678Y458637D01*
G37*
%LPD*%
%LPC*%
G36*
X187299Y907182D02*
X187299Y907182D01*
X187297Y907200D01*
X187299Y907217D01*
X187278Y907400D01*
X187259Y907582D01*
X187254Y907599D01*
X187252Y907617D01*
X187195Y907792D01*
X187164Y907892D01*
X187168Y907899D01*
X187215Y908077D01*
X187266Y908252D01*
X187268Y908270D01*
X187272Y908287D01*
X187299Y908618D01*
X187299Y918823D01*
X193267Y918823D01*
X193913Y918650D01*
X194492Y918315D01*
X194965Y917842D01*
X195300Y917263D01*
X195473Y916617D01*
X195473Y913455D01*
X195474Y913446D01*
X195473Y913437D01*
X195494Y913244D01*
X195513Y913055D01*
X195515Y913046D01*
X195516Y913037D01*
X195574Y912853D01*
X195631Y912670D01*
X195635Y912662D01*
X195638Y912653D01*
X195731Y912485D01*
X195823Y912316D01*
X195828Y912309D01*
X195833Y912301D01*
X195957Y912154D01*
X196080Y912006D01*
X196087Y912001D01*
X196093Y911994D01*
X196244Y911875D01*
X196394Y911754D01*
X196402Y911750D01*
X196409Y911744D01*
X196582Y911657D01*
X196751Y911569D01*
X196760Y911566D01*
X196768Y911562D01*
X196954Y911510D01*
X197138Y911457D01*
X197147Y911456D01*
X197156Y911454D01*
X197349Y911440D01*
X197540Y911424D01*
X197548Y911425D01*
X197557Y911425D01*
X197750Y911449D01*
X197939Y911471D01*
X197948Y911474D01*
X197957Y911475D01*
X198140Y911536D01*
X198322Y911596D01*
X198330Y911600D01*
X198338Y911603D01*
X198505Y911699D01*
X198673Y911794D01*
X198680Y911800D01*
X198687Y911804D01*
X198940Y912019D01*
X205236Y918315D01*
X213864Y918315D01*
X219965Y912214D01*
X219965Y903586D01*
X213864Y897485D01*
X205236Y897485D01*
X198940Y903781D01*
X198933Y903787D01*
X198928Y903794D01*
X198778Y903914D01*
X198629Y904036D01*
X198621Y904040D01*
X198614Y904046D01*
X198444Y904134D01*
X198273Y904225D01*
X198264Y904227D01*
X198257Y904231D01*
X198072Y904285D01*
X197887Y904340D01*
X197878Y904340D01*
X197870Y904343D01*
X197678Y904358D01*
X197486Y904376D01*
X197477Y904375D01*
X197468Y904376D01*
X197279Y904354D01*
X197086Y904333D01*
X197077Y904330D01*
X197069Y904329D01*
X196887Y904269D01*
X196702Y904211D01*
X196694Y904207D01*
X196686Y904204D01*
X196517Y904109D01*
X196350Y904016D01*
X196343Y904010D01*
X196335Y904006D01*
X196189Y903880D01*
X196043Y903756D01*
X196037Y903749D01*
X196030Y903743D01*
X195913Y903591D01*
X195793Y903440D01*
X195789Y903432D01*
X195784Y903425D01*
X195698Y903253D01*
X195611Y903081D01*
X195608Y903072D01*
X195604Y903064D01*
X195554Y902878D01*
X195503Y902693D01*
X195502Y902684D01*
X195500Y902675D01*
X195473Y902345D01*
X195473Y899183D01*
X195300Y898537D01*
X194965Y897958D01*
X194492Y897485D01*
X193913Y897150D01*
X193267Y896977D01*
X187299Y896977D01*
X187299Y907182D01*
G37*
%LPD*%
%LPC*%
G36*
X267737Y507872D02*
X267737Y507872D01*
X260222Y515387D01*
X260222Y526013D01*
X267737Y533528D01*
X278363Y533528D01*
X285878Y526013D01*
X285878Y515387D01*
X278363Y507872D01*
X267737Y507872D01*
G37*
%LPD*%
%LPC*%
G36*
X369337Y507872D02*
X369337Y507872D01*
X361822Y515387D01*
X361822Y526013D01*
X369337Y533528D01*
X379963Y533528D01*
X387478Y526013D01*
X387478Y515387D01*
X379963Y507872D01*
X369337Y507872D01*
G37*
%LPD*%
%LPC*%
G36*
X289626Y599035D02*
X289626Y599035D01*
X288435Y600226D01*
X288435Y618674D01*
X289626Y619865D01*
X308074Y619865D01*
X309265Y618674D01*
X309265Y600226D01*
X308074Y599035D01*
X289626Y599035D01*
G37*
%LPD*%
%LPC*%
G36*
X344536Y599035D02*
X344536Y599035D01*
X338435Y605136D01*
X338435Y613764D01*
X344536Y619865D01*
X353164Y619865D01*
X359265Y613764D01*
X359265Y605136D01*
X353164Y599035D01*
X344536Y599035D01*
G37*
%LPD*%
%LPC*%
G36*
X359905Y128617D02*
X359905Y128617D01*
X356125Y130183D01*
X353233Y133075D01*
X351667Y136855D01*
X351667Y140945D01*
X353233Y144725D01*
X356125Y147617D01*
X358121Y148444D01*
X359905Y149183D01*
X363995Y149183D01*
X367775Y147617D01*
X370667Y144725D01*
X372233Y140945D01*
X372233Y136855D01*
X370667Y133075D01*
X367775Y130183D01*
X363995Y128617D01*
X359905Y128617D01*
G37*
%LPD*%
%LPC*%
G36*
X55105Y128617D02*
X55105Y128617D01*
X51325Y130183D01*
X48433Y133075D01*
X46867Y136855D01*
X46867Y140945D01*
X48433Y144725D01*
X51325Y147617D01*
X53321Y148444D01*
X55105Y149183D01*
X59195Y149183D01*
X62975Y147617D01*
X65867Y144725D01*
X67433Y140945D01*
X67433Y136855D01*
X65867Y133075D01*
X62975Y130183D01*
X59195Y128617D01*
X55105Y128617D01*
G37*
%LPD*%
%LPC*%
G36*
X21589Y288289D02*
X21589Y288289D01*
X21589Y295911D01*
X27470Y295911D01*
X29049Y295661D01*
X30570Y295166D01*
X31995Y294440D01*
X33289Y293500D01*
X34420Y292369D01*
X35360Y291075D01*
X36086Y289650D01*
X36529Y288289D01*
X21589Y288289D01*
G37*
%LPD*%
%LPC*%
G36*
X382571Y745489D02*
X382571Y745489D01*
X383014Y746850D01*
X383740Y748275D01*
X384680Y749569D01*
X385811Y750700D01*
X387105Y751640D01*
X388530Y752366D01*
X390051Y752861D01*
X391630Y753111D01*
X397511Y753111D01*
X397511Y745489D01*
X382571Y745489D01*
G37*
%LPD*%
%LPC*%
G36*
X21589Y275589D02*
X21589Y275589D01*
X21589Y283211D01*
X36529Y283211D01*
X36086Y281850D01*
X35360Y280425D01*
X34420Y279131D01*
X33289Y278000D01*
X31995Y277060D01*
X30570Y276334D01*
X29049Y275839D01*
X27470Y275589D01*
X21589Y275589D01*
G37*
%LPD*%
%LPC*%
G36*
X391630Y732789D02*
X391630Y732789D01*
X390051Y733039D01*
X388530Y733534D01*
X387105Y734260D01*
X385811Y735200D01*
X384680Y736331D01*
X383740Y737625D01*
X383014Y739050D01*
X382571Y740411D01*
X397511Y740411D01*
X397511Y732789D01*
X391630Y732789D01*
G37*
%LPD*%
%LPC*%
G36*
X129177Y408999D02*
X129177Y408999D01*
X129177Y414967D01*
X129350Y415613D01*
X129685Y416192D01*
X130158Y416665D01*
X130737Y417000D01*
X131383Y417173D01*
X137351Y417173D01*
X137351Y408999D01*
X129177Y408999D01*
G37*
%LPD*%
%LPC*%
G36*
X173627Y910649D02*
X173627Y910649D01*
X173627Y916617D01*
X173800Y917263D01*
X174135Y917842D01*
X174608Y918315D01*
X175187Y918650D01*
X175833Y918823D01*
X181801Y918823D01*
X181801Y910649D01*
X173627Y910649D01*
G37*
%LPD*%
%LPC*%
G36*
X135527Y21649D02*
X135527Y21649D01*
X135527Y27617D01*
X135700Y28263D01*
X136035Y28842D01*
X136508Y29315D01*
X137087Y29650D01*
X137733Y29823D01*
X143701Y29823D01*
X143701Y21649D01*
X135527Y21649D01*
G37*
%LPD*%
%LPC*%
G36*
X175833Y896977D02*
X175833Y896977D01*
X175187Y897150D01*
X174608Y897485D01*
X174135Y897958D01*
X173800Y898537D01*
X173627Y899183D01*
X173627Y905151D01*
X181801Y905151D01*
X181801Y896977D01*
X175833Y896977D01*
G37*
%LPD*%
%LPC*%
G36*
X131383Y395327D02*
X131383Y395327D01*
X130737Y395500D01*
X130158Y395835D01*
X129685Y396308D01*
X129350Y396887D01*
X129177Y397533D01*
X129177Y403501D01*
X137351Y403501D01*
X137351Y395327D01*
X131383Y395327D01*
G37*
%LPD*%
%LPC*%
G36*
X53549Y413999D02*
X53549Y413999D01*
X53549Y421703D01*
X54942Y421250D01*
X56456Y420479D01*
X57830Y419481D01*
X59031Y418280D01*
X60029Y416906D01*
X60800Y415392D01*
X61253Y413999D01*
X53549Y413999D01*
G37*
%LPD*%
%LPC*%
G36*
X53549Y566399D02*
X53549Y566399D01*
X53549Y574103D01*
X54942Y573650D01*
X56456Y572879D01*
X57830Y571881D01*
X59031Y570680D01*
X60029Y569306D01*
X60800Y567792D01*
X61253Y566399D01*
X53549Y566399D01*
G37*
%LPD*%
%LPC*%
G36*
X59899Y26649D02*
X59899Y26649D01*
X59899Y34353D01*
X61292Y33900D01*
X62806Y33129D01*
X64180Y32131D01*
X65381Y30930D01*
X66379Y29556D01*
X67150Y28042D01*
X67603Y26649D01*
X59899Y26649D01*
G37*
%LPD*%
%LPC*%
G36*
X364699Y26649D02*
X364699Y26649D01*
X364699Y34353D01*
X366092Y33900D01*
X367606Y33129D01*
X368980Y32131D01*
X370181Y30930D01*
X371179Y29556D01*
X371950Y28042D01*
X372403Y26649D01*
X364699Y26649D01*
G37*
%LPD*%
%LPC*%
G36*
X40347Y413999D02*
X40347Y413999D01*
X40800Y415392D01*
X41571Y416906D01*
X42569Y418280D01*
X43770Y419481D01*
X45144Y420479D01*
X46658Y421250D01*
X48051Y421703D01*
X48051Y413999D01*
X40347Y413999D01*
G37*
%LPD*%
%LPC*%
G36*
X40347Y566399D02*
X40347Y566399D01*
X40800Y567792D01*
X41571Y569306D01*
X42569Y570680D01*
X43770Y571881D01*
X45144Y572879D01*
X46658Y573650D01*
X48051Y574103D01*
X48051Y566399D01*
X40347Y566399D01*
G37*
%LPD*%
%LPC*%
G36*
X53549Y408501D02*
X53549Y408501D01*
X61253Y408501D01*
X60800Y407108D01*
X60029Y405594D01*
X59031Y404220D01*
X57830Y403019D01*
X56456Y402021D01*
X54942Y401250D01*
X53549Y400797D01*
X53549Y408501D01*
G37*
%LPD*%
%LPC*%
G36*
X53549Y560901D02*
X53549Y560901D01*
X61253Y560901D01*
X60800Y559508D01*
X60029Y557994D01*
X59031Y556620D01*
X57830Y555419D01*
X56456Y554421D01*
X54942Y553650D01*
X53549Y553197D01*
X53549Y560901D01*
G37*
%LPD*%
%LPC*%
G36*
X351497Y26649D02*
X351497Y26649D01*
X351950Y28042D01*
X352721Y29556D01*
X353719Y30930D01*
X354920Y32131D01*
X356294Y33129D01*
X357808Y33900D01*
X359201Y34353D01*
X359201Y26649D01*
X351497Y26649D01*
G37*
%LPD*%
%LPC*%
G36*
X46697Y26649D02*
X46697Y26649D01*
X47150Y28042D01*
X47921Y29556D01*
X48919Y30930D01*
X50120Y32131D01*
X51494Y33129D01*
X53008Y33900D01*
X54401Y34353D01*
X54401Y26649D01*
X46697Y26649D01*
G37*
%LPD*%
%LPC*%
G36*
X46658Y401250D02*
X46658Y401250D01*
X45144Y402021D01*
X43770Y403019D01*
X42569Y404220D01*
X41571Y405594D01*
X40800Y407108D01*
X40347Y408501D01*
X48051Y408501D01*
X48051Y400797D01*
X46658Y401250D01*
G37*
%LPD*%
%LPC*%
G36*
X46658Y553650D02*
X46658Y553650D01*
X45144Y554421D01*
X43770Y555419D01*
X42569Y556620D01*
X41571Y557994D01*
X40800Y559508D01*
X40347Y560901D01*
X48051Y560901D01*
X48051Y553197D01*
X46658Y553650D01*
G37*
%LPD*%
D10*
X215900Y298450D03*
X215900Y374650D03*
D11*
X392430Y844550D02*
X407670Y844550D01*
X407670Y819150D02*
X392430Y819150D01*
X392430Y793750D02*
X407670Y793750D01*
X407670Y768350D02*
X392430Y768350D01*
X392430Y742950D02*
X407670Y742950D01*
D12*
X279400Y844550D03*
X355600Y844550D03*
D13*
X57150Y138900D03*
X57150Y53900D03*
X57150Y23900D03*
X50800Y526250D03*
X50800Y441250D03*
X50800Y411250D03*
X50800Y678650D03*
X50800Y593650D03*
X50800Y563650D03*
X361950Y138900D03*
X361950Y53900D03*
X361950Y23900D03*
D14*
X184550Y907900D03*
D15*
X209550Y907900D03*
X234550Y907900D03*
D16*
X254550Y977900D03*
X164550Y977900D03*
D14*
X298850Y609450D03*
D15*
X323850Y609450D03*
X348850Y609450D03*
D16*
X368850Y679450D03*
X278850Y679450D03*
D14*
X140100Y406250D03*
D15*
X165100Y406250D03*
X190100Y406250D03*
D16*
X210100Y476250D03*
X120100Y476250D03*
D14*
X146450Y18900D03*
D15*
X171450Y18900D03*
X196450Y18900D03*
D16*
X216450Y88900D03*
X126450Y88900D03*
D17*
X234950Y704850D03*
X158750Y704850D03*
X234950Y730250D03*
X158750Y730250D03*
D11*
X26670Y361950D02*
X11430Y361950D01*
X11430Y336550D02*
X26670Y336550D01*
X26670Y311150D02*
X11430Y311150D01*
X11430Y285750D02*
X26670Y285750D01*
D18*
X374650Y520700D03*
X323850Y520700D03*
X273050Y520700D03*
D19*
X355600Y844550D02*
X400050Y844550D01*
D20*
X368300Y254000D03*
X342900Y292100D03*
X38100Y787400D03*
X69850Y939800D03*
X190500Y501650D03*
X133350Y203200D03*
X50800Y203200D03*
X336550Y704850D03*
X336550Y933450D03*
D19*
X400050Y819150D02*
X273050Y819150D01*
X215900Y762000D01*
X215900Y654050D01*
X241300Y628650D01*
X241300Y387350D01*
X228600Y374650D01*
X215900Y374650D01*
X234550Y857250D02*
X234550Y907900D01*
X234550Y857250D02*
X247650Y844550D01*
X279400Y844550D01*
X190100Y406250D02*
X190500Y400050D01*
X190500Y393700D01*
X178100Y381000D01*
X114300Y381000D01*
X95250Y400050D01*
X95250Y508000D01*
X76200Y526250D01*
X50800Y526250D01*
X165100Y425300D02*
X165100Y406250D01*
X158750Y622300D02*
X158750Y704850D01*
X158750Y622300D02*
X165100Y615950D01*
X165100Y425300D01*
X50800Y698500D02*
X63500Y711200D01*
X139700Y711200D01*
X158750Y730250D01*
X50800Y698500D02*
X50800Y678650D01*
X215900Y298450D02*
X215900Y273050D01*
X171450Y228600D01*
X171450Y18900D01*
X234950Y704850D02*
X234950Y730250D01*
X298450Y793750D01*
X400050Y793750D01*
X323850Y609450D02*
X323850Y520700D01*
X44450Y311150D02*
X19050Y311150D01*
X44450Y311150D02*
X57150Y323850D01*
X266700Y323850D01*
X323850Y381000D01*
X323850Y520700D01*
M02*
