G04 EAGLE Gerber RS-274X export*
G75*
%MOMM*%
%FSLAX34Y34*%
%LPD*%
%INBoard Outline*%
%IPPOS*%
%AMOC8*
5,1,8,0,0,1.08239X$1,22.5*%
G01*
%ADD10C,0.000000*%


D10*
X0Y0D02*
X0Y996950D01*
X0Y0D02*
X419100Y0D01*
X419100Y996950D02*
X0Y996950D01*
X419100Y844550D02*
X419100Y0D01*
X419100Y539750D02*
X419100Y996950D01*
X22098Y857250D02*
X22103Y857643D01*
X22117Y858035D01*
X22141Y858427D01*
X22175Y858818D01*
X22218Y859209D01*
X22271Y859598D01*
X22334Y859986D01*
X22405Y860372D01*
X22487Y860756D01*
X22578Y861138D01*
X22678Y861518D01*
X22787Y861895D01*
X22906Y862270D01*
X23033Y862641D01*
X23170Y863009D01*
X23316Y863374D01*
X23471Y863735D01*
X23634Y864092D01*
X23807Y864445D01*
X23987Y864793D01*
X24177Y865137D01*
X24375Y865477D01*
X24581Y865811D01*
X24795Y866140D01*
X25017Y866464D01*
X25247Y866782D01*
X25485Y867095D01*
X25730Y867402D01*
X25983Y867702D01*
X26243Y867996D01*
X26511Y868284D01*
X26785Y868565D01*
X27066Y868839D01*
X27354Y869107D01*
X27648Y869367D01*
X27948Y869620D01*
X28255Y869865D01*
X28568Y870103D01*
X28886Y870333D01*
X29210Y870555D01*
X29539Y870769D01*
X29873Y870975D01*
X30213Y871173D01*
X30557Y871363D01*
X30905Y871543D01*
X31258Y871716D01*
X31615Y871879D01*
X31976Y872034D01*
X32341Y872180D01*
X32709Y872317D01*
X33080Y872444D01*
X33455Y872563D01*
X33832Y872672D01*
X34212Y872772D01*
X34594Y872863D01*
X34978Y872945D01*
X35364Y873016D01*
X35752Y873079D01*
X36141Y873132D01*
X36532Y873175D01*
X36923Y873209D01*
X37315Y873233D01*
X37707Y873247D01*
X38100Y873252D01*
X38493Y873247D01*
X38885Y873233D01*
X39277Y873209D01*
X39668Y873175D01*
X40059Y873132D01*
X40448Y873079D01*
X40836Y873016D01*
X41222Y872945D01*
X41606Y872863D01*
X41988Y872772D01*
X42368Y872672D01*
X42745Y872563D01*
X43120Y872444D01*
X43491Y872317D01*
X43859Y872180D01*
X44224Y872034D01*
X44585Y871879D01*
X44942Y871716D01*
X45295Y871543D01*
X45643Y871363D01*
X45987Y871173D01*
X46327Y870975D01*
X46661Y870769D01*
X46990Y870555D01*
X47314Y870333D01*
X47632Y870103D01*
X47945Y869865D01*
X48252Y869620D01*
X48552Y869367D01*
X48846Y869107D01*
X49134Y868839D01*
X49415Y868565D01*
X49689Y868284D01*
X49957Y867996D01*
X50217Y867702D01*
X50470Y867402D01*
X50715Y867095D01*
X50953Y866782D01*
X51183Y866464D01*
X51405Y866140D01*
X51619Y865811D01*
X51825Y865477D01*
X52023Y865137D01*
X52213Y864793D01*
X52393Y864445D01*
X52566Y864092D01*
X52729Y863735D01*
X52884Y863374D01*
X53030Y863009D01*
X53167Y862641D01*
X53294Y862270D01*
X53413Y861895D01*
X53522Y861518D01*
X53622Y861138D01*
X53713Y860756D01*
X53795Y860372D01*
X53866Y859986D01*
X53929Y859598D01*
X53982Y859209D01*
X54025Y858818D01*
X54059Y858427D01*
X54083Y858035D01*
X54097Y857643D01*
X54102Y857250D01*
X54097Y856857D01*
X54083Y856465D01*
X54059Y856073D01*
X54025Y855682D01*
X53982Y855291D01*
X53929Y854902D01*
X53866Y854514D01*
X53795Y854128D01*
X53713Y853744D01*
X53622Y853362D01*
X53522Y852982D01*
X53413Y852605D01*
X53294Y852230D01*
X53167Y851859D01*
X53030Y851491D01*
X52884Y851126D01*
X52729Y850765D01*
X52566Y850408D01*
X52393Y850055D01*
X52213Y849707D01*
X52023Y849363D01*
X51825Y849023D01*
X51619Y848689D01*
X51405Y848360D01*
X51183Y848036D01*
X50953Y847718D01*
X50715Y847405D01*
X50470Y847098D01*
X50217Y846798D01*
X49957Y846504D01*
X49689Y846216D01*
X49415Y845935D01*
X49134Y845661D01*
X48846Y845393D01*
X48552Y845133D01*
X48252Y844880D01*
X47945Y844635D01*
X47632Y844397D01*
X47314Y844167D01*
X46990Y843945D01*
X46661Y843731D01*
X46327Y843525D01*
X45987Y843327D01*
X45643Y843137D01*
X45295Y842957D01*
X44942Y842784D01*
X44585Y842621D01*
X44224Y842466D01*
X43859Y842320D01*
X43491Y842183D01*
X43120Y842056D01*
X42745Y841937D01*
X42368Y841828D01*
X41988Y841728D01*
X41606Y841637D01*
X41222Y841555D01*
X40836Y841484D01*
X40448Y841421D01*
X40059Y841368D01*
X39668Y841325D01*
X39277Y841291D01*
X38885Y841267D01*
X38493Y841253D01*
X38100Y841248D01*
X37707Y841253D01*
X37315Y841267D01*
X36923Y841291D01*
X36532Y841325D01*
X36141Y841368D01*
X35752Y841421D01*
X35364Y841484D01*
X34978Y841555D01*
X34594Y841637D01*
X34212Y841728D01*
X33832Y841828D01*
X33455Y841937D01*
X33080Y842056D01*
X32709Y842183D01*
X32341Y842320D01*
X31976Y842466D01*
X31615Y842621D01*
X31258Y842784D01*
X30905Y842957D01*
X30557Y843137D01*
X30213Y843327D01*
X29873Y843525D01*
X29539Y843731D01*
X29210Y843945D01*
X28886Y844167D01*
X28568Y844397D01*
X28255Y844635D01*
X27948Y844880D01*
X27648Y845133D01*
X27354Y845393D01*
X27066Y845661D01*
X26785Y845935D01*
X26511Y846216D01*
X26243Y846504D01*
X25983Y846798D01*
X25730Y847098D01*
X25485Y847405D01*
X25247Y847718D01*
X25017Y848036D01*
X24795Y848360D01*
X24581Y848689D01*
X24375Y849023D01*
X24177Y849363D01*
X23987Y849707D01*
X23807Y850055D01*
X23634Y850408D01*
X23471Y850765D01*
X23316Y851126D01*
X23170Y851491D01*
X23033Y851859D01*
X22906Y852230D01*
X22787Y852605D01*
X22678Y852982D01*
X22578Y853362D01*
X22487Y853744D01*
X22405Y854128D01*
X22334Y854514D01*
X22271Y854902D01*
X22218Y855291D01*
X22175Y855682D01*
X22141Y856073D01*
X22117Y856465D01*
X22103Y856857D01*
X22098Y857250D01*
X364998Y184150D02*
X365003Y184543D01*
X365017Y184935D01*
X365041Y185327D01*
X365075Y185718D01*
X365118Y186109D01*
X365171Y186498D01*
X365234Y186886D01*
X365305Y187272D01*
X365387Y187656D01*
X365478Y188038D01*
X365578Y188418D01*
X365687Y188795D01*
X365806Y189170D01*
X365933Y189541D01*
X366070Y189909D01*
X366216Y190274D01*
X366371Y190635D01*
X366534Y190992D01*
X366707Y191345D01*
X366887Y191693D01*
X367077Y192037D01*
X367275Y192377D01*
X367481Y192711D01*
X367695Y193040D01*
X367917Y193364D01*
X368147Y193682D01*
X368385Y193995D01*
X368630Y194302D01*
X368883Y194602D01*
X369143Y194896D01*
X369411Y195184D01*
X369685Y195465D01*
X369966Y195739D01*
X370254Y196007D01*
X370548Y196267D01*
X370848Y196520D01*
X371155Y196765D01*
X371468Y197003D01*
X371786Y197233D01*
X372110Y197455D01*
X372439Y197669D01*
X372773Y197875D01*
X373113Y198073D01*
X373457Y198263D01*
X373805Y198443D01*
X374158Y198616D01*
X374515Y198779D01*
X374876Y198934D01*
X375241Y199080D01*
X375609Y199217D01*
X375980Y199344D01*
X376355Y199463D01*
X376732Y199572D01*
X377112Y199672D01*
X377494Y199763D01*
X377878Y199845D01*
X378264Y199916D01*
X378652Y199979D01*
X379041Y200032D01*
X379432Y200075D01*
X379823Y200109D01*
X380215Y200133D01*
X380607Y200147D01*
X381000Y200152D01*
X381393Y200147D01*
X381785Y200133D01*
X382177Y200109D01*
X382568Y200075D01*
X382959Y200032D01*
X383348Y199979D01*
X383736Y199916D01*
X384122Y199845D01*
X384506Y199763D01*
X384888Y199672D01*
X385268Y199572D01*
X385645Y199463D01*
X386020Y199344D01*
X386391Y199217D01*
X386759Y199080D01*
X387124Y198934D01*
X387485Y198779D01*
X387842Y198616D01*
X388195Y198443D01*
X388543Y198263D01*
X388887Y198073D01*
X389227Y197875D01*
X389561Y197669D01*
X389890Y197455D01*
X390214Y197233D01*
X390532Y197003D01*
X390845Y196765D01*
X391152Y196520D01*
X391452Y196267D01*
X391746Y196007D01*
X392034Y195739D01*
X392315Y195465D01*
X392589Y195184D01*
X392857Y194896D01*
X393117Y194602D01*
X393370Y194302D01*
X393615Y193995D01*
X393853Y193682D01*
X394083Y193364D01*
X394305Y193040D01*
X394519Y192711D01*
X394725Y192377D01*
X394923Y192037D01*
X395113Y191693D01*
X395293Y191345D01*
X395466Y190992D01*
X395629Y190635D01*
X395784Y190274D01*
X395930Y189909D01*
X396067Y189541D01*
X396194Y189170D01*
X396313Y188795D01*
X396422Y188418D01*
X396522Y188038D01*
X396613Y187656D01*
X396695Y187272D01*
X396766Y186886D01*
X396829Y186498D01*
X396882Y186109D01*
X396925Y185718D01*
X396959Y185327D01*
X396983Y184935D01*
X396997Y184543D01*
X397002Y184150D01*
X396997Y183757D01*
X396983Y183365D01*
X396959Y182973D01*
X396925Y182582D01*
X396882Y182191D01*
X396829Y181802D01*
X396766Y181414D01*
X396695Y181028D01*
X396613Y180644D01*
X396522Y180262D01*
X396422Y179882D01*
X396313Y179505D01*
X396194Y179130D01*
X396067Y178759D01*
X395930Y178391D01*
X395784Y178026D01*
X395629Y177665D01*
X395466Y177308D01*
X395293Y176955D01*
X395113Y176607D01*
X394923Y176263D01*
X394725Y175923D01*
X394519Y175589D01*
X394305Y175260D01*
X394083Y174936D01*
X393853Y174618D01*
X393615Y174305D01*
X393370Y173998D01*
X393117Y173698D01*
X392857Y173404D01*
X392589Y173116D01*
X392315Y172835D01*
X392034Y172561D01*
X391746Y172293D01*
X391452Y172033D01*
X391152Y171780D01*
X390845Y171535D01*
X390532Y171297D01*
X390214Y171067D01*
X389890Y170845D01*
X389561Y170631D01*
X389227Y170425D01*
X388887Y170227D01*
X388543Y170037D01*
X388195Y169857D01*
X387842Y169684D01*
X387485Y169521D01*
X387124Y169366D01*
X386759Y169220D01*
X386391Y169083D01*
X386020Y168956D01*
X385645Y168837D01*
X385268Y168728D01*
X384888Y168628D01*
X384506Y168537D01*
X384122Y168455D01*
X383736Y168384D01*
X383348Y168321D01*
X382959Y168268D01*
X382568Y168225D01*
X382177Y168191D01*
X381785Y168167D01*
X381393Y168153D01*
X381000Y168148D01*
X380607Y168153D01*
X380215Y168167D01*
X379823Y168191D01*
X379432Y168225D01*
X379041Y168268D01*
X378652Y168321D01*
X378264Y168384D01*
X377878Y168455D01*
X377494Y168537D01*
X377112Y168628D01*
X376732Y168728D01*
X376355Y168837D01*
X375980Y168956D01*
X375609Y169083D01*
X375241Y169220D01*
X374876Y169366D01*
X374515Y169521D01*
X374158Y169684D01*
X373805Y169857D01*
X373457Y170037D01*
X373113Y170227D01*
X372773Y170425D01*
X372439Y170631D01*
X372110Y170845D01*
X371786Y171067D01*
X371468Y171297D01*
X371155Y171535D01*
X370848Y171780D01*
X370548Y172033D01*
X370254Y172293D01*
X369966Y172561D01*
X369685Y172835D01*
X369411Y173116D01*
X369143Y173404D01*
X368883Y173698D01*
X368630Y173998D01*
X368385Y174305D01*
X368147Y174618D01*
X367917Y174936D01*
X367695Y175260D01*
X367481Y175589D01*
X367275Y175923D01*
X367077Y176263D01*
X366887Y176607D01*
X366707Y176955D01*
X366534Y177308D01*
X366371Y177665D01*
X366216Y178026D01*
X366070Y178391D01*
X365933Y178759D01*
X365806Y179130D01*
X365687Y179505D01*
X365578Y179882D01*
X365478Y180262D01*
X365387Y180644D01*
X365305Y181028D01*
X365234Y181414D01*
X365171Y181802D01*
X365118Y182191D01*
X365075Y182582D01*
X365041Y182973D01*
X365017Y183365D01*
X365003Y183757D01*
X364998Y184150D01*
M02*
