G04 EAGLE Gerber RS-274X export*
G75*
%MOMM*%
%FSLAX34Y34*%
%LPD*%
%IN*%
%IPPOS*%
%AMOC8*
5,1,8,0,0,1.08239X$1,22.5*%
G01*
%ADD10C,0.254000*%


D10*
X0Y0D02*
X996950Y0D01*
X996950Y419100D01*
X0Y419100D01*
X0Y0D01*
X155702Y380476D02*
X155633Y379431D01*
X155497Y378392D01*
X155292Y377364D01*
X155021Y376352D01*
X154684Y375360D01*
X154283Y374392D01*
X153820Y373453D01*
X153296Y372545D01*
X152714Y371674D01*
X152076Y370843D01*
X151386Y370055D01*
X150645Y369314D01*
X149857Y368624D01*
X149026Y367986D01*
X148155Y367404D01*
X147247Y366880D01*
X146308Y366417D01*
X145340Y366016D01*
X144348Y365679D01*
X143336Y365408D01*
X142308Y365203D01*
X141269Y365067D01*
X140224Y364998D01*
X139176Y364998D01*
X138131Y365067D01*
X137092Y365203D01*
X136064Y365408D01*
X135052Y365679D01*
X134060Y366016D01*
X133092Y366417D01*
X132153Y366880D01*
X131245Y367404D01*
X130374Y367986D01*
X129543Y368624D01*
X128755Y369314D01*
X128014Y370055D01*
X127324Y370843D01*
X126686Y371674D01*
X126104Y372545D01*
X125580Y373453D01*
X125117Y374392D01*
X124716Y375360D01*
X124379Y376352D01*
X124108Y377364D01*
X123903Y378392D01*
X123767Y379431D01*
X123698Y380476D01*
X123698Y381524D01*
X123767Y382569D01*
X123903Y383608D01*
X124108Y384636D01*
X124379Y385648D01*
X124716Y386640D01*
X125117Y387608D01*
X125580Y388547D01*
X126104Y389455D01*
X126686Y390326D01*
X127324Y391157D01*
X128014Y391945D01*
X128755Y392686D01*
X129543Y393376D01*
X130374Y394014D01*
X131245Y394596D01*
X132153Y395120D01*
X133092Y395583D01*
X134060Y395984D01*
X135052Y396321D01*
X136064Y396592D01*
X137092Y396797D01*
X138131Y396933D01*
X139176Y397002D01*
X140224Y397002D01*
X141269Y396933D01*
X142308Y396797D01*
X143336Y396592D01*
X144348Y396321D01*
X145340Y395984D01*
X146308Y395583D01*
X147247Y395120D01*
X148155Y394596D01*
X149026Y394014D01*
X149857Y393376D01*
X150645Y392686D01*
X151386Y391945D01*
X152076Y391157D01*
X152714Y390326D01*
X153296Y389455D01*
X153820Y388547D01*
X154283Y387608D01*
X154684Y386640D01*
X155021Y385648D01*
X155292Y384636D01*
X155497Y383608D01*
X155633Y382569D01*
X155702Y381524D01*
X155702Y380476D01*
X828802Y37576D02*
X828733Y36531D01*
X828597Y35492D01*
X828392Y34464D01*
X828121Y33452D01*
X827784Y32460D01*
X827383Y31492D01*
X826920Y30553D01*
X826396Y29645D01*
X825814Y28774D01*
X825176Y27943D01*
X824486Y27155D01*
X823745Y26414D01*
X822957Y25724D01*
X822126Y25086D01*
X821255Y24504D01*
X820347Y23980D01*
X819408Y23517D01*
X818440Y23116D01*
X817448Y22779D01*
X816436Y22508D01*
X815408Y22303D01*
X814369Y22167D01*
X813324Y22098D01*
X812276Y22098D01*
X811231Y22167D01*
X810192Y22303D01*
X809164Y22508D01*
X808152Y22779D01*
X807160Y23116D01*
X806192Y23517D01*
X805253Y23980D01*
X804345Y24504D01*
X803474Y25086D01*
X802643Y25724D01*
X801855Y26414D01*
X801114Y27155D01*
X800424Y27943D01*
X799786Y28774D01*
X799204Y29645D01*
X798680Y30553D01*
X798217Y31492D01*
X797816Y32460D01*
X797479Y33452D01*
X797208Y34464D01*
X797003Y35492D01*
X796867Y36531D01*
X796798Y37576D01*
X796798Y38624D01*
X796867Y39669D01*
X797003Y40708D01*
X797208Y41736D01*
X797479Y42748D01*
X797816Y43740D01*
X798217Y44708D01*
X798680Y45647D01*
X799204Y46555D01*
X799786Y47426D01*
X800424Y48257D01*
X801114Y49045D01*
X801855Y49786D01*
X802643Y50476D01*
X803474Y51114D01*
X804345Y51696D01*
X805253Y52220D01*
X806192Y52683D01*
X807160Y53084D01*
X808152Y53421D01*
X809164Y53692D01*
X810192Y53897D01*
X811231Y54033D01*
X812276Y54102D01*
X813324Y54102D01*
X814369Y54033D01*
X815408Y53897D01*
X816436Y53692D01*
X817448Y53421D01*
X818440Y53084D01*
X819408Y52683D01*
X820347Y52220D01*
X821255Y51696D01*
X822126Y51114D01*
X822957Y50476D01*
X823745Y49786D01*
X824486Y49045D01*
X825176Y48257D01*
X825814Y47426D01*
X826396Y46555D01*
X826920Y45647D01*
X827383Y44708D01*
X827784Y43740D01*
X828121Y42748D01*
X828392Y41736D01*
X828597Y40708D01*
X828733Y39669D01*
X828802Y38624D01*
X828802Y37576D01*
M02*
