M48
;GenerationSoftware,Autodesk,EAGLE,9.6.2*%
;CreationDate,2022-05-18T20:16:14Z*%
FMAT,2
ICI,OFF
METRIC,TZ,000.000
T7C0.600
T6C0.700
T5C0.813
T4C0.914
T3C1.016
T2C1.321
T1C3.200
%
G90
M71
T1
X81280Y3810
X13970Y38100
T2
X92075Y12700
X97155Y12700
X94615Y2540
X92075Y39370
X97155Y39370
X94615Y29210
T3
X15240Y1905
X17780Y1905
X20320Y1905
X22860Y1905
X25400Y1905
X63500Y40005
X66040Y40005
X68580Y40005
X71120Y40005
T4
X3810Y26035
X6350Y26035
X3810Y23495
X6350Y23495
X3810Y20955
X6350Y20955
X3810Y18415
X6350Y18415
X3810Y15875
X6350Y15875
T5
X36195Y30607
X45720Y28575
X17780Y6985
X17780Y12065
X25400Y10160
X25400Y12700
X25400Y7620
X59690Y18415
X59690Y23495
X58420Y6985
X60960Y6985
X58420Y4445
X58420Y9525
X3810Y37465
X6350Y37465
X6350Y4445
X3810Y4445
X72390Y23495
X72390Y18415
X67310Y28575
X67310Y36195
X53340Y24765
X50800Y24765
X48260Y24765
X45720Y24765
X43180Y24765
X40640Y24765
X38100Y24765
X38100Y17145
X40640Y17145
X43180Y17145
X45720Y17145
X48260Y17145
X50800Y17145
X53340Y17145
X80010Y33655
X80010Y38735
X80010Y36195
X80010Y23495
X80010Y28575
X80010Y26035
X85090Y38735
X85090Y33655
X85090Y36195
X85090Y28575
X85090Y23495
X85090Y26035
X80010Y13335
X80010Y18415
X80010Y15875
X85090Y18415
X85090Y13335
X85090Y15875
X80010Y10795
X85090Y10795
X80010Y20955
X85090Y20955
X80010Y31115
X85090Y31115
X54610Y32385
X52070Y32385
X40640Y5715
X40640Y13335
X73660Y40005
X73660Y32385
X76200Y32385
X76200Y40005
X76200Y18415
X76200Y26035
X53340Y13335
X53340Y5715
X45720Y36195
X26670Y37465
X67310Y5715
X67310Y13335
X64770Y28575
X64770Y36195
X43180Y28575
X43180Y33655
X48260Y28575
X48260Y36195
X69850Y36195
X36195Y34163
X90170Y24130
X90170Y16510
X92710Y16510
X92710Y24130
X62230Y28575
X62230Y36195
X48260Y5715
X48260Y13335
X26670Y40005
X41275Y38735
X43815Y38735
X26670Y29845
X69850Y28575
X26670Y34925
X29210Y36195
X29210Y28575
X64770Y5715
X64770Y13335
X34290Y4445
X34290Y9525
X29210Y3175
X29210Y10795
X31750Y10795
X31750Y3175
X30480Y24765
X27940Y24765
X25400Y24765
X22860Y24765
X20320Y24765
X17780Y24765
X15240Y24765
X15240Y17145
X17780Y17145
X20320Y17145
X22860Y17145
X25400Y17145
X27940Y17145
X30480Y17145
X21590Y36195
X21590Y28575
X24130Y36195
X24130Y28575
X20955Y6350
X20955Y13970
X17780Y36195
X17780Y28575
X14605Y6350
X14605Y13970
X12065Y13970
X12065Y6350
X38100Y5715
X38100Y13335
T6
X69850Y17145
X67310Y17145
X64770Y17145
X62230Y24765
X64770Y24765
X67310Y24765
X69850Y24765
X62230Y17145
T7
X74930Y27940
X74295Y11430
X49530Y38735
X97790Y4445
X27305Y5715
X55880Y3175
X55880Y13335
X73660Y1905
X48260Y1905
X21590Y22225
X1905Y7620
X1905Y34925
X27940Y8890
X44450Y6985
X60960Y3175
X37465Y40005
X55880Y29845
X52070Y20955
X91440Y31115
X86360Y3810
X44450Y10160
X45720Y33655
X62230Y8255
X54610Y8255
X63500Y3175
X87630Y29845
X57150Y20955
X57150Y24765
X53340Y29845
X72390Y29845
X59690Y32385
X49530Y32385
X76835Y3810
X57150Y31115
X93345Y26670
X43180Y4445
X33020Y20955
X33020Y27305
X69850Y8890
X94615Y40005
X43180Y20955
X34290Y24765
X34290Y14605
X58420Y28575
X62230Y32385
X40640Y29845
M30